<?xml version="1.0" encoding="UTF-8"?>
<svg width="816px" height="257px" viewBox="0 0 816 257" version="1.1" xmlns="http://www.w3.org/2000/svg" xmlns:xlink="http://www.w3.org/1999/xlink">
    <!-- Generator: Sketch 46.2 (44496) - http://www.bohemiancoding.com/sketch -->
    <title>Artboard</title>
    <desc>Created with Sketch.</desc>
    <defs></defs>
    <g id="Page-1" stroke="none" stroke-width="1" fill="none" fill-rule="evenodd">
        <g id="Artboard">
            <g id="Group-2" transform="translate(0.000000, 7.000000)">
                <polygon id="Shape" fill="#E0E7EE" fill-rule="nonzero" points="0 22 240 22 240 102 0 102"></polygon>
                <polygon id="Shape" fill="#AFB8C1" fill-rule="nonzero" points="0.44 22 80.5419956 22 80.5419956 61 0.44 61"></polygon>
                <polygon id="Shape" fill="#AFB8C1" fill-rule="nonzero" points="7.05802221e-16 22 80.1019956 22 80.1019956 78 0 78"></polygon>
                <polygon id="Shape" fill="#919BA5" fill-rule="nonzero" points="80 22 160 22 160 48 80 48"></polygon>
                <polygon id="Shape" fill="#919BA5" fill-rule="nonzero" points="79.56 22 159.56 22 159.56 61 79.56 61"></polygon>
                <path d="M6.76,2.464 C6.57262202,2.42492843 6.38288042,2.39820426 6.192,2.384 C5.9605866,2.36305746 5.72835879,2.35238031 5.496,2.352 C5.251,2.352 5.053,2.389 4.904,2.464 C4.75989014,2.53383279 4.64005455,2.64530775 4.56,2.784 C4.47337744,2.94473538 4.42158631,3.12191556 4.408,3.304 C4.387,3.512 4.376,3.744 4.376,4 L5.576,4 L5.576,5.76 L4.376,5.76 L4.376,12 L2.296,12 L2.296,5.76 L1.192,5.76 L1.192,4 L2.296,4 L2.296,3.552 C2.296,2.549 2.539,1.805 3.024,1.32 C3.509,0.835 4.344,0.592 5.528,0.592 C5.773,0.592 6.056,0.602 6.376,0.624 C6.696,0.645 7.013,0.669 7.328,0.696 C7.643,0.723 7.936,0.752 8.208,0.784 C8.48,0.816 8.691,0.848 8.84,0.88 L8.84,9.312 C8.84,9.685 8.888,9.957 8.984,10.128 C9.07087111,10.2931666 9.24559884,10.393011 9.432,10.384 C9.56,10.384 9.685,10.374 9.808,10.352 C9.931,10.331 10.083,10.282 10.264,10.208 L10.504,11.84 C10.334,11.925 10.069,12.01 9.712,12.096 C9.35295669,12.1815349 8.98509088,12.2244974 8.616,12.224 C8.008,12.224 7.546,12.083 7.232,11.8 C6.917,11.517 6.76,11.05 6.76,10.4 L6.76,2.464 Z M17.889,11.312 C17.569,11.568 17.134,11.784 16.585,11.96 C16.0183007,12.1386537 15.4271812,12.2277265 14.833,12.224 C13.543,12.224 12.598,11.848 12.001,11.096 C11.404,10.344 11.105,9.312 11.105,8 C11.105,6.592 11.441,5.536 12.113,4.832 C12.785,4.128 13.729,3.776 14.945,3.776 C15.35,3.776 15.745,3.829 16.129,3.936 C16.513,4.043 16.854,4.219 17.153,4.464 C17.452,4.709 17.692,5.04 17.873,5.456 C18.054,5.872 18.145,6.389 18.145,7.008 C18.145,7.232 18.132,7.472 18.105,7.728 C18.0764995,7.99626524 18.0364625,8.26317906 17.985,8.528 L13.185,8.528 C13.217,9.2 13.39,9.707 13.705,10.048 C14.02,10.389 14.529,10.56 15.233,10.56 C15.67,10.56 16.063,10.493 16.409,10.36 C16.756,10.227 17.019,10.09 17.201,9.952 L17.889,11.312 L17.889,11.312 Z M14.913,5.44 C14.369,5.44 13.966,5.603 13.705,5.928 C13.444,6.253 13.286,6.688 13.233,7.232 L16.209,7.232 C16.252,6.656 16.164,6.213 15.945,5.904 C15.726,5.594 15.382,5.44 14.913,5.44 Z M21.178,7.904 L18.778,4 L21.258,4 L22.298,5.712 L22.746,6.832 L23.226,5.712 L24.314,4 L26.57,4 L24.154,7.84 L26.73,12 L24.314,12 L23.082,10.08 L22.602,8.896 L22.09,10.08 L20.858,12 L18.586,12 L21.178,7.904 L21.178,7.904 Z M27.203,6.48 L31.219,6.48 L31.219,8.32 L27.203,8.32 L27.203,6.48 Z M36.412,9.792 C36.4158513,9.58580916 36.3130132,9.39223156 36.14,9.28 C35.9303822,9.13704744 35.7048715,9.01892281 35.468,8.928 C35.201,8.821 34.908,8.712 34.588,8.6 C34.2729416,8.49060599 33.97625,8.33416856 33.708,8.136 C33.4360062,7.93274966 33.2075064,7.67704757 33.036,7.384 C32.854,7.08 32.764,6.688 32.764,6.208 C32.764,5.418 32.998,4.816 33.468,4.4 C33.937,3.984 34.614,3.776 35.5,3.776 C36.108,3.776 36.657,3.84 37.148,3.968 C37.638,4.096 38.022,4.24 38.3,4.4 L37.836,5.904 C37.5314982,5.78847226 37.2218368,5.68703143 36.908,5.6 C36.5386589,5.4938984 36.156279,5.44004208 35.772,5.44 C35.152,5.44 34.844,5.68 34.844,6.16 C34.844,6.352 34.934,6.507 35.116,6.624 C35.296,6.741 35.521,6.851 35.788,6.952 C36.054,7.053 36.348,7.162 36.668,7.28 C36.988,7.397 37.281,7.55 37.548,7.736 C37.814,7.923 38.038,8.166 38.22,8.464 C38.4,8.763 38.492,9.147 38.492,9.616 C38.492,10.426 38.232,11.064 37.716,11.528 C37.198,11.992 36.422,12.224 35.388,12.224 C34.849784,12.2277245 34.3137662,12.1549985 33.796,12.008 C33.3,11.864 32.896,11.696 32.588,11.504 L33.164,9.952 C33.409,10.091 33.734,10.227 34.14,10.36 C34.545,10.493 34.96,10.56 35.388,10.56 C35.697,10.56 35.945,10.501 36.132,10.384 C36.318,10.267 36.412,10.069 36.412,9.792 L36.412,9.792 Z M39.108,4 L40.212,4 L40.212,2.496 L42.292,1.904 L42.292,4 L44.244,4 L44.244,5.76 L42.292,5.76 L42.292,8.832 C42.292,9.387 42.348,9.784 42.46,10.024 C42.572,10.264 42.783,10.384 43.092,10.384 C43.306,10.384 43.49,10.363 43.644,10.32 C43.8217323,10.2686105 43.9955183,10.2044433 44.164,10.128 L44.532,11.728 C44.2087543,11.8790849 43.8710287,11.9970208 43.524,12.08 C43.1420507,12.1757465 42.7497673,12.2241102 42.356,12.224 C41.62,12.224 41.079,12.034 40.732,11.656 C40.386,11.277 40.212,10.656 40.212,9.792 L40.212,5.76 L39.108,5.76 L39.108,4 Z M45.565,4.464 C46.0522708,4.25357479 46.5623656,4.10054635 47.085,4.008 C47.6916706,3.89415455 48.3077435,3.83790441 48.925,3.84 C49.48,3.84 49.944,3.907 50.317,4.04 C50.691,4.173 50.987,4.363 51.205,4.608 C51.424,4.853 51.579,5.147 51.669,5.488 C51.76,5.829 51.805,6.213 51.805,6.64 C51.805,7.11 51.789,7.581 51.757,8.056 C51.725,8.531 51.707,8.997 51.701,9.456 C51.696,9.915 51.709,10.36 51.741,10.792 C51.773,11.224 51.853,11.632 51.981,12.016 L50.285,12.016 L49.949,10.912 L49.869,10.912 C49.656,11.242 49.36,11.528 48.981,11.768 C48.603,12.008 48.115,12.128 47.517,12.128 C47.144,12.128 46.808,12.072 46.509,11.96 C46.2222471,11.8554733 45.9606123,11.6919516 45.741,11.48 C45.5271004,11.2711458 45.3582916,11.0206552 45.245,10.744 C45.1239041,10.4414427 45.064081,10.1178542 45.069,9.792 C45.069,9.302 45.179,8.888 45.397,8.552 C45.616,8.216 45.931,7.944 46.341,7.736 C46.752,7.528 47.243,7.384 47.813,7.304 C48.4467811,7.22146868 49.0868068,7.1973673 49.725,7.232 C49.8,6.635 49.757,6.205 49.597,5.944 C49.437,5.683 49.08,5.552 48.525,5.552 C48.109,5.552 47.669,5.595 47.205,5.68 C46.741,5.765 46.36,5.877 46.061,6.016 L45.565,4.464 L45.565,4.464 Z M48.205,10.416 C48.621,10.416 48.952,10.323 49.197,10.136 C49.443,9.949 49.624,9.749 49.741,9.536 L49.741,8.496 C49.4246622,8.46422812 49.1062268,8.45887627 48.789,8.48 C48.485,8.501 48.216,8.55 47.981,8.624 C47.7713438,8.68414706 47.5792598,8.79390934 47.421,8.944 C47.2817995,9.08377156 47.206529,9.27484271 47.213,9.472 C47.213,9.771 47.301,10.002 47.477,10.168 C47.653,10.333 47.896,10.416 48.205,10.416 Z M58.055,5.952 C57.7681227,5.8429653 57.4648087,5.78345219 57.158,5.776 C56.785,5.776 56.473,5.875 56.222,6.072 C55.9755604,6.26354112 55.7985563,6.53045205 55.718,6.832 L55.718,12 L53.638,12 L53.638,4 L55.254,4 L55.494,5.056 L55.558,5.056 C55.74,4.661 55.985,4.357 56.294,4.144 C56.604,3.931 56.966,3.824 57.382,3.824 C57.66,3.824 57.974,3.883 58.326,4 L58.054,5.952 L58.055,5.952 Z M58.99,4 L60.094,4 L60.094,2.496 L62.174,1.904 L62.174,4 L64.126,4 L64.126,5.76 L62.174,5.76 L62.174,8.832 C62.174,9.387 62.23,9.784 62.342,10.024 C62.454,10.264 62.665,10.384 62.974,10.384 C63.187,10.384 63.371,10.363 63.526,10.32 C63.7037323,10.2686105 63.8775183,10.2044433 64.046,10.128 L64.414,11.728 C64.0907543,11.8790849 63.7530287,11.9970208 63.406,12.08 C63.0240507,12.1757465 62.6317673,12.2241102 62.238,12.224 C61.502,12.224 60.961,12.034 60.614,11.656 C60.267,11.277 60.094,10.656 60.094,9.792 L60.094,5.76 L58.99,5.76 L58.99,4 Z" id="Shape" fill="#2B2B2B" fill-rule="nonzero"></path>
                <polygon id="Shape" fill="#E0E7EE" fill-rule="nonzero" points="279 22 519 22 519 102 279 102"></polygon>
                <polygon id="Shape" fill="#7D8793" fill-rule="nonzero" points="439 22 519 22 519 102 439 102"></polygon>
                <path d="M284.76,2.464 C284.572622,2.42492843 284.38288,2.39820426 284.192,2.384 C283.960587,2.36305746 283.728359,2.35238031 283.496,2.352 C283.251,2.352 283.053,2.389 282.904,2.464 C282.75989,2.53383279 282.640055,2.64530775 282.56,2.784 C282.473377,2.94473538 282.421586,3.12191556 282.408,3.304 C282.387,3.512 282.376,3.744 282.376,4 L283.576,4 L283.576,5.76 L282.376,5.76 L282.376,12 L280.296,12 L280.296,5.76 L279.192,5.76 L279.192,4 L280.296,4 L280.296,3.552 C280.296,2.549 280.539,1.805 281.024,1.32 C281.509,0.835 282.344,0.592 283.528,0.592 C283.773,0.592 284.056,0.602 284.376,0.624 C284.696,0.645 285.013,0.669 285.328,0.696 C285.643,0.723 285.936,0.752 286.208,0.784 C286.48,0.816 286.691,0.848 286.84,0.88 L286.84,9.312 C286.84,9.685 286.888,9.957 286.984,10.128 C287.070871,10.2931666 287.245599,10.393011 287.432,10.384 C287.56,10.384 287.685,10.374 287.808,10.352 C287.931,10.331 288.083,10.282 288.264,10.208 L288.504,11.84 C288.334,11.925 288.069,12.01 287.712,12.096 C287.352957,12.1815349 286.985091,12.2244974 286.616,12.224 C286.008,12.224 285.546,12.083 285.232,11.8 C284.917,11.517 284.76,11.05 284.76,10.4 L284.76,2.464 L284.76,2.464 Z M295.889,11.312 C295.569,11.568 295.134,11.784 294.585,11.96 C294.018301,12.1386537 293.427181,12.2277265 292.833,12.224 C291.543,12.224 290.598,11.848 290.001,11.096 C289.404,10.344 289.105,9.312 289.105,8 C289.105,6.592 289.441,5.536 290.113,4.832 C290.785,4.128 291.729,3.776 292.945,3.776 C293.35,3.776 293.745,3.829 294.129,3.936 C294.513,4.043 294.854,4.219 295.153,4.464 C295.452,4.709 295.692,5.04 295.873,5.456 C296.054,5.872 296.145,6.389 296.145,7.008 C296.145,7.232 296.132,7.472 296.105,7.728 C296.0765,7.99626524 296.036462,8.26317906 295.985,8.528 L291.185,8.528 C291.217,9.2 291.39,9.707 291.705,10.048 C292.02,10.389 292.529,10.56 293.233,10.56 C293.67,10.56 294.063,10.493 294.409,10.36 C294.756,10.227 295.019,10.09 295.201,9.952 L295.889,11.312 L295.889,11.312 Z M292.913,5.44 C292.369,5.44 291.966,5.603 291.705,5.928 C291.444,6.253 291.286,6.688 291.233,7.232 L294.209,7.232 C294.252,6.656 294.164,6.213 293.945,5.904 C293.726,5.594 293.382,5.44 292.913,5.44 Z M299.178,7.904 L296.778,4 L299.258,4 L300.298,5.712 L300.746,6.832 L301.226,5.712 L302.314,4 L304.57,4 L302.154,7.84 L304.73,12 L302.314,12 L301.082,10.08 L300.602,8.896 L300.09,10.08 L298.858,12 L296.586,12 L299.178,7.904 L299.178,7.904 Z M305.203,6.48 L309.219,6.48 L309.219,8.32 L305.203,8.32 L305.203,6.48 Z M317.5,11.312 C317.18,11.568 316.745,11.784 316.196,11.96 C315.629301,12.1386537 315.038181,12.2277265 314.444,12.224 C313.153,12.224 312.209,11.848 311.612,11.096 C311.014,10.344 310.716,9.312 310.716,8 C310.716,6.592 311.052,5.536 311.724,4.832 C312.396,4.128 313.34,3.776 314.556,3.776 C314.961,3.776 315.356,3.829 315.74,3.936 C316.124,4.043 316.465,4.219 316.764,4.464 C317.062,4.709 317.302,5.04 317.484,5.456 C317.664,5.872 317.756,6.389 317.756,7.008 C317.756,7.232 317.742,7.472 317.716,7.728 C317.6875,7.99626524 317.647462,8.26317906 317.596,8.528 L312.796,8.528 C312.828,9.2 313.001,9.707 313.316,10.048 C313.63,10.389 314.14,10.56 314.844,10.56 C315.281,10.56 315.673,10.493 316.02,10.36 C316.366,10.227 316.63,10.09 316.812,9.952 L317.5,11.312 Z M314.524,5.44 C313.98,5.44 313.577,5.603 313.316,5.928 C313.054,6.253 312.896,6.688 312.844,7.232 L315.82,7.232 C315.862,6.656 315.774,6.213 315.556,5.904 C315.336,5.594 314.993,5.44 314.524,5.44 Z M324.212,12 L324.212,7.456 C324.212,6.806 324.119,6.336 323.932,6.048 C323.746,5.76 323.428,5.616 322.98,5.616 C322.586,5.616 322.252,5.731 321.98,5.96 C321.710172,6.18606618 321.508067,6.48230273 321.396,6.816 L321.396,12 L319.316,12 L319.316,4 L320.964,4 L321.204,5.056 L321.268,5.056 C321.514,4.715 321.839,4.416 322.244,4.16 C322.65,3.904 323.172,3.776 323.812,3.776 C324.207,3.776 324.559,3.829 324.868,3.936 C325.178,4.043 325.439,4.219 325.652,4.464 C325.866,4.709 326.026,5.043 326.132,5.464 C326.239,5.885 326.292,6.405 326.292,7.024 L326.292,12 L324.212,12 L324.212,12 Z M334.925,9.184 C334.925,9.632 334.931,10.08 334.941,10.528 C334.952,10.976 335,11.472 335.085,12.016 L333.597,12.016 L333.309,10.976 L333.245,10.976 C333.032,11.349 332.725,11.651 332.325,11.88 C331.925,12.11 331.453,12.224 330.909,12.224 C329.907,12.224 329.128,11.894 328.573,11.232 C328.019,10.571 327.741,9.536 327.741,8.128 C327.741,6.763 328.051,5.701 328.669,4.944 C329.288,4.187 330.195,3.808 331.389,3.808 C331.72,3.808 331.992,3.827 332.205,3.864 C332.419,3.901 332.632,3.963 332.845,4.048 L332.845,0.8 L334.925,0.8 L334.925,9.184 L334.925,9.184 Z M331.389,10.464 C331.795,10.464 332.115,10.365 332.349,10.168 C332.584,9.971 332.749,9.685 332.845,9.312 L332.845,5.92 C332.696685,5.80319909 332.52872,5.71379816 332.349,5.656 C332.120179,5.59100936 331.882778,5.56133414 331.645,5.568 C331.059,5.568 330.619,5.765 330.325,6.16 C330.032,6.555 329.885,7.232 329.885,8.192 C329.885,8.875 330.005,9.424 330.245,9.84 C330.485,10.256 330.867,10.464 331.389,10.464 L331.389,10.464 Z" id="Shape" fill="#2B2B2B" fill-rule="nonzero"></path>
                <path d="M579.721,11.504 C579.370849,11.7529361 578.977514,11.9346839 578.561,12.04 C578.104582,12.1632676 577.633769,12.2251458 577.161,12.224 C576.521,12.224 575.981,12.123 575.537,11.92 C575.110592,11.7302784 574.739078,11.4358193 574.457,11.064 C574.165802,10.6655083 573.961404,10.2103812 573.857,9.728 C573.729502,9.16097869 573.667762,8.58115518 573.673,8 C573.673,6.645 573.977,5.603 574.585,4.872 C575.193,4.142 576.079,3.776 577.241,3.776 C577.828,3.776 578.301,3.824 578.657,3.92 C579.015,4.016 579.337,4.139 579.625,4.288 L579.129,5.984 C578.895277,5.87099176 578.651564,5.77993408 578.401,5.712 C578.131646,5.64447145 577.854664,5.6122017 577.577,5.616 C577.001,5.616 576.564,5.806 576.265,6.184 C575.967,6.563 575.817,7.168 575.817,8 C575.817,8.341 575.855,8.656 575.929,8.944 C576.004,9.232 576.116,9.483 576.265,9.696 C576.415,9.909 576.609,10.077 576.849,10.2 C577.089,10.323 577.369,10.384 577.689,10.384 C578.041,10.384 578.34,10.339 578.585,10.248 C578.831,10.158 579.049,10.048 579.241,9.92 L579.721,11.504 L579.721,11.504 Z M587.202,11.312 C586.882,11.568 586.448,11.784 585.898,11.96 C585.331301,12.1386537 584.740181,12.2277265 584.146,12.224 C582.856,12.224 581.912,11.848 581.314,11.096 C580.717,10.344 580.418,9.312 580.418,8 C580.418,6.592 580.754,5.536 581.426,4.832 C582.098,4.128 583.042,3.776 584.258,3.776 C584.664,3.776 585.058,3.829 585.442,3.936 C585.816676,4.03800545 586.16561,4.21792477 586.466,4.464 C586.765,4.709 587.005,5.04 587.186,5.456 C587.368,5.872 587.458,6.389 587.458,7.008 C587.458,7.232 587.445,7.472 587.418,7.728 C587.3895,7.99626524 587.349462,8.26317906 587.298,8.528 L582.498,8.528 C582.53,9.2 582.704,9.707 583.018,10.048 C583.333,10.389 583.842,10.56 584.546,10.56 C584.984,10.56 585.376,10.493 585.722,10.36 C586.069,10.227 586.333,10.09 586.514,9.952 L587.202,11.312 L587.202,11.312 Z M584.226,5.44 C583.682,5.44 583.28,5.603 583.018,5.928 C582.757,6.253 582.6,6.688 582.546,7.232 L585.522,7.232 C585.565,6.656 585.477,6.213 585.258,5.904 C585.04,5.594 584.696,5.44 584.226,5.44 Z M593.916,12 L593.916,7.456 C593.916,6.806 593.822,6.336 593.636,6.048 C593.449,5.76 593.131,5.616 592.683,5.616 C592.289,5.616 591.955,5.731 591.683,5.96 C591.413172,6.18606618 591.211067,6.48230273 591.099,6.816 L591.099,12 L589.019,12 L589.019,4 L590.667,4 L590.907,5.056 L590.971,5.056 C591.217,4.715 591.541,4.416 591.947,4.16 C592.353,3.904 592.875,3.776 593.515,3.776 C593.91,3.776 594.262,3.829 594.571,3.936 C594.881,4.043 595.141,4.219 595.355,4.464 C595.569,4.709 595.729,5.043 595.835,5.464 C595.942,5.885 595.995,6.405 595.995,7.024 L595.995,12 L593.915,12 L593.916,12 Z M596.996,4 L598.1,4 L598.1,2.496 L600.18,1.904 L600.18,4 L602.132,4 L602.132,5.76 L600.18,5.76 L600.18,8.832 C600.18,9.387 600.236,9.784 600.348,10.024 C600.46,10.264 600.671,10.384 600.98,10.384 C601.193,10.384 601.377,10.363 601.532,10.32 C601.709732,10.2686105 601.883518,10.2044433 602.052,10.128 L602.42,11.728 C602.096754,11.8790849 601.759029,11.9970208 601.412,12.08 C601.030051,12.1757465 600.637767,12.2241102 600.244,12.224 C599.508,12.224 598.967,12.034 598.62,11.656 C598.273,11.277 598.1,10.656 598.1,9.792 L598.1,5.76 L596.996,5.76 L596.996,4 Z M609.821,11.312 C609.501,11.568 609.066,11.784 608.517,11.96 C607.950301,12.1386537 607.359181,12.2277265 606.765,12.224 C605.475,12.224 604.53,11.848 603.933,11.096 C603.336,10.344 603.037,9.312 603.037,8 C603.037,6.592 603.373,5.536 604.045,4.832 C604.717,4.128 605.661,3.776 606.877,3.776 C607.282,3.776 607.677,3.829 608.061,3.936 C608.445,4.043 608.786,4.219 609.085,4.464 C609.384,4.709 609.624,5.04 609.805,5.456 C609.986,5.872 610.077,6.389 610.077,7.008 C610.077,7.232 610.064,7.472 610.037,7.728 C610.0085,7.99626524 609.968462,8.26317906 609.917,8.528 L605.117,8.528 C605.149,9.2 605.322,9.707 605.637,10.048 C605.952,10.389 606.461,10.56 607.165,10.56 C607.602,10.56 607.995,10.493 608.341,10.36 C608.688,10.227 608.951,10.09 609.133,9.952 L609.821,11.312 L609.821,11.312 Z M606.845,5.44 C606.301,5.44 605.898,5.603 605.637,5.928 C605.376,6.253 605.218,6.688 605.165,7.232 L608.141,7.232 C608.184,6.656 608.096,6.213 607.877,5.904 C607.658,5.594 607.314,5.44 606.845,5.44 Z M616.054,5.952 C615.767438,5.84307625 615.464472,5.78356499 615.158,5.776 C614.785,5.776 614.473,5.875 614.222,6.072 C613.972,6.269 613.803,6.522 613.718,6.832 L613.718,12 L611.638,12 L611.638,4 L613.254,4 L613.494,5.056 L613.558,5.056 C613.739,4.661 613.985,4.357 614.294,4.144 C614.604,3.931 614.966,3.824 615.382,3.824 C615.659,3.824 615.974,3.883 616.326,4 L616.054,5.952 L616.054,5.952 Z" id="Shape" fill="#2B2B2B" fill-rule="nonzero"></path>
                <path d="M458.912,139.8 L460.992,139.8 L460.992,143.64 L461.056,143.64 C461.280001,143.383999 461.567998,143.181334 461.92,143.032 C462.272002,142.882666 462.661331,142.808 463.088,142.808 C464.048005,142.808 464.781331,143.135997 465.288,143.792 C465.794669,144.448003 466.048,145.447993 466.048,146.792 C466.048,148.232007 465.693337,149.32533 464.984,150.072 C464.274663,150.81867 463.30134,151.192 462.064,151.192 C461.38133,151.192 460.757336,151.136001 460.192,151.024 C459.626664,150.911999 459.200001,150.786667 458.912,150.648 L458.912,139.8 Z M462.48,144.568 C462.095998,144.568 461.784001,144.666666 461.544,144.864 C461.303999,145.061334 461.120001,145.346665 460.992,145.72 L460.992,149.208 C461.162668,149.293334 461.346666,149.352 461.544,149.384 C461.741334,149.416 461.951999,149.432 462.176,149.432 C462.741336,149.432 463.170665,149.226669 463.464,148.816 C463.757335,148.405331 463.904,147.752004 463.904,146.856 C463.904,145.330659 463.429338,144.568 462.48,144.568 Z M467.795556,143.464 C468.222224,143.271999 468.728886,143.120001 469.315556,143.008 C469.902225,142.895999 470.515552,142.84 471.155556,142.84 C471.710225,142.84 472.17422,142.906666 472.547556,143.04 C472.920891,143.173334 473.216888,143.362665 473.435556,143.608 C473.654223,143.853335 473.808888,144.146665 473.899556,144.488 C473.990223,144.829335 474.035556,145.213331 474.035556,145.64 C474.035556,146.109336 474.019556,146.581331 473.987556,147.056 C473.955555,147.530669 473.936889,147.997331 473.931556,148.456 C473.926222,148.914669 473.939555,149.359998 473.971556,149.792 C474.003556,150.224002 474.083555,150.631998 474.211556,151.016 L472.515556,151.016 L472.179556,149.912 L472.099556,149.912 C471.886221,150.242668 471.590224,150.527999 471.211556,150.768 C470.832887,151.008001 470.344892,151.128 469.747556,151.128 C469.37422,151.128 469.038224,151.072001 468.739556,150.96 C468.440887,150.847999 468.18489,150.688001 467.971556,150.48 C467.758221,150.271999 467.592889,150.026668 467.475556,149.744 C467.358222,149.461332 467.299556,149.144002 467.299556,148.792 C467.299556,148.301331 467.408888,147.888002 467.627556,147.552 C467.846223,147.215998 468.160887,146.944001 468.571556,146.736 C468.982224,146.527999 469.472886,146.384 470.043556,146.304 C470.614225,146.224 471.251552,146.2 471.955556,146.232 C472.030223,145.634664 471.987556,145.205335 471.827556,144.944 C471.667555,144.682665 471.310225,144.552 470.755556,144.552 C470.339553,144.552 469.899558,144.594666 469.435556,144.68 C468.971553,144.765334 468.590224,144.877333 468.291556,145.016 L467.795556,143.464 Z M470.435556,149.416 C470.851558,149.416 471.182221,149.322668 471.427556,149.136 C471.67289,148.949332 471.854222,148.749334 471.971556,148.536 L471.971556,147.496 C471.640887,147.464 471.323557,147.458667 471.019556,147.48 C470.715554,147.501333 470.446223,147.549333 470.211556,147.624 C469.976888,147.698667 469.790223,147.805333 469.651556,147.944 C469.512888,148.082667 469.443556,148.258666 469.443556,148.472 C469.443556,148.770668 469.531555,149.002666 469.707556,149.168 C469.883556,149.333334 470.126221,149.416 470.435556,149.416 Z M479.447111,148.792 C479.447111,148.578666 479.356445,148.408001 479.175111,148.28 C478.993777,148.151999 478.769779,148.034667 478.503111,147.928 C478.236443,147.821333 477.943113,147.712001 477.623111,147.6 C477.30311,147.487999 477.009779,147.333334 476.743111,147.136 C476.476443,146.938666 476.252445,146.688002 476.071111,146.384 C475.889777,146.079998 475.799111,145.688002 475.799111,145.208 C475.799111,144.418663 476.033775,143.816002 476.503111,143.4 C476.972447,142.983998 477.649773,142.776 478.535111,142.776 C479.143114,142.776 479.692442,142.839999 480.183111,142.968 C480.67378,143.096001 481.057776,143.239999 481.335111,143.4 L480.871111,144.904 C480.625777,144.808 480.316446,144.706667 479.943111,144.6 C479.569776,144.493333 479.191113,144.44 478.807111,144.44 C478.188441,144.44 477.879111,144.679998 477.879111,145.16 C477.879111,145.352001 477.969777,145.506666 478.151111,145.624 C478.332445,145.741334 478.556443,145.850666 478.823111,145.952 C479.089779,146.053334 479.38311,146.162666 479.703111,146.28 C480.023113,146.397334 480.316443,146.549332 480.583111,146.736 C480.849779,146.922668 481.073777,147.165332 481.255111,147.464 C481.436445,147.762668 481.527111,148.146664 481.527111,148.616 C481.527111,149.426671 481.268447,150.063998 480.751111,150.528 C480.233775,150.992002 479.457783,151.224 478.423111,151.224 C477.857775,151.224 477.327114,151.152001 476.831111,151.008 C476.335109,150.863999 475.932446,150.696001 475.623111,150.504 L476.199111,148.952 C476.444446,149.090667 476.769776,149.226666 477.175111,149.36 C477.580446,149.493334 477.996442,149.56 478.423111,149.56 C478.732446,149.56 478.980444,149.501334 479.167111,149.384 C479.353779,149.266666 479.447111,149.069335 479.447111,148.792 Z M489.642667,150.312 C489.322665,150.568001 488.888003,150.783999 488.338667,150.96 C487.789331,151.136001 487.205336,151.224 486.586667,151.224 C485.295994,151.224 484.352003,150.848004 483.754667,150.096 C483.15733,149.343996 482.858667,148.312007 482.858667,147 C482.858667,145.591993 483.194663,144.536004 483.866667,143.832 C484.53867,143.127996 485.482661,142.776 486.698667,142.776 C487.104002,142.776 487.498665,142.829333 487.882667,142.936 C488.266669,143.042667 488.607999,143.218665 488.906667,143.464 C489.205335,143.709335 489.445332,144.039998 489.626667,144.456 C489.808001,144.872002 489.898667,145.38933 489.898667,146.008 C489.898667,146.232001 489.885333,146.471999 489.858667,146.728 C489.832,146.984001 489.792,147.250665 489.738667,147.528 L484.938667,147.528 C484.970667,148.200003 485.143998,148.706665 485.458667,149.048 C485.773335,149.389335 486.282663,149.56 486.986667,149.56 C487.424002,149.56 487.815998,149.493334 488.162667,149.36 C488.509335,149.226666 488.773332,149.090667 488.954667,148.952 L489.642667,150.312 Z M486.666667,144.44 C486.122664,144.44 485.720001,144.602665 485.458667,144.928 C485.197332,145.253335 485.04,145.687997 484.986667,146.232 L487.962667,146.232 C488.005334,145.655997 487.917334,145.213335 487.698667,144.904 C487.479999,144.594665 487.136002,144.44 486.666667,144.44 Z M493.870222,148.312 C493.870222,148.685335 493.918222,148.957332 494.014222,149.128 C494.110223,149.298668 494.264888,149.384 494.478222,149.384 C494.606223,149.384 494.731555,149.373333 494.854222,149.352 C494.97689,149.330667 495.128888,149.282667 495.310222,149.208 L495.534222,150.84 C495.363555,150.925334 495.102224,151.010666 494.750222,151.096 C494.39822,151.181334 494.035557,151.224 493.662222,151.224 C493.054219,151.224 492.590224,151.082668 492.270222,150.8 C491.950221,150.517332 491.790222,150.05067 491.790222,149.4 L491.790222,139.8 L493.870222,139.8 L493.870222,148.312 Z M496.977778,143 L499.057778,143 L499.057778,151 L496.977778,151 L496.977778,143 Z M496.673778,140.744 C496.673778,140.434665 496.788443,140.170668 497.017778,139.952 C497.247112,139.733332 497.564442,139.624 497.969778,139.624 C498.375113,139.624 498.70311,139.733332 498.953778,139.952 C499.204446,140.170668 499.329778,140.434665 499.329778,140.744 C499.329778,141.053335 499.204446,141.311999 498.953778,141.52 C498.70311,141.728001 498.375113,141.832 497.969778,141.832 C497.564442,141.832 497.247112,141.728001 497.017778,141.52 C496.788443,141.311999 496.673778,141.053335 496.673778,140.744 Z M506.341333,151 L506.341333,146.456 C506.341333,145.80533 506.248001,145.336001 506.061333,145.048 C505.874666,144.759999 505.557336,144.616 505.109333,144.616 C504.714665,144.616 504.381335,144.730666 504.109333,144.96 C503.837332,145.189334 503.642667,145.474665 503.525333,145.816 L503.525333,151 L501.445333,151 L501.445333,143 L503.093333,143 L503.333333,144.056 L503.397333,144.056 C503.642668,143.714665 503.967998,143.416001 504.373333,143.16 C504.778669,142.903999 505.30133,142.776 505.941333,142.776 C506.336002,142.776 506.687999,142.829333 506.997333,142.936 C507.306668,143.042667 507.567999,143.218665 507.781333,143.464 C507.994668,143.709335 508.154666,144.042665 508.261333,144.464 C508.368001,144.885335 508.421333,145.40533 508.421333,146.024 L508.421333,151 L506.341333,151 Z M516.920889,150.312 C516.600887,150.568001 516.166225,150.783999 515.616889,150.96 C515.067553,151.136001 514.483559,151.224 513.864889,151.224 C512.574216,151.224 511.630225,150.848004 511.032889,150.096 C510.435553,149.343996 510.136889,148.312007 510.136889,147 C510.136889,145.591993 510.472886,144.536004 511.144889,143.832 C511.816892,143.127996 512.760883,142.776 513.976889,142.776 C514.382224,142.776 514.776887,142.829333 515.160889,142.936 C515.544891,143.042667 515.886221,143.218665 516.184889,143.464 C516.483557,143.709335 516.723555,144.039998 516.904889,144.456 C517.086223,144.872002 517.176889,145.38933 517.176889,146.008 C517.176889,146.232001 517.163556,146.471999 517.136889,146.728 C517.110222,146.984001 517.070223,147.250665 517.016889,147.528 L512.216889,147.528 C512.248889,148.200003 512.422221,148.706665 512.736889,149.048 C513.051557,149.389335 513.560885,149.56 514.264889,149.56 C514.702224,149.56 515.094221,149.493334 515.440889,149.36 C515.787557,149.226666 516.051555,149.090667 516.232889,148.952 L516.920889,150.312 Z M513.944889,144.44 C513.400886,144.44 512.998224,144.602665 512.736889,144.928 C512.475554,145.253335 512.318223,145.687997 512.264889,146.232 L515.240889,146.232 C515.283556,145.655997 515.195557,145.213335 514.976889,144.904 C514.758221,144.594665 514.414225,144.44 513.944889,144.44 Z" id="baseline" fill="#202020"></path>
                <g id="Group" transform="translate(141.000000, 135.000000)" fill-rule="nonzero" fill="#2B2B2B">
                    <path d="M4.224,9.792 C4.22785132,9.58580916 4.12501321,9.39223156 3.952,9.28 C3.74238217,9.13704744 3.51687151,9.01892281 3.28,8.928 C3.013,8.821 2.72,8.712 2.4,8.6 C2.08494164,8.49060599 1.78824996,8.33416856 1.52,8.136 C1.24800618,7.93274966 1.01950644,7.67704757 0.848,7.384 C0.667,7.08 0.576,6.688 0.576,6.208 C0.576,5.418 0.811,4.816 1.28,4.4 C1.75,3.984 2.427,3.776 3.312,3.776 C3.92,3.776 4.469,3.84 4.96,3.968 C5.45,4.096 5.835,4.24 6.112,4.4 L5.648,5.904 C5.34349823,5.78847226 5.03383676,5.68703143 4.72,5.6 C4.35065893,5.4938984 3.96827903,5.44004208 3.584,5.44 C2.965,5.44 2.656,5.68 2.656,6.16 C2.656,6.352 2.746,6.507 2.928,6.624 C3.109,6.741 3.333,6.851 3.6,6.952 C3.867,7.053 4.16,7.162 4.48,7.28 C4.8,7.397 5.093,7.55 5.36,7.736 C5.627,7.923 5.85,8.166 6.032,8.464 C6.213,8.763 6.304,9.147 6.304,9.616 C6.304,10.426 6.045,11.064 5.528,11.528 C5.011,11.992 4.235,12.224 3.2,12.224 C2.66178398,12.2277245 2.12576616,12.1549985 1.608,12.008 C1.112,11.864 0.709,11.696 0.4,11.504 L0.976,9.952 C1.221,10.091 1.546,10.227 1.952,10.36 C2.357,10.493 2.773,10.56 3.2,10.56 C3.51,10.56 3.757,10.501 3.944,10.384 C4.131,10.267 4.224,10.069 4.224,9.792 L4.224,9.792 Z M6.921,4 L8.025,4 L8.025,2.496 L10.105,1.904 L10.105,4 L12.057,4 L12.057,5.76 L10.105,5.76 L10.105,8.832 C10.105,9.387 10.161,9.784 10.273,10.024 C10.385,10.264 10.596,10.384 10.905,10.384 C11.118,10.384 11.302,10.363 11.457,10.32 C11.6347323,10.2686105 11.8085183,10.2044433 11.977,10.128 L12.345,11.728 C12.0217543,11.8790849 11.6840287,11.9970208 11.337,12.08 C10.9550507,12.1757465 10.5627673,12.2241102 10.169,12.224 C9.433,12.224 8.892,12.034 8.545,11.656 C8.198,11.277 8.025,10.656 8.025,9.792 L8.025,5.76 L6.921,5.76 L6.921,4 Z M17.841,5.952 C17.5547535,5.84318708 17.2521346,5.78367765 16.946,5.776 C16.572,5.776 16.26,5.875 16.01,6.072 C15.76,6.269 15.591,6.522 15.506,6.832 L15.506,12 L13.426,12 L13.426,4 L15.042,4 L15.282,5.056 L15.346,5.056 C15.527,4.661 15.772,4.357 16.082,4.144 C16.392,3.931 16.754,3.824 17.17,3.824 C17.447,3.824 17.762,3.883 18.114,4 L17.842,5.952 L17.841,5.952 Z M25.531,11.312 C25.211,11.568 24.776,11.784 24.227,11.96 C23.6603007,12.1386537 23.0691812,12.2277265 22.475,12.224 C21.184,12.224 20.24,11.848 19.643,11.096 C19.045,10.344 18.747,9.312 18.747,8 C18.747,6.592 19.083,5.536 19.755,4.832 C20.427,4.128 21.371,3.776 22.587,3.776 C22.992,3.776 23.387,3.829 23.771,3.936 C24.155,4.043 24.496,4.219 24.795,4.464 C25.093,4.709 25.333,5.04 25.515,5.456 C25.696,5.872 25.787,6.389 25.787,7.008 C25.787,7.232 25.773,7.472 25.747,7.728 C25.7184995,7.99626524 25.6784625,8.26317906 25.627,8.528 L20.827,8.528 C20.859,9.2 21.032,9.707 21.347,10.048 C21.661,10.389 22.171,10.56 22.875,10.56 C23.312,10.56 23.704,10.493 24.051,10.36 C24.397,10.227 24.661,10.09 24.843,9.952 L25.531,11.312 L25.531,11.312 Z M22.555,5.44 C22.011,5.44 21.608,5.603 21.347,5.928 C21.085,6.253 20.928,6.688 20.875,7.232 L23.851,7.232 C23.893,6.656 23.805,6.213 23.587,5.904 C23.368,5.594 23.024,5.44 22.555,5.44 Z M26.515,4 L27.62,4 L27.62,2.496 L29.7,1.904 L29.7,4 L31.652,4 L31.652,5.76 L29.7,5.76 L29.7,8.832 C29.7,9.387 29.756,9.784 29.868,10.024 C29.98,10.264 30.19,10.384 30.5,10.384 C30.713,10.384 30.897,10.363 31.052,10.32 C31.2296785,10.2684469 31.4034529,10.204284 31.572,10.128 L31.94,11.728 C31.6167543,11.8790849 31.2790287,11.9970208 30.932,12.08 C30.5500507,12.1757465 30.1577673,12.2241102 29.764,12.224 C29.028,12.224 28.486,12.034 28.14,11.656 C27.793,11.277 27.62,10.656 27.62,9.792 L27.62,5.76 L26.516,5.76 L26.516,4 L26.515,4 Z M38.605,11.504 C38.2547321,11.7527352 37.8614363,11.934465 37.445,12.04 C36.991,12.163 36.525,12.224 36.045,12.224 C35.405,12.224 34.863,12.123 34.42,11.92 C33.9935922,11.7302784 33.6220785,11.4358193 33.34,11.064 C33.0488022,10.6655083 32.8444038,10.2103812 32.74,9.728 C32.6125025,9.16097869 32.550762,8.58115518 32.556,8 C32.556,6.645 32.86,5.603 33.468,4.872 C34.076,4.142 34.962,3.776 36.124,3.776 C36.711,3.776 37.184,3.824 37.54,3.92 C37.898,4.016 38.22,4.139 38.508,4.288 L38.012,5.984 C37.7782771,5.87099176 37.5345638,5.77993408 37.284,5.712 C37.014646,5.64447145 36.737664,5.6122017 36.46,5.616 C35.884,5.616 35.447,5.806 35.148,6.184 C34.85,6.563 34.7,7.168 34.7,8 C34.7,8.341 34.738,8.656 34.812,8.944 C34.887,9.232 34.999,9.483 35.148,9.696 C35.298,9.909 35.492,10.077 35.732,10.2 C35.972,10.323 36.252,10.384 36.572,10.384 C36.924,10.384 37.223,10.339 37.468,10.248 C37.714,10.158 37.932,10.048 38.124,9.92 L38.604,11.504 L38.605,11.504 Z M44.853,12 L44.853,7.456 C44.853,6.806 44.763,6.336 44.581,6.048 C44.4,5.76 44.069,5.616 43.589,5.616 C43.237,5.616 42.915,5.736 42.621,5.976 C42.3312153,6.21077541 42.1261311,6.53385317 42.037,6.896 L42.037,12 L39.957,12 L39.957,0.8 L42.037,0.8 L42.037,4.896 L42.101,4.896 C42.357,4.555 42.672,4.283 43.045,4.08 C43.419,3.877 43.893,3.776 44.469,3.776 C44.875,3.776 45.232,3.829 45.541,3.936 C45.851,4.043 46.109,4.219 46.317,4.464 C46.525,4.709 46.68,5.043 46.781,5.464 C46.883,5.885 46.933,6.405 46.933,7.024 L46.933,12 L44.853,12 L44.853,12 Z" id="Shape"></path>
                </g>
                <polygon id="Shape" fill="#AFB8C1" fill-rule="nonzero" points="279 46 359.101996 46 359.101996 102 279 102"></polygon>
                <polygon id="Shape" fill="#919BA5" fill-rule="nonzero" points="359 63 439 63 439 102 359 102"></polygon>
                <polygon id="Shape" fill="#E0E7EE" fill-rule="nonzero" points="141 167 381 167 381 247 141 247"></polygon>
                <polygon id="Shape" fill="#7D8793" fill-rule="nonzero" points="301 167 381 167 381 247 301 247"></polygon>
                <polygon id="Shape" fill="#AFB8C1" fill-rule="nonzero" points="141 167 221.101996 167 221.101996 247 141 247"></polygon>
                <polygon id="Shape" fill="#919BA5" fill-rule="nonzero" points="221 167 301 167 301 247 221 247"></polygon>
                <polygon id="Shape" fill="#E0E7EE" fill-rule="nonzero" points="574 22 814 22 814 102 574 102"></polygon>
                <polygon id="Shape" fill="#7D8793" fill-rule="nonzero" points="734 22 814 22 814 101 734 101"></polygon>
                <polygon id="Shape" fill="#AFB8C1" fill-rule="nonzero" points="574 33 654.101996 33 654.101996 89 574 89"></polygon>
                <polygon id="Shape" fill="#919BA5" fill-rule="nonzero" points="654 45 734 45 734 84 654 84"></polygon>
                <polygon id="Shape" fill="#E0E7EE" fill-rule="nonzero" points="458 167 698 167 698 247 458 247"></polygon>
                <polygon id="Shape" fill="#7D8793" fill-rule="nonzero" points="618 167 698 167 698 246 618 246"></polygon>
                <polygon id="Shape" fill="#AFB8C1" fill-rule="nonzero" points="458 168 538.101996 168 538.101996 224 458 224"></polygon>
                <polygon id="Shape" fill="#919BA5" fill-rule="nonzero" points="538 170 618 170 618 209 538 209"></polygon>
                <path d="M487.912,180.8 L489.992,180.8 L489.992,184.64 L490.056,184.64 C490.280001,184.383999 490.567998,184.181334 490.92,184.032 C491.272002,183.882666 491.661331,183.808 492.088,183.808 C493.048005,183.808 493.781331,184.135997 494.288,184.792 C494.794669,185.448003 495.048,186.447993 495.048,187.792 C495.048,189.232007 494.693337,190.32533 493.984,191.072 C493.274663,191.81867 492.30134,192.192 491.064,192.192 C490.38133,192.192 489.757336,192.136001 489.192,192.024 C488.626664,191.911999 488.200001,191.786667 487.912,191.648 L487.912,180.8 Z M491.48,185.568 C491.095998,185.568 490.784001,185.666666 490.544,185.864 C490.303999,186.061334 490.120001,186.346665 489.992,186.72 L489.992,190.208 C490.162668,190.293334 490.346666,190.352 490.544,190.384 C490.741334,190.416 490.951999,190.432 491.176,190.432 C491.741336,190.432 492.170665,190.226669 492.464,189.816 C492.757335,189.405331 492.904,188.752004 492.904,187.856 C492.904,186.330659 492.429338,185.568 491.48,185.568 Z M496.795556,184.464 C497.222224,184.271999 497.728886,184.120001 498.315556,184.008 C498.902225,183.895999 499.515552,183.84 500.155556,183.84 C500.710225,183.84 501.17422,183.906666 501.547556,184.04 C501.920891,184.173334 502.216888,184.362665 502.435556,184.608 C502.654223,184.853335 502.808888,185.146665 502.899556,185.488 C502.990223,185.829335 503.035556,186.213331 503.035556,186.64 C503.035556,187.109336 503.019556,187.581331 502.987556,188.056 C502.955555,188.530669 502.936889,188.997331 502.931556,189.456 C502.926222,189.914669 502.939555,190.359998 502.971556,190.792 C503.003556,191.224002 503.083555,191.631998 503.211556,192.016 L501.515556,192.016 L501.179556,190.912 L501.099556,190.912 C500.886221,191.242668 500.590224,191.527999 500.211556,191.768 C499.832887,192.008001 499.344892,192.128 498.747556,192.128 C498.37422,192.128 498.038224,192.072001 497.739556,191.96 C497.440887,191.847999 497.18489,191.688001 496.971556,191.48 C496.758221,191.271999 496.59289,191.026668 496.475556,190.744 C496.358222,190.461332 496.299556,190.144002 496.299556,189.792 C496.299556,189.301331 496.408888,188.888002 496.627556,188.552 C496.846223,188.215998 497.160887,187.944001 497.571556,187.736 C497.982224,187.527999 498.472886,187.384 499.043556,187.304 C499.614225,187.224 500.251552,187.2 500.955556,187.232 C501.030223,186.634664 500.987556,186.205335 500.827556,185.944 C500.667555,185.682665 500.310225,185.552 499.755556,185.552 C499.339554,185.552 498.899558,185.594666 498.435556,185.68 C497.971553,185.765334 497.590224,185.877333 497.291556,186.016 L496.795556,184.464 Z M499.435556,190.416 C499.851558,190.416 500.182221,190.322668 500.427556,190.136 C500.67289,189.949332 500.854222,189.749334 500.971556,189.536 L500.971556,188.496 C500.640887,188.464 500.323557,188.458667 500.019556,188.48 C499.715554,188.501333 499.446223,188.549333 499.211556,188.624 C498.976888,188.698667 498.790223,188.805333 498.651556,188.944 C498.512888,189.082667 498.443556,189.258666 498.443556,189.472 C498.443556,189.770668 498.531555,190.002666 498.707556,190.168 C498.883556,190.333334 499.126221,190.416 499.435556,190.416 Z M574.500445,189.792 C574.500445,189.578666 574.409779,189.408001 574.228445,189.28 C574.047111,189.151999 573.823113,189.034667 573.556445,188.928 C573.289777,188.821333 572.996447,188.712001 572.676445,188.6 C572.356444,188.487999 572.063113,188.333334 571.796445,188.136 C571.529777,187.938666 571.305779,187.688002 571.124445,187.384 C570.943111,187.079998 570.852445,186.688002 570.852445,186.208 C570.852445,185.418663 571.08711,184.816002 571.556445,184.4 C572.025781,183.983998 572.703107,183.776 573.588445,183.776 C574.196448,183.776 574.745776,183.839999 575.236445,183.968 C575.727114,184.096001 576.11111,184.239999 576.388445,184.4 L575.924445,185.904 C575.679111,185.808 575.36978,185.706667 574.996445,185.6 C574.62311,185.493333 574.244447,185.44 573.860445,185.44 C573.241775,185.44 572.932445,185.679998 572.932445,186.16 C572.932445,186.352001 573.023111,186.506666 573.204445,186.624 C573.385779,186.741334 573.609777,186.850666 573.876445,186.952 C574.143113,187.053334 574.436444,187.162666 574.756445,187.28 C575.076447,187.397334 575.369777,187.549332 575.636445,187.736 C575.903113,187.922668 576.127111,188.165332 576.308445,188.464 C576.489779,188.762668 576.580445,189.146664 576.580445,189.616 C576.580445,190.426671 576.321781,191.063998 575.804445,191.528 C575.287109,191.992002 574.511117,192.224 573.476445,192.224 C572.911109,192.224 572.380448,192.152001 571.884445,192.008 C571.388443,191.863999 570.98578,191.696001 570.676445,191.504 L571.252445,189.952 C571.49778,190.090667 571.82311,190.226666 572.228445,190.36 C572.633781,190.493334 573.049776,190.56 573.476445,190.56 C573.78578,190.56 574.033778,190.501334 574.220445,190.384 C574.407113,190.266666 574.500445,190.069335 574.500445,189.792 Z M584.696001,191.312 C584.375999,191.568001 583.941337,191.783999 583.392001,191.96 C582.842665,192.136001 582.258671,192.224 581.640001,192.224 C580.349328,192.224 579.405337,191.848004 578.808001,191.096 C578.210664,190.343996 577.912001,189.312007 577.912001,188 C577.912001,186.591993 578.247997,185.536004 578.920001,184.832 C579.592004,184.127996 580.535995,183.776 581.752001,183.776 C582.157336,183.776 582.551999,183.829333 582.936001,183.936 C583.320003,184.042667 583.661333,184.218665 583.960001,184.464 C584.258669,184.709335 584.498667,185.039998 584.680001,185.456 C584.861335,185.872002 584.952001,186.38933 584.952001,187.008 C584.952001,187.232001 584.938668,187.471999 584.912001,187.728 C584.885334,187.984001 584.845334,188.250665 584.792001,188.528 L579.992001,188.528 C580.024001,189.200003 580.197333,189.706665 580.512001,190.048 C580.826669,190.389335 581.335997,190.56 582.040001,190.56 C582.477336,190.56 582.869332,190.493334 583.216001,190.36 C583.562669,190.226666 583.826667,190.090667 584.008001,189.952 L584.696001,191.312 Z M581.720001,185.44 C581.175998,185.44 580.773335,185.602665 580.512001,185.928 C580.250666,186.253335 580.093334,186.687997 580.040001,187.232 L583.016001,187.232 C583.058668,186.655997 582.970669,186.213335 582.752001,185.904 C582.533333,185.594665 582.189336,185.44 581.720001,185.44 Z M646.169779,189.312 C646.169779,189.685335 646.217779,189.957332 646.313779,190.128 C646.40978,190.298668 646.564445,190.384 646.777779,190.384 C646.90578,190.384 647.031112,190.373333 647.153779,190.352 C647.276446,190.330667 647.428445,190.282667 647.609779,190.208 L647.833779,191.84 C647.663112,191.925334 647.401781,192.010666 647.049779,192.096 C646.697777,192.181334 646.335114,192.224 645.961779,192.224 C645.353776,192.224 644.889781,192.082668 644.569779,191.8 C644.249778,191.517332 644.089779,191.05067 644.089779,190.4 L644.089779,180.8 L646.169779,180.8 L646.169779,189.312 Z M649.277335,184 L651.357335,184 L651.357335,192 L649.277335,192 L649.277335,184 Z M648.973335,181.744 C648.973335,181.434665 649.088,181.170668 649.317335,180.952 C649.546669,180.733332 649.863999,180.624 650.269335,180.624 C650.67467,180.624 651.002667,180.733332 651.253335,180.952 C651.504003,181.170668 651.629335,181.434665 651.629335,181.744 C651.629335,182.053335 651.504003,182.311999 651.253335,182.52 C651.002667,182.728001 650.67467,182.832 650.269335,182.832 C649.863999,182.832 649.546669,182.728001 649.317335,182.52 C649.088,182.311999 648.973335,182.053335 648.973335,181.744 Z M658.64089,192 L658.64089,187.456 C658.64089,186.80533 658.547558,186.336001 658.36089,186.048 C658.174223,185.759999 657.856893,185.616 657.40889,185.616 C657.014222,185.616 656.680892,185.730666 656.40889,185.96 C656.136889,186.189334 655.942224,186.474665 655.82489,186.816 L655.82489,192 L653.74489,192 L653.74489,184 L655.39289,184 L655.63289,185.056 L655.69689,185.056 C655.942225,184.714665 656.267555,184.416001 656.67289,184.16 C657.078226,183.903999 657.600887,183.776 658.24089,183.776 C658.635559,183.776 658.987556,183.829333 659.29689,183.936 C659.606225,184.042667 659.867556,184.218665 660.08089,184.464 C660.294225,184.709335 660.454223,185.042665 660.56089,185.464 C660.667558,185.885335 660.72089,186.40533 660.72089,187.024 L660.72089,192 L658.64089,192 Z M669.220446,191.312 C668.900444,191.568001 668.465782,191.783999 667.916446,191.96 C667.36711,192.136001 666.783116,192.224 666.164446,192.224 C664.873773,192.224 663.929782,191.848004 663.332446,191.096 C662.73511,190.343996 662.436446,189.312007 662.436446,188 C662.436446,186.591993 662.772443,185.536004 663.444446,184.832 C664.116449,184.127996 665.06044,183.776 666.276446,183.776 C666.681781,183.776 667.076444,183.829333 667.460446,183.936 C667.844448,184.042667 668.185778,184.218665 668.484446,184.464 C668.783114,184.709335 669.023112,185.039998 669.204446,185.456 C669.38578,185.872002 669.476446,186.38933 669.476446,187.008 C669.476446,187.232001 669.463113,187.471999 669.436446,187.728 C669.409779,187.984001 669.36978,188.250665 669.316446,188.528 L664.516446,188.528 C664.548446,189.200003 664.721778,189.706665 665.036446,190.048 C665.351114,190.389335 665.860442,190.56 666.564446,190.56 C667.001782,190.56 667.393778,190.493334 667.740446,190.36 C668.087114,190.226666 668.351112,190.090667 668.532446,189.952 L669.220446,191.312 Z M666.244446,185.44 C665.700443,185.44 665.297781,185.602665 665.036446,185.928 C664.775111,186.253335 664.61778,186.687997 664.564446,187.232 L667.540446,187.232 C667.583113,186.655997 667.495114,186.213335 667.276446,185.904 C667.057778,185.594665 666.713782,185.44 666.244446,185.44 Z" id="ba-se-line" fill="#DCD4D4"></path>
                <polygon id="Shape" fill="#7D8793" fill-rule="nonzero" points="159.56 22 239.56 22 239.56 102 159.56 102"></polygon>
            </g>
        </g>
    </g>
</svg>