<?xml version="1.0" encoding="UTF-8"?>
<svg width="523px" height="353px" viewBox="0 0 523 353" version="1.1" xmlns="http://www.w3.org/2000/svg" xmlns:xlink="http://www.w3.org/1999/xlink">
    <!-- Generator: Sketch 46.2 (44496) - http://www.bohemiancoding.com/sketch -->
    <title>Artboard</title>
    <desc>Created with Sketch.</desc>
    <defs></defs>
    <g id="Page-1" stroke="none" stroke-width="1" fill="none" fill-rule="evenodd">
        <g id="Artboard">
            <polygon id="Shape" fill="#E0E7EE" fill-rule="nonzero" points="2 26 242 26 242 106 2 106"></polygon>
            <polygon id="Shape" fill="#AFB8C1" fill-rule="nonzero" points="2 26 82 26 82 65 2 65"></polygon>
            <polygon id="Shape" fill="#AFB8C1" fill-rule="nonzero" points="2 26 82 26 82 82 2 82"></polygon>
            <polygon id="Shape" fill="#919BA5" fill-rule="nonzero" points="82 26 162 26 162 52 82 52"></polygon>
            <polygon id="Shape" fill="#919BA5" fill-rule="nonzero" points="82 26 162 26 162 65 82 65"></polygon>
            <path d="M8.54844832,6.93120161 C8.36172831,6.89089441 8.17265298,6.8633251 7.98244282,6.84867163 C7.75184201,6.82706678 7.52042966,6.81605198 7.28888678,6.81565963 C7.04474708,6.81565963 6.84744235,6.85382975 6.69896555,6.93120161 C6.55536172,7.00324284 6.43594693,7.11824318 6.35617348,7.26132154 C6.2698551,7.42714015 6.21824583,7.60992361 6.20470722,7.79776643 C6.18378096,8.01234439 6.17281959,8.25168134 6.17281959,8.51577729 L7.36860587,8.51577729 L7.36860587,10.3314369 L6.17281959,10.3314369 L6.17281959,16.7687756 L4.10012337,16.7687756 L4.10012337,10.3314369 L3,10.3314369 L3,8.51577729 L4.10012337,8.51577729 L4.10012337,8.05360938 C4.10012337,7.01888972 4.3422701,6.25136087 4.82556705,5.75102285 C5.308864,5.25068482 6.14093195,5 7.32077441,5 C7.56491411,5 7.84692038,5.01031625 8.16579672,5.03301199 C8.48467306,5.05467611 8.80055993,5.07943511 9.11445383,5.10728898 C9.42834773,5.13514285 9.72031888,5.16505997 9.99136377,5.19807196 C10.2624087,5.23108395 10.4726677,5.26409595 10.6211445,5.29710794 L10.6211445,13.9957682 C10.6211445,14.3805642 10.668976,14.6611662 10.7646389,14.837574 C10.851205,15.007964 11.0253191,15.1109659 11.2110658,15.10167 C11.3386163,15.10167 11.4631774,15.0913537 11.5857455,15.068658 C11.7083136,15.0469938 11.8597798,14.9964442 12.0401443,14.920104 L12.2793015,16.6037157 C12.1098985,16.6914038 11.845829,16.7790919 11.4900826,16.8678116 C11.1323,16.9560516 10.7657259,17.0003727 10.3979311,16.9998596 C9.79206605,16.9998596 9.33168834,16.8544005 9.01879093,16.5624507 C8.70489703,16.2705008 8.54844832,15.7887321 8.54844832,15.118176 L8.54844832,6.93120161 Z M19.6383696,16.0590178 C19.3194932,16.3231137 18.8860207,16.5459447 18.3389485,16.7275106 C17.7742391,16.9118142 17.1851953,17.0037039 16.5931005,16.9998596 C15.3076303,16.9998596 14.3659486,16.6119687 13.7710449,15.8361868 C13.1761412,15.060405 12.8781911,13.9957682 12.8781911,12.6422765 C12.8781911,11.1897487 13.2130113,10.100353 13.8826516,9.37408912 C14.5522919,8.64782526 15.4929771,8.28469334 16.7047072,8.28469334 C17.1082851,8.28469334 17.5018981,8.33936945 17.8845497,8.4497533 C18.2672013,8.56013716 18.6070039,8.74170312 18.904954,8.99445119 C19.2029041,9.24719927 19.4420613,9.58866707 19.6224257,10.017823 C19.8027902,10.4469789 19.8934706,10.9803289 19.8934706,11.6189047 C19.8934706,11.8499886 19.8805163,12.0975786 19.8536111,12.3616745 C19.8252107,12.6384236 19.7853142,12.9137785 19.7340325,13.1869743 L14.9508873,13.1869743 C14.982775,13.8802262 15.1551675,14.40326 15.4690614,14.755044 C15.7829553,15.1068281 16.290168,15.2832359 16.9916959,15.2832359 C17.4271614,15.2832359 17.8187814,15.2141171 18.1635665,15.076911 C18.509348,14.9397049 18.7714245,14.7983723 18.9527854,14.656008 L19.6383696,16.0590178 L19.6383696,16.0590178 Z M16.6728196,10.001317 C16.1307298,10.001317 15.7291449,10.1694718 15.4690614,10.5047499 C15.2089779,10.8400279 15.0515327,11.2887847 14.9987188,11.8499886 L17.9642688,11.8499886 C18.0071178,11.2557727 17.9194268,10.798763 17.7011958,10.4799909 C17.4829648,10.1601872 17.1401727,10.001317 16.6728196,10.001317 Z M22.9158204,12.5432405 L20.5242479,8.51577729 L22.9955395,8.51577729 L24.0318876,10.2819189 L24.4783145,11.4373387 L24.956629,10.2819189 L26.0408086,8.51577729 L28.2888868,8.51577729 L25.8813704,12.4772165 L28.448325,16.7687756 L26.0408086,16.7687756 L24.8131347,14.788056 L24.3348202,13.5666123 L23.824618,14.788056 L22.5969441,16.7687756 L20.3329221,16.7687756 L22.9158204,12.5432405 L22.9158204,12.5432405 Z M28.919664,11.0742068 L32.9215621,11.0742068 L32.9215621,12.9723964 L28.919664,12.9723964 L28.919664,11.0742068 Z M38.0963272,14.4909481 C38.100165,14.2782365 37.997688,14.078537 37.8252823,13.9627562 C37.6164006,13.8152828 37.3916818,13.6934225 37.155642,13.5996243 C36.8895796,13.4892404 36.5976084,13.3767933 36.2787321,13.2612513 C35.96478,13.1483978 35.6691302,12.987013 35.4018222,12.7825774 C35.1307834,12.5728993 34.903086,12.3091107 34.7321818,12.0067956 C34.5508209,11.6931816 34.4611369,11.2887847 34.4611369,10.7936048 C34.4611369,9.97862124 34.6943153,9.35758312 35.1626649,8.92842721 C35.630018,8.49927129 36.3046408,8.28469334 37.1875297,8.28469334 C37.7933947,8.28469334 38.3404669,8.35071732 38.8297428,8.4827653 C39.3180222,8.61481327 39.7006738,8.76336724 39.9776976,8.92842721 L39.5153269,10.4799909 C39.2118944,10.3608096 38.9033203,10.2561607 38.5905856,10.166377 C38.2225414,10.0569199 37.8415042,10.0013604 37.4585745,10.001317 C36.8407516,10.001317 36.5338332,10.2489069 36.5338332,10.7440868 C36.5338332,10.9421588 36.6235171,11.1020606 36.804878,11.2227607 C36.984246,11.3434608 37.2084559,11.4569396 37.4745184,11.5611337 C37.7395843,11.6653278 38.032552,11.7777749 38.3514283,11.8995066 C38.6703046,12.0202067 38.9622758,12.1780453 39.2283382,12.3699275 C39.4934042,12.5628413 39.7166176,12.8135262 39.8979786,13.1209504 C40.0773465,13.4294062 40.1690234,13.8255501 40.1690234,14.3093821 C40.1690234,15.1449982 39.9099364,15.8031748 39.3957483,16.2818487 C38.8795672,16.7605226 38.1062921,16.9998596 37.0759229,16.9998596 C36.5395968,17.0037019 36.0054612,16.9286759 35.4895131,16.7770286 C34.9952548,16.6284746 34.5926734,16.4551617 34.285755,16.2570897 L34.8597324,14.656008 C35.1038721,14.7994039 35.4277309,14.9397049 35.8323052,15.076911 C36.2358831,15.2141171 36.6494258,15.2832359 37.0759229,15.2832359 C37.3838379,15.2832359 37.6309671,15.2223701 37.8173104,15.10167 C38.0026573,14.9809699 38.0963272,14.7767081 38.0963272,14.4909481 L38.0963272,14.4909481 Z M40.7828604,8.51577729 L41.8829838,8.51577729 L41.8829838,6.9642136 L43.95568,6.35349173 L43.95568,8.51577729 L45.9008257,8.51577729 L45.9008257,10.3314369 L43.95568,10.3314369 L43.95568,13.5005883 C43.95568,14.07314 44.0114833,14.4826951 44.1230901,14.730285 C44.2346968,14.977875 44.4449559,15.10167 44.7528708,15.10167 C44.9661194,15.10167 45.1494733,15.0800058 45.3029325,15.035646 C45.4800407,14.9826313 45.6532165,14.9164348 45.8211066,14.837574 L46.1878144,16.4881737 C45.8657037,16.6440366 45.529164,16.7657022 45.1833539,16.8513056 C44.8027458,16.95008 44.4118398,16.9999732 44.0194553,16.9998596 C43.2860397,16.9998596 42.7469394,16.8038509 42.4011578,16.4138967 C42.0563728,16.0229109 41.8829838,15.3822719 41.8829838,14.4909481 L41.8829838,10.3314369 L40.7828604,10.3314369 L40.7828604,8.51577729 Z M47.2171871,8.99445119 C47.7027468,8.77737133 48.2110504,8.61950339 48.7318497,8.52403029 C49.33639,8.40658449 49.9502996,8.34855546 50.5653886,8.35071732 C51.1184398,8.35071732 51.5808105,8.41983618 51.9525007,8.55704228 C52.3251874,8.69424838 52.620148,8.89025709 52.8373826,9.14300516 C53.0556136,9.39575324 53.2100693,9.69905093 53.2997533,10.050835 C53.3904337,10.402619 53.4352757,10.798763 53.4352757,11.2392667 C53.4352757,11.7241304 53.4193319,12.2100257 53.3874442,12.7000474 C53.3555566,13.1900692 53.3376198,13.6708064 53.3316409,14.1443222 C53.3266584,14.6178379 53.3396128,15.076911 53.3715004,15.5225729 C53.4033881,15.9682348 53.4831071,16.3891377 53.6106577,16.7852816 L51.9206131,16.7852816 L51.5857929,15.6463678 L51.5060738,15.6463678 C51.2938218,15.986804 50.9988612,16.2818487 50.621192,16.5294387 C50.2445193,16.7770286 49.7582329,16.9008236 49.1623327,16.9008236 C48.7906425,16.9008236 48.4558223,16.8430526 48.1578723,16.7275106 C47.8721263,16.6196783 47.6114102,16.4509852 47.392569,16.2323307 C47.1794206,16.0168716 47.0112045,15.7584593 46.8983107,15.4730549 C46.7776401,15.1609292 46.718027,14.8271073 46.7229287,14.4909481 C46.7229287,13.9854519 46.8325425,13.5583593 47.049777,13.2117333 C47.268008,12.8651074 47.5819019,12.5845055 47.9904622,12.3699275 C48.400019,12.1553496 48.8892949,12.0067956 49.4572933,11.9242656 C50.088849,11.8391242 50.7266273,11.8142607 51.3625795,11.8499886 C51.4373161,11.2341086 51.3944671,10.79051 51.2350289,10.5212559 C51.0755908,10.2520018 50.7198444,10.116859 50.1667932,10.116859 C49.752254,10.116859 49.313799,10.1612188 48.8514283,10.2489069 C48.3890576,10.336595 48.0093955,10.452137 47.7114454,10.5955329 L47.2171871,8.99445119 L47.2171871,8.99445119 Z M49.8479169,15.134682 C50.2624561,15.134682 50.5922938,15.0387408 50.8364335,14.845827 C51.0815697,14.6529132 51.2619341,14.4465882 51.3785233,14.2268521 L51.3785233,13.1539624 C51.0632963,13.1211857 50.745979,13.1156646 50.4298662,13.1374564 C50.1269337,13.1591205 49.8588782,13.2096701 49.6247034,13.2860103 C49.4157834,13.3480595 49.2243739,13.461293 49.0666698,13.6161303 C48.9279581,13.7603221 48.852952,13.9574358 48.8594002,14.1608281 C48.8594002,14.469284 48.9470912,14.7075893 49.1224732,14.878839 C49.2978552,15.0490571 49.5400019,15.134682 49.8479169,15.134682 Z M59.6633292,10.5295089 C59.3774593,10.417026 59.0752104,10.3556308 58.769479,10.3479429 C58.3977887,10.3479429 58.0868843,10.4500738 57.8367657,10.6533039 C57.5911914,10.8509024 57.4148089,11.1262544 57.3345354,11.4373387 L57.3345354,16.7687756 L55.2618392,16.7687756 L55.2618392,8.51577729 L56.8721648,8.51577729 L57.111322,9.60517307 L57.1750973,9.60517307 C57.3564582,9.19768128 57.6005979,8.88406734 57.9085129,8.66433126 C58.2174243,8.44459518 58.5781532,8.33421133 58.9926924,8.33421133 C59.2697162,8.33421133 59.5826136,8.39507719 59.9333776,8.51577729 L59.6623327,10.5295089 L59.6633292,10.5295089 Z M60.595046,8.51577729 L61.6951694,8.51577729 L61.6951694,6.9642136 L63.7678656,6.35349173 L63.7678656,8.51577729 L65.7130113,8.51577729 L65.7130113,10.3314369 L63.7678656,10.3314369 L63.7678656,13.5005883 C63.7678656,14.07314 63.823669,14.4826951 63.9352757,14.730285 C64.0468824,14.977875 64.2571415,15.10167 64.5650565,15.10167 C64.7773085,15.10167 64.9606624,15.0800058 65.1151182,15.035646 C65.2922264,14.9826313 65.4654021,14.9164348 65.6332922,14.837574 L66,16.4881737 C65.6778893,16.6440366 65.3413496,16.7657022 64.9955395,16.8513056 C64.6149314,16.95008 64.2240255,16.9999732 63.8316409,16.9998596 C63.0982253,16.9998596 62.559125,16.8038509 62.2133435,16.4138967 C61.8675619,16.0229109 61.6951694,15.3822719 61.6951694,14.4909481 L61.6951694,10.3314369 L60.595046,10.3314369 L60.595046,8.51577729 Z" id="Shape" fill="#2B2B2B" fill-rule="nonzero"></path>
            <polygon id="Shape" fill="#E0E7EE" fill-rule="nonzero" points="281 26 521 26 521 106 281 106"></polygon>
            <polygon id="Shape" fill="#7D8793" fill-rule="nonzero" points="441 26 521 26 521 106 441 106"></polygon>
            <path d="M286.578659,6.93120557 C286.390923,6.89089829 286.200818,6.86332892 286.009572,6.84867542 C285.777715,6.82707053 285.545043,6.8160557 285.312239,6.81566336 C285.06677,6.81566336 284.868391,6.85383355 284.719106,6.93120557 C284.57472,7.00324695 284.454655,7.11824753 284.374448,7.26132618 C284.287659,7.42714513 284.235769,7.60992897 284.222157,7.79777217 C284.201116,8.01235057 284.190095,8.25168801 284.190095,8.5157845 L285.392393,8.5157845 L285.392393,10.3314479 L284.190095,10.3314479 L284.190095,16.7687998 L282.106113,16.7687998 L282.106113,10.3314479 L281,10.3314479 L281,8.5157845 L282.106113,8.5157845 L282.106113,8.05361565 C282.106113,7.01889386 282.349579,6.25136344 282.835507,5.75102439 C283.321436,5.25068534 284.158034,5 285.344301,5 C285.58977,5 285.873312,5.01031627 286.193924,5.03301206 C286.514537,5.05467623 286.832144,5.07943527 287.147747,5.1072892 C287.46335,5.13514312 287.756911,5.16506031 288.029431,5.19807237 C288.301952,5.23108443 288.513356,5.26409649 288.662641,5.29710855 L288.662641,13.9957866 C288.662641,14.3805835 288.710733,14.661186 288.806917,14.8375942 C288.893954,15.0079845 289.069016,15.1109867 289.255774,15.1016907 C289.384019,15.1016907 289.509259,15.0913744 289.632494,15.0686786 C289.75573,15.0470145 289.908021,14.9964647 290.089367,14.9201243 L290.329827,16.6037395 C290.159501,16.6914277 289.893994,16.779116 289.53631,16.8678359 C289.17658,16.9560761 288.80801,17.0003973 288.438212,16.9998842 C287.829048,16.9998842 287.366164,16.8544248 287.051563,16.5624744 C286.73596,16.270524 286.578659,15.7887542 286.578659,15.1181967 L286.578659,6.93120557 L286.578659,6.93120557 Z M297.728964,16.0590405 C297.408352,16.3231369 296.972519,16.5459684 296.422468,16.7275347 C295.854684,16.9118386 295.262433,17.0037285 294.667114,16.9998842 C293.374644,16.9998842 292.427835,16.6119925 291.829692,15.836209 C291.23155,15.0604256 290.931977,13.9957866 290.931977,12.6422921 C290.931977,11.1897614 291.26862,10.1003634 291.941907,9.37409809 C292.615193,8.64783275 293.561,8.28470007 294.779328,8.28470007 C295.185104,8.28470007 295.58086,8.3393763 295.965595,8.44976038 C296.35033,8.56014446 296.691983,8.74171079 296.991555,8.99445939 C297.291128,9.24720798 297.531587,9.58867649 297.712934,10.0178333 C297.89428,10.4469901 297.985454,10.9803412 297.985454,11.6189182 C297.985454,11.8500027 297.972429,12.0975931 297.945378,12.3616896 C297.916823,12.6384393 297.876709,12.9137947 297.825148,13.1869911 L293.015959,13.1869911 C293.04802,13.8802444 293.221352,14.4032793 293.536955,14.755064 C293.852558,15.1068488 294.362532,15.283257 295.06788,15.283257 C295.505716,15.283257 295.899469,15.214138 296.246131,15.0769316 C296.593795,14.9397253 296.857299,14.7983924 297.039647,14.6560279 L297.728964,16.0590405 L297.728964,16.0590405 Z M294.747267,10.0013272 C294.202226,10.0013272 293.798454,10.1694824 293.536955,10.5047612 C293.275455,10.8400399 293.117152,11.2887976 293.064051,11.8500027 L296.045748,11.8500027 C296.08883,11.2557856 296.000662,10.7987748 295.781243,10.4800021 C295.561823,10.1601978 295.217165,10.0013272 294.747267,10.0013272 Z M301.024261,12.543256 L298.619666,8.5157845 L301.104414,8.5157845 L302.146405,10.2819298 L302.595262,11.4373519 L303.076181,10.2819298 L304.166264,8.5157845 L306.426583,8.5157845 L304.005958,12.4772318 L306.586889,16.7687998 L304.166264,16.7687998 L302.931906,14.7880761 L302.450987,13.5666298 L301.938007,14.7880761 L300.703648,16.7687998 L298.427299,16.7687998 L301.024261,12.543256 L301.024261,12.543256 Z M307.060795,11.0742192 L311.084483,11.0742192 L311.084483,12.9724127 L307.060795,12.9724127 L307.060795,11.0742192 Z M319.381336,16.0590405 C319.060723,16.3231369 318.62489,16.5459684 318.074839,16.7275347 C317.507055,16.9118386 316.914804,17.0037285 316.319485,16.9998842 C315.026014,16.9998842 314.080207,16.6119925 313.482064,15.836209 C312.882919,15.0604256 312.584349,13.9957866 312.584349,12.6422921 C312.584349,11.1897614 312.920992,10.1003634 313.594278,9.37409809 C314.267565,8.64783275 315.213372,8.28470007 316.4317,8.28470007 C316.837475,8.28470007 317.233231,8.3393763 317.617966,8.44976038 C318.002702,8.56014446 318.344354,8.74171079 318.643927,8.99445939 C318.942497,9.24720798 319.182957,9.58867649 319.365305,10.0178333 C319.54565,10.4469901 319.637826,10.9803412 319.637826,11.6189182 C319.637826,11.8500027 319.623799,12.0975931 319.597749,12.3616896 C319.569194,12.6384393 319.529081,12.9137947 319.47752,13.1869911 L314.668331,13.1869911 C314.700392,13.8802444 314.873723,14.4032793 315.189326,14.755064 C315.503927,15.1068488 316.014903,15.283257 316.720251,15.283257 C317.158088,15.283257 317.550838,15.214138 317.898502,15.0769316 C318.245165,14.9397253 318.50967,14.7983924 318.692019,14.6560279 L319.381336,16.0590405 Z M316.399639,10.0013272 C315.854597,10.0013272 315.450826,10.1694824 315.189326,10.5047612 C314.926824,10.8400399 314.768522,11.2887976 314.716422,11.8500027 L317.69812,11.8500027 C317.7402,11.2557856 317.652032,10.7987748 317.433614,10.4800021 C317.213193,10.1601978 316.869536,10.0013272 316.399639,10.0013272 Z M326.106185,16.7687998 L326.106185,12.0810871 C326.106185,11.4105296 326.013007,10.925665 325.825649,10.6285564 C325.639293,10.3314479 325.320684,10.1828936 324.871827,10.1828936 C324.477072,10.1828936 324.142433,10.3015307 323.869912,10.5377732 C323.599568,10.7709892 323.397076,11.0765948 323.284794,11.4208459 L323.284794,16.7687998 L321.200812,16.7687998 L321.200812,8.5157845 L322.851967,8.5157845 L323.092427,9.60518252 L323.156549,9.60518252 C323.40302,9.25339774 323.728642,8.9449413 324.134418,8.68084481 C324.541195,8.41674832 325.064194,8.28470007 325.705419,8.28470007 C326.101175,8.28470007 326.453849,8.3393763 326.763441,8.44976038 C327.074034,8.56014446 327.335534,8.74171079 327.548942,8.99445939 C327.763351,9.24720798 327.923658,9.59177137 328.029861,10.0260863 C328.137065,10.4604012 328.190167,10.9968472 328.190167,11.6354243 L328.190167,16.7687998 L326.106185,16.7687998 L326.106185,16.7687998 Z M336.839694,13.8637384 C336.839694,14.3259072 336.845705,14.7880761 336.855724,15.250245 C336.866745,15.7124138 336.914837,16.2241008 337,16.7853058 L335.509151,16.7853058 L335.2206,15.7124138 L335.156478,15.7124138 C334.94307,16.0972106 334.635482,16.408762 334.234716,16.6450045 C333.833951,16.8822787 333.361047,16.9998842 332.816006,16.9998842 C331.812087,16.9998842 331.031596,16.6594473 330.475534,15.9765103 C329.920473,15.2946049 329.641941,14.2268711 329.641941,12.7743404 C329.641941,11.3661696 329.952534,10.2705819 330.571717,9.4896403 C331.191902,8.70869873 332.100639,8.31771214 333.296924,8.31771214 C333.628558,8.31771214 333.901079,8.33731305 334.114487,8.37548324 C334.328896,8.41365344 334.542304,8.47761431 334.755712,8.56530259 L334.755712,5.2145784 L336.839694,5.2145784 L336.839694,13.8637384 L336.839694,13.8637384 Z M333.296924,15.1842208 C333.703702,15.1842208 334.024314,15.0820898 334.258762,14.8788593 C334.494212,14.6756288 334.659528,14.3805835 334.755712,13.9957866 L334.755712,10.4965082 C334.607113,10.3760132 334.438826,10.2837848 334.258762,10.2241587 C334.029504,10.1571126 333.791647,10.1264988 333.553415,10.1333755 C332.966293,10.1333755 332.52545,10.336606 332.230888,10.7440986 C331.937327,11.1515913 331.790045,11.8500027 331.790045,12.8403645 C331.790045,13.5449657 331.910275,14.1113289 332.150734,14.5404856 C332.391194,14.9696424 332.773925,15.1842208 333.296924,15.1842208 L333.296924,15.1842208 Z" id="Shape" fill="#2B2B2B" fill-rule="nonzero"></path>
            <path d="M8.09746888,135.302224 C7.74447138,135.543439 7.34793951,135.719549 6.92804022,135.821599 C6.46791249,135.941043 5.99327291,136.001001 5.5166608,135.999891 C4.87145878,135.999891 4.32706958,135.902024 3.87946068,135.705321 C3.449587,135.521484 3.07505354,135.236159 2.79068227,134.875872 C2.49711754,134.489741 2.29105775,134.048731 2.18580538,133.581313 C2.05727153,133.03188 1.99502923,132.470041 2.0003098,131.906912 C2.0003098,130.593942 2.30678075,129.584263 2.91972267,128.875938 C3.53266459,128.168581 4.42586614,127.813934 5.59731105,127.813934 C6.18908228,127.813934 6.6659269,127.860445 7.02482052,127.953467 C7.3857304,128.046489 7.71034767,128.165674 8.00068858,128.310052 L7.50065701,129.953445 C7.26503433,129.843942 7.01934018,129.755709 6.76673971,129.689882 C6.49519631,129.624448 6.21596298,129.59318 5.93604211,129.59686 C5.3553603,129.59686 4.91480829,129.780967 4.61337797,130.147242 C4.31295578,130.514486 4.16173656,131.10072 4.16173656,131.906912 C4.16173656,132.237335 4.20004543,132.542564 4.27464691,132.821631 C4.35025653,133.100698 4.46316688,133.343912 4.61337797,133.550305 C4.7645972,133.756699 4.96017406,133.919487 5.20212482,134.038672 C5.44407557,134.157857 5.72635146,134.216965 6.04895247,134.216965 C6.40381358,134.216965 6.7052439,134.173361 6.95223529,134.085183 C7.20023482,133.997975 7.42000676,133.891387 7.61356736,133.767357 L8.09746888,135.302224 L8.09746888,135.302224 Z M15.6392756,135.11618 C15.3166746,135.364239 14.879147,135.573539 14.3246765,135.74408 C13.753371,135.917192 13.1574468,136.003502 12.558436,135.999891 C11.2579506,135.999891 10.3062777,135.635554 9.70341703,134.90688 C9.10156452,134.178206 8.8001342,133.178216 8.8001342,131.906912 C8.8001342,130.542586 9.13886526,129.519342 9.81632738,128.837178 C10.4937895,128.155015 11.4454625,127.813934 12.6713463,127.813934 C13.0806463,127.813934 13.4778488,127.86529 13.8649701,127.968971 C14.2426912,128.067812 14.5944619,128.242151 14.8972933,128.480593 C15.1987236,128.717994 15.4406744,129.038727 15.6231456,129.441823 C15.8066249,129.844919 15.8973564,130.345883 15.8973564,130.945683 C15.8973564,131.162735 15.8842507,131.39529 15.8570313,131.643349 C15.8282992,131.903294 15.7879367,132.161928 15.7360559,132.418535 L10.8970408,132.418535 C10.9293009,133.069691 11.1047152,133.560964 11.4212674,133.891387 C11.7388278,134.22181 12.251965,134.387506 12.9616872,134.387506 C13.4032474,134.387506 13.7984336,134.322584 14.1472459,134.193709 C14.4970664,134.064835 14.7632122,133.932084 14.9456834,133.798365 L15.6392756,135.11618 L15.6392756,135.11618 Z M12.6390862,129.426319 C12.0906645,129.426319 11.685397,129.584263 11.4212674,129.899182 C11.158146,130.214101 10.9998698,130.635608 10.9454309,131.162735 L13.9456203,131.162735 C13.9889698,130.604601 13.9002545,130.175342 13.6794745,129.875927 C13.4597025,129.575543 13.1129065,129.426319 12.6390862,129.426319 Z M22.407848,135.782839 L22.407848,131.379786 C22.407848,130.749948 22.313084,130.294527 22.1255722,130.01546 C21.9370522,129.736393 21.6164674,129.59686 21.164826,129.59686 C20.7676235,129.59686 20.4309087,129.708293 20.1566979,129.93019 C19.884677,130.149244 19.680929,130.436292 19.567951,130.759638 L19.567951,135.782839 L17.4710445,135.782839 L17.4710445,128.030986 L19.1324397,128.030986 L19.3743904,129.05423 L19.4389106,129.05423 C19.6869102,128.723808 20.0135437,128.434082 20.4228437,128.186023 C20.8321437,127.937963 21.3583866,127.813934 22.0035887,127.813934 C22.4017993,127.813934 22.7566604,127.86529 23.068172,127.968971 C23.3806917,128.072652 23.642805,128.243193 23.8585445,128.480593 C24.0742839,128.717994 24.2355844,129.041634 24.342446,129.449575 C24.4503157,129.857516 24.5037465,130.361387 24.5037465,130.961186 L24.5037465,135.782839 L22.4068399,135.782839 L22.407848,135.782839 Z M25.5128828,128.030986 L26.6258562,128.030986 L26.6258562,126.573637 L28.7227628,126 L28.7227628,128.030986 L30.690629,128.030986 L30.690629,129.736393 L28.7227628,129.736393 L28.7227628,132.713105 C28.7227628,133.25089 28.779218,133.635576 28.8921283,133.868131 C29.0050387,134.100687 29.2177537,134.216965 29.5292653,134.216965 C29.7439966,134.216965 29.9294922,134.196616 30.0857521,134.15495 C30.264929,134.105155 30.4401276,134.042978 30.6099787,133.968906 L30.9809699,135.519276 C30.6550967,135.665675 30.3146261,135.779953 29.9647767,135.860358 C29.5797228,135.953134 29.1842509,135.999998 28.787283,135.999891 C28.0453007,135.999891 27.4999034,135.815785 27.1500829,135.44951 C26.8002624,135.082266 26.6258562,134.480528 26.6258562,133.643328 L26.6258562,129.736393 L25.5128828,129.736393 L25.5128828,128.030986 Z M38.4421264,135.11618 C38.1195253,135.364239 37.6809896,135.573539 37.1275272,135.74408 C36.5562218,135.917192 35.9602975,136.003502 35.3612867,135.999891 C34.0608014,135.999891 33.1081203,135.635554 32.5062678,134.90688 C31.9044153,134.178206 31.6029849,133.178216 31.6029849,131.906912 C31.6029849,130.542586 31.941716,129.519342 32.6191781,128.837178 C33.2966402,128.155015 34.2483132,127.813934 35.4741971,127.813934 C35.882489,127.813934 36.2806996,127.86529 36.6678208,127.968971 C37.054942,128.072652 37.3987137,128.243193 37.700144,128.480593 C38.0015743,128.717994 38.2435251,129.038727 38.4259963,129.441823 C38.6084675,129.844919 38.7002072,130.345883 38.7002072,130.945683 C38.7002072,131.162735 38.6871015,131.39529 38.659882,131.643349 C38.6311499,131.903294 38.5907874,132.161928 38.5389067,132.418535 L33.6998915,132.418535 C33.7321516,133.069691 33.9065578,133.560964 34.2241181,133.891387 C34.5416785,134.22181 35.0548157,134.387506 35.764538,134.387506 C36.20509,134.387506 36.6012843,134.322584 36.9500967,134.193709 C37.2999172,134.064835 37.5650549,133.932084 37.7485342,133.798365 L38.4421264,135.11618 L38.4421264,135.11618 Z M35.441937,129.426319 C34.8935152,129.426319 34.4872396,129.584263 34.2241181,129.899182 C33.9609967,130.214101 33.8017125,130.635608 33.7482817,131.162735 L36.748471,131.162735 C36.7918206,130.604601 36.7031053,130.175342 36.4823252,129.875927 C36.2615452,129.575543 35.9147491,129.426319 35.441937,129.426319 Z M44.7257891,129.922438 C44.436898,129.816893 44.131469,129.759228 43.8225063,129.751897 C43.4464745,129.751897 43.1319385,129.847826 42.8788984,130.038716 C42.6268663,130.229605 42.4564927,130.474758 42.3708018,130.775142 L42.3708018,135.782839 L40.2738952,135.782839 L40.2738952,128.030986 L41.9030303,128.030986 L42.1449811,129.05423 L42.2095013,129.05423 C42.3919725,128.671483 42.639972,128.376912 42.9514836,128.170519 C43.2640033,127.964126 43.6289457,127.860445 44.048327,127.860445 C44.3275785,127.860445 44.6451389,127.917615 45,128.030986 L44.7257891,129.922438 L44.7257891,129.922438 Z" id="Shape" fill="#2B2B2B" fill-rule="nonzero"></path>
            <path d="M141,245.182069 L143.070544,245.182069 L143.070544,249.154483 L143.134253,249.154483 C143.357236,248.889654 143.643923,248.680001 143.994325,248.525517 C144.344726,248.371034 144.732286,248.293793 145.157015,248.293793 C146.112655,248.293793 146.842647,248.6331 147.347013,249.311724 C147.851379,249.990348 148.103558,251.024821 148.103558,252.415172 C148.103558,253.904835 147.750507,255.035858 147.044395,255.808276 C146.338283,256.580694 145.369384,256.966897 144.13767,256.966897 C143.458104,256.966897 142.836947,256.908966 142.274181,256.793103 C141.711415,256.677241 141.286692,256.547587 141,256.404138 L141,245.182069 Z M144.551779,250.114483 C144.169523,250.114483 143.858944,250.216551 143.620034,250.42069 C143.381124,250.624829 143.197962,250.919998 143.070544,251.306207 L143.070544,254.914483 C143.240435,255.002759 143.423597,255.063448 143.620034,255.096552 C143.816471,255.129655 144.026178,255.146207 144.249161,255.146207 C144.811927,255.146207 145.239304,254.933795 145.531305,254.508966 C145.823307,254.084136 145.969305,253.40828 145.969305,252.481379 C145.969305,250.90344 145.496801,250.114483 144.551779,250.114483 Z M149.843168,248.972414 C150.267897,248.773792 150.772256,248.616552 151.356258,248.50069 C151.94026,248.384827 152.550799,248.326897 153.187893,248.326897 C153.740041,248.326897 154.201926,248.395861 154.573564,248.533793 C154.945202,248.671725 155.239854,248.867585 155.457527,249.121379 C155.675201,249.375174 155.829163,249.678619 155.919418,250.031724 C156.009673,250.384829 156.0548,250.782067 156.0548,251.223448 C156.0548,251.708968 156.038872,252.197239 156.007018,252.688276 C155.975163,253.179313 155.956581,253.662067 155.951272,254.136552 C155.945963,254.611037 155.959236,255.071722 155.99109,255.518621 C156.022945,255.965519 156.102581,256.387584 156.229999,256.784828 L154.54171,256.784828 L154.207237,255.642759 L154.127601,255.642759 C153.915237,255.984829 153.620585,256.279999 153.243638,256.528276 C152.866691,256.776553 152.380915,256.90069 151.786294,256.90069 C151.414656,256.90069 151.080187,256.842759 150.782877,256.726897 C150.485566,256.611034 150.230733,256.445518 150.018368,256.230345 C149.806004,256.015171 149.641424,255.761381 149.524623,255.468966 C149.407823,255.17655 149.349423,254.848278 149.349423,254.484138 C149.349423,253.976549 149.458259,253.548967 149.675932,253.201379 C149.893606,252.853791 150.206839,252.572415 150.61564,252.357241 C151.024442,252.142068 151.512873,251.993104 152.080948,251.910345 C152.649023,251.827586 153.283453,251.802758 153.984256,251.835862 C154.058583,251.217928 154.016111,250.773794 153.856838,250.503448 C153.697564,250.233102 153.341859,250.097931 152.789711,250.097931 C152.375601,250.097931 151.937605,250.142069 151.475712,250.230345 C151.01382,250.318621 150.634224,250.434482 150.336913,250.577931 L149.843168,248.972414 Z M152.471166,255.129655 C152.885277,255.129655 153.214437,255.033104 153.458656,254.84 C153.702875,254.646896 153.883383,254.440001 154.000183,254.21931 L154.000183,253.143448 C153.671018,253.110345 153.355131,253.104827 153.052511,253.126897 C152.749892,253.148966 152.481786,253.19862 152.248185,253.275862 C152.014584,253.353104 151.828767,253.463448 151.69073,253.606897 C151.552694,253.750346 151.483676,253.932413 151.483676,254.153103 C151.483676,254.462071 151.571275,254.702068 151.746476,254.873103 C151.921677,255.044139 152.163238,255.129655 152.471166,255.129655 Z M161.441753,254.484138 C161.441753,254.263447 161.351499,254.086897 161.170989,253.954483 C160.990479,253.822068 160.7675,253.70069 160.502044,253.590345 C160.236589,253.479999 159.944592,253.366897 159.626045,253.251034 C159.307498,253.135172 159.015501,252.975173 158.750046,252.771034 C158.48459,252.566896 158.261611,252.307588 158.081101,251.993103 C157.900591,251.678619 157.810337,251.273106 157.810337,250.776552 C157.810337,249.959996 158.043935,249.336554 158.511137,248.906207 C158.978339,248.47586 159.652586,248.26069 160.533899,248.26069 C161.139138,248.26069 161.685968,248.326896 162.174407,248.45931 C162.662845,248.591725 163.045095,248.740689 163.321169,248.906207 L162.859279,250.462069 C162.615059,250.362758 162.307136,250.257932 161.935498,250.147586 C161.56386,250.037241 161.186918,249.982069 160.804662,249.982069 C160.188805,249.982069 159.880881,250.230342 159.880881,250.726897 C159.880881,250.925518 159.971135,251.085517 160.151645,251.206897 C160.332154,251.328276 160.555134,251.441379 160.820589,251.546207 C161.086045,251.651035 161.378042,251.764137 161.696589,251.885517 C162.015136,252.006897 162.307132,252.164137 162.572588,252.357241 C162.838044,252.550346 163.061023,252.801378 163.241533,253.110345 C163.422043,253.419312 163.512296,253.816549 163.512296,254.302069 C163.512296,255.140694 163.254808,255.799998 162.739824,256.28 C162.22484,256.760002 161.452376,257 160.422408,257 C159.859642,257 159.331393,256.925518 158.837646,256.776552 C158.343898,256.627585 157.943066,256.453794 157.635138,256.255172 L158.208519,254.649655 C158.452738,254.793104 158.776589,254.933792 159.180082,255.071724 C159.583574,255.209656 159.997679,255.278621 160.422408,255.278621 C160.730337,255.278621 160.977207,255.217932 161.163026,255.096552 C161.348845,254.975172 161.441753,254.771036 161.441753,254.484138 Z M171.590956,256.056552 C171.272409,256.321381 170.839723,256.544827 170.292885,256.726897 C169.746046,256.908966 169.164707,257 168.54885,257 C167.264044,257 166.324345,256.611038 165.729725,255.833103 C165.135104,255.055169 164.837798,253.987593 164.837798,252.630345 C164.837798,251.173786 165.172267,250.081383 165.841216,249.353103 C166.510164,248.624824 167.449863,248.26069 168.660341,248.26069 C169.063833,248.26069 169.456702,248.315862 169.838958,248.426207 C170.221214,248.536552 170.560992,248.718619 170.858302,248.972414 C171.155613,249.226208 171.394519,249.568274 171.575029,249.998621 C171.755539,250.428968 171.845792,250.964135 171.845792,251.604138 C171.845792,251.835863 171.83252,252.084137 171.805974,252.348966 C171.779429,252.613794 171.739611,252.889654 171.68652,253.176552 L166.908342,253.176552 C166.940197,253.871728 167.11274,254.39586 167.425978,254.748966 C167.739216,255.102071 168.246228,255.278621 168.947031,255.278621 C169.382378,255.278621 169.772592,255.209656 170.117685,255.071724 C170.462777,254.933792 170.725574,254.793104 170.906084,254.649655 L171.590956,256.056552 Z M168.628486,249.982069 C168.086956,249.982069 167.686124,250.150343 167.425978,250.486897 C167.165831,250.82345 167.009215,251.273101 166.956124,251.835862 L169.918594,251.835862 C169.961067,251.239997 169.873468,250.782071 169.655794,250.462069 C169.438121,250.142067 169.095688,249.982069 168.628486,249.982069 Z M175.799292,253.987586 C175.799292,254.373795 175.847073,254.655172 175.942637,254.831724 C176.038201,255.008277 176.192163,255.096552 176.404528,255.096552 C176.531947,255.096552 176.656709,255.085517 176.778819,255.063448 C176.900928,255.041379 177.052236,254.991725 177.232745,254.914483 L177.455727,256.602759 C177.285835,256.691035 177.025693,256.77931 176.675291,256.867586 C176.32489,256.955863 175.963876,257 175.592238,257 C174.986999,257 174.525113,256.853795 174.206566,256.561379 C173.888019,256.268964 173.728748,255.78621 173.728748,255.113103 L173.728748,245.182069 L175.799292,245.182069 L175.799292,253.987586 Z M178.89272,248.492414 L180.963264,248.492414 L180.963264,256.768276 L178.89272,256.768276 L178.89272,248.492414 Z M178.590102,246.158621 C178.590102,245.838619 178.704246,245.565518 178.932538,245.33931 C179.16083,245.113102 179.476717,245 179.88021,245 C180.283703,245 180.610208,245.113102 180.859736,245.33931 C181.109265,245.565518 181.234027,245.838619 181.234027,246.158621 C181.234027,246.478622 181.109265,246.746206 180.859736,246.961379 C180.610208,247.176553 180.283703,247.284138 179.88021,247.284138 C179.476717,247.284138 179.16083,247.176553 178.932538,246.961379 C178.704246,246.746206 178.590102,246.478622 178.590102,246.158621 Z M188.213706,256.768276 L188.213706,252.067586 C188.213706,251.394479 188.120798,250.908967 187.934979,250.611034 C187.74916,250.313102 187.433273,250.164138 186.987307,250.164138 C186.594433,250.164138 186.262618,250.282757 185.991853,250.52 C185.721089,250.757243 185.527309,251.052412 185.410508,251.405517 L185.410508,256.768276 L183.339965,256.768276 L183.339965,248.492414 L184.980472,248.492414 L185.219381,249.584828 L185.28309,249.584828 C185.527309,249.231722 185.85116,248.92276 186.254653,248.657931 C186.658146,248.393102 187.178431,248.26069 187.815525,248.26069 C188.208399,248.26069 188.558795,248.315862 188.866724,248.426207 C189.174652,248.536552 189.434795,248.718619 189.647159,248.972414 C189.859524,249.226208 190.018795,249.571032 190.124977,250.006897 C190.231159,250.442761 190.28425,250.980686 190.28425,251.62069 L190.28425,256.768276 L188.213706,256.768276 Z M198.745164,256.056552 C198.426617,256.321381 197.993931,256.544827 197.447092,256.726897 C196.900254,256.908966 196.318914,257 195.703057,257 C194.418252,257 193.478553,256.611038 192.883932,255.833103 C192.289312,255.055169 191.992006,253.987593 191.992006,252.630345 C191.992006,251.173786 192.326475,250.081383 192.995423,249.353103 C193.664371,248.624824 194.60407,248.26069 195.814548,248.26069 C196.218041,248.26069 196.610909,248.315862 196.993165,248.426207 C197.375421,248.536552 197.7152,248.718619 198.01251,248.972414 C198.30982,249.226208 198.548727,249.568274 198.729237,249.998621 C198.909746,250.428968 199,250.964135 199,251.604138 C199,251.835863 198.986727,252.084137 198.960182,252.348966 C198.933636,252.613794 198.893819,252.889654 198.840727,253.176552 L194.06255,253.176552 C194.094404,253.871728 194.266948,254.39586 194.580186,254.748966 C194.893423,255.102071 195.400436,255.278621 196.101239,255.278621 C196.536586,255.278621 196.9268,255.209656 197.271892,255.071724 C197.616985,254.933792 197.879782,254.793104 198.060292,254.649655 L198.745164,256.056552 Z M195.782694,249.982069 C195.241164,249.982069 194.840332,250.150343 194.580186,250.486897 C194.320039,250.82345 194.163422,251.273101 194.110331,251.835862 L197.072802,251.835862 C197.115275,251.239997 197.027675,250.782071 196.810002,250.462069 C196.592328,250.142067 196.249896,249.982069 195.782694,249.982069 Z" id="baseline" fill="#202020"></path>
            <g id="Group" transform="translate(280.000000, 114.000000)" fill-rule="nonzero" fill="#2B2B2B">
                <path d="M4.224,9.792 C4.22785132,9.58580916 4.12501321,9.39223156 3.952,9.28 C3.74238217,9.13704744 3.51687151,9.01892281 3.28,8.928 C3.013,8.821 2.72,8.712 2.4,8.6 C2.08494164,8.49060599 1.78824996,8.33416856 1.52,8.136 C1.24800618,7.93274966 1.01950644,7.67704757 0.848,7.384 C0.667,7.08 0.576,6.688 0.576,6.208 C0.576,5.418 0.811,4.816 1.28,4.4 C1.75,3.984 2.427,3.776 3.312,3.776 C3.92,3.776 4.469,3.84 4.96,3.968 C5.45,4.096 5.835,4.24 6.112,4.4 L5.648,5.904 C5.34349823,5.78847226 5.03383676,5.68703143 4.72,5.6 C4.35065893,5.4938984 3.96827903,5.44004208 3.584,5.44 C2.965,5.44 2.656,5.68 2.656,6.16 C2.656,6.352 2.746,6.507 2.928,6.624 C3.109,6.741 3.333,6.851 3.6,6.952 C3.867,7.053 4.16,7.162 4.48,7.28 C4.8,7.397 5.093,7.55 5.36,7.736 C5.627,7.923 5.85,8.166 6.032,8.464 C6.213,8.763 6.304,9.147 6.304,9.616 C6.304,10.426 6.045,11.064 5.528,11.528 C5.011,11.992 4.235,12.224 3.2,12.224 C2.66178398,12.2277245 2.12576616,12.1549985 1.608,12.008 C1.112,11.864 0.709,11.696 0.4,11.504 L0.976,9.952 C1.221,10.091 1.546,10.227 1.952,10.36 C2.357,10.493 2.773,10.56 3.2,10.56 C3.51,10.56 3.757,10.501 3.944,10.384 C4.131,10.267 4.224,10.069 4.224,9.792 L4.224,9.792 Z M6.921,4 L8.025,4 L8.025,2.496 L10.105,1.904 L10.105,4 L12.057,4 L12.057,5.76 L10.105,5.76 L10.105,8.832 C10.105,9.387 10.161,9.784 10.273,10.024 C10.385,10.264 10.596,10.384 10.905,10.384 C11.118,10.384 11.302,10.363 11.457,10.32 C11.6347323,10.2686105 11.8085183,10.2044433 11.977,10.128 L12.345,11.728 C12.0217543,11.8790849 11.6840287,11.9970208 11.337,12.08 C10.9550507,12.1757465 10.5627673,12.2241102 10.169,12.224 C9.433,12.224 8.892,12.034 8.545,11.656 C8.198,11.277 8.025,10.656 8.025,9.792 L8.025,5.76 L6.921,5.76 L6.921,4 Z M17.841,5.952 C17.5547535,5.84318708 17.2521346,5.78367765 16.946,5.776 C16.572,5.776 16.26,5.875 16.01,6.072 C15.76,6.269 15.591,6.522 15.506,6.832 L15.506,12 L13.426,12 L13.426,4 L15.042,4 L15.282,5.056 L15.346,5.056 C15.527,4.661 15.772,4.357 16.082,4.144 C16.392,3.931 16.754,3.824 17.17,3.824 C17.447,3.824 17.762,3.883 18.114,4 L17.842,5.952 L17.841,5.952 Z M25.531,11.312 C25.211,11.568 24.776,11.784 24.227,11.96 C23.6603007,12.1386537 23.0691812,12.2277265 22.475,12.224 C21.184,12.224 20.24,11.848 19.643,11.096 C19.045,10.344 18.747,9.312 18.747,8 C18.747,6.592 19.083,5.536 19.755,4.832 C20.427,4.128 21.371,3.776 22.587,3.776 C22.992,3.776 23.387,3.829 23.771,3.936 C24.155,4.043 24.496,4.219 24.795,4.464 C25.093,4.709 25.333,5.04 25.515,5.456 C25.696,5.872 25.787,6.389 25.787,7.008 C25.787,7.232 25.773,7.472 25.747,7.728 C25.7184995,7.99626524 25.6784625,8.26317906 25.627,8.528 L20.827,8.528 C20.859,9.2 21.032,9.707 21.347,10.048 C21.661,10.389 22.171,10.56 22.875,10.56 C23.312,10.56 23.704,10.493 24.051,10.36 C24.397,10.227 24.661,10.09 24.843,9.952 L25.531,11.312 L25.531,11.312 Z M22.555,5.44 C22.011,5.44 21.608,5.603 21.347,5.928 C21.085,6.253 20.928,6.688 20.875,7.232 L23.851,7.232 C23.893,6.656 23.805,6.213 23.587,5.904 C23.368,5.594 23.024,5.44 22.555,5.44 Z M26.515,4 L27.62,4 L27.62,2.496 L29.7,1.904 L29.7,4 L31.652,4 L31.652,5.76 L29.7,5.76 L29.7,8.832 C29.7,9.387 29.756,9.784 29.868,10.024 C29.98,10.264 30.19,10.384 30.5,10.384 C30.713,10.384 30.897,10.363 31.052,10.32 C31.2296785,10.2684469 31.4034529,10.204284 31.572,10.128 L31.94,11.728 C31.6167543,11.8790849 31.2790287,11.9970208 30.932,12.08 C30.5500507,12.1757465 30.1577673,12.2241102 29.764,12.224 C29.028,12.224 28.486,12.034 28.14,11.656 C27.793,11.277 27.62,10.656 27.62,9.792 L27.62,5.76 L26.516,5.76 L26.516,4 L26.515,4 Z M38.605,11.504 C38.2547321,11.7527352 37.8614363,11.934465 37.445,12.04 C36.991,12.163 36.525,12.224 36.045,12.224 C35.405,12.224 34.863,12.123 34.42,11.92 C33.9935922,11.7302784 33.6220785,11.4358193 33.34,11.064 C33.0488022,10.6655083 32.8444038,10.2103812 32.74,9.728 C32.6125025,9.16097869 32.550762,8.58115518 32.556,8 C32.556,6.645 32.86,5.603 33.468,4.872 C34.076,4.142 34.962,3.776 36.124,3.776 C36.711,3.776 37.184,3.824 37.54,3.92 C37.898,4.016 38.22,4.139 38.508,4.288 L38.012,5.984 C37.7782771,5.87099176 37.5345638,5.77993408 37.284,5.712 C37.014646,5.64447145 36.737664,5.6122017 36.46,5.616 C35.884,5.616 35.447,5.806 35.148,6.184 C34.85,6.563 34.7,7.168 34.7,8 C34.7,8.341 34.738,8.656 34.812,8.944 C34.887,9.232 34.999,9.483 35.148,9.696 C35.298,9.909 35.492,10.077 35.732,10.2 C35.972,10.323 36.252,10.384 36.572,10.384 C36.924,10.384 37.223,10.339 37.468,10.248 C37.714,10.158 37.932,10.048 38.124,9.92 L38.604,11.504 L38.605,11.504 Z M44.853,12 L44.853,7.456 C44.853,6.806 44.763,6.336 44.581,6.048 C44.4,5.76 44.069,5.616 43.589,5.616 C43.237,5.616 42.915,5.736 42.621,5.976 C42.3312153,6.21077541 42.1261311,6.53385317 42.037,6.896 L42.037,12 L39.957,12 L39.957,0.8 L42.037,0.8 L42.037,4.896 L42.101,4.896 C42.357,4.555 42.672,4.283 43.045,4.08 C43.419,3.877 43.893,3.776 44.469,3.776 C44.875,3.776 45.232,3.829 45.541,3.936 C45.851,4.043 46.109,4.219 46.317,4.464 C46.525,4.709 46.68,5.043 46.781,5.464 C46.883,5.885 46.933,6.405 46.933,7.024 L46.933,12 L44.853,12 L44.853,12 Z" id="Shape"></path>
            </g>
            <polygon id="Shape" fill="#AFB8C1" fill-rule="nonzero" points="281 50 361 50 361 106 281 106"></polygon>
            <polygon id="Shape" fill="#919BA5" fill-rule="nonzero" points="361 67 441 67 441 106 361 106"></polygon>
            <polygon id="Shape" fill="#E0E7EE" fill-rule="nonzero" points="280 146 520 146 520 226 280 226"></polygon>
            <polygon id="Shape" fill="#7D8793" fill-rule="nonzero" points="440 146 520 146 520 226 440 226"></polygon>
            <polygon id="Shape" fill="#AFB8C1" fill-rule="nonzero" points="280 146 360 146 360 226 280 226"></polygon>
            <polygon id="Shape" fill="#919BA5" fill-rule="nonzero" points="360 146 440 146 440 226 360 226"></polygon>
            <polygon id="Shape" fill="#E0E7EE" fill-rule="nonzero" points="2 146 242 146 242 226 2 226"></polygon>
            <polygon id="Shape" fill="#7D8793" fill-rule="nonzero" points="162 146 242 146 242 225 162 225"></polygon>
            <polygon id="Shape" fill="#AFB8C1" fill-rule="nonzero" points="2 157 82 157 82 213 2 213"></polygon>
            <polygon id="Shape" fill="#919BA5" fill-rule="nonzero" points="82 169 162 169 162 208 82 208"></polygon>
            <polygon id="Shape" fill="#E0E7EE" fill-rule="nonzero" points="140 272 380 272 380 352 140 352"></polygon>
            <polygon id="Shape" fill="#7D8793" fill-rule="nonzero" points="300 272 380 272 380 351 300 351"></polygon>
            <polygon id="Shape" fill="#AFB8C1" fill-rule="nonzero" points="140 273 220 273 220 329 140 329"></polygon>
            <polygon id="Shape" fill="#919BA5" fill-rule="nonzero" points="220 275 300 275 300 314 220 314"></polygon>
            <path d="M170,286.182069 L172.08499,286.182069 L172.08499,290.154483 L172.149143,290.154483 C172.373682,289.889654 172.66237,289.680001 173.015216,289.525517 C173.368062,289.371034 173.758325,289.293793 174.186018,289.293793 C175.148326,289.293793 175.883411,289.6331 176.391295,290.311724 C176.89918,290.990348 177.153119,292.024821 177.153119,293.415172 C177.153119,294.904835 176.797605,296.035858 176.086566,296.808276 C175.375528,297.580694 174.399869,297.966897 173.159561,297.966897 C172.475254,297.966897 171.849763,297.908966 171.283071,297.793103 C170.716378,297.677241 170.288692,297.547587 170,297.404138 L170,286.182069 Z M173.576559,291.114483 C173.191636,291.114483 172.878891,291.216551 172.638314,291.42069 C172.397737,291.624829 172.213297,291.919998 172.08499,292.306207 L172.08499,295.914483 C172.256067,296.002759 172.440506,296.063448 172.638314,296.096552 C172.836122,296.129655 173.047292,296.146207 173.27183,296.146207 C173.838522,296.146207 174.268881,295.933795 174.56292,295.508966 C174.856958,295.084136 175.003975,294.40828 175.003975,293.481379 C175.003975,291.90344 174.528175,291.114483 173.576559,291.114483 Z M178.904866,289.972414 C179.332559,289.773792 179.840436,289.616552 180.428513,289.50069 C181.01659,289.384827 181.631388,289.326897 182.272927,289.326897 C182.828927,289.326897 183.294035,289.395861 183.668266,289.533793 C184.042497,289.671725 184.339204,289.867585 184.558396,290.121379 C184.777588,290.375174 184.932625,290.678619 185.023509,291.031724 C185.114394,291.384829 185.159835,291.782067 185.159835,292.223448 C185.159835,292.708968 185.143797,293.197239 185.11172,293.688276 C185.079643,294.179313 185.060932,294.662067 185.055586,295.136552 C185.05024,295.611037 185.063605,296.071722 185.095682,296.518621 C185.127759,296.965519 185.20795,297.387584 185.336258,297.784828 L183.636189,297.784828 L183.299383,296.642759 L183.219191,296.642759 C183.005345,296.984829 182.708638,297.279999 182.329061,297.528276 C181.949484,297.776553 181.460318,297.90069 180.861549,297.90069 C180.487318,297.90069 180.150516,297.842759 179.851131,297.726897 C179.551746,297.611034 179.295135,297.445518 179.081289,297.230345 C178.867442,297.015171 178.701714,296.761381 178.584099,296.468966 C178.466483,296.17655 178.407676,295.848278 178.407676,295.484138 C178.407676,294.976549 178.517271,294.548967 178.736463,294.201379 C178.955656,293.853791 179.271074,293.572415 179.682728,293.357241 C180.094382,293.142068 180.586221,292.993104 181.158259,292.910345 C181.730298,292.827586 182.369153,292.802758 183.074846,292.835862 C183.149692,292.217928 183.106923,291.773794 182.946539,291.503448 C182.786154,291.233102 182.427967,291.097931 181.871967,291.097931 C181.454967,291.097931 181.013916,291.142069 180.548801,291.230345 C180.083685,291.318621 179.701441,291.434482 179.402056,291.577931 L178.904866,289.972414 Z M181.551199,296.129655 C181.968199,296.129655 182.299656,296.033104 182.545579,295.84 C182.791502,295.646896 182.973269,295.440001 183.090884,295.21931 L183.090884,294.143448 C182.759423,294.110345 182.441331,294.104827 182.1366,294.126897 C181.83187,294.148966 181.561893,294.19862 181.326662,294.275862 C181.091431,294.353104 180.904319,294.463448 180.765319,294.606897 C180.626319,294.750346 180.55682,294.932413 180.55682,295.153103 C180.55682,295.462071 180.64503,295.702068 180.821453,295.873103 C180.997876,296.044139 181.241122,296.129655 181.551199,296.129655 Z M256.796162,295.484138 C256.796162,295.263447 256.705279,295.086897 256.523509,294.954483 C256.34174,294.822068 256.117205,294.70069 255.849897,294.590345 C255.58259,294.479999 255.288555,294.366897 254.967786,294.251034 C254.647017,294.135172 254.352983,293.975173 254.085675,293.771034 C253.818367,293.566896 253.593832,293.307588 253.412063,292.993103 C253.230294,292.678619 253.139411,292.273106 253.139411,291.776552 C253.139411,290.959996 253.374638,290.336554 253.845099,289.906207 C254.315561,289.47586 254.994512,289.26069 255.881974,289.26069 C256.491436,289.26069 257.042081,289.326896 257.533927,289.45931 C258.025774,289.591725 258.410691,289.740689 258.688691,289.906207 L258.223578,291.462069 C257.977655,291.362758 257.667582,291.257932 257.293352,291.147586 C256.919121,291.037241 256.53955,290.982069 256.154626,290.982069 C255.534473,290.982069 255.2244,291.230342 255.2244,291.726897 C255.2244,291.925518 255.315284,292.085517 255.497053,292.206897 C255.678822,292.328276 255.903357,292.441379 256.170665,292.546207 C256.437973,292.651035 256.732007,292.764137 257.052776,292.885517 C257.373545,293.006897 257.667579,293.164137 257.934887,293.357241 C258.202195,293.550346 258.42673,293.801378 258.608499,294.110345 C258.790268,294.419312 258.881151,294.816549 258.881151,295.302069 C258.881151,296.140694 258.621867,296.799998 258.10329,297.28 C257.584713,297.760002 256.806859,298 255.769705,298 C255.203013,298 254.671079,297.925518 254.173886,297.776552 C253.676694,297.627585 253.273065,297.453794 252.962988,297.255172 L253.54037,295.649655 C253.786293,295.793104 254.112404,295.933792 254.518711,296.071724 C254.925019,296.209656 255.342013,296.278621 255.769705,296.278621 C256.079782,296.278621 256.328375,296.217932 256.51549,296.096552 C256.702605,295.975172 256.796162,295.771036 256.796162,295.484138 Z M267.016175,297.056552 C266.695406,297.321381 266.259701,297.544827 265.709047,297.726897 C265.158393,297.908966 264.572998,298 263.952844,298 C262.659075,298 261.71282,297.611038 261.114051,296.833103 C260.515281,296.055169 260.215901,294.987593 260.215901,293.630345 C260.215901,292.173786 260.552704,291.081383 261.226319,290.353103 C261.899935,289.624824 262.84619,289.26069 264.065113,289.26069 C264.471421,289.26069 264.86703,289.315862 265.251953,289.426207 C265.636876,289.536552 265.979025,289.718619 266.27841,289.972414 C266.577794,290.226208 266.818368,290.568274 267.000137,290.998621 C267.181906,291.428968 267.27279,291.964135 267.27279,292.604138 C267.27279,292.835863 267.259424,293.084137 267.232694,293.348966 C267.205963,293.613794 267.165867,293.889654 267.112406,294.176552 L262.300891,294.176552 C262.332968,294.871728 262.506715,295.39586 262.822138,295.748966 C263.137562,296.102071 263.648112,296.278621 264.353804,296.278621 C264.792189,296.278621 265.185125,296.209656 265.532625,296.071724 C265.880125,295.933792 266.144756,295.793104 266.326525,295.649655 L267.016175,297.056552 Z M264.033036,290.982069 C263.487729,290.982069 263.0841,291.150343 262.822138,291.486897 C262.560177,291.82345 262.402468,292.273101 262.349006,292.835862 L265.332145,292.835862 C265.374915,292.239997 265.286704,291.782071 265.067512,291.462069 C264.84832,291.142067 264.503498,290.982069 264.033036,290.982069 Z M328.637423,294.987586 C328.637423,295.373795 328.685538,295.655172 328.781768,295.831724 C328.877999,296.008277 329.033035,296.096552 329.246881,296.096552 C329.375189,296.096552 329.500822,296.085517 329.623783,296.063448 C329.746745,296.041379 329.899108,295.991725 330.080877,295.914483 L330.305415,297.602759 C330.134338,297.691035 329.87238,297.77931 329.519534,297.867586 C329.166688,297.955863 328.803155,298 328.428924,298 C327.819462,298 327.354354,297.853795 327.033585,297.561379 C326.712815,297.268964 326.552433,296.78621 326.552433,296.113103 L326.552433,286.182069 L328.637423,286.182069 L328.637423,294.987586 Z M331.752433,289.492414 L333.837423,289.492414 L333.837423,297.768276 L331.752433,297.768276 L331.752433,289.492414 Z M331.447704,287.158621 C331.447704,286.838619 331.562645,286.565518 331.792529,286.33931 C332.022414,286.113102 332.340505,286 332.746813,286 C333.153121,286 333.481904,286.113102 333.733173,286.33931 C333.984443,286.565518 334.110075,286.838619 334.110075,287.158621 C334.110075,287.478622 333.984443,287.746206 333.733173,287.961379 C333.481904,288.176553 333.153121,288.284138 332.746813,288.284138 C332.340505,288.284138 332.022414,288.176553 331.792529,287.961379 C331.562645,287.746206 331.447704,287.478622 331.447704,287.158621 Z M341.138451,297.768276 L341.138451,293.067586 C341.138451,292.394479 341.044895,291.908967 340.857779,291.611034 C340.670664,291.313102 340.352573,291.164138 339.903496,291.164138 C339.50788,291.164138 339.173751,291.282757 338.901097,291.52 C338.628443,291.757243 338.433311,292.052412 338.315696,292.405517 L338.315696,297.768276 L336.230706,297.768276 L336.230706,289.492414 L337.882659,289.492414 L338.123235,290.584828 L338.187389,290.584828 C338.433312,290.231722 338.759422,289.92276 339.16573,289.657931 C339.572038,289.393102 340.095953,289.26069 340.737491,289.26069 C341.133107,289.26069 341.485948,289.315862 341.796025,289.426207 C342.106102,289.536552 342.368059,289.718619 342.581905,289.972414 C342.795752,290.226208 342.956134,290.571032 343.063057,291.006897 C343.16998,291.442761 343.223441,291.980686 343.223441,292.62069 L343.223441,297.768276 L341.138451,297.768276 Z M351.743386,297.056552 C351.422617,297.321381 350.986912,297.544827 350.436258,297.726897 C349.885604,297.908966 349.300209,298 348.680055,298 C347.386286,298 346.44003,297.611038 345.841261,296.833103 C345.242492,296.055169 344.943112,294.987593 344.943112,293.630345 C344.943112,292.173786 345.279914,291.081383 345.95353,290.353103 C346.627145,289.624824 347.5734,289.26069 348.792324,289.26069 C349.198631,289.26069 349.594241,289.315862 349.979164,289.426207 C350.364087,289.536552 350.706236,289.718619 351.00562,289.972414 C351.305005,290.226208 351.545578,290.568274 351.727348,290.998621 C351.909117,291.428968 352,291.964135 352,292.604138 C352,292.835863 351.986635,293.084137 351.959904,293.348966 C351.933173,293.613794 351.893078,293.889654 351.839616,294.176552 L347.028101,294.176552 C347.060178,294.871728 347.233926,295.39586 347.549349,295.748966 C347.864772,296.102071 348.375322,296.278621 349.081014,296.278621 C349.519399,296.278621 349.912335,296.209656 350.259836,296.071724 C350.607336,295.933792 350.871966,295.793104 351.053735,295.649655 L351.743386,297.056552 Z M348.760247,290.982069 C348.214939,290.982069 347.81131,291.150343 347.549349,291.486897 C347.287387,291.82345 347.129678,292.273101 347.076217,292.835862 L350.059356,292.835862 C350.102125,292.239997 350.013915,291.782071 349.794722,291.462069 C349.57553,291.142067 349.230708,290.982069 348.760247,290.982069 Z" id="ba-se-line" fill="#DCD4D4"></path>
            <polygon id="Shape" fill="#7D8793" fill-rule="nonzero" points="162 26 242 26 242 106 162 106"></polygon>
        </g>
    </g>
</svg>