<svg width="390" height="130" xmlns="http://www.w3.org/2000/svg">
  <g fill="none" fill-rule="evenodd">
    <g fill-rule="nonzero">
      <path fill="#E0E7EE" d="M9 33h369v81H9z"/>
      <path fill="#AFB8C1" d="M14 44h72v60H14z"/>
      <path fill="#9DA8B3" d="M86 44h72v60H86z"/>
      <path fill="#7D8793" d="M301 44h72v60h-72z"/>
      <path fill="#919BA5" d="M158 44h144v60H158z"/>
    </g>
    <text font-family="PTSans-Bold, PT Sans" font-size="16" font-weight="bold" fill="#FFF">
      <tspan x="120" y="78">1</tspan>
    </text>
    <text font-family="PTSans-Bold, PT Sans" font-size="16" font-weight="bold" fill="#FFF">
      <tspan x="42" y="78">1</tspan>
    </text>
    <path d="M15.48 11.272a4.918 4.918 0 0 0-.639-.09 8.849 8.849 0 0 0-.783-.036c-.276 0-.498.042-.666.126a.9.9 0 0 0-.387.36c-.09.156-.147.351-.171.585a7.726 7.726 0 0 0-.036.783h1.35v1.98h-1.35V22h-2.34v-7.02H9.216V13h1.242v-.504c0-1.128.273-1.965.819-2.511.546-.546 1.485-.819 2.817-.819.276 0 .594.012.954.036.36.024.717.051 1.071.081.354.03.684.063.99.099.306.036.543.072.711.108v9.486c0 .42.054.726.162.918a.539.539 0 0 0 .504.288c.144 0 .285-.012.423-.036.138-.024.309-.078.513-.162l.27 1.836c-.192.096-.489.192-.891.288a5.29 5.29 0 0 1-1.233.144c-.684 0-1.203-.159-1.557-.477-.354-.318-.531-.843-.531-1.575v-8.928zm12.42 9.954c-.36.288-.849.531-1.467.729a6.422 6.422 0 0 1-1.971.297c-1.452 0-2.514-.423-3.186-1.269-.672-.846-1.008-2.007-1.008-3.483 0-1.584.378-2.772 1.134-3.564.756-.792 1.818-1.188 3.186-1.188.456 0 .9.06 1.332.18a3.1 3.1 0 0 1 1.152.594c.336.276.606.648.81 1.116.204.468.306 1.05.306 1.746 0 .252-.015.522-.045.81-.03.288-.075.588-.135.9h-5.4c.036.756.231 1.326.585 1.71.354.384.927.576 1.719.576.492 0 .933-.075 1.323-.225.39-.15.687-.303.891-.459l.774 1.53zm-3.348-6.606c-.612 0-1.065.183-1.359.549-.294.366-.471.855-.531 1.467h3.348c.048-.648-.051-1.146-.297-1.494-.246-.348-.633-.522-1.161-.522zm6.948 2.772L28.8 13h2.79l1.17 1.926.504 1.26.54-1.26L35.028 13h2.538l-2.718 4.32L37.746 22h-2.718l-1.386-2.16-.54-1.332-.576 1.332L31.14 22h-2.556l2.916-4.608zm6.678-1.602h4.518v2.07h-4.518v-2.07zM52.326 22c0 1.308-.354 2.271-1.062 2.889-.708.618-1.698.927-2.97.927-.864 0-1.545-.06-2.043-.18-.498-.12-.873-.246-1.125-.378l.486-1.854c.276.108.597.216.963.324.366.108.819.162 1.359.162.816 0 1.371-.177 1.665-.531.294-.354.441-.849.441-1.485v-.576h-.072c-.42.564-1.164.846-2.232.846-1.164 0-2.031-.36-2.601-1.08-.57-.72-.855-1.848-.855-3.384 0-1.608.384-2.826 1.152-3.654.768-.828 1.884-1.242 3.348-1.242.768 0 1.455.054 2.061.162.606.108 1.101.234 1.485.378V22zm-3.96-1.728c.456 0 .807-.102 1.053-.306.246-.204.435-.51.567-.918v-4.05c-.372-.156-.834-.234-1.386-.234-.6 0-1.068.225-1.404.675-.336.45-.504 1.167-.504 2.151 0 .876.144 1.542.432 1.998.288.456.702.684 1.242.684zm10.962-5.076a3.049 3.049 0 0 0-1.008-.198c-.42 0-.771.111-1.053.333a1.604 1.604 0 0 0-.567.855V22h-2.34v-9h1.818l.27 1.188h.072c.204-.444.48-.786.828-1.026s.756-.36 1.224-.36c.312 0 .666.066 1.062.198l-.306 2.196zm.918 2.304c0-1.524.372-2.697 1.116-3.519.744-.822 1.788-1.233 3.132-1.233.72 0 1.344.114 1.872.342.528.228.966.549 1.314.963.348.414.609.915.783 1.503.174.588.261 1.236.261 1.944 0 1.524-.369 2.697-1.107 3.519-.738.822-1.779 1.233-3.123 1.233-.72 0-1.344-.114-1.872-.342a3.578 3.578 0 0 1-1.323-.963 4.044 4.044 0 0 1-.792-1.503 6.832 6.832 0 0 1-.261-1.944zm2.412 0c0 .396.036.762.108 1.098.072.336.18.63.324.882.144.252.333.447.567.585.234.138.513.207.837.207.612 0 1.068-.222 1.368-.666.3-.444.45-1.146.45-2.106 0-.828-.138-1.497-.414-2.007-.276-.51-.744-.765-1.404-.765-.576 0-1.026.216-1.35.648-.324.432-.486 1.14-.486 2.124zm14.04-4.5l1.638 4.608.324 1.494h.072l.252-1.512L80.136 13h2.142l-2.772 9.09h-1.728l-1.818-5.04-.234-1.134h-.09l-.216 1.152-1.728 5.022H71.91L69.012 13h2.538l1.314 4.518.216 1.602h.09l.306-1.62L74.97 13h1.728z" fill="#000"/>
    <text font-family="PTSans-Bold, PT Sans" font-size="20" font-weight="bold" fill="#FFF">
      <tspan x="230" y="81">2</tspan>
    </text>
    <text font-family="PTSans-Bold, PT Sans" font-size="16" font-weight="bold" fill="#FFF">
      <tspan x="337" y="79">1</tspan>
    </text>
  </g>
</svg>
