<svg width="330" height="419" xmlns="http://www.w3.org/2000/svg">
  <g fill="none" fill-rule="evenodd">
    <g fill-rule="nonzero">
      <path fill="#E0E7EE" d="M27 190h276v126H27z"/>
      <path fill="#7D8793" d="M27 190h69v60H27z"/>
      <path fill="#919BA5" d="M96 190h69v60H96z"/>
      <path fill="#AFB8C1" d="M234 190h69v60h-69z"/>
      <path fill="#9DA8B3" d="M165 190h69v60h-69z"/>
      <path fill="#7D8793" d="M27 256h69v60H27z"/>
      <path fill="#919BA5" d="M96 256h69v60H96z"/>
      <path fill="#AFB8C1" d="M234 256h69v60h-69z"/>
      <path fill="#9DA8B3" d="M165 256h69v60h-69z"/>
    </g>
    <path d="M33.854 175.216l1.46 3.944.29 1.278h.063l.225-1.294 1.027-3.928h1.91l-2.472 7.78h-1.54l-1.622-4.314-.208-.97h-.08l-.193.985-1.54 4.299h-1.59L27 175.216h2.263l1.172 3.867.192 1.37h.08l.274-1.386 1.332-3.851h1.54zm10.192 1.88a2.819 2.819 0 0 0-.9-.17c-.374 0-.687.095-.938.285a1.37 1.37 0 0 0-.506.732v4.976h-2.086v-7.703h1.62l.242 1.016h.064a2.12 2.12 0 0 1 .738-.878c.31-.205.674-.308 1.092-.308.278 0 .593.057.946.17l-.272 1.88zm1.155-1.434a7.08 7.08 0 0 1 1.525-.439 10.226 10.226 0 0 1 1.846-.161c.556 0 1.022.064 1.396.192.375.129.672.31.891.547.22.236.375.519.466.847.09.33.136.699.136 1.11 0 .452-.016.906-.048 1.363-.032.457-.051.907-.056 1.348-.006.442.008.87.04 1.287.032.416.112.808.24 1.178h-1.7l-.338-1.063h-.08a2.798 2.798 0 0 1-.891.824c-.38.231-.87.347-1.469.347a2.96 2.96 0 0 1-1.01-.162 2.204 2.204 0 0 1-.771-.462c-.214-.2-.38-.436-.498-.709a2.287 2.287 0 0 1-.176-.916c0-.473.11-.87.329-1.194.22-.324.535-.586.947-.786.412-.2.904-.339 1.476-.416.573-.077 1.212-.1 1.918-.07.075-.574.032-.988-.128-1.24-.16-.251-.519-.377-1.075-.377-.418 0-.86.041-1.325.123-.465.083-.848.19-1.147.324l-.498-1.495zm2.649 5.732c.417 0 .749-.09.995-.27a1.91 1.91 0 0 0 .545-.578v-1.001a5.979 5.979 0 0 0-.955-.016 3.567 3.567 0 0 0-.81.14 1.377 1.377 0 0 0-.562.307.674.674 0 0 0-.209.509c0 .287.089.51.265.67.177.159.42.239.73.239zm5.36-6.178h1.525l.241.924h.064c.278-.39.607-.678.987-.863.38-.185.843-.277 1.389-.277 1.006 0 1.76.306 2.263.917.503.61.754 1.594.754 2.95 0 .657-.08 1.25-.24 1.78-.161.528-.4.978-.715 1.347-.315.37-.7.653-1.155.848-.455.195-.977.292-1.565.292-.332 0-.605-.023-.819-.069a2.896 2.896 0 0 1-.642-.223V186H53.21v-10.784zm3.58 1.479c-.407 0-.725.097-.955.292-.23.196-.41.488-.538.879v3.204c.15.113.313.203.49.27.176.066.409.1.698.1.599 0 1.048-.203 1.348-.609.3-.405.45-1.076.45-2.01 0-.678-.118-1.202-.354-1.572-.235-.37-.615-.554-1.14-.554zm5.04.909h4.028v1.771H61.83v-1.771zm10.256-.509a2.819 2.819 0 0 0-.899-.17c-.374 0-.687.096-.939.286a1.37 1.37 0 0 0-.506.732v4.976h-2.086v-7.703h1.621l.24 1.016h.065a2.12 2.12 0 0 1 .738-.878c.31-.205.674-.308 1.092-.308.278 0 .594.057.947.17l-.273 1.88zm7.624 5.161c-.321.247-.757.455-1.308.624a5.947 5.947 0 0 1-1.758.254c-1.295 0-2.242-.362-2.84-1.086-.6-.724-.9-1.717-.9-2.98 0-1.357.337-2.373 1.012-3.051.674-.678 1.62-1.017 2.84-1.017.407 0 .803.051 1.188.154.385.103.728.272 1.028.508.3.237.54.555.722.956.182.4.273.898.273 1.494 0 .216-.014.447-.04.693a8.711 8.711 0 0 1-.12.77H74.99c.032.648.206 1.136.522 1.464.315.329.826.493 1.532.493a3.39 3.39 0 0 0 1.18-.192c.348-.129.613-.26.795-.393l.69 1.31zm-2.986-5.654c-.545 0-.95.157-1.211.47-.263.313-.42.732-.474 1.256h2.986c.042-.555-.046-.981-.265-1.279-.22-.298-.565-.447-1.036-.447zm7.271 2.65l.273 1.186h.08l.225-1.217 1.364-4.005h2.247l-3.354 7.78h-1.268l-3.483-7.78h2.424l1.492 4.036zm11.188 3.004c-.322.247-.758.455-1.309.624a5.947 5.947 0 0 1-1.757.254c-1.295 0-2.242-.362-2.841-1.086-.6-.724-.899-1.717-.899-2.98 0-1.357.337-2.373 1.011-3.051.674-.678 1.621-1.017 2.841-1.017.407 0 .803.051 1.188.154a2.81 2.81 0 0 1 1.027.508c.3.237.54.555.722.956.182.4.273.898.273 1.494 0 .216-.013.447-.04.693a8.711 8.711 0 0 1-.12.77h-4.815c.032.648.206 1.136.521 1.464.316.329.827.493 1.533.493a3.39 3.39 0 0 0 1.18-.192c.348-.129.612-.26.794-.393l.69 1.31zm-2.986-5.654c-.546 0-.95.157-1.212.47-.262.313-.42.732-.473 1.256h2.985c.043-.555-.045-.981-.265-1.279-.219-.298-.564-.447-1.035-.447zm9.149.493a2.819 2.819 0 0 0-.899-.17c-.374 0-.687.096-.939.286a1.37 1.37 0 0 0-.505.732v4.976h-2.087v-7.703h1.621l.24 1.016h.065a2.12 2.12 0 0 1 .738-.878c.31-.205.674-.308 1.092-.308.278 0 .594.057.947.17l-.273 1.88zm4.526 3.698a.57.57 0 0 0-.273-.493 3.337 3.337 0 0 0-.674-.34 22.185 22.185 0 0 0-.883-.315 3.366 3.366 0 0 1-.882-.447 2.484 2.484 0 0 1-.675-.724c-.181-.293-.272-.67-.272-1.132 0-.76.235-1.34.706-1.741.47-.4 1.15-.601 2.038-.601.61 0 1.161.062 1.653.185.493.123.878.262 1.156.416l-.465 1.448c-.246-.092-.557-.19-.931-.293a4.29 4.29 0 0 0-1.14-.154c-.62 0-.93.231-.93.694 0 .184.09.333.272.446.182.113.407.219.674.316.268.098.562.203.883.316.321.113.615.26.883.439.267.18.492.413.674.701.182.288.273.657.273 1.11 0 .78-.26 1.394-.779 1.84-.519.447-1.297.67-2.335.67a5.91 5.91 0 0 1-1.597-.208c-.498-.138-.902-.3-1.212-.485l.578-1.494c.246.133.572.264.979.393.407.128.824.192 1.252.192.31 0 .559-.056.746-.17.188-.112.281-.302.281-.57zm9.871 1.463c-.32.247-.757.455-1.308.624a5.947 5.947 0 0 1-1.757.254c-1.295 0-2.242-.362-2.841-1.086-.6-.724-.9-1.717-.9-2.98 0-1.357.338-2.373 1.012-3.051.674-.678 1.621-1.017 2.84-1.017.408 0 .803.051 1.189.154.385.103.727.272 1.027.508.3.237.54.555.722.956.182.4.273.898.273 1.494 0 .216-.013.447-.04.693a8.711 8.711 0 0 1-.12.77h-4.816c.032.648.206 1.136.522 1.464.316.329.827.493 1.533.493a3.39 3.39 0 0 0 1.18-.192c.347-.129.612-.26.794-.393l.69 1.31zm-2.985-5.654c-.546 0-.95.157-1.212.47-.262.313-.42.732-.474 1.256h2.986c.043-.555-.046-.981-.265-1.279-.22-.298-.564-.447-1.035-.447z" fill="#000"/>
    <g fill-rule="nonzero">
      <path fill="#E0E7EE" d="M26 31h276v126H26z"/>
      <path fill="#AFB8C1" d="M26 97h69v60H26zm0-66h69v60H26z"/>
      <path fill="#9DA8B3" d="M95 31h69v60H95z"/>
      <path fill="#7D8793" d="M233 31h69v60h-69z"/>
      <path fill="#919BA5" d="M164 31h69v60h-69z"/>
      <path fill="#9DA8B3" d="M95 97h69v60H95z"/>
      <path fill="#7D8793" d="M233 97h69v60h-69z"/>
      <path fill="#919BA5" d="M164 97h69v60h-69z"/>
    </g>
    <path d="M32.765 16.216l1.441 3.944.286 1.278h.063l.222-1.294 1.014-3.928h1.885l-2.44 7.78h-1.52l-1.6-4.314-.207-.97h-.079l-.19.985-1.52 4.299h-1.57L26 16.216h2.234l1.156 3.867.19 1.37h.08l.269-1.386 1.315-3.851h1.52zm10.06 1.88a2.75 2.75 0 0 0-.887-.17c-.37 0-.679.095-.927.285-.248.19-.415.434-.5.732v4.976h-2.059v-7.703h1.6l.238 1.016h.063c.18-.38.423-.672.73-.878a1.888 1.888 0 0 1 1.076-.308c.275 0 .587.057.935.17l-.27 1.88zm1.14-1.434a6.92 6.92 0 0 1 1.505-.439 9.967 9.967 0 0 1 1.822-.161c.55 0 1.009.064 1.379.192.37.129.662.31.879.547.216.236.37.519.46.847.09.33.134.699.134 1.11 0 .452-.016.906-.048 1.363-.031.457-.05.907-.055 1.348-.005.442.008.87.04 1.287.031.416.11.808.237 1.178H48.64l-.333-1.063h-.079a2.786 2.786 0 0 1-.88.824c-.374.231-.857.347-1.449.347-.37 0-.702-.054-.998-.162a2.103 2.103 0 0 1-1.252-1.17 2.313 2.313 0 0 1-.174-.917c0-.473.109-.87.325-1.194.217-.324.528-.586.935-.786.406-.2.892-.339 1.457-.416.565-.077 1.196-.1 1.893-.07.074-.574.032-.988-.126-1.24-.159-.251-.512-.377-1.062-.377-.412 0-.847.041-1.307.123-.46.082-.837.19-1.132.324l-.492-1.495zm2.614 5.732c.412 0 .74-.09.983-.27a1.9 1.9 0 0 0 .538-.578v-1.001a5.826 5.826 0 0 0-.942-.016 3.485 3.485 0 0 0-.8.14 1.354 1.354 0 0 0-.555.307.679.679 0 0 0-.206.509c0 .287.087.51.262.67.174.159.414.239.72.239zm5.292-6.178h1.505l.238.924h.063a2.6 2.6 0 0 1 .974-.863c.375-.185.832-.277 1.37-.277.993 0 1.738.306 2.234.917.497.61.745 1.594.745 2.95 0 .657-.08 1.25-.238 1.78a3.717 3.717 0 0 1-.705 1.347c-.311.37-.691.653-1.14.848-.45.195-.964.292-1.545.292-.327 0-.597-.023-.808-.069a2.834 2.834 0 0 1-.634-.223V27h-2.06V16.216zm3.533 1.479c-.402 0-.716.097-.943.292-.227.196-.404.488-.53.879v3.204c.147.113.308.203.483.27.174.066.404.1.689.1.591 0 1.035-.203 1.33-.609.296-.405.444-1.076.444-2.01 0-.678-.116-1.202-.348-1.572-.233-.37-.608-.554-1.125-.554z" fill="#000"/>
    <path fill="#AFB8C1" fill-rule="nonzero" d="M175 355h43v60h-43zM7 355h43v60H7z"/>
    <path fill="#9DA8B3" fill-rule="nonzero" d="M49 355h43v60H49z"/>
    <path fill="#7D8793" fill-rule="nonzero" d="M132 355h43v60h-43z"/>
    <path fill="#919BA5" fill-rule="nonzero" d="M91 355h43v60H91z"/>
    <path fill="#9DA8B3" fill-rule="nonzero" d="M218 355h43v60h-43z"/>
    <path fill="#7D8793" fill-rule="nonzero" d="M302 355h43v60h-43z"/>
    <path fill="#919BA5" fill-rule="nonzero" d="M260 355h43v60h-43z"/>
    <path d="M12.808 348v-4.544c0-.65-.093-1.12-.28-1.408-.187-.288-.504-.432-.952-.432-.395 0-.728.115-1 .344a1.91 1.91 0 0 0-.584.856V348h-2.08v-8H9.56l.24 1.056h.064c.245-.341.57-.64.976-.896.405-.256.928-.384 1.568-.384.395 0 .747.053 1.056.16.31.107.57.283.784.528.213.245.373.579.48 1 .107.421.16.941.16 1.56V348h-2.08zm3.44-4c0-1.355.33-2.397.992-3.128.661-.73 1.59-1.096 2.784-1.096.64 0 1.195.101 1.664.304.47.203.859.488 1.168.856.31.368.541.813.696 1.336.155.523.232 1.099.232 1.728 0 1.355-.328 2.397-.984 3.128-.656.73-1.581 1.096-2.776 1.096-.64 0-1.195-.101-1.664-.304a3.18 3.18 0 0 1-1.176-.856 3.595 3.595 0 0 1-.704-1.336 6.073 6.073 0 0 1-.232-1.728zm2.144 0c0 .352.032.677.096.976.064.299.16.56.288.784.128.224.296.397.504.52.208.123.456.184.744.184.544 0 .95-.197 1.216-.592.267-.395.4-1.019.4-1.872 0-.736-.123-1.33-.368-1.784-.245-.453-.661-.68-1.248-.68-.512 0-.912.192-1.2.576-.288.384-.432 1.013-.432 1.888zm12.48-4l1.456 4.096.288 1.328h.064l.224-1.344 1.024-4.08h1.904l-2.464 8.08h-1.536l-1.616-4.48-.208-1.008h-.08l-.192 1.024-1.536 4.464h-1.584L24.04 340h2.256l1.168 4.016.192 1.424h.08l.272-1.44 1.328-4h1.536zm10.16 1.952a2.71 2.71 0 0 0-.896-.176c-.373 0-.685.099-.936.296-.25.197-.419.45-.504.76V348h-2.08v-8h1.616l.24 1.056h.064c.181-.395.427-.699.736-.912.31-.213.672-.32 1.088-.32.277 0 .592.059.944.176l-.272 1.952zm1.152-1.488a6.844 6.844 0 0 1 1.52-.456 9.796 9.796 0 0 1 1.84-.168c.555 0 1.019.067 1.392.2s.67.323.888.568c.219.245.373.539.464.88.09.341.136.725.136 1.152 0 .47-.016.941-.048 1.416s-.05.941-.056 1.4c-.005.459.008.904.04 1.336.032.432.112.84.24 1.224h-1.696l-.336-1.104h-.08c-.213.33-.51.616-.888.856-.379.24-.867.36-1.464.36-.373 0-.71-.056-1.008-.168a2.182 2.182 0 0 1-.768-.48 2.187 2.187 0 0 1-.496-.736 2.462 2.462 0 0 1-.176-.952c0-.49.11-.904.328-1.24.219-.336.533-.608.944-.816.41-.208.901-.352 1.472-.432a10.43 10.43 0 0 1 1.912-.072c.075-.597.032-1.027-.128-1.288-.16-.261-.517-.392-1.072-.392-.416 0-.856.043-1.32.128-.464.085-.845.197-1.144.336l-.496-1.552zm2.64 5.952c.416 0 .747-.093.992-.28a1.96 1.96 0 0 0 .544-.6v-1.04a5.722 5.722 0 0 0-.952-.016c-.304.021-.573.07-.808.144a1.358 1.358 0 0 0-.56.32.715.715 0 0 0-.208.528c0 .299.088.53.264.696.176.165.419.248.728.248zM50.168 340h1.52l.24.96h.064c.277-.405.605-.704.984-.896.379-.192.84-.288 1.384-.288 1.003 0 1.755.317 2.256.952.501.635.752 1.656.752 3.064a6.6 6.6 0 0 1-.24 1.848 3.899 3.899 0 0 1-.712 1.4 3.111 3.111 0 0 1-1.152.88c-.453.203-.973.304-1.56.304a3.82 3.82 0 0 1-.816-.072 2.81 2.81 0 0 1-.64-.232v3.28h-2.08V340zm3.568 1.536c-.405 0-.723.101-.952.304-.23.203-.408.507-.536.912v3.328c.15.117.312.21.488.28.176.07.408.104.696.104.597 0 1.045-.21 1.344-.632.299-.421.448-1.117.448-2.088 0-.704-.117-1.248-.352-1.632-.235-.384-.613-.576-1.136-.576z" fill="#000"/>
  </g>
</svg>
