<svg width="420" height="479" xmlns="http://www.w3.org/2000/svg" xmlns:xlink="http://www.w3.org/1999/xlink">
  <defs>
    <path id="a" d="M241 195h174v244H241z"/>
    <path id="b" d="M241 88h174v100H241z"/>
    <path id="c" d="M140 195h96v244h-96z"/>
    <path id="d" d="M140 88h96v100h-96z"/>
  </defs>
  <g fill="none" fill-rule="evenodd">
    <text font-family="PTSans-Bold, PT Sans" font-size="16" font-weight="bold" fill="#498CF3">
      <tspan x="236" y="75">3</tspan>
    </text>
    <use fill="#919BA5" xlink:href="#a"/>
    <path stroke="#5D5A5A" stroke-width="2" d="M242 196h172v242H242z"/>
    <use fill="#919BA5" xlink:href="#b"/>
    <path stroke="#5D5A5A" stroke-width="2" d="M242 89h172v98H242z"/>
    <use fill="#919BA5" xlink:href="#c"/>
    <path stroke="#5D5A5A" stroke-width="2" d="M141 196h94v242h-94z"/>
    <use fill="#919BA5" xlink:href="#d"/>
    <path stroke="#5D5A5A" stroke-width="2" d="M141 89h94v98h-94z"/>
    <text font-family="PTSans-Regular, PT Sans" font-size="16" fill="#FFF">
      <tspan x="178" y="143">1fr</tspan>
    </text>
    <text font-family="PTSans-Regular, PT Sans" font-size="16" fill="#FFF">
      <tspan x="318" y="143">2fr</tspan>
    </text>
    <path stroke="#979797" stroke-width="2" d="M40 196h94v242H40zm0-107h94v98H40z"/>
    <text font-family="PTSans-Regular, PT Sans" font-size="14" fill="#1B1B1D">
      <tspan x="9" y="142">25%</tspan>
    </text>
    <text font-family="PTSans-Regular, PT Sans" font-size="14" fill="#1B1B1D">
      <tspan x="9" y="303">auto</tspan>
    </text>
    <text font-family="PTSans-Bold, PT Sans" font-size="16" font-weight="bold" fill="#498CF3">
      <tspan x="37" y="75">1</tspan>
    </text>
    <text font-family="PTSans-Bold, PT Sans" font-size="16" font-weight="bold" fill="#498CF3">
      <tspan x="22" y="92">1</tspan>
    </text>
    <text font-family="PTSans-Bold, PT Sans" font-size="16" font-weight="bold" fill="#498CF3">
      <tspan x="22" y="195">2</tspan>
    </text>
    <text font-family="PTSans-Bold, PT Sans" font-size="18" font-weight="bold" fill="#498CF3">
      <tspan x="135" y="75">2</tspan>
    </text>
    <text font-family="PTSans-Regular, PT Sans" font-size="16" fill="#1B1B1D">
      <tspan x="87" y="463">grid-gap: 6px</tspan>
    </text>
    <text font-family="PTSans-Regular, PT Sans" font-size="16" fill="#1B1B1D">
      <tspan x="80" y="143">1fr</tspan>
    </text>
    <text font-family="PTSans-Bold, PT Sans" font-size="18" font-weight="bold" fill="#498CF3">
      <tspan x="407" y="74">4</tspan>
    </text>
    <text font-family="PTSans-Bold, PT Sans" font-size="16" font-weight="bold" fill="#1B1B1D">
      <tspan x="13" y="24">grid-row-start: 1 </tspan>
    </text>
    <text font-family="PTSans-Bold, PT Sans" font-size="16" font-weight="bold" fill="#1B1B1D">
      <tspan x="173" y="23">grid-row-end: 3 </tspan>
    </text>
    <text font-family="PTSans-Regular, PT Sans" font-size="14" fill="#1B1B1D">
      <tspan x="17" y="44">(shorthand)</tspan> <tspan x="85.614" y="44" font-family="PTSans-Bold, PT Sans" font-size="16" font-weight="bold"> grid-row: 1 / 3</tspan>
    </text>
    <text font-family="PTSans-Bold, PT Sans" font-size="16" font-weight="bold" fill="#1B1B1D">
      <tspan x="214" y="44">grid-column: 2 / 4</tspan>
    </text>
  </g>
</svg>
