<svg width="770" height="575" xmlns="http://www.w3.org/2000/svg">
  <g fill="none" fill-rule="evenodd">
    <path fill="#AFB8C1" d="M182 170h578v326H182z"/>
    <path fill="#7D8793" d="M12 170h149v380H12z"/>
    <path fill="#919BA5" d="M14 78h746v77H14z"/>
    <path fill="#E0E7EE" d="M182 511h578v39H182z"/>
    <text font-family="PTSans-Bold, PT Sans" font-size="16" font-weight="bold" fill="#1B1B1D">
      <tspan x="14" y="24">grid-template-areas: “header header header”</tspan> <tspan x="14" y="42"> “sidebar content content”</tspan> <tspan x="14" y="60"> “sidebar footer footer”;</tspan>
    </text>
    <path d="M368.872 120.784v-4.375c0-.627-.09-1.078-.27-1.356-.18-.277-.51-.416-.988-.416-.35 0-.671.116-.963.347a1.639 1.639 0 0 0-.581.886v4.914H364V110h2.07v3.944h.064c.254-.329.568-.59.939-.786.372-.195.844-.292 1.417-.292.404 0 .76.05 1.067.154.308.102.565.272.772.508.207.236.361.557.462.963.1.406.151.906.151 1.502v4.791h-2.07zm10.175-.662c-.319.246-.751.454-1.298.624a5.856 5.856 0 0 1-1.743.254c-1.285 0-2.224-.362-2.819-1.086-.594-.724-.891-1.718-.891-2.981 0-1.356.334-2.373 1.003-3.05.668-.679 1.608-1.017 2.818-1.017.403 0 .796.05 1.178.154a2.78 2.78 0 0 1 1.02.508c.297.236.535.555.716.955.18.4.27.899.27 1.495 0 .215-.013.446-.04.693a8.776 8.776 0 0 1-.119.77h-4.776c.031.647.204 1.135.517 1.464.313.328.82.493 1.52.493.436 0 .826-.064 1.17-.193.346-.128.609-.26.79-.393l.684 1.31zm-2.962-5.654c-.541 0-.942.156-1.202.47-.26.313-.417.731-.47 1.255h2.962c.042-.554-.045-.98-.263-1.278-.217-.298-.56-.447-1.027-.447zm4.634-.94a6.981 6.981 0 0 1 1.512-.44 10.066 10.066 0 0 1 1.831-.16c.552 0 1.014.063 1.386.192.371.128.666.31.883.547.218.236.372.518.462.847.09.329.135.698.135 1.11 0 .451-.016.906-.047 1.363-.032.457-.05.906-.056 1.348-.005.441.008.87.04 1.286.032.416.111.809.238 1.179h-1.687l-.335-1.063h-.08a2.794 2.794 0 0 1-.883.824c-.377.231-.862.347-1.457.347-.371 0-.706-.054-1.003-.162a2.103 2.103 0 0 1-1.258-1.17 2.303 2.303 0 0 1-.175-.918c0-.472.109-.87.326-1.194.218-.323.531-.585.94-.785.409-.2.897-.34 1.465-.416.568-.077 1.202-.1 1.902-.07.075-.575.032-.988-.127-1.24-.16-.252-.515-.377-1.067-.377a7.51 7.51 0 0 0-1.313.123c-.462.082-.842.19-1.139.323l-.493-1.494zm2.627 5.731c.414 0 .743-.09.987-.27a1.9 1.9 0 0 0 .541-.577v-1.002a5.884 5.884 0 0 0-.947-.015c-.303.02-.57.067-.804.139-.234.072-.42.174-.557.308a.677.677 0 0 0-.207.508c0 .288.087.511.262.67.175.16.417.24.725.24zm12.085-1.186c0 .431.005.863.016 1.294.01.431.058.909.143 1.433h-1.48l-.287-1.002h-.064a2.37 2.37 0 0 1-.915.87c-.399.222-.868.332-1.41.332-.997 0-1.772-.318-2.324-.955-.552-.637-.828-1.633-.828-2.989 0-1.315.308-2.337.923-3.066.616-.729 1.518-1.094 2.707-1.094.33 0 .6.018.812.054.212.036.425.095.637.177V110h2.07v8.073zm-3.519 1.232c.403 0 .722-.095.955-.285.234-.19.398-.464.494-.824v-3.266a1.598 1.598 0 0 0-.494-.254 2.399 2.399 0 0 0-.7-.085c-.584 0-1.022.19-1.314.57-.292.38-.438 1.032-.438 1.957 0 .657.12 1.186.359 1.586.238.401.618.601 1.138.601zm11.703.817c-.318.246-.75.454-1.298.624a5.856 5.856 0 0 1-1.743.254c-1.285 0-2.224-.362-2.818-1.086-.595-.724-.892-1.718-.892-2.981 0-1.356.334-2.373 1.003-3.05.669-.679 1.608-1.017 2.818-1.017.404 0 .796.05 1.179.154.382.102.721.272 1.019.508.297.236.536.555.716.955.18.4.27.899.27 1.495 0 .215-.012.446-.039.693a8.776 8.776 0 0 1-.12.77h-4.776c.032.647.204 1.135.517 1.464.314.328.82.493 1.521.493.435 0 .825-.064 1.17-.193.345-.128.608-.26.788-.393l.685 1.31zm-2.961-5.654c-.542 0-.943.156-1.203.47-.26.313-.416.731-.47 1.255h2.962c.043-.554-.045-.98-.262-1.278-.218-.298-.56-.447-1.027-.447zm9.075.493a2.776 2.776 0 0 0-.891-.17c-.372 0-.682.095-.932.285a1.37 1.37 0 0 0-.501.732v4.976h-2.07v-7.703h1.608l.239 1.017h.063c.18-.38.425-.673.733-.878a1.905 1.905 0 0 1 1.083-.308c.276 0 .589.056.939.17l-.27 1.879z" fill="#FFF"/>
    <text font-family="PTSans-Bold, PT Sans" font-size="16" font-weight="bold" fill="#FFF">
      <tspan x="440" y="337">Content</tspan>
    </text>
    <path d="M63.861 327.484a.622.622 0 0 0-.275-.53 3.282 3.282 0 0 0-.678-.364 22.69 22.69 0 0 0-.889-.339 3.311 3.311 0 0 1-.888-.48 2.609 2.609 0 0 1-.679-.778c-.183-.314-.274-.72-.274-1.216 0-.817.237-1.44.71-1.87.474-.431 1.158-.646 2.052-.646.614 0 1.169.066 1.664.198.496.133.883.282 1.163.447l-.468 1.556c-.248-.1-.56-.204-.937-.314a4.063 4.063 0 0 0-1.147-.166c-.625 0-.937.248-.937.745 0 .199.091.359.275.48.183.121.409.234.678.34.27.104.565.217.889.339.323.12.619.278.888.471.27.193.495.444.679.753.183.31.274.707.274 1.192 0 .839-.26 1.498-.783 1.978s-1.306.72-2.35.72a5.61 5.61 0 0 1-1.608-.223c-.501-.15-.908-.323-1.22-.522l.582-1.605c.247.143.576.284.985.422.41.138.83.207 1.26.207.312 0 .563-.061.751-.182.189-.122.283-.326.283-.613zm3.667-5.992h2.1v8.276h-2.1v-8.276zm-.307-2.333c0-.32.116-.593.348-.82.231-.226.552-.339.96-.339.41 0 .741.113.994.34.254.226.38.499.38.819 0 .32-.126.587-.38.802-.253.216-.584.323-.993.323-.41 0-.73-.107-.961-.323a1.051 1.051 0 0 1-.348-.802zm11.325 7.696c0 .464.005.927.016 1.39.011.464.06.977.146 1.54h-1.503l-.29-1.076h-.065a2.47 2.47 0 0 1-.93.935c-.403.237-.88.356-1.429.356-1.012 0-1.798-.342-2.359-1.026-.56-.684-.84-1.755-.84-3.211 0-1.413.313-2.51.937-3.294.625-.783 1.54-1.175 2.747-1.175.334 0 .608.02.824.058.215.038.43.102.646.19v-3.36h2.1v8.673zm-3.57 1.324c.409 0 .732-.102.97-.306.236-.204.403-.5.5-.885v-3.51a1.59 1.59 0 0 0-.5-.272 2.306 2.306 0 0 0-.712-.092c-.592 0-1.036.205-1.333.613-.296.408-.444 1.109-.444 2.102 0 .706.121 1.274.364 1.705.242.43.627.645 1.155.645zm11.874.878c-.323.264-.762.488-1.317.67a5.637 5.637 0 0 1-1.769.273c-1.303 0-2.256-.389-2.86-1.167-.602-.778-.904-1.845-.904-3.203 0-1.456.34-2.549 1.018-3.277.678-.728 1.631-1.092 2.86-1.092.408 0 .807.055 1.195.165.387.11.732.293 1.034.546.301.254.544.596.727 1.027.183.43.274.965.274 1.605 0 .232-.013.48-.04.745-.027.265-.067.54-.121.828H82.1c.032.695.207 1.219.525 1.572.318.353.832.53 1.543.53.442 0 .837-.07 1.187-.207.35-.138.617-.279.8-.422l.695 1.407zm-3.005-6.075c-.55 0-.956.168-1.22.505-.264.336-.423.786-.476 1.349h3.004c.044-.596-.045-1.054-.266-1.374-.22-.32-.568-.48-1.042-.48zm4.75-4.8h2.1v3.972h.064c.226-.264.517-.474.873-.628a2.927 2.927 0 0 1 1.179-.232c.97 0 1.71.34 2.221 1.018.512.678.768 1.713.768 3.103 0 1.49-.358 2.62-1.075 3.393-.716.773-1.699 1.159-2.948 1.159-.69 0-1.32-.058-1.89-.174-.57-.116-1.002-.245-1.292-.389v-11.222zm3.602 4.932c-.388 0-.703.103-.945.307-.242.204-.428.499-.557.885v3.608c.172.089.358.15.557.183.2.033.412.05.638.05.571 0 1.004-.213 1.3-.638.297-.425.445-1.1.445-2.028 0-1.578-.48-2.367-1.438-2.367zm5.008-1.142a6.84 6.84 0 0 1 1.535-.471 9.661 9.661 0 0 1 1.858-.174c.56 0 1.028.069 1.405.207.377.138.676.334.897.587.22.254.377.558.468.91.092.354.138.751.138 1.192 0 .486-.017.974-.049 1.465a26.67 26.67 0 0 0-.056 1.449c-.006.474.008.935.04 1.382.032.447.113.869.242 1.266h-1.712l-.34-1.142h-.08a2.908 2.908 0 0 1-.897.885c-.382.249-.875.373-1.478.373a2.82 2.82 0 0 1-1.018-.174 2.196 2.196 0 0 1-1.276-1.258 2.602 2.602 0 0 1-.178-.985c0-.507.11-.935.332-1.283.22-.347.538-.629.953-.844.414-.215.91-.364 1.486-.447.576-.082 1.22-.107 1.93-.074.076-.618.033-1.062-.129-1.333-.161-.27-.522-.405-1.082-.405-.42 0-.864.044-1.333.132-.468.089-.853.204-1.155.348l-.5-1.606zm2.666 6.158c.42 0 .754-.097 1.001-.29.248-.193.431-.4.55-.62v-1.077a5.64 5.64 0 0 0-.962-.016 3.432 3.432 0 0 0-.815.149 1.364 1.364 0 0 0-.566.33.75.75 0 0 0-.21.547c0 .31.089.55.267.72.177.171.422.257.735.257zm9.854-4.618a2.678 2.678 0 0 0-.904-.182c-.377 0-.692.102-.945.306a1.478 1.478 0 0 0-.51.786v5.346h-2.1v-8.276h1.632l.243 1.093h.064c.183-.408.431-.723.743-.944.313-.22.679-.33 1.099-.33.28 0 .598.06.953.181l-.275 2.02z" fill="#FFF"/>
    <path d="M446 527.457h1.096v-.465c0-1.053.212-1.815.635-2.286.424-.47 1.038-.706 1.843-.706.847 0 1.552.105 2.113.316l-.397 1.728a3.386 3.386 0 0 0-.644-.174 3.92 3.92 0 0 0-.58-.042c-.211 0-.378.033-.5.1a.604.604 0 0 0-.27.307 1.67 1.67 0 0 0-.111.516c-.016.205-.024.44-.024.706h1.748v1.828h-1.748v6.482h-2.065v-6.482H446v-1.828zm5.37 4.155c0-1.407.328-2.49.984-3.25.657-.758 1.578-1.138 2.764-1.138.636 0 1.186.106 1.652.316.466.21.853.507 1.16.89.307.382.537.844.69 1.387.154.543.231 1.141.231 1.795 0 1.407-.325 2.49-.977 3.25-.651.759-1.57 1.138-2.756 1.138-.635 0-1.186-.105-1.652-.316a3.169 3.169 0 0 1-1.167-.889 3.794 3.794 0 0 1-.7-1.388 6.582 6.582 0 0 1-.23-1.795zm2.128 0c0 .366.032.704.095 1.014.064.31.159.582.286.814.127.233.294.413.5.54.207.128.453.192.74.192.54 0 .942-.205 1.206-.615.265-.41.398-1.058.398-1.945 0-.764-.122-1.382-.366-1.853-.243-.47-.656-.706-1.239-.706-.508 0-.905.2-1.191.598-.286.399-.43 1.053-.43 1.961zm6.402 0c0-1.407.328-2.49.985-3.25.656-.758 1.577-1.138 2.764-1.138.635 0 1.186.106 1.652.316.466.21.852.507 1.16.89.306.382.537.844.69 1.387.154.543.23 1.141.23 1.795 0 1.407-.325 2.49-.976 3.25-.652.759-1.57 1.138-2.756 1.138-.636 0-1.187-.105-1.652-.316a3.169 3.169 0 0 1-1.168-.889 3.794 3.794 0 0 1-.699-1.388 6.582 6.582 0 0 1-.23-1.795zm2.128 0c0 .366.032.704.096 1.014.063.31.158.582.286.814.127.233.293.413.5.54.206.128.453.192.739.192.54 0 .942-.205 1.207-.615.265-.41.397-1.058.397-1.945 0-.764-.122-1.382-.365-1.853-.244-.47-.657-.706-1.24-.706-.508 0-.905.2-1.19.598-.287.399-.43 1.053-.43 1.961zm5.957-4.155h1.096v-1.562l2.065-.615v2.177h1.938v1.828h-1.938v3.191c0 .577.056.99.167 1.239.111.249.32.374.628.374.212 0 .394-.023.548-.067a3.49 3.49 0 0 0 .516-.2l.365 1.663a5.09 5.09 0 0 1-1 .365c-.382.1-.768.15-1.16.15-.73 0-1.268-.197-1.612-.59-.345-.393-.517-1.039-.517-1.936v-4.189h-1.096v-1.828zm12.645 7.596c-.318.266-.75.49-1.295.673a5.437 5.437 0 0 1-1.74.274c-1.28 0-2.218-.39-2.81-1.172-.594-.78-.89-1.853-.89-3.216 0-1.462.333-2.56 1-3.29.668-.732 1.605-1.098 2.812-1.098.403 0 .794.056 1.176.167.38.11.72.293 1.016.548.297.255.535.598.715 1.03.18.433.27.97.27 1.613 0 .232-.013.482-.04.748a9.869 9.869 0 0 1-.119.83h-4.765c.031.699.204 1.225.516 1.58.312.354.818.531 1.517.531.434 0 .823-.069 1.168-.207.344-.139.606-.28.786-.424l.683 1.413zm-2.955-6.1c-.54 0-.94.169-1.199.507-.26.338-.416.79-.469 1.354h2.955c.042-.598-.045-1.058-.262-1.38-.217-.32-.559-.481-1.025-.481zm9.055.532a2.586 2.586 0 0 0-.89-.183c-.37 0-.68.102-.929.307a1.487 1.487 0 0 0-.5.79v5.368h-2.065v-8.31h1.604l.238 1.097h.064c.18-.41.423-.726.73-.947a1.797 1.797 0 0 1 1.08-.333c.276 0 .589.061.938.183l-.27 2.028z" fill="#5D5A5A"/>
  </g>
</svg>
