<svg width="420" height="514" xmlns="http://www.w3.org/2000/svg">
  <g fill="none" fill-rule="evenodd">
    <path fill="#919BA5" d="M120 153h295v300H120z"/>
    <path fill="#7D8793" d="M8 153h99v300H8z"/>
    <path fill="#919BA5" d="M8 91h407v54H8z"/>
    <path fill="#E0E7EE" d="M8 464h407v39H8z"/>
    <path d="M205.187 479.5h1.173v-.476c0-1.077.227-1.856.68-2.337.453-.482 1.11-.723 1.972-.723.907 0 1.66.108 2.261.323l-.425 1.768c-.26-.09-.49-.15-.689-.178a4.386 4.386 0 0 0-.62-.043c-.227 0-.405.034-.535.102a.627.627 0 0 0-.29.315 1.645 1.645 0 0 0-.119.526c-.017.21-.025.451-.025.723h1.87v1.87h-1.87V488h-2.21v-6.63h-1.173v-1.87zm5.746 4.25c0-1.44.351-2.547 1.054-3.324.703-.776 1.689-1.164 2.958-1.164.68 0 1.27.108 1.768.323a3.29 3.29 0 0 1 1.241.91c.329.39.575.864.74 1.419.164.555.246 1.167.246 1.836 0 1.44-.348 2.547-1.046 3.324-.697.776-1.68 1.164-2.949 1.164-.68 0-1.27-.108-1.768-.323a3.379 3.379 0 0 1-1.25-.91 3.82 3.82 0 0 1-.748-1.419 6.453 6.453 0 0 1-.246-1.836zm2.278 0c0 .374.034.72.102 1.037.068.317.17.595.306.833.136.238.314.422.536.553.22.13.484.195.79.195.578 0 1.009-.21 1.292-.629.283-.42.425-1.082.425-1.989 0-.782-.13-1.414-.391-1.896-.26-.481-.703-.722-1.326-.722-.544 0-.969.204-1.275.612-.306.408-.459 1.077-.459 2.006zm6.851 0c0-1.44.351-2.547 1.054-3.324.703-.776 1.689-1.164 2.958-1.164.68 0 1.27.108 1.768.323a3.29 3.29 0 0 1 1.241.91c.329.39.575.864.74 1.419.164.555.246 1.167.246 1.836 0 1.44-.348 2.547-1.045 3.324-.698.776-1.68 1.164-2.95 1.164-.68 0-1.27-.108-1.768-.323a3.379 3.379 0 0 1-1.25-.91 3.82 3.82 0 0 1-.748-1.419 6.453 6.453 0 0 1-.246-1.836zm2.278 0c0 .374.034.72.102 1.037.068.317.17.595.306.833.136.238.314.422.536.553.22.13.484.195.79.195.578 0 1.009-.21 1.292-.629.283-.42.425-1.082.425-1.989 0-.782-.13-1.414-.391-1.896-.26-.481-.703-.722-1.326-.722-.544 0-.969.204-1.275.612-.306.408-.459 1.077-.459 2.006zm6.375-4.25h1.173v-1.598l2.21-.629v2.227h2.074v1.87h-2.074v3.264c0 .59.06 1.011.178 1.267.12.255.343.382.672.382.227 0 .422-.023.587-.068a3.93 3.93 0 0 0 .552-.204l.391 1.7a5.611 5.611 0 0 1-1.071.374 5.098 5.098 0 0 1-1.241.153c-.782 0-1.357-.201-1.726-.603-.368-.403-.552-1.063-.552-1.981v-4.284h-1.173v-1.87zm13.532 7.769c-.34.272-.802.501-1.386.688a6.065 6.065 0 0 1-1.861.281c-1.371 0-2.374-.4-3.009-1.199-.635-.799-.952-1.895-.952-3.289 0-1.496.357-2.618 1.071-3.366.714-.748 1.717-1.122 3.009-1.122.43 0 .85.057 1.258.17.408.113.77.3 1.088.561.317.26.572.612.765 1.054.193.442.289.992.289 1.649 0 .238-.014.493-.043.765-.028.272-.07.555-.127.85h-5.1c.034.714.218 1.252.553 1.615.334.363.875.544 1.623.544.465 0 .881-.07 1.25-.213.368-.141.648-.286.841-.433l.731 1.445zm-3.162-6.239c-.578 0-1.006.173-1.284.519-.277.345-.444.807-.501 1.385h3.162c.045-.612-.048-1.082-.28-1.411-.233-.329-.598-.493-1.097-.493zm9.69.544a2.88 2.88 0 0 0-.952-.187c-.397 0-.728.105-.995.315-.266.21-.444.478-.535.807V488h-2.21v-8.5h1.717l.255 1.122h.068c.193-.42.453-.742.782-.969.329-.227.714-.34 1.156-.34.295 0 .629.062 1.003.187l-.289 2.074z" fill="#5D5A5A"/>
    <path d="M194.171 122v-4.828c0-.691-.096-1.19-.289-1.496-.193-.306-.544-.459-1.054-.459-.374 0-.717.127-1.029.383-.311.255-.518.58-.62.977V122h-2.21v-11.9h2.21v4.352h.068a3.072 3.072 0 0 1 1.003-.867c.397-.215.901-.323 1.513-.323.43 0 .81.057 1.139.17.329.113.603.3.825.561.22.26.385.615.493 1.063.107.447.161 1 .161 1.657V122h-2.21zm10.863-.731c-.34.272-.802.501-1.385.688a6.065 6.065 0 0 1-1.862.281c-1.371 0-2.374-.4-3.009-1.198-.635-.8-.952-1.896-.952-3.29 0-1.496.357-2.618 1.071-3.366.714-.748 1.717-1.122 3.009-1.122.43 0 .85.057 1.258.17.408.113.77.3 1.088.561.317.26.572.612.765 1.054.193.442.289.992.289 1.649 0 .238-.014.493-.043.765-.028.272-.07.555-.127.85h-5.1c.034.714.218 1.252.553 1.615.334.363.875.544 1.623.544.465 0 .881-.07 1.25-.213.368-.141.648-.286.841-.433l.731 1.445zm-3.162-6.239c-.578 0-1.006.173-1.284.519-.277.345-.444.807-.501 1.385h3.162c.045-.612-.048-1.082-.28-1.411-.233-.329-.598-.493-1.097-.493zm4.947-1.037a7.272 7.272 0 0 1 1.615-.484 10.408 10.408 0 0 1 1.955-.179c.59 0 1.082.07 1.479.213.397.141.711.342.944.603.232.26.396.572.492.935.097.363.145.77.145 1.224 0 .499-.017 1-.051 1.504-.034.505-.054 1-.06 1.488-.005.487.009.96.043 1.42.034.459.119.892.255 1.3h-1.802l-.357-1.173h-.085a3.025 3.025 0 0 1-.944.91c-.402.255-.92.382-1.555.382-.397 0-.754-.06-1.071-.178a2.318 2.318 0 0 1-.816-.51 2.323 2.323 0 0 1-.527-.782 2.616 2.616 0 0 1-.187-1.012c0-.521.116-.96.349-1.317.232-.358.566-.646 1.002-.868.437-.22.958-.373 1.565-.459.606-.085 1.283-.11 2.031-.076.08-.635.034-1.09-.136-1.368s-.55-.417-1.139-.417c-.442 0-.91.045-1.403.136-.493.09-.898.21-1.215.357l-.527-1.649zm2.805 6.324c.442 0 .793-.1 1.054-.297.26-.199.453-.411.578-.638v-1.105a6.08 6.08 0 0 0-1.012-.017 3.719 3.719 0 0 0-.858.153c-.25.08-.448.193-.595.34a.76.76 0 0 0-.221.561c0 .317.093.564.28.74.188.175.445.263.774.263zm12.903-1.309c0 .476.006.952.017 1.428.011.476.062 1.003.153 1.581h-1.581l-.306-1.105h-.068a2.569 2.569 0 0 1-.977.96c-.426.244-.927.366-1.505.366-1.065 0-1.893-.351-2.482-1.054-.59-.703-.884-1.802-.884-3.298 0-1.45.329-2.578.986-3.383.657-.805 1.62-1.207 2.89-1.207.351 0 .64.02.867.06.227.04.453.104.68.195V110.1h2.21v8.908zm-3.757 1.36c.43 0 .77-.105 1.02-.314.25-.21.425-.513.527-.91v-3.604a1.687 1.687 0 0 0-.527-.28 2.483 2.483 0 0 0-.748-.094c-.623 0-1.09.21-1.403.629-.311.42-.467 1.139-.467 2.159 0 .725.127 1.309.382 1.751.256.442.66.663 1.216.663zm12.495.901c-.34.272-.802.501-1.385.688a6.065 6.065 0 0 1-1.862.281c-1.371 0-2.374-.4-3.009-1.198-.635-.8-.952-1.896-.952-3.29 0-1.496.357-2.618 1.071-3.366.714-.748 1.717-1.122 3.009-1.122.43 0 .85.057 1.258.17.408.113.77.3 1.088.561.317.26.572.612.765 1.054.193.442.289.992.289 1.649 0 .238-.014.493-.043.765-.028.272-.07.555-.127.85h-5.1c.034.714.218 1.252.553 1.615.334.363.875.544 1.623.544.465 0 .881-.07 1.25-.213.368-.141.648-.286.841-.433l.731 1.445zm-3.162-6.239c-.578 0-1.006.173-1.284.519-.277.345-.444.807-.501 1.385h3.162c.045-.612-.048-1.082-.28-1.411-.233-.329-.598-.493-1.097-.493zm9.69.544a2.88 2.88 0 0 0-.952-.187c-.397 0-.728.105-.995.314-.266.21-.444.48-.535.808V122h-2.21v-8.5h1.717l.255 1.122h.068c.193-.42.453-.742.782-.969.329-.227.714-.34 1.156-.34.295 0 .629.062 1.003.187l-.289 2.074zM33.488 289.654a.635.635 0 0 0-.289-.544 3.482 3.482 0 0 0-.714-.374c-.283-.113-.595-.23-.935-.349a3.513 3.513 0 0 1-.935-.493 2.7 2.7 0 0 1-.714-.798c-.193-.324-.289-.74-.289-1.25 0-.839.25-1.479.748-1.921.499-.442 1.218-.663 2.159-.663.646 0 1.23.068 1.751.204.521.136.93.289 1.224.459l-.493 1.598c-.26-.102-.59-.21-.986-.323a4.373 4.373 0 0 0-1.207-.17c-.657 0-.986.255-.986.765 0 .204.096.368.289.493.193.125.43.24.714.349.283.107.595.223.935.348.34.125.652.286.935.484.283.199.521.457.714.774.193.317.289.725.289 1.224 0 .861-.275 1.538-.825 2.031-.55.494-1.374.74-2.473.74a6.04 6.04 0 0 1-1.691-.23c-.528-.153-.955-.331-1.284-.535l.612-1.649c.26.147.606.292 1.037.433.43.142.873.213 1.326.213.329 0 .592-.062.79-.187.199-.125.298-.334.298-.629zm3.859-6.154h2.21v8.5h-2.21v-8.5zm-.323-2.397c0-.329.122-.61.365-.841.244-.233.581-.349 1.012-.349.43 0 .78.116 1.045.349.267.232.4.512.4.841 0 .329-.133.603-.4.825-.266.22-.614.331-1.045.331-.43 0-.768-.11-1.012-.332a1.068 1.068 0 0 1-.365-.824zm11.917 7.905c0 .476.006.952.017 1.428.011.476.062 1.003.153 1.581H47.53l-.306-1.105h-.068a2.569 2.569 0 0 1-.977.96c-.426.244-.927.366-1.505.366-1.065 0-1.893-.351-2.482-1.054-.59-.703-.884-1.802-.884-3.298 0-1.45.329-2.578.986-3.383.657-.805 1.62-1.207 2.89-1.207.351 0 .64.02.867.06.227.04.453.104.68.195V280.1h2.21v8.908zm-3.757 1.36c.43 0 .77-.105 1.02-.315.25-.21.425-.512.527-.909v-3.604a1.687 1.687 0 0 0-.527-.28 2.483 2.483 0 0 0-.748-.094c-.623 0-1.09.21-1.403.629-.311.42-.467 1.139-.467 2.159 0 .725.127 1.309.383 1.751.255.442.66.663 1.215.663zm12.495.901c-.34.272-.802.501-1.386.688a6.065 6.065 0 0 1-1.861.281c-1.371 0-2.374-.4-3.009-1.199-.635-.799-.952-1.895-.952-3.289 0-1.496.357-2.618 1.071-3.366.714-.748 1.717-1.122 3.009-1.122.43 0 .85.057 1.258.17.408.113.77.3 1.088.561.317.26.572.612.765 1.054.193.442.289.992.289 1.649 0 .238-.014.493-.043.765-.028.272-.07.555-.127.85h-5.1c.034.714.218 1.252.553 1.615.334.363.875.544 1.623.544.465 0 .881-.07 1.25-.213.368-.141.648-.286.841-.433l.731 1.445zm-3.162-6.239c-.578 0-1.006.173-1.284.519-.277.345-.444.807-.501 1.385h3.162c.045-.612-.048-1.082-.28-1.411-.233-.329-.598-.493-1.097-.493zm4.998-4.93h2.21v4.08h.068a2.49 2.49 0 0 1 .918-.646 3.146 3.146 0 0 1 1.241-.238c1.02 0 1.8.348 2.338 1.046.538.697.807 1.759.807 3.187 0 1.53-.377 2.692-1.13 3.485-.754.793-1.788 1.19-3.103 1.19-.725 0-1.388-.06-1.989-.178-.6-.12-1.054-.253-1.36-.4V280.1zm3.791 5.066c-.408 0-.74.105-.994.315-.256.21-.451.512-.587.909v3.706c.181.09.377.153.587.187.21.034.433.051.671.051.6 0 1.057-.218 1.369-.654.311-.437.467-1.131.467-2.083 0-1.62-.504-2.431-1.513-2.431zm5.27-1.173a7.272 7.272 0 0 1 1.615-.484 10.408 10.408 0 0 1 1.955-.179c.59 0 1.082.07 1.479.213.397.141.711.342.944.603.232.26.396.572.492.935.097.363.145.77.145 1.224 0 .499-.017 1-.051 1.505-.034.504-.054 1-.06 1.487-.005.487.009.96.043 1.42.034.459.119.892.255 1.3h-1.802l-.357-1.173h-.085a3.025 3.025 0 0 1-.944.91c-.402.255-.92.382-1.555.382a3.03 3.03 0 0 1-1.071-.179 2.318 2.318 0 0 1-.816-.51 2.323 2.323 0 0 1-.527-.781 2.616 2.616 0 0 1-.187-1.012c0-.521.116-.96.348-1.317.233-.358.567-.646 1.003-.868.437-.22.958-.373 1.564-.459.607-.084 1.284-.11 2.032-.076.08-.635.034-1.09-.136-1.369-.17-.277-.55-.416-1.139-.416-.442 0-.91.045-1.403.136-.493.09-.898.21-1.215.357l-.527-1.649zm2.805 6.324c.442 0 .793-.1 1.054-.298.26-.198.453-.41.578-.637v-1.105a6.08 6.08 0 0 0-1.012-.017 3.719 3.719 0 0 0-.858.153c-.25.08-.448.193-.595.34a.76.76 0 0 0-.221.561c0 .317.093.564.28.74.188.175.445.263.774.263zm10.37-4.743a2.88 2.88 0 0 0-.952-.187c-.397 0-.728.105-.995.315-.266.21-.444.478-.535.807V292h-2.21v-8.5h1.717l.255 1.122h.068c.193-.42.453-.742.782-.969.329-.227.714-.34 1.156-.34.295 0 .629.062 1.003.187l-.289 2.074zm171.327 5.933c-.363.26-.824.448-1.386.561a8.692 8.692 0 0 1-1.725.17c-.714 0-1.391-.11-2.032-.332a4.345 4.345 0 0 1-1.691-1.07c-.487-.494-.875-1.134-1.165-1.922-.289-.787-.433-1.742-.433-2.864 0-1.167.161-2.145.485-2.933.323-.787.742-1.422 1.257-1.904a4.642 4.642 0 0 1 1.726-1.037 6.039 6.039 0 0 1 1.904-.314c.68 0 1.255.045 1.726.136.47.09.858.198 1.164.323l-.459 1.972a3.37 3.37 0 0 0-.927-.272 8.46 8.46 0 0 0-1.3-.085c-.94 0-1.697.334-2.27 1.003-.572.669-.858 1.706-.858 3.111 0 .612.068 1.17.204 1.674.136.505.343.935.62 1.293.278.357.624.634 1.037.832.414.199.893.298 1.437.298.51 0 .94-.051 1.292-.153.351-.102.657-.232.918-.391l.476 1.904zm.374-3.757c0-1.44.351-2.547 1.054-3.324.703-.776 1.689-1.164 2.958-1.164.68 0 1.27.108 1.768.323a3.29 3.29 0 0 1 1.241.91c.329.39.575.864.74 1.419.164.555.246 1.167.246 1.836 0 1.44-.348 2.547-1.046 3.324-.697.776-1.68 1.164-2.949 1.164-.68 0-1.27-.108-1.768-.323a3.379 3.379 0 0 1-1.25-.91 3.82 3.82 0 0 1-.748-1.419 6.453 6.453 0 0 1-.246-1.836zm2.278 0c0 .374.034.72.102 1.037.068.317.17.595.306.833.136.238.314.422.536.553.22.13.484.195.79.195.578 0 1.009-.21 1.292-.629.283-.42.425-1.082.425-1.989 0-.782-.13-1.414-.391-1.896-.26-.481-.703-.722-1.326-.722-.544 0-.969.204-1.275.612-.306.408-.459 1.077-.459 2.006zm12.461 4.25v-4.828c0-.691-.1-1.19-.297-1.496-.199-.306-.536-.459-1.012-.459-.42 0-.773.122-1.063.365a2.03 2.03 0 0 0-.62.91V292h-2.21v-8.5h1.751l.255 1.122h.068c.26-.363.606-.68 1.037-.952.43-.272.986-.408 1.666-.408.42 0 .793.057 1.122.17.329.113.606.3.833.561.227.26.397.615.51 1.063.113.447.17 1 .17 1.657V292h-2.21zm3.179-8.5h1.173v-1.598l2.21-.629v2.227h2.074v1.87h-2.074v3.264c0 .59.06 1.011.179 1.267.119.255.342.382.671.382.227 0 .422-.023.587-.068a3.93 3.93 0 0 0 .552-.204l.391 1.7a5.611 5.611 0 0 1-1.071.374 5.098 5.098 0 0 1-1.241.153c-.782 0-1.357-.201-1.726-.603-.368-.403-.552-1.063-.552-1.981v-4.284h-1.173v-1.87zm13.532 7.769c-.34.272-.802.501-1.385.688a6.065 6.065 0 0 1-1.862.281c-1.371 0-2.374-.4-3.009-1.199-.635-.799-.952-1.895-.952-3.289 0-1.496.357-2.618 1.071-3.366.714-.748 1.717-1.122 3.009-1.122.43 0 .85.057 1.258.17.408.113.77.3 1.088.561.317.26.572.612.765 1.054.193.442.289.992.289 1.649 0 .238-.014.493-.042.765a10.15 10.15 0 0 1-.128.85h-5.1c.034.714.218 1.252.553 1.615.334.363.875.544 1.623.544.465 0 .881-.07 1.25-.213.368-.141.648-.286.841-.433l.731 1.445zm-3.162-6.239c-.578 0-1.006.173-1.284.519-.277.345-.444.807-.501 1.385h3.162c.045-.612-.048-1.082-.28-1.411-.233-.329-.598-.493-1.097-.493zm10.2 6.97v-4.828c0-.691-.1-1.19-.298-1.496-.198-.306-.535-.459-1.011-.459-.42 0-.773.122-1.063.365a2.03 2.03 0 0 0-.62.91V292h-2.21v-8.5h1.751l.255 1.122h.068c.26-.363.606-.68 1.037-.952.43-.272.986-.408 1.666-.408.42 0 .793.057 1.122.17.329.113.606.3.833.561.227.26.397.615.51 1.063.113.447.17 1 .17 1.657V292h-2.21zm3.179-8.5h1.173v-1.598l2.21-.629v2.227h2.074v1.87h-2.074v3.264c0 .59.06 1.011.178 1.267.12.255.343.382.672.382.227 0 .422-.023.587-.068a3.93 3.93 0 0 0 .552-.204l.391 1.7a5.611 5.611 0 0 1-1.071.374 5.098 5.098 0 0 1-1.241.153c-.782 0-1.357-.201-1.726-.603-.368-.403-.552-1.063-.552-1.981v-4.284h-1.173v-1.87z" fill="#FFF"/>
    <path d="M16.68 34c0 1.163-.315 2.019-.944 2.568-.63.55-1.51.824-2.64.824-.768 0-1.373-.053-1.816-.16-.443-.107-.776-.219-1-.336l.432-1.648c.245.096.53.192.856.288.325.096.728.144 1.208.144.725 0 1.219-.157 1.48-.472.261-.315.392-.755.392-1.32v-.512h-.064c-.373.501-1.035.752-1.984.752-1.035 0-1.805-.32-2.312-.96-.507-.64-.76-1.643-.76-3.008 0-1.43.341-2.512 1.024-3.248.683-.736 1.675-1.104 2.976-1.104.683 0 1.293.048 1.832.144a7.68 7.68 0 0 1 1.32.336V34zm-3.52-1.536c.405 0 .717-.09.936-.272.219-.181.387-.453.504-.816v-3.6c-.33-.139-.741-.208-1.232-.208-.533 0-.95.2-1.248.6-.299.4-.448 1.037-.448 1.912 0 .779.128 1.37.384 1.776a1.23 1.23 0 0 0 1.104.608zm9.744-4.512a2.71 2.71 0 0 0-.896-.176c-.373 0-.685.099-.936.296-.25.197-.419.45-.504.76V34h-2.08v-8h1.616l.24 1.056h.064c.181-.395.427-.699.736-.912.31-.213.672-.32 1.088-.32.277 0 .592.059.944.176l-.272 1.952zM24.296 26h2.08v8h-2.08v-8zm-.304-2.256c0-.31.115-.573.344-.792.23-.219.547-.328.952-.328.405 0 .733.11.984.328.25.219.376.483.376.792a.97.97 0 0 1-.376.776c-.25.208-.579.312-.984.312s-.723-.104-.952-.312a1.005 1.005 0 0 1-.344-.776zm11.216 7.44c0 .448.005.896.016 1.344.01.448.059.944.144 1.488H33.88l-.288-1.04h-.064c-.213.373-.52.675-.92.904-.4.23-.872.344-1.416.344-1.003 0-1.781-.33-2.336-.992-.555-.661-.832-1.696-.832-3.104 0-1.365.31-2.427.928-3.184.619-.757 1.525-1.136 2.72-1.136.33 0 .603.019.816.056.213.037.427.099.64.184V22.8h2.08v8.384zm-3.536 1.28c.405 0 .725-.099.96-.296.235-.197.4-.483.496-.856V27.92a1.587 1.587 0 0 0-.496-.264 2.337 2.337 0 0 0-.704-.088c-.587 0-1.027.197-1.32.592-.293.395-.44 1.072-.44 2.032 0 .683.12 1.232.36 1.648.24.416.621.624 1.144.624zm5.312-3.984H41v1.84h-4.016v-1.84zM41.96 26h1.104v-1.504l2.08-.592V26h1.952v1.76h-1.952v3.072c0 .555.056.952.168 1.192.112.24.323.36.632.36.213 0 .397-.021.552-.064a3.84 3.84 0 0 0 .52-.192l.368 1.6a5.281 5.281 0 0 1-1.008.352 4.798 4.798 0 0 1-1.168.144c-.736 0-1.277-.19-1.624-.568-.347-.379-.52-1-.52-1.864V27.76H41.96V26zm12.736 7.312c-.32.256-.755.472-1.304.648a5.708 5.708 0 0 1-1.752.264c-1.29 0-2.235-.376-2.832-1.128-.597-.752-.896-1.784-.896-3.096 0-1.408.336-2.464 1.008-3.168.672-.704 1.616-1.056 2.832-1.056.405 0 .8.053 1.184.16.384.107.725.283 1.024.528.299.245.539.576.72.992.181.416.272.933.272 1.552 0 .224-.013.464-.04.72a9.399 9.399 0 0 1-.12.8h-4.8c.032.672.205 1.179.52 1.52.315.341.824.512 1.528.512.437 0 .83-.067 1.176-.2.347-.133.61-.27.792-.408l.688 1.36zM51.72 27.44c-.544 0-.947.163-1.208.488-.261.325-.419.76-.472 1.304h2.976c.043-.576-.045-1.019-.264-1.328-.219-.31-.563-.464-1.032-.464zM60.968 34v-4.352c0-.736-.07-1.259-.208-1.568-.139-.31-.427-.464-.864-.464-.363 0-.656.099-.88.296a1.88 1.88 0 0 0-.512.76V34h-2.08v-8h1.616l.24 1.056h.064c.245-.341.557-.64.936-.896s.867-.384 1.464-.384c.512 0 .93.104 1.256.312.325.208.579.557.76 1.048a2.9 2.9 0 0 1 .944-.992c.384-.245.848-.368 1.392-.368.448 0 .83.053 1.144.16.315.107.57.29.768.552.197.261.344.61.44 1.048.096.437.144.992.144 1.664V34h-2.08v-4.496c0-.63-.067-1.101-.2-1.416-.133-.315-.43-.472-.888-.472-.373 0-.67.101-.888.304-.219.203-.381.48-.488.832V34h-2.08zm8.336-8h1.52l.24.96h.064c.277-.405.605-.704.984-.896.379-.192.84-.288 1.384-.288 1.003 0 1.755.317 2.256.952.501.635.752 1.656.752 3.064a6.6 6.6 0 0 1-.24 1.848 3.899 3.899 0 0 1-.712 1.4 3.111 3.111 0 0 1-1.152.88c-.453.203-.973.304-1.56.304a3.82 3.82 0 0 1-.816-.072 2.81 2.81 0 0 1-.64-.232v3.28h-2.08V26zm3.568 1.536c-.405 0-.723.101-.952.304-.23.203-.408.507-.536.912v3.328c.15.117.312.21.488.28.176.07.408.104.696.104.597 0 1.045-.21 1.344-.632.299-.421.448-1.117.448-2.088 0-.704-.117-1.248-.352-1.632-.235-.384-.613-.576-1.136-.576zm7.216 3.776c0 .373.048.645.144.816.096.17.25.256.464.256.128 0 .253-.01.376-.032.123-.021.275-.07.456-.144l.224 1.632c-.17.085-.432.17-.784.256a4.602 4.602 0 0 1-1.088.128c-.608 0-1.072-.141-1.392-.424-.32-.283-.48-.75-.48-1.4v-9.6h2.08v8.512zm2.512-4.848a6.844 6.844 0 0 1 1.52-.456 9.796 9.796 0 0 1 1.84-.168c.555 0 1.019.067 1.392.2s.67.323.888.568c.219.245.373.539.464.88.09.341.136.725.136 1.152 0 .47-.016.941-.048 1.416s-.05.941-.056 1.4c-.005.459.008.904.04 1.336.032.432.112.84.24 1.224H87.32l-.336-1.104h-.08c-.213.33-.51.616-.888.856-.379.24-.867.36-1.464.36-.373 0-.71-.056-1.008-.168a2.182 2.182 0 0 1-.768-.48 2.187 2.187 0 0 1-.496-.736 2.462 2.462 0 0 1-.176-.952c0-.49.11-.904.328-1.24.219-.336.533-.608.944-.816.41-.208.901-.352 1.472-.432a10.43 10.43 0 0 1 1.912-.072c.075-.597.032-1.027-.128-1.288-.16-.261-.517-.392-1.072-.392-.416 0-.856.043-1.32.128-.464.085-.845.197-1.144.336l-.496-1.552zm2.64 5.952c.416 0 .747-.093.992-.28a1.96 1.96 0 0 0 .544-.6v-1.04a5.722 5.722 0 0 0-.952-.016c-.304.021-.573.07-.808.144a1.358 1.358 0 0 0-.56.32.715.715 0 0 0-.208.528c0 .299.088.53.264.696.176.165.419.248.728.248zM89.752 26h1.104v-1.504l2.08-.592V26h1.952v1.76h-1.952v3.072c0 .555.056.952.168 1.192.112.24.323.36.632.36.213 0 .397-.021.552-.064a3.84 3.84 0 0 0 .52-.192l.368 1.6a5.281 5.281 0 0 1-1.008.352 4.798 4.798 0 0 1-1.168.144c-.736 0-1.277-.19-1.624-.568-.347-.379-.52-1-.52-1.864V27.76h-1.104V26zm12.736 7.312c-.32.256-.755.472-1.304.648a5.708 5.708 0 0 1-1.752.264c-1.29 0-2.235-.376-2.832-1.128-.597-.752-.896-1.784-.896-3.096 0-1.408.336-2.464 1.008-3.168.672-.704 1.616-1.056 2.832-1.056.405 0 .8.053 1.184.16.384.107.725.283 1.024.528.299.245.539.576.72.992.181.416.272.933.272 1.552 0 .224-.013.464-.04.72a9.399 9.399 0 0 1-.12.8h-4.8c.032.672.205 1.179.52 1.52.315.341.824.512 1.528.512.437 0 .83-.067 1.176-.2.347-.133.61-.27.792-.408l.688 1.36zm-2.976-5.872c-.544 0-.947.163-1.208.488-.261.325-.419.76-.472 1.304h2.976c.043-.576-.045-1.019-.264-1.328-.219-.31-.563-.464-1.032-.464zm4.656 1.04h4.016v1.84h-4.016v-1.84zm5.76-2.016a6.844 6.844 0 0 1 1.52-.456 9.796 9.796 0 0 1 1.84-.168c.555 0 1.019.067 1.392.2s.67.323.888.568c.219.245.373.539.464.88.09.341.136.725.136 1.152 0 .47-.016.941-.048 1.416s-.05.941-.056 1.4c-.005.459.008.904.04 1.336.032.432.112.84.24 1.224h-1.696l-.336-1.104h-.08c-.213.33-.51.616-.888.856-.379.24-.867.36-1.464.36-.373 0-.71-.056-1.008-.168a2.182 2.182 0 0 1-.768-.48 2.187 2.187 0 0 1-.496-.736 2.462 2.462 0 0 1-.176-.952c0-.49.11-.904.328-1.24.219-.336.533-.608.944-.816.41-.208.901-.352 1.472-.432a10.43 10.43 0 0 1 1.912-.072c.075-.597.032-1.027-.128-1.288-.16-.261-.517-.392-1.072-.392-.416 0-.856.043-1.32.128-.464.085-.845.197-1.144.336l-.496-1.552zm2.64 5.952c.416 0 .747-.093.992-.28a1.96 1.96 0 0 0 .544-.6v-1.04a5.722 5.722 0 0 0-.952-.016c-.304.021-.573.07-.808.144a1.358 1.358 0 0 0-.56.32.715.715 0 0 0-.208.528c0 .299.088.53.264.696.176.165.419.248.728.248zm9.76-4.464a2.71 2.71 0 0 0-.896-.176c-.373 0-.685.099-.936.296-.25.197-.419.45-.504.76V34h-2.08v-8h1.616l.24 1.056h.064c.181-.395.427-.699.736-.912.31-.213.672-.32 1.088-.32.277 0 .592.059.944.176l-.272 1.952zm7.6 5.36c-.32.256-.755.472-1.304.648a5.708 5.708 0 0 1-1.752.264c-1.29 0-2.235-.376-2.832-1.128-.597-.752-.896-1.784-.896-3.096 0-1.408.336-2.464 1.008-3.168.672-.704 1.616-1.056 2.832-1.056.405 0 .8.053 1.184.16.384.107.725.283 1.024.528.299.245.539.576.72.992.181.416.272.933.272 1.552 0 .224-.013.464-.04.72a9.399 9.399 0 0 1-.12.8h-4.8c.032.672.205 1.179.52 1.52.315.341.824.512 1.528.512.437 0 .83-.067 1.176-.2.347-.133.61-.27.792-.408l.688 1.36zm-2.976-5.872c-.544 0-.947.163-1.208.488-.261.325-.419.76-.472 1.304h2.976c.043-.576-.045-1.019-.264-1.328-.219-.31-.563-.464-1.032-.464zm4.656-.976a6.844 6.844 0 0 1 1.52-.456 9.796 9.796 0 0 1 1.84-.168c.555 0 1.019.067 1.392.2s.67.323.888.568c.219.245.373.539.464.88.09.341.136.725.136 1.152 0 .47-.016.941-.048 1.416s-.05.941-.056 1.4c-.005.459.008.904.04 1.336.032.432.112.84.24 1.224h-1.696l-.336-1.104h-.08c-.213.33-.51.616-.888.856-.379.24-.867.36-1.464.36-.373 0-.71-.056-1.008-.168a2.182 2.182 0 0 1-.768-.48 2.187 2.187 0 0 1-.496-.736 2.462 2.462 0 0 1-.176-.952c0-.49.11-.904.328-1.24.219-.336.533-.608.944-.816.41-.208.901-.352 1.472-.432a10.43 10.43 0 0 1 1.912-.072c.075-.597.032-1.027-.128-1.288-.16-.261-.517-.392-1.072-.392-.416 0-.856.043-1.32.128-.464.085-.845.197-1.144.336l-.496-1.552zm2.64 5.952c.416 0 .747-.093.992-.28a1.96 1.96 0 0 0 .544-.6v-1.04a5.722 5.722 0 0 0-.952-.016c-.304.021-.573.07-.808.144a1.358 1.358 0 0 0-.56.32.715.715 0 0 0-.208.528c0 .299.088.53.264.696.176.165.419.248.728.248zm8.656-.624a.597.597 0 0 0-.272-.512 3.277 3.277 0 0 0-.672-.352c-.267-.107-.56-.216-.88-.328a3.306 3.306 0 0 1-.88-.464 2.541 2.541 0 0 1-.672-.752c-.181-.304-.272-.696-.272-1.176 0-.79.235-1.392.704-1.808.47-.416 1.147-.624 2.032-.624.608 0 1.157.064 1.648.192.49.128.875.272 1.152.432l-.464 1.504a10.606 10.606 0 0 0-.928-.304 4.116 4.116 0 0 0-1.136-.16c-.619 0-.928.24-.928.72 0 .192.09.347.272.464.181.117.405.227.672.328s.56.21.88.328c.32.117.613.27.88.456.267.187.49.43.672.728.181.299.272.683.272 1.152 0 .81-.259 1.448-.776 1.912-.517.464-1.293.696-2.328.696a5.685 5.685 0 0 1-1.592-.216c-.496-.144-.899-.312-1.208-.504l.576-1.552c.245.139.57.275.976.408.405.133.821.2 1.248.2.31 0 .557-.059.744-.176.187-.117.28-.315.28-.592zm4.016-4.64c0-.373.117-.67.352-.888.235-.219.544-.328.928-.328.405 0 .725.11.96.328.235.219.352.515.352.888s-.117.672-.352.896c-.235.224-.555.336-.96.336-.384 0-.693-.112-.928-.336-.235-.224-.352-.523-.352-.896zm0 5.792c0-.373.117-.67.352-.888.235-.219.544-.328.928-.328.405 0 .725.11.96.328.235.219.352.515.352.888s-.117.672-.352.896c-.235.224-.555.336-.96.336-.384 0-.693-.112-.928-.336-.235-.224-.352-.523-.352-.896zm11.248-8.832c0 .31-.104.557-.312.744-.208.187-.467.28-.776.28-.395 0-.704-.125-.928-.376-.224-.25-.336-.584-.336-1 0-.427.067-.79.2-1.088.133-.299.293-.547.48-.744.187-.197.381-.352.584-.464a3.7 3.7 0 0 1 .528-.248l.512.864a1.312 1.312 0 0 0-.544.408 1.13 1.13 0 0 0-.256.6c.213 0 .408.093.584.28.176.187.264.435.264.744zm-2.768 0c0 .31-.104.557-.312.744-.208.187-.467.28-.776.28-.395 0-.704-.125-.928-.376-.224-.25-.336-.584-.336-1 0-.427.067-.79.2-1.088.133-.299.293-.547.48-.744.187-.197.381-.352.584-.464a3.7 3.7 0 0 1 .528-.248l.512.864a1.312 1.312 0 0 0-.544.408 1.13 1.13 0 0 0-.256.6c.213 0 .408.093.584.28.176.187.264.435.264.744zM164.584 34v-4.544c0-.65-.09-1.12-.272-1.408-.181-.288-.512-.432-.992-.432-.352 0-.675.12-.968.36a1.71 1.71 0 0 0-.584.92V34h-2.08V22.8h2.08v4.096h.064c.256-.341.57-.613.944-.816.373-.203.848-.304 1.424-.304.405 0 .763.053 1.072.16.31.107.568.283.776.528.208.245.363.579.464 1 .101.421.152.941.152 1.56V34h-2.08zm10.224-.688c-.32.256-.755.472-1.304.648a5.708 5.708 0 0 1-1.752.264c-1.29 0-2.235-.376-2.832-1.128-.597-.752-.896-1.784-.896-3.096 0-1.408.336-2.464 1.008-3.168.672-.704 1.616-1.056 2.832-1.056.405 0 .8.053 1.184.16.384.107.725.283 1.024.528.299.245.539.576.72.992.181.416.272.933.272 1.552 0 .224-.013.464-.04.72a9.399 9.399 0 0 1-.12.8h-4.8c.032.672.205 1.179.52 1.52.315.341.824.512 1.528.512.437 0 .83-.067 1.176-.2.347-.133.61-.27.792-.408l.688 1.36zm-2.976-5.872c-.544 0-.947.163-1.208.488-.261.325-.419.76-.472 1.304h2.976c.043-.576-.045-1.019-.264-1.328-.219-.31-.563-.464-1.032-.464zm4.656-.976a6.844 6.844 0 0 1 1.52-.456 9.796 9.796 0 0 1 1.84-.168c.555 0 1.019.067 1.392.2s.67.323.888.568c.219.245.373.539.464.88.09.341.136.725.136 1.152 0 .47-.016.941-.048 1.416s-.05.941-.056 1.4c-.005.459.008.904.04 1.336.032.432.112.84.24 1.224h-1.696l-.336-1.104h-.08c-.213.33-.51.616-.888.856-.379.24-.867.36-1.464.36-.373 0-.71-.056-1.008-.168a2.182 2.182 0 0 1-.768-.48 2.187 2.187 0 0 1-.496-.736 2.462 2.462 0 0 1-.176-.952c0-.49.11-.904.328-1.24.219-.336.533-.608.944-.816.41-.208.901-.352 1.472-.432a10.43 10.43 0 0 1 1.912-.072c.075-.597.032-1.027-.128-1.288-.16-.261-.517-.392-1.072-.392-.416 0-.856.043-1.32.128-.464.085-.845.197-1.144.336l-.496-1.552zm2.64 5.952c.416 0 .747-.093.992-.28a1.96 1.96 0 0 0 .544-.6v-1.04a5.722 5.722 0 0 0-.952-.016c-.304.021-.573.07-.808.144a1.358 1.358 0 0 0-.56.32.715.715 0 0 0-.208.528c0 .299.088.53.264.696.176.165.419.248.728.248zm12.144-1.232c0 .448.005.896.016 1.344.01.448.059.944.144 1.488h-1.488l-.288-1.04h-.064c-.213.373-.52.675-.92.904-.4.23-.872.344-1.416.344-1.003 0-1.781-.33-2.336-.992-.555-.661-.832-1.696-.832-3.104 0-1.365.31-2.427.928-3.184.619-.757 1.525-1.136 2.72-1.136.33 0 .603.019.816.056.213.037.427.099.64.184V22.8h2.08v8.384zm-3.536 1.28c.405 0 .725-.099.96-.296.235-.197.4-.483.496-.856V27.92a1.587 1.587 0 0 0-.496-.264 2.337 2.337 0 0 0-.704-.088c-.587 0-1.027.197-1.32.592-.293.395-.44 1.072-.44 2.032 0 .683.12 1.232.36 1.648.24.416.621.624 1.144.624zm11.76.848c-.32.256-.755.472-1.304.648a5.708 5.708 0 0 1-1.752.264c-1.29 0-2.235-.376-2.832-1.128-.597-.752-.896-1.784-.896-3.096 0-1.408.336-2.464 1.008-3.168.672-.704 1.616-1.056 2.832-1.056.405 0 .8.053 1.184.16.384.107.725.283 1.024.528.299.245.539.576.72.992.181.416.272.933.272 1.552 0 .224-.013.464-.04.72a9.399 9.399 0 0 1-.12.8h-4.8c.032.672.205 1.179.52 1.52.315.341.824.512 1.528.512.437 0 .83-.067 1.176-.2.347-.133.61-.27.792-.408l.688 1.36zm-2.976-5.872c-.544 0-.947.163-1.208.488-.261.325-.419.76-.472 1.304h2.976c.043-.576-.045-1.019-.264-1.328-.219-.31-.563-.464-1.032-.464zm9.12.512a2.71 2.71 0 0 0-.896-.176c-.373 0-.685.099-.936.296-.25.197-.419.45-.504.76V34h-2.08v-8h1.616l.24 1.056h.064c.181-.395.427-.699.736-.912.31-.213.672-.32 1.088-.32.277 0 .592.059.944.176l-.272 1.952zM215.784 34v-4.544c0-.65-.09-1.12-.272-1.408-.181-.288-.512-.432-.992-.432-.352 0-.675.12-.968.36a1.71 1.71 0 0 0-.584.92V34h-2.08V22.8h2.08v4.096h.064c.256-.341.57-.613.944-.816.373-.203.848-.304 1.424-.304.405 0 .763.053 1.072.16.31.107.568.283.776.528.208.245.363.579.464 1 .101.421.152.941.152 1.56V34h-2.08zm10.224-.688c-.32.256-.755.472-1.304.648a5.708 5.708 0 0 1-1.752.264c-1.29 0-2.235-.376-2.832-1.128-.597-.752-.896-1.784-.896-3.096 0-1.408.336-2.464 1.008-3.168.672-.704 1.616-1.056 2.832-1.056.405 0 .8.053 1.184.16.384.107.725.283 1.024.528.299.245.539.576.72.992.181.416.272.933.272 1.552 0 .224-.013.464-.04.72a9.399 9.399 0 0 1-.12.8h-4.8c.032.672.205 1.179.52 1.52.315.341.824.512 1.528.512.437 0 .83-.067 1.176-.2.347-.133.61-.27.792-.408l.688 1.36zm-2.976-5.872c-.544 0-.947.163-1.208.488-.261.325-.419.76-.472 1.304h2.976c.043-.576-.045-1.019-.264-1.328-.219-.31-.563-.464-1.032-.464zm4.656-.976a6.844 6.844 0 0 1 1.52-.456 9.796 9.796 0 0 1 1.84-.168c.555 0 1.019.067 1.392.2s.67.323.888.568c.219.245.373.539.464.88.09.341.136.725.136 1.152 0 .47-.016.941-.048 1.416s-.05.941-.056 1.4c-.005.459.008.904.04 1.336.032.432.112.84.24 1.224h-1.696l-.336-1.104h-.08c-.213.33-.51.616-.888.856-.379.24-.867.36-1.464.36-.373 0-.71-.056-1.008-.168a2.182 2.182 0 0 1-.768-.48 2.187 2.187 0 0 1-.496-.736 2.462 2.462 0 0 1-.176-.952c0-.49.11-.904.328-1.24.219-.336.533-.608.944-.816.41-.208.901-.352 1.472-.432a10.43 10.43 0 0 1 1.912-.072c.075-.597.032-1.027-.128-1.288-.16-.261-.517-.392-1.072-.392-.416 0-.856.043-1.32.128-.464.085-.845.197-1.144.336l-.496-1.552zm2.64 5.952c.416 0 .747-.093.992-.28a1.96 1.96 0 0 0 .544-.6v-1.04a5.722 5.722 0 0 0-.952-.016c-.304.021-.573.07-.808.144a1.358 1.358 0 0 0-.56.32.715.715 0 0 0-.208.528c0 .299.088.53.264.696.176.165.419.248.728.248zm12.144-1.232c0 .448.005.896.016 1.344.01.448.059.944.144 1.488h-1.488l-.288-1.04h-.064c-.213.373-.52.675-.92.904-.4.23-.872.344-1.416.344-1.003 0-1.781-.33-2.336-.992-.555-.661-.832-1.696-.832-3.104 0-1.365.31-2.427.928-3.184.619-.757 1.525-1.136 2.72-1.136.33 0 .603.019.816.056.213.037.427.099.64.184V22.8h2.08v8.384zm-3.536 1.28c.405 0 .725-.099.96-.296.235-.197.4-.483.496-.856V27.92a1.587 1.587 0 0 0-.496-.264 2.337 2.337 0 0 0-.704-.088c-.587 0-1.027.197-1.32.592-.293.395-.44 1.072-.44 2.032 0 .683.12 1.232.36 1.648.24.416.621.624 1.144.624zm11.76.848c-.32.256-.755.472-1.304.648a5.708 5.708 0 0 1-1.752.264c-1.29 0-2.235-.376-2.832-1.128-.597-.752-.896-1.784-.896-3.096 0-1.408.336-2.464 1.008-3.168.672-.704 1.616-1.056 2.832-1.056.405 0 .8.053 1.184.16.384.107.725.283 1.024.528.299.245.539.576.72.992.181.416.272.933.272 1.552 0 .224-.013.464-.04.72a9.399 9.399 0 0 1-.12.8h-4.8c.032.672.205 1.179.52 1.52.315.341.824.512 1.528.512.437 0 .83-.067 1.176-.2.347-.133.61-.27.792-.408l.688 1.36zm-2.976-5.872c-.544 0-.947.163-1.208.488-.261.325-.419.76-.472 1.304h2.976c.043-.576-.045-1.019-.264-1.328-.219-.31-.563-.464-1.032-.464zm9.12.512a2.71 2.71 0 0 0-.896-.176c-.373 0-.685.099-.936.296-.25.197-.419.45-.504.76V34h-2.08v-8h1.616l.24 1.056h.064c.181-.395.427-.699.736-.912.31-.213.672-.32 1.088-.32.277 0 .592.059.944.176l-.272 1.952zM266.984 34v-4.544c0-.65-.09-1.12-.272-1.408-.181-.288-.512-.432-.992-.432-.352 0-.675.12-.968.36a1.71 1.71 0 0 0-.584.92V34h-2.08V22.8h2.08v4.096h.064c.256-.341.57-.613.944-.816.373-.203.848-.304 1.424-.304.405 0 .763.053 1.072.16.31.107.568.283.776.528.208.245.363.579.464 1 .101.421.152.941.152 1.56V34h-2.08zm10.224-.688c-.32.256-.755.472-1.304.648a5.708 5.708 0 0 1-1.752.264c-1.29 0-2.235-.376-2.832-1.128-.597-.752-.896-1.784-.896-3.096 0-1.408.336-2.464 1.008-3.168.672-.704 1.616-1.056 2.832-1.056.405 0 .8.053 1.184.16.384.107.725.283 1.024.528.299.245.539.576.72.992.181.416.272.933.272 1.552 0 .224-.013.464-.04.72a9.399 9.399 0 0 1-.12.8h-4.8c.032.672.205 1.179.52 1.52.315.341.824.512 1.528.512.437 0 .83-.067 1.176-.2.347-.133.61-.27.792-.408l.688 1.36zm-2.976-5.872c-.544 0-.947.163-1.208.488-.261.325-.419.76-.472 1.304h2.976c.043-.576-.045-1.019-.264-1.328-.219-.31-.563-.464-1.032-.464zm4.656-.976a6.844 6.844 0 0 1 1.52-.456 9.796 9.796 0 0 1 1.84-.168c.555 0 1.019.067 1.392.2s.67.323.888.568c.219.245.373.539.464.88.09.341.136.725.136 1.152 0 .47-.016.941-.048 1.416s-.05.941-.056 1.4c-.005.459.008.904.04 1.336.032.432.112.84.24 1.224h-1.696l-.336-1.104h-.08c-.213.33-.51.616-.888.856-.379.24-.867.36-1.464.36-.373 0-.71-.056-1.008-.168a2.182 2.182 0 0 1-.768-.48 2.187 2.187 0 0 1-.496-.736 2.462 2.462 0 0 1-.176-.952c0-.49.11-.904.328-1.24.219-.336.533-.608.944-.816.41-.208.901-.352 1.472-.432a10.43 10.43 0 0 1 1.912-.072c.075-.597.032-1.027-.128-1.288-.16-.261-.517-.392-1.072-.392-.416 0-.856.043-1.32.128-.464.085-.845.197-1.144.336l-.496-1.552zm2.64 5.952c.416 0 .747-.093.992-.28a1.96 1.96 0 0 0 .544-.6v-1.04a5.722 5.722 0 0 0-.952-.016c-.304.021-.573.07-.808.144a1.358 1.358 0 0 0-.56.32.715.715 0 0 0-.208.528c0 .299.088.53.264.696.176.165.419.248.728.248zm12.144-1.232c0 .448.005.896.016 1.344.01.448.059.944.144 1.488h-1.488l-.288-1.04h-.064c-.213.373-.52.675-.92.904-.4.23-.872.344-1.416.344-1.003 0-1.781-.33-2.336-.992-.555-.661-.832-1.696-.832-3.104 0-1.365.31-2.427.928-3.184.619-.757 1.525-1.136 2.72-1.136.33 0 .603.019.816.056.213.037.427.099.64.184V22.8h2.08v8.384zm-3.536 1.28c.405 0 .725-.099.96-.296.235-.197.4-.483.496-.856V27.92a1.587 1.587 0 0 0-.496-.264 2.337 2.337 0 0 0-.704-.088c-.587 0-1.027.197-1.32.592-.293.395-.44 1.072-.44 2.032 0 .683.12 1.232.36 1.648.24.416.621.624 1.144.624zm11.76.848c-.32.256-.755.472-1.304.648a5.708 5.708 0 0 1-1.752.264c-1.29 0-2.235-.376-2.832-1.128-.597-.752-.896-1.784-.896-3.096 0-1.408.336-2.464 1.008-3.168.672-.704 1.616-1.056 2.832-1.056.405 0 .8.053 1.184.16.384.107.725.283 1.024.528.299.245.539.576.72.992.181.416.272.933.272 1.552 0 .224-.013.464-.04.72a9.399 9.399 0 0 1-.12.8h-4.8c.032.672.205 1.179.52 1.52.315.341.824.512 1.528.512.437 0 .83-.067 1.176-.2.347-.133.61-.27.792-.408l.688 1.36zm-2.976-5.872c-.544 0-.947.163-1.208.488-.261.325-.419.76-.472 1.304h2.976c.043-.576-.045-1.019-.264-1.328-.219-.31-.563-.464-1.032-.464zm9.12.512a2.71 2.71 0 0 0-.896-.176c-.373 0-.685.099-.936.296-.25.197-.419.45-.504.76V34h-2.08v-8h1.616l.24 1.056h.064c.181-.395.427-.699.736-.912.31-.213.672-.32 1.088-.32.277 0 .592.059.944.176l-.272 1.952zm3.664-4.256c0-.31.104-.56.312-.752.208-.192.472-.288.792-.288.384 0 .688.128.912.384.224.256.336.592.336 1.008 0 .427-.067.79-.2 1.088a2.632 2.632 0 0 1-.48.744 2.36 2.36 0 0 1-.592.464 4.73 4.73 0 0 1-.52.248l-.528-.88c.213-.096.403-.224.568-.384a.928.928 0 0 0 .28-.608c-.213.01-.413-.072-.6-.248s-.28-.435-.28-.776zm-2.768 0c0-.31.104-.56.312-.752.208-.192.472-.288.792-.288.384 0 .688.128.912.384.224.256.336.592.336 1.008 0 .427-.067.79-.2 1.088a2.632 2.632 0 0 1-.48.744 2.36 2.36 0 0 1-.592.464 4.73 4.73 0 0 1-.52.248l-.528-.88c.213-.096.403-.224.568-.384a.928.928 0 0 0 .28-.608c-.213.01-.413-.072-.6-.248s-.28-.435-.28-.776zM154.728 42.112c0 .31-.104.557-.312.744-.208.187-.467.28-.776.28-.395 0-.704-.125-.928-.376-.224-.25-.336-.584-.336-1 0-.427.067-.79.2-1.088.133-.299.293-.547.48-.744.187-.197.381-.352.584-.464a3.7 3.7 0 0 1 .528-.248l.512.864a1.312 1.312 0 0 0-.544.408 1.13 1.13 0 0 0-.256.6c.213 0 .408.093.584.28.176.187.264.435.264.744zm-2.768 0c0 .31-.104.557-.312.744-.208.187-.467.28-.776.28-.395 0-.704-.125-.928-.376-.224-.25-.336-.584-.336-1 0-.427.067-.79.2-1.088.133-.299.293-.547.48-.744.187-.197.381-.352.584-.464a3.7 3.7 0 0 1 .528-.248l.512.864a1.312 1.312 0 0 0-.544.408 1.13 1.13 0 0 0-.256.6c.213 0 .408.093.584.28.176.187.264.435.264.744zm6.432 7.68a.597.597 0 0 0-.272-.512 3.277 3.277 0 0 0-.672-.352c-.267-.107-.56-.216-.88-.328a3.306 3.306 0 0 1-.88-.464 2.541 2.541 0 0 1-.672-.752c-.181-.304-.272-.696-.272-1.176 0-.79.235-1.392.704-1.808.47-.416 1.147-.624 2.032-.624.608 0 1.157.064 1.648.192.49.128.875.272 1.152.432l-.464 1.504a10.606 10.606 0 0 0-.928-.304 4.116 4.116 0 0 0-1.136-.16c-.619 0-.928.24-.928.72 0 .192.09.347.272.464.181.117.405.227.672.328s.56.21.88.328c.32.117.613.27.88.456.267.187.49.43.672.728.181.299.272.683.272 1.152 0 .81-.259 1.448-.776 1.912-.517.464-1.293.696-2.328.696a5.685 5.685 0 0 1-1.592-.216c-.496-.144-.899-.312-1.208-.504l.576-1.552c.245.139.57.275.976.408.405.133.821.2 1.248.2.31 0 .557-.059.744-.176.187-.117.28-.315.28-.592zM162.024 44h2.08v8h-2.08v-8zm-.304-2.256c0-.31.115-.573.344-.792.23-.219.547-.328.952-.328.405 0 .733.11.984.328.25.219.376.483.376.792a.97.97 0 0 1-.376.776c-.25.208-.579.312-.984.312s-.723-.104-.952-.312a1.005 1.005 0 0 1-.344-.776zm11.216 7.44c0 .448.005.896.016 1.344.01.448.059.944.144 1.488h-1.488l-.288-1.04h-.064c-.213.373-.52.675-.92.904-.4.23-.872.344-1.416.344-1.003 0-1.781-.33-2.336-.992-.555-.661-.832-1.696-.832-3.104 0-1.365.31-2.427.928-3.184.619-.757 1.525-1.136 2.72-1.136.33 0 .603.019.816.056.213.037.427.099.64.184V40.8h2.08v8.384zm-3.536 1.28c.405 0 .725-.099.96-.296.235-.197.4-.483.496-.856V45.92a1.587 1.587 0 0 0-.496-.264 2.337 2.337 0 0 0-.704-.088c-.587 0-1.027.197-1.32.592-.293.395-.44 1.072-.44 2.032 0 .683.12 1.232.36 1.648.24.416.621.624 1.144.624zm11.76.848c-.32.256-.755.472-1.304.648a5.708 5.708 0 0 1-1.752.264c-1.29 0-2.235-.376-2.832-1.128-.597-.752-.896-1.784-.896-3.096 0-1.408.336-2.464 1.008-3.168.672-.704 1.616-1.056 2.832-1.056.405 0 .8.053 1.184.16.384.107.725.283 1.024.528.299.245.539.576.72.992.181.416.272.933.272 1.552 0 .224-.013.464-.04.72a9.399 9.399 0 0 1-.12.8h-4.8c.032.672.205 1.179.52 1.52.315.341.824.512 1.528.512.437 0 .83-.067 1.176-.2.347-.133.61-.27.792-.408l.688 1.36zm-2.976-5.872c-.544 0-.947.163-1.208.488-.261.325-.419.76-.472 1.304h2.976c.043-.576-.045-1.019-.264-1.328-.219-.31-.563-.464-1.032-.464zm4.704-4.64h2.08v3.84h.064a2.34 2.34 0 0 1 .864-.608c.352-.15.741-.224 1.168-.224.96 0 1.693.328 2.2.984.507.656.76 1.656.76 3 0 1.44-.355 2.533-1.064 3.28-.71.747-1.683 1.12-2.92 1.12a9.654 9.654 0 0 1-1.872-.168c-.565-.112-.992-.237-1.28-.376V40.8zm3.568 4.768c-.384 0-.696.099-.936.296-.24.197-.424.483-.552.856v3.488c.17.085.355.144.552.176.197.032.408.048.632.048.565 0 .995-.205 1.288-.616.293-.41.44-1.064.44-1.96 0-1.525-.475-2.288-1.424-2.288zm4.96-1.104a6.844 6.844 0 0 1 1.52-.456 9.796 9.796 0 0 1 1.84-.168c.555 0 1.019.067 1.392.2s.67.323.888.568c.219.245.373.539.464.88.09.341.136.725.136 1.152 0 .47-.016.941-.048 1.416s-.05.941-.056 1.4c-.005.459.008.904.04 1.336.032.432.112.84.24 1.224h-1.696l-.336-1.104h-.08c-.213.33-.51.616-.888.856-.379.24-.867.36-1.464.36-.373 0-.71-.056-1.008-.168a2.182 2.182 0 0 1-.768-.48 2.187 2.187 0 0 1-.496-.736 2.462 2.462 0 0 1-.176-.952c0-.49.11-.904.328-1.24.219-.336.533-.608.944-.816.41-.208.901-.352 1.472-.432a10.43 10.43 0 0 1 1.912-.072c.075-.597.032-1.027-.128-1.288-.16-.261-.517-.392-1.072-.392-.416 0-.856.043-1.32.128-.464.085-.845.197-1.144.336l-.496-1.552zm2.64 5.952c.416 0 .747-.093.992-.28a1.96 1.96 0 0 0 .544-.6v-1.04a5.722 5.722 0 0 0-.952-.016c-.304.021-.573.07-.808.144a1.358 1.358 0 0 0-.56.32.715.715 0 0 0-.208.528c0 .299.088.53.264.696.176.165.419.248.728.248zm9.76-4.464a2.71 2.71 0 0 0-.896-.176c-.373 0-.685.099-.936.296-.25.197-.419.45-.504.76V52h-2.08v-8h1.616l.24 1.056h.064c.181-.395.427-.699.736-.912.31-.213.672-.32 1.088-.32.277 0 .592.059.944.176l-.272 1.952zm10.912 5.552a3.48 3.48 0 0 1-1.16.536 5.32 5.32 0 0 1-1.4.184c-.64 0-1.181-.101-1.624-.304a2.768 2.768 0 0 1-1.08-.856 3.53 3.53 0 0 1-.6-1.336A7.566 7.566 0 0 1 208.68 48c0-1.355.304-2.397.912-3.128.608-.73 1.493-1.096 2.656-1.096.587 0 1.059.048 1.416.144.357.096.68.219.968.368l-.496 1.696a4.193 4.193 0 0 0-.728-.272 3.208 3.208 0 0 0-.824-.096c-.576 0-1.013.19-1.312.568-.299.379-.448.984-.448 1.816 0 .341.037.656.112.944.075.288.187.539.336.752.15.213.344.381.584.504s.52.184.84.184c.352 0 .65-.045.896-.136.245-.09.464-.2.656-.328l.48 1.584zm.608-3.504c0-1.355.33-2.397.992-3.128.661-.73 1.59-1.096 2.784-1.096.64 0 1.195.101 1.664.304.47.203.859.488 1.168.856.31.368.541.813.696 1.336.155.523.232 1.099.232 1.728 0 1.355-.328 2.397-.984 3.128-.656.73-1.581 1.096-2.776 1.096-.64 0-1.195-.101-1.664-.304a3.18 3.18 0 0 1-1.176-.856 3.595 3.595 0 0 1-.704-1.336 6.073 6.073 0 0 1-.232-1.728zm2.144 0c0 .352.032.677.096.976.064.299.16.56.288.784.128.224.296.397.504.52.208.123.456.184.744.184.544 0 .95-.197 1.216-.592.267-.395.4-1.019.4-1.872 0-.736-.123-1.33-.368-1.784-.245-.453-.661-.68-1.248-.68-.512 0-.912.192-1.2.576-.288.384-.432 1.013-.432 1.888zm11.728 4v-4.544c0-.65-.093-1.12-.28-1.408-.187-.288-.504-.432-.952-.432-.395 0-.728.115-1 .344a1.91 1.91 0 0 0-.584.856V52h-2.08v-8h1.648l.24 1.056h.064c.245-.341.57-.64.976-.896.405-.256.928-.384 1.568-.384.395 0 .747.053 1.056.16.31.107.57.283.784.528.213.245.373.579.48 1 .107.421.16.941.16 1.56V52h-2.08zm2.992-8h1.104v-1.504l2.08-.592V44h1.952v1.76h-1.952v3.072c0 .555.056.952.168 1.192.112.24.323.36.632.36.213 0 .397-.021.552-.064a3.84 3.84 0 0 0 .52-.192l.368 1.6a5.281 5.281 0 0 1-1.008.352 4.798 4.798 0 0 1-1.168.144c-.736 0-1.277-.19-1.624-.568-.347-.379-.52-1-.52-1.864V45.76H232.2V44zm12.736 7.312c-.32.256-.755.472-1.304.648a5.708 5.708 0 0 1-1.752.264c-1.29 0-2.235-.376-2.832-1.128-.597-.752-.896-1.784-.896-3.096 0-1.408.336-2.464 1.008-3.168.672-.704 1.616-1.056 2.832-1.056.405 0 .8.053 1.184.16.384.107.725.283 1.024.528.299.245.539.576.72.992.181.416.272.933.272 1.552 0 .224-.013.464-.04.72a9.399 9.399 0 0 1-.12.8h-4.8c.032.672.205 1.179.52 1.52.315.341.824.512 1.528.512.437 0 .83-.067 1.176-.2.347-.133.61-.27.792-.408l.688 1.36zm-2.976-5.872c-.544 0-.947.163-1.208.488-.261.325-.419.76-.472 1.304h2.976c.043-.576-.045-1.019-.264-1.328-.219-.31-.563-.464-1.032-.464zm9.6 6.56v-4.544c0-.65-.093-1.12-.28-1.408-.187-.288-.504-.432-.952-.432-.395 0-.728.115-1 .344a1.91 1.91 0 0 0-.584.856V52h-2.08v-8h1.648l.24 1.056h.064c.245-.341.57-.64.976-.896.405-.256.928-.384 1.568-.384.395 0 .747.053 1.056.16.31.107.57.283.784.528.213.245.373.579.48 1 .107.421.16.941.16 1.56V52h-2.08zm2.992-8h1.104v-1.504l2.08-.592V44h1.952v1.76h-1.952v3.072c0 .555.056.952.168 1.192.112.24.323.36.632.36.213 0 .397-.021.552-.064a3.84 3.84 0 0 0 .52-.192l.368 1.6a5.281 5.281 0 0 1-1.008.352 4.798 4.798 0 0 1-1.168.144c-.736 0-1.277-.19-1.624-.568-.347-.379-.52-1-.52-1.864V45.76h-1.104V44zm16.128 7.504a3.48 3.48 0 0 1-1.16.536 5.32 5.32 0 0 1-1.4.184c-.64 0-1.181-.101-1.624-.304a2.768 2.768 0 0 1-1.08-.856 3.53 3.53 0 0 1-.6-1.336 7.566 7.566 0 0 1-.184-1.728c0-1.355.304-2.397.912-3.128.608-.73 1.493-1.096 2.656-1.096.587 0 1.059.048 1.416.144.357.096.68.219.968.368l-.496 1.696a4.193 4.193 0 0 0-.728-.272 3.208 3.208 0 0 0-.824-.096c-.576 0-1.013.19-1.312.568-.299.379-.448.984-.448 1.816 0 .341.037.656.112.944.075.288.187.539.336.752.15.213.344.381.584.504s.52.184.84.184c.352 0 .65-.045.896-.136.245-.09.464-.2.656-.328l.48 1.584zm.608-3.504c0-1.355.33-2.397.992-3.128.661-.73 1.59-1.096 2.784-1.096.64 0 1.195.101 1.664.304.47.203.859.488 1.168.856.31.368.541.813.696 1.336.155.523.232 1.099.232 1.728 0 1.355-.328 2.397-.984 3.128-.656.73-1.581 1.096-2.776 1.096-.64 0-1.195-.101-1.664-.304a3.18 3.18 0 0 1-1.176-.856 3.595 3.595 0 0 1-.704-1.336 6.073 6.073 0 0 1-.232-1.728zm2.144 0c0 .352.032.677.096.976.064.299.16.56.288.784.128.224.296.397.504.52.208.123.456.184.744.184.544 0 .95-.197 1.216-.592.267-.395.4-1.019.4-1.872 0-.736-.123-1.33-.368-1.784-.245-.453-.661-.68-1.248-.68-.512 0-.912.192-1.2.576-.288.384-.432 1.013-.432 1.888zm11.728 4v-4.544c0-.65-.093-1.12-.28-1.408-.187-.288-.504-.432-.952-.432-.395 0-.728.115-1 .344a1.91 1.91 0 0 0-.584.856V52h-2.08v-8h1.648l.24 1.056h.064c.245-.341.57-.64.976-.896.405-.256.928-.384 1.568-.384.395 0 .747.053 1.056.16.31.107.57.283.784.528.213.245.373.579.48 1 .107.421.16.941.16 1.56V52h-2.08zm2.992-8h1.104v-1.504l2.08-.592V44h1.952v1.76h-1.952v3.072c0 .555.056.952.168 1.192.112.24.323.36.632.36.213 0 .397-.021.552-.064a3.84 3.84 0 0 0 .52-.192l.368 1.6a5.281 5.281 0 0 1-1.008.352 4.798 4.798 0 0 1-1.168.144c-.736 0-1.277-.19-1.624-.568-.347-.379-.52-1-.52-1.864V45.76h-1.104V44zm12.736 7.312c-.32.256-.755.472-1.304.648a5.708 5.708 0 0 1-1.752.264c-1.29 0-2.235-.376-2.832-1.128-.597-.752-.896-1.784-.896-3.096 0-1.408.336-2.464 1.008-3.168.672-.704 1.616-1.056 2.832-1.056.405 0 .8.053 1.184.16.384.107.725.283 1.024.528.299.245.539.576.72.992.181.416.272.933.272 1.552 0 .224-.013.464-.04.72a9.399 9.399 0 0 1-.12.8h-4.8c.032.672.205 1.179.52 1.52.315.341.824.512 1.528.512.437 0 .83-.067 1.176-.2.347-.133.61-.27.792-.408l.688 1.36zm-2.976-5.872c-.544 0-.947.163-1.208.488-.261.325-.419.76-.472 1.304h2.976c.043-.576-.045-1.019-.264-1.328-.219-.31-.563-.464-1.032-.464zm9.6 6.56v-4.544c0-.65-.093-1.12-.28-1.408-.187-.288-.504-.432-.952-.432-.395 0-.728.115-1 .344a1.91 1.91 0 0 0-.584.856V52h-2.08v-8h1.648l.24 1.056h.064c.245-.341.57-.64.976-.896.405-.256.928-.384 1.568-.384.395 0 .747.053 1.056.16.31.107.57.283.784.528.213.245.373.579.48 1 .107.421.16.941.16 1.56V52h-2.08zm2.992-8h1.104v-1.504l2.08-.592V44h1.952v1.76h-1.952v3.072c0 .555.056.952.168 1.192.112.24.323.36.632.36.213 0 .397-.021.552-.064a3.84 3.84 0 0 0 .52-.192l.368 1.6a5.281 5.281 0 0 1-1.008.352 4.798 4.798 0 0 1-1.168.144c-.736 0-1.277-.19-1.624-.568-.347-.379-.52-1-.52-1.864V45.76h-1.104V44zm8.72-2.304c0-.31.104-.56.312-.752.208-.192.472-.288.792-.288.384 0 .688.128.912.384.224.256.336.592.336 1.008 0 .427-.067.79-.2 1.088a2.632 2.632 0 0 1-.48.744 2.36 2.36 0 0 1-.592.464 4.73 4.73 0 0 1-.52.248l-.528-.88c.213-.096.403-.224.568-.384a.928.928 0 0 0 .28-.608c-.213.01-.413-.072-.6-.248s-.28-.435-.28-.776zm-2.768 0c0-.31.104-.56.312-.752.208-.192.472-.288.792-.288.384 0 .688.128.912.384.224.256.336.592.336 1.008 0 .427-.067.79-.2 1.088a2.632 2.632 0 0 1-.48.744 2.36 2.36 0 0 1-.592.464 4.73 4.73 0 0 1-.52.248l-.528-.88c.213-.096.403-.224.568-.384a.928.928 0 0 0 .28-.608c-.213.01-.413-.072-.6-.248s-.28-.435-.28-.776zM154.728 60.112c0 .31-.104.557-.312.744-.208.187-.467.28-.776.28-.395 0-.704-.125-.928-.376-.224-.25-.336-.584-.336-1 0-.427.067-.79.2-1.088.133-.299.293-.547.48-.744.187-.197.381-.352.584-.464a3.7 3.7 0 0 1 .528-.248l.512.864a1.312 1.312 0 0 0-.544.408 1.13 1.13 0 0 0-.256.6c.213 0 .408.093.584.28.176.187.264.435.264.744zm-2.768 0c0 .31-.104.557-.312.744-.208.187-.467.28-.776.28-.395 0-.704-.125-.928-.376-.224-.25-.336-.584-.336-1 0-.427.067-.79.2-1.088.133-.299.293-.547.48-.744.187-.197.381-.352.584-.464a3.7 3.7 0 0 1 .528-.248l.512.864a1.312 1.312 0 0 0-.544.408 1.13 1.13 0 0 0-.256.6c.213 0 .408.093.584.28.176.187.264.435.264.744zm6.432 7.68a.597.597 0 0 0-.272-.512 3.277 3.277 0 0 0-.672-.352c-.267-.107-.56-.216-.88-.328a3.306 3.306 0 0 1-.88-.464 2.541 2.541 0 0 1-.672-.752c-.181-.304-.272-.696-.272-1.176 0-.79.235-1.392.704-1.808.47-.416 1.147-.624 2.032-.624.608 0 1.157.064 1.648.192.49.128.875.272 1.152.432l-.464 1.504a10.606 10.606 0 0 0-.928-.304 4.116 4.116 0 0 0-1.136-.16c-.619 0-.928.24-.928.72 0 .192.09.347.272.464.181.117.405.227.672.328s.56.21.88.328c.32.117.613.27.88.456.267.187.49.43.672.728.181.299.272.683.272 1.152 0 .81-.259 1.448-.776 1.912-.517.464-1.293.696-2.328.696a5.685 5.685 0 0 1-1.592-.216c-.496-.144-.899-.312-1.208-.504l.576-1.552c.245.139.57.275.976.408.405.133.821.2 1.248.2.31 0 .557-.059.744-.176.187-.117.28-.315.28-.592zM162.024 62h2.08v8h-2.08v-8zm-.304-2.256c0-.31.115-.573.344-.792.23-.219.547-.328.952-.328.405 0 .733.11.984.328.25.219.376.483.376.792a.97.97 0 0 1-.376.776c-.25.208-.579.312-.984.312s-.723-.104-.952-.312a1.005 1.005 0 0 1-.344-.776zm11.216 7.44c0 .448.005.896.016 1.344.01.448.059.944.144 1.488h-1.488l-.288-1.04h-.064c-.213.373-.52.675-.92.904-.4.23-.872.344-1.416.344-1.003 0-1.781-.33-2.336-.992-.555-.661-.832-1.696-.832-3.104 0-1.365.31-2.427.928-3.184.619-.757 1.525-1.136 2.72-1.136.33 0 .603.019.816.056.213.037.427.099.64.184V58.8h2.08v8.384zm-3.536 1.28c.405 0 .725-.099.96-.296.235-.197.4-.483.496-.856V63.92a1.587 1.587 0 0 0-.496-.264 2.337 2.337 0 0 0-.704-.088c-.587 0-1.027.197-1.32.592-.293.395-.44 1.072-.44 2.032 0 .683.12 1.232.36 1.648.24.416.621.624 1.144.624zm11.76.848c-.32.256-.755.472-1.304.648a5.708 5.708 0 0 1-1.752.264c-1.29 0-2.235-.376-2.832-1.128-.597-.752-.896-1.784-.896-3.096 0-1.408.336-2.464 1.008-3.168.672-.704 1.616-1.056 2.832-1.056.405 0 .8.053 1.184.16.384.107.725.283 1.024.528.299.245.539.576.72.992.181.416.272.933.272 1.552 0 .224-.013.464-.04.72a9.399 9.399 0 0 1-.12.8h-4.8c.032.672.205 1.179.52 1.52.315.341.824.512 1.528.512.437 0 .83-.067 1.176-.2.347-.133.61-.27.792-.408l.688 1.36zm-2.976-5.872c-.544 0-.947.163-1.208.488-.261.325-.419.76-.472 1.304h2.976c.043-.576-.045-1.019-.264-1.328-.219-.31-.563-.464-1.032-.464zm4.704-4.64h2.08v3.84h.064a2.34 2.34 0 0 1 .864-.608c.352-.15.741-.224 1.168-.224.96 0 1.693.328 2.2.984.507.656.76 1.656.76 3 0 1.44-.355 2.533-1.064 3.28-.71.747-1.683 1.12-2.92 1.12a9.654 9.654 0 0 1-1.872-.168c-.565-.112-.992-.237-1.28-.376V58.8zm3.568 4.768c-.384 0-.696.099-.936.296-.24.197-.424.483-.552.856v3.488c.17.085.355.144.552.176.197.032.408.048.632.048.565 0 .995-.205 1.288-.616.293-.41.44-1.064.44-1.96 0-1.525-.475-2.288-1.424-2.288zm4.96-1.104a6.844 6.844 0 0 1 1.52-.456 9.796 9.796 0 0 1 1.84-.168c.555 0 1.019.067 1.392.2s.67.323.888.568c.219.245.373.539.464.88.09.341.136.725.136 1.152 0 .47-.016.941-.048 1.416s-.05.941-.056 1.4c-.005.459.008.904.04 1.336.032.432.112.84.24 1.224h-1.696l-.336-1.104h-.08c-.213.33-.51.616-.888.856-.379.24-.867.36-1.464.36-.373 0-.71-.056-1.008-.168a2.182 2.182 0 0 1-.768-.48 2.187 2.187 0 0 1-.496-.736 2.462 2.462 0 0 1-.176-.952c0-.49.11-.904.328-1.24.219-.336.533-.608.944-.816.41-.208.901-.352 1.472-.432a10.43 10.43 0 0 1 1.912-.072c.075-.597.032-1.027-.128-1.288-.16-.261-.517-.392-1.072-.392-.416 0-.856.043-1.32.128-.464.085-.845.197-1.144.336l-.496-1.552zm2.64 5.952c.416 0 .747-.093.992-.28a1.96 1.96 0 0 0 .544-.6v-1.04a5.722 5.722 0 0 0-.952-.016c-.304.021-.573.07-.808.144a1.358 1.358 0 0 0-.56.32.715.715 0 0 0-.208.528c0 .299.088.53.264.696.176.165.419.248.728.248zm9.76-4.464a2.71 2.71 0 0 0-.896-.176c-.373 0-.685.099-.936.296-.25.197-.419.45-.504.76V70h-2.08v-8h1.616l.24 1.056h.064c.181-.395.427-.699.736-.912.31-.213.672-.32 1.088-.32.277 0 .592.059.944.176l-.272 1.952zM208.328 62h1.104v-.448c0-1.013.213-1.747.64-2.2.427-.453 1.045-.68 1.856-.68.853 0 1.563.101 2.128.304l-.4 1.664a3.536 3.536 0 0 0-.648-.168 4.128 4.128 0 0 0-.584-.04c-.213 0-.381.032-.504.096a.59.59 0 0 0-.272.296 1.548 1.548 0 0 0-.112.496 8.514 8.514 0 0 0-.024.68h1.76v1.76h-1.76V70h-2.08v-6.24h-1.104V62zm5.408 4c0-1.355.33-2.397.992-3.128.661-.73 1.59-1.096 2.784-1.096.64 0 1.195.101 1.664.304.47.203.859.488 1.168.856.31.368.541.813.696 1.336.155.523.232 1.099.232 1.728 0 1.355-.328 2.397-.984 3.128-.656.73-1.581 1.096-2.776 1.096-.64 0-1.195-.101-1.664-.304a3.18 3.18 0 0 1-1.176-.856 3.595 3.595 0 0 1-.704-1.336 6.073 6.073 0 0 1-.232-1.728zm2.144 0c0 .352.032.677.096.976.064.299.16.56.288.784.128.224.296.397.504.52.208.123.456.184.744.184.544 0 .95-.197 1.216-.592.267-.395.4-1.019.4-1.872 0-.736-.123-1.33-.368-1.784-.245-.453-.661-.68-1.248-.68-.512 0-.912.192-1.2.576-.288.384-.432 1.013-.432 1.888zm6.448 0c0-1.355.33-2.397.992-3.128.661-.73 1.59-1.096 2.784-1.096.64 0 1.195.101 1.664.304.47.203.859.488 1.168.856.31.368.541.813.696 1.336.155.523.232 1.099.232 1.728 0 1.355-.328 2.397-.984 3.128-.656.73-1.581 1.096-2.776 1.096-.64 0-1.195-.101-1.664-.304a3.18 3.18 0 0 1-1.176-.856 3.595 3.595 0 0 1-.704-1.336 6.073 6.073 0 0 1-.232-1.728zm2.144 0c0 .352.032.677.096.976.064.299.16.56.288.784.128.224.296.397.504.52.208.123.456.184.744.184.544 0 .95-.197 1.216-.592.267-.395.4-1.019.4-1.872 0-.736-.123-1.33-.368-1.784-.245-.453-.661-.68-1.248-.68-.512 0-.912.192-1.2.576-.288.384-.432 1.013-.432 1.888zm6-4h1.104v-1.504l2.08-.592V62h1.952v1.76h-1.952v3.072c0 .555.056.952.168 1.192.112.24.323.36.632.36.213 0 .397-.021.552-.064a3.84 3.84 0 0 0 .52-.192l.368 1.6a5.281 5.281 0 0 1-1.008.352 4.798 4.798 0 0 1-1.168.144c-.736 0-1.277-.19-1.624-.568-.347-.379-.52-1-.52-1.864V63.76h-1.104V62zm12.736 7.312c-.32.256-.755.472-1.304.648a5.708 5.708 0 0 1-1.752.264c-1.29 0-2.235-.376-2.832-1.128-.597-.752-.896-1.784-.896-3.096 0-1.408.336-2.464 1.008-3.168.672-.704 1.616-1.056 2.832-1.056.405 0 .8.053 1.184.16.384.107.725.283 1.024.528.299.245.539.576.72.992.181.416.272.933.272 1.552 0 .224-.013.464-.04.72a9.399 9.399 0 0 1-.12.8h-4.8c.032.672.205 1.179.52 1.52.315.341.824.512 1.528.512.437 0 .83-.067 1.176-.2.347-.133.61-.27.792-.408l.688 1.36zm-2.976-5.872c-.544 0-.947.163-1.208.488-.261.325-.419.76-.472 1.304h2.976c.043-.576-.045-1.019-.264-1.328-.219-.31-.563-.464-1.032-.464zm9.12.512a2.71 2.71 0 0 0-.896-.176c-.373 0-.685.099-.936.296-.25.197-.419.45-.504.76V70h-2.08v-8h1.616l.24 1.056h.064c.181-.395.427-.699.736-.912.31-.213.672-.32 1.088-.32.277 0 .592.059.944.176l-.272 1.952zM253.864 62h1.104v-.448c0-1.013.213-1.747.64-2.2.427-.453 1.045-.68 1.856-.68.853 0 1.563.101 2.128.304l-.4 1.664a3.536 3.536 0 0 0-.648-.168 4.128 4.128 0 0 0-.584-.04c-.213 0-.381.032-.504.096a.59.59 0 0 0-.272.296 1.548 1.548 0 0 0-.112.496 8.514 8.514 0 0 0-.024.68h1.76v1.76h-1.76V70h-2.08v-6.24h-1.104V62zm5.408 4c0-1.355.33-2.397.992-3.128.661-.73 1.59-1.096 2.784-1.096.64 0 1.195.101 1.664.304.47.203.859.488 1.168.856.31.368.541.813.696 1.336.155.523.232 1.099.232 1.728 0 1.355-.328 2.397-.984 3.128-.656.73-1.581 1.096-2.776 1.096-.64 0-1.195-.101-1.664-.304a3.18 3.18 0 0 1-1.176-.856 3.595 3.595 0 0 1-.704-1.336 6.073 6.073 0 0 1-.232-1.728zm2.144 0c0 .352.032.677.096.976.064.299.16.56.288.784.128.224.296.397.504.52.208.123.456.184.744.184.544 0 .95-.197 1.216-.592.267-.395.4-1.019.4-1.872 0-.736-.123-1.33-.368-1.784-.245-.453-.661-.68-1.248-.68-.512 0-.912.192-1.2.576-.288.384-.432 1.013-.432 1.888zm6.448 0c0-1.355.33-2.397.992-3.128.661-.73 1.59-1.096 2.784-1.096.64 0 1.195.101 1.664.304.47.203.859.488 1.168.856.31.368.541.813.696 1.336.155.523.232 1.099.232 1.728 0 1.355-.328 2.397-.984 3.128-.656.73-1.581 1.096-2.776 1.096-.64 0-1.195-.101-1.664-.304a3.18 3.18 0 0 1-1.176-.856 3.595 3.595 0 0 1-.704-1.336 6.073 6.073 0 0 1-.232-1.728zm2.144 0c0 .352.032.677.096.976.064.299.16.56.288.784.128.224.296.397.504.52.208.123.456.184.744.184.544 0 .95-.197 1.216-.592.267-.395.4-1.019.4-1.872 0-.736-.123-1.33-.368-1.784-.245-.453-.661-.68-1.248-.68-.512 0-.912.192-1.2.576-.288.384-.432 1.013-.432 1.888zm6-4h1.104v-1.504l2.08-.592V62h1.952v1.76h-1.952v3.072c0 .555.056.952.168 1.192.112.24.323.36.632.36.213 0 .397-.021.552-.064a3.84 3.84 0 0 0 .52-.192l.368 1.6a5.281 5.281 0 0 1-1.008.352 4.798 4.798 0 0 1-1.168.144c-.736 0-1.277-.19-1.624-.568-.347-.379-.52-1-.52-1.864V63.76h-1.104V62zm12.736 7.312c-.32.256-.755.472-1.304.648a5.708 5.708 0 0 1-1.752.264c-1.29 0-2.235-.376-2.832-1.128-.597-.752-.896-1.784-.896-3.096 0-1.408.336-2.464 1.008-3.168.672-.704 1.616-1.056 2.832-1.056.405 0 .8.053 1.184.16.384.107.725.283 1.024.528.299.245.539.576.72.992.181.416.272.933.272 1.552 0 .224-.013.464-.04.72a9.399 9.399 0 0 1-.12.8h-4.8c.032.672.205 1.179.52 1.52.315.341.824.512 1.528.512.437 0 .83-.067 1.176-.2.347-.133.61-.27.792-.408l.688 1.36zm-2.976-5.872c-.544 0-.947.163-1.208.488-.261.325-.419.76-.472 1.304h2.976c.043-.576-.045-1.019-.264-1.328-.219-.31-.563-.464-1.032-.464zm9.12.512a2.71 2.71 0 0 0-.896-.176c-.373 0-.685.099-.936.296-.25.197-.419.45-.504.76V70h-2.08v-8h1.616l.24 1.056h.064c.181-.395.427-.699.736-.912.31-.213.672-.32 1.088-.32.277 0 .592.059.944.176l-.272 1.952zm3.664-4.256c0-.31.104-.56.312-.752.208-.192.472-.288.792-.288.384 0 .688.128.912.384.224.256.336.592.336 1.008 0 .427-.067.79-.2 1.088a2.632 2.632 0 0 1-.48.744 2.36 2.36 0 0 1-.592.464 4.73 4.73 0 0 1-.52.248l-.528-.88c.213-.096.403-.224.568-.384a.928.928 0 0 0 .28-.608c-.213.01-.413-.072-.6-.248s-.28-.435-.28-.776zm-2.768 0c0-.31.104-.56.312-.752.208-.192.472-.288.792-.288.384 0 .688.128.912.384.224.256.336.592.336 1.008 0 .427-.067.79-.2 1.088a2.632 2.632 0 0 1-.48.744 2.36 2.36 0 0 1-.592.464 4.73 4.73 0 0 1-.52.248l-.528-.88c.213-.096.403-.224.568-.384a.928.928 0 0 0 .28-.608c-.213.01-.413-.072-.6-.248s-.28-.435-.28-.776zm7.04 9.28c0-.363.12-.65.36-.864.24-.213.536-.32.888-.32.448 0 .8.15 1.056.448.256.299.384.693.384 1.184 0 .48-.075.893-.224 1.24a2.778 2.778 0 0 1-1.256 1.408c-.25.133-.477.232-.68.296l-.608-.864c.288-.117.539-.31.752-.576.213-.267.33-.55.352-.848-.245.032-.477-.043-.696-.224-.219-.181-.328-.475-.328-.88zm0-5.824c0-.373.117-.67.352-.888.235-.219.544-.328.928-.328.405 0 .725.11.96.328.235.219.352.515.352.888s-.117.672-.352.896c-.235.224-.555.336-.96.336-.384 0-.693-.112-.928-.336-.235-.224-.352-.523-.352-.896z" fill="#1B1B1D"/>
  </g>
</svg>
