<svg width="761" height="411" xmlns="http://www.w3.org/2000/svg">
  <g fill="none" fill-rule="evenodd">
    <path fill="#AFB8C1" fill-rule="nonzero" d="M44 164h149v244H44z"/>
    <path d="M192 164h417v244H192z" fill-rule="nonzero" fill="#919BA5"/>
    <path stroke="#979797" d="M192.5 164.5h416v243h-416z"/>
    <path d="M192 57h417v100H192z" fill-rule="nonzero" fill="#919BA5"/>
    <path stroke="#979797" d="M192.5 57.5h416v99h-416z"/>
    <path d="M608 164h149v244H608V164zM44 57h149v100H44V57zm564 0h149v100H608V57z" fill="#AFB8C1" fill-rule="nonzero"/>
    <path d="M251.68 13c0 1.163-.315 2.019-.944 2.568-.63.55-1.51.824-2.64.824-.768 0-1.373-.053-1.816-.16-.443-.107-.776-.219-1-.336l.432-1.648c.245.096.53.192.856.288.325.096.728.144 1.208.144.725 0 1.219-.157 1.48-.472.261-.315.392-.755.392-1.32v-.512h-.064c-.373.501-1.035.752-1.984.752-1.035 0-1.805-.32-2.312-.96-.507-.64-.76-1.643-.76-3.008 0-1.43.341-2.512 1.024-3.248.683-.736 1.675-1.104 2.976-1.104.683 0 1.293.048 1.832.144a7.68 7.68 0 0 1 1.32.336V13zm-3.52-1.536c.405 0 .717-.09.936-.272.219-.181.387-.453.504-.816v-3.6c-.33-.139-.741-.208-1.232-.208-.533 0-.95.2-1.248.6-.299.4-.448 1.037-.448 1.912 0 .779.128 1.37.384 1.776a1.23 1.23 0 0 0 1.104.608zm9.744-4.512a2.71 2.71 0 0 0-.896-.176c-.373 0-.685.099-.936.296-.25.197-.419.45-.504.76V13h-2.08V5h1.616l.24 1.056h.064c.181-.395.427-.699.736-.912.31-.213.672-.32 1.088-.32.277 0 .592.059.944.176l-.272 1.952zM259.296 5h2.08v8h-2.08V5zm-.304-2.256c0-.31.115-.573.344-.792.23-.219.547-.328.952-.328.405 0 .733.11.984.328.25.219.376.483.376.792a.97.97 0 0 1-.376.776c-.25.208-.579.312-.984.312s-.723-.104-.952-.312a1.005 1.005 0 0 1-.344-.776zm11.216 7.44c0 .448.005.896.016 1.344.01.448.059.944.144 1.488h-1.488l-.288-1.04h-.064c-.213.373-.52.675-.92.904-.4.23-.872.344-1.416.344-1.003 0-1.781-.33-2.336-.992-.555-.661-.832-1.696-.832-3.104 0-1.365.31-2.427.928-3.184.619-.757 1.525-1.136 2.72-1.136.33 0 .603.019.816.056.213.037.427.099.64.184V1.8h2.08v8.384zm-3.536 1.28c.405 0 .725-.099.96-.296.235-.197.4-.483.496-.856V6.92a1.587 1.587 0 0 0-.496-.264 2.337 2.337 0 0 0-.704-.088c-.587 0-1.027.197-1.32.592-.293.395-.44 1.072-.44 2.032 0 .683.12 1.232.36 1.648.24.416.621.624 1.144.624zm5.312-3.984H276v1.84h-4.016V7.48zM276.96 5h1.104V3.496l2.08-.592V5h1.952v1.76h-1.952v3.072c0 .555.056.952.168 1.192.112.24.323.36.632.36.213 0 .397-.021.552-.064a3.84 3.84 0 0 0 .52-.192l.368 1.6a5.281 5.281 0 0 1-1.008.352 4.798 4.798 0 0 1-1.168.144c-.736 0-1.277-.19-1.624-.568-.347-.379-.52-1-.52-1.864V6.76h-1.104V5zm12.736 7.312c-.32.256-.755.472-1.304.648a5.708 5.708 0 0 1-1.752.264c-1.29 0-2.235-.376-2.832-1.128-.597-.752-.896-1.784-.896-3.096 0-1.408.336-2.464 1.008-3.168.672-.704 1.616-1.056 2.832-1.056.405 0 .8.053 1.184.16.384.107.725.283 1.024.528.299.245.539.576.72.992.181.416.272.933.272 1.552 0 .224-.013.464-.04.72a9.399 9.399 0 0 1-.12.8h-4.8c.032.672.205 1.179.52 1.52.315.341.824.512 1.528.512.437 0 .83-.067 1.176-.2.347-.133.61-.27.792-.408l.688 1.36zM286.72 6.44c-.544 0-.947.163-1.208.488-.261.325-.419.76-.472 1.304h2.976c.043-.576-.045-1.019-.264-1.328-.219-.31-.563-.464-1.032-.464zm9.248 6.56V8.648c0-.736-.07-1.259-.208-1.568-.139-.31-.427-.464-.864-.464-.363 0-.656.099-.88.296a1.88 1.88 0 0 0-.512.76V13h-2.08V5h1.616l.24 1.056h.064c.245-.341.557-.64.936-.896s.867-.384 1.464-.384c.512 0 .93.104 1.256.312.325.208.579.557.76 1.048a2.9 2.9 0 0 1 .944-.992c.384-.245.848-.368 1.392-.368.448 0 .83.053 1.144.16.315.107.57.29.768.552.197.261.344.61.44 1.048.096.437.144.992.144 1.664V13h-2.08V8.504c0-.63-.067-1.101-.2-1.416-.133-.315-.43-.472-.888-.472-.373 0-.67.101-.888.304-.219.203-.381.48-.488.832V13h-2.08zm8.336-8h1.52l.24.96h.064c.277-.405.605-.704.984-.896.379-.192.84-.288 1.384-.288 1.003 0 1.755.317 2.256.952.501.635.752 1.656.752 3.064a6.6 6.6 0 0 1-.24 1.848 3.899 3.899 0 0 1-.712 1.4 3.111 3.111 0 0 1-1.152.88c-.453.203-.973.304-1.56.304a3.82 3.82 0 0 1-.816-.072 2.81 2.81 0 0 1-.64-.232v3.28h-2.08V5zm3.568 1.536c-.405 0-.723.101-.952.304-.23.203-.408.507-.536.912v3.328c.15.117.312.21.488.28.176.07.408.104.696.104.597 0 1.045-.21 1.344-.632.299-.421.448-1.117.448-2.088 0-.704-.117-1.248-.352-1.632-.235-.384-.613-.576-1.136-.576zm7.216 3.776c0 .373.048.645.144.816.096.17.25.256.464.256.128 0 .253-.01.376-.032.123-.021.275-.07.456-.144l.224 1.632c-.17.085-.432.17-.784.256a4.602 4.602 0 0 1-1.088.128c-.608 0-1.072-.141-1.392-.424-.32-.283-.48-.75-.48-1.4V1.8h2.08v8.512zm2.512-4.848a6.844 6.844 0 0 1 1.52-.456 9.796 9.796 0 0 1 1.84-.168c.555 0 1.019.067 1.392.2s.67.323.888.568c.219.245.373.539.464.88.09.341.136.725.136 1.152 0 .47-.016.941-.048 1.416s-.05.941-.056 1.4c-.005.459.008.904.04 1.336.032.432.112.84.24 1.224h-1.696l-.336-1.104h-.08c-.213.33-.51.616-.888.856-.379.24-.867.36-1.464.36-.373 0-.71-.056-1.008-.168a2.182 2.182 0 0 1-.768-.48 2.187 2.187 0 0 1-.496-.736 2.462 2.462 0 0 1-.176-.952c0-.49.11-.904.328-1.24.219-.336.533-.608.944-.816.41-.208.901-.352 1.472-.432a10.43 10.43 0 0 1 1.912-.072c.075-.597.032-1.027-.128-1.288-.16-.261-.517-.392-1.072-.392-.416 0-.856.043-1.32.128-.464.085-.845.197-1.144.336l-.496-1.552zm2.64 5.952c.416 0 .747-.093.992-.28a1.96 1.96 0 0 0 .544-.6v-1.04a5.722 5.722 0 0 0-.952-.016c-.304.021-.573.07-.808.144a1.358 1.358 0 0 0-.56.32.715.715 0 0 0-.208.528c0 .299.088.53.264.696.176.165.419.248.728.248zM324.752 5h1.104V3.496l2.08-.592V5h1.952v1.76h-1.952v3.072c0 .555.056.952.168 1.192.112.24.323.36.632.36.213 0 .397-.021.552-.064a3.84 3.84 0 0 0 .52-.192l.368 1.6a5.281 5.281 0 0 1-1.008.352 4.798 4.798 0 0 1-1.168.144c-.736 0-1.277-.19-1.624-.568-.347-.379-.52-1-.52-1.864V6.76h-1.104V5zm12.736 7.312c-.32.256-.755.472-1.304.648a5.708 5.708 0 0 1-1.752.264c-1.29 0-2.235-.376-2.832-1.128-.597-.752-.896-1.784-.896-3.096 0-1.408.336-2.464 1.008-3.168.672-.704 1.616-1.056 2.832-1.056.405 0 .8.053 1.184.16.384.107.725.283 1.024.528.299.245.539.576.72.992.181.416.272.933.272 1.552 0 .224-.013.464-.04.72a9.399 9.399 0 0 1-.12.8h-4.8c.032.672.205 1.179.52 1.52.315.341.824.512 1.528.512.437 0 .83-.067 1.176-.2.347-.133.61-.27.792-.408l.688 1.36zm-2.976-5.872c-.544 0-.947.163-1.208.488-.261.325-.419.76-.472 1.304h2.976c.043-.576-.045-1.019-.264-1.328-.219-.31-.563-.464-1.032-.464zm4.656 1.04h4.016v1.84h-4.016V7.48zm11.472 5.024a3.48 3.48 0 0 1-1.16.536 5.32 5.32 0 0 1-1.4.184c-.64 0-1.181-.101-1.624-.304a2.768 2.768 0 0 1-1.08-.856 3.53 3.53 0 0 1-.6-1.336A7.566 7.566 0 0 1 344.592 9c0-1.355.304-2.397.912-3.128.608-.73 1.493-1.096 2.656-1.096.587 0 1.059.048 1.416.144.357.096.68.219.968.368l-.496 1.696a4.193 4.193 0 0 0-.728-.272 3.208 3.208 0 0 0-.824-.096c-.576 0-1.013.19-1.312.568-.299.379-.448.984-.448 1.816 0 .341.037.656.112.944.075.288.187.539.336.752.15.213.344.381.584.504s.52.184.84.184c.352 0 .65-.045.896-.136.245-.09.464-.2.656-.328l.48 1.584zM351.248 9c0-1.355.33-2.397.992-3.128.661-.73 1.59-1.096 2.784-1.096.64 0 1.195.101 1.664.304.47.203.859.488 1.168.856.31.368.541.813.696 1.336.155.523.232 1.099.232 1.728 0 1.355-.328 2.397-.984 3.128-.656.73-1.581 1.096-2.776 1.096-.64 0-1.195-.101-1.664-.304a3.18 3.18 0 0 1-1.176-.856 3.595 3.595 0 0 1-.704-1.336A6.073 6.073 0 0 1 351.248 9zm2.144 0c0 .352.032.677.096.976.064.299.16.56.288.784.128.224.296.397.504.52.208.123.456.184.744.184.544 0 .95-.197 1.216-.592.267-.395.4-1.019.4-1.872 0-.736-.123-1.33-.368-1.784-.245-.453-.661-.68-1.248-.68-.512 0-.912.192-1.2.576-.288.384-.432 1.013-.432 1.888zm8.976 1.312c0 .373.048.645.144.816.096.17.25.256.464.256.128 0 .253-.01.376-.032.123-.021.275-.07.456-.144l.224 1.632c-.17.085-.432.17-.784.256a4.602 4.602 0 0 1-1.088.128c-.608 0-1.072-.141-1.392-.424-.32-.283-.48-.75-.48-1.4V1.8h2.08v8.512zM366.928 5v4.544c0 .65.077 1.12.232 1.408.155.288.456.432.904.432.395 0 .723-.117.984-.352s.456-.523.584-.864V5h2.08v5.568c0 .437.021.867.064 1.288a8.1 8.1 0 0 0 .192 1.144H370.4l-.368-1.184h-.064a2.99 2.99 0 0 1-1.024 1.008c-.437.267-.955.4-1.552.4-.405 0-.768-.053-1.088-.16a1.788 1.788 0 0 1-.8-.528c-.213-.245-.376-.576-.488-.992-.112-.416-.168-.939-.168-1.568V5h2.08zm11.152 8V8.648c0-.736-.07-1.259-.208-1.568-.139-.31-.427-.464-.864-.464-.363 0-.656.099-.88.296a1.88 1.88 0 0 0-.512.76V13h-2.08V5h1.616l.24 1.056h.064c.245-.341.557-.64.936-.896s.867-.384 1.464-.384c.512 0 .93.104 1.256.312.325.208.579.557.76 1.048a2.9 2.9 0 0 1 .944-.992c.384-.245.848-.368 1.392-.368.448 0 .83.053 1.144.16.315.107.57.29.768.552.197.261.344.61.44 1.048.096.437.144.992.144 1.664V13h-2.08V8.504c0-.63-.067-1.101-.2-1.416-.133-.315-.43-.472-.888-.472-.373 0-.67.101-.888.304-.219.203-.381.48-.488.832V13h-2.08zm13.232 0V8.456c0-.65-.093-1.12-.28-1.408-.187-.288-.504-.432-.952-.432-.395 0-.728.115-1 .344a1.91 1.91 0 0 0-.584.856V13h-2.08V5h1.648l.24 1.056h.064c.245-.341.57-.64.976-.896.405-.256.928-.384 1.568-.384.395 0 .747.053 1.056.16.31.107.57.283.784.528.213.245.373.579.48 1 .107.421.16.941.16 1.56V13h-2.08zm7.136-2.208a.597.597 0 0 0-.272-.512 3.277 3.277 0 0 0-.672-.352c-.267-.107-.56-.216-.88-.328a3.306 3.306 0 0 1-.88-.464 2.541 2.541 0 0 1-.672-.752c-.181-.304-.272-.696-.272-1.176 0-.79.235-1.392.704-1.808.47-.416 1.147-.624 2.032-.624.608 0 1.157.064 1.648.192.49.128.875.272 1.152.432l-.464 1.504a10.606 10.606 0 0 0-.928-.304 4.116 4.116 0 0 0-1.136-.16c-.619 0-.928.24-.928.72 0 .192.09.347.272.464.181.117.405.227.672.328s.56.21.88.328c.32.117.613.27.88.456.267.187.49.43.672.728.181.299.272.683.272 1.152 0 .81-.259 1.448-.776 1.912-.517.464-1.293.696-2.328.696a5.685 5.685 0 0 1-1.592-.216c-.496-.144-.899-.312-1.208-.504l.576-1.552c.245.139.57.275.976.408.405.133.821.2 1.248.2.31 0 .557-.059.744-.176.187-.117.28-.315.28-.592zm4.016-4.64c0-.373.117-.67.352-.888.235-.219.544-.328.928-.328.405 0 .725.11.96.328.235.219.352.515.352.888s-.117.672-.352.896c-.235.224-.555.336-.96.336-.384 0-.693-.112-.928-.336-.235-.224-.352-.523-.352-.896zm0 5.792c0-.373.117-.67.352-.888.235-.219.544-.328.928-.328.405 0 .725.11.96.328.235.219.352.515.352.888s-.117.672-.352.896c-.235.224-.555.336-.96.336-.384 0-.693-.112-.928-.336-.235-.224-.352-.523-.352-.896zm8.48-.704h2.224V4.92l.24-1.088-.768.944-1.424.976-.88-1.2 3.648-2.944h1.168v9.632h2.176V13h-6.384v-1.76zM418.576 5h1.104v-.448c0-1.013.213-1.747.64-2.2.427-.453 1.045-.68 1.856-.68.853 0 1.563.101 2.128.304l-.4 1.664a3.536 3.536 0 0 0-.648-.168 4.128 4.128 0 0 0-.584-.04c-.213 0-.381.032-.504.096a.59.59 0 0 0-.272.296 1.548 1.548 0 0 0-.112.496 8.514 8.514 0 0 0-.024.68h1.76v1.76h-1.76V13h-2.08V6.76h-1.104V5zm10.288 1.952a2.71 2.71 0 0 0-.896-.176c-.373 0-.685.099-.936.296-.25.197-.419.45-.504.76V13h-2.08V5h1.616l.24 1.056h.064c.181-.395.427-.699.736-.912.31-.213.672-.32 1.088-.32.277 0 .592.059.944.176l-.272 1.952zM440.8 4.536c0 .544-.099 1.093-.296 1.648a10.191 10.191 0 0 1-.752 1.632 15.33 15.33 0 0 1-1.008 1.544c-.368.496-.728.952-1.08 1.368l-.848.656v.08l1.152-.224h3.072V13h-6.736v-1.072c.256-.267.544-.579.864-.936a30.825 30.825 0 0 0 1.92-2.376c.31-.427.587-.856.832-1.288.245-.432.44-.85.584-1.256.144-.405.216-.79.216-1.152 0-.437-.125-.797-.376-1.08-.25-.283-.648-.424-1.192-.424-.341 0-.69.072-1.048.216a2.972 2.972 0 0 0-.904.552l-.832-1.472a5.246 5.246 0 0 1 1.416-.824c.528-.208 1.15-.312 1.864-.312.459 0 .88.064 1.264.192s.715.315.992.56c.277.245.496.552.656.92.16.368.24.797.24 1.288zm1.648.464h1.104v-.448c0-1.013.213-1.747.64-2.2.427-.453 1.045-.68 1.856-.68.853 0 1.563.101 2.128.304l-.4 1.664a3.536 3.536 0 0 0-.648-.168 4.128 4.128 0 0 0-.584-.04c-.213 0-.381.032-.504.096a.59.59 0 0 0-.272.296 1.548 1.548 0 0 0-.112.496 8.514 8.514 0 0 0-.024.68h1.76v1.76h-1.76V13h-2.08V6.76h-1.104V5zm10.288 1.952a2.71 2.71 0 0 0-.896-.176c-.373 0-.685.099-.936.296-.25.197-.419.45-.504.76V13h-2.08V5h1.616l.24 1.056h.064c.181-.395.427-.699.736-.912.31-.213.672-.32 1.088-.32.277 0 .592.059.944.176l-.272 1.952zm5.952 4.288h2.224V4.92l.24-1.088-.768.944-1.424.976-.88-1.2 3.648-2.944h1.168v9.632h2.176V13h-6.384v-1.76zM466.32 5h1.104v-.448c0-1.013.213-1.747.64-2.2.427-.453 1.045-.68 1.856-.68.853 0 1.563.101 2.128.304l-.4 1.664a3.536 3.536 0 0 0-.648-.168 4.128 4.128 0 0 0-.584-.04c-.213 0-.381.032-.504.096a.59.59 0 0 0-.272.296 1.548 1.548 0 0 0-.112.496 8.514 8.514 0 0 0-.024.68h1.76v1.76h-1.76V13h-2.08V6.76h-1.104V5zm10.288 1.952a2.71 2.71 0 0 0-.896-.176c-.373 0-.685.099-.936.296-.25.197-.419.45-.504.76V13h-2.08V5h1.616l.24 1.056h.064c.181-.395.427-.699.736-.912.31-.213.672-.32 1.088-.32.277 0 .592.059.944.176l-.272 1.952zm1.6 5.024c0-.363.12-.65.36-.864.24-.213.536-.32.888-.32.448 0 .8.15 1.056.448.256.299.384.693.384 1.184 0 .48-.075.893-.224 1.24a2.778 2.778 0 0 1-1.256 1.408c-.25.133-.477.232-.68.296l-.608-.864c.288-.117.539-.31.752-.576.213-.267.33-.55.352-.848-.245.032-.477-.043-.696-.224-.219-.181-.328-.475-.328-.88zm0-5.824c0-.373.117-.67.352-.888.235-.219.544-.328.928-.328.405 0 .725.11.96.328.235.219.352.515.352.888s-.117.672-.352.896c-.235.224-.555.336-.96.336-.384 0-.693-.112-.928-.336-.235-.224-.352-.523-.352-.896z" fill="#555"/>
    <text font-family="PTSans-Regular, PT Sans" font-size="14" fill="#555" transform="translate(1 1)">
      <tspan x="101" y="50">column</tspan>
    </text>
    <text font-family="PTSans-Regular, PT Sans" font-size="14" fill="#555" transform="translate(1 1)">
      <tspan x="657" y="50">column</tspan>
    </text>
    <text font-family="PTSans-Regular, PT Sans" font-size="14" fill="#555" transform="translate(1 1)">
      <tspan x="362" y="50">column</tspan>
    </text>
    <text font-family="PTSans-Regular, PT Sans" font-size="14" fill="#555" transform="translate(1 1)">
      <tspan x="0" y="110">row</tspan>
    </text>
    <text font-family="PTSans-Regular, PT Sans" font-size="14" fill="#555" transform="translate(1 1)">
      <tspan x="0" y="271">row</tspan>
    </text>
    <path d="M9.68 13c0 1.163-.315 2.019-.944 2.568-.63.55-1.51.824-2.64.824-.768 0-1.373-.053-1.816-.16-.443-.107-.776-.219-1-.336l.432-1.648c.245.096.53.192.856.288.325.096.728.144 1.208.144.725 0 1.219-.157 1.48-.472.261-.315.392-.755.392-1.32v-.512h-.064c-.373.501-1.035.752-1.984.752-1.035 0-1.805-.32-2.312-.96-.507-.64-.76-1.643-.76-3.008 0-1.43.341-2.512 1.024-3.248.683-.736 1.675-1.104 2.976-1.104.683 0 1.293.048 1.832.144a7.68 7.68 0 0 1 1.32.336V13zm-3.52-1.536c.405 0 .717-.09.936-.272.219-.181.387-.453.504-.816v-3.6c-.33-.139-.741-.208-1.232-.208-.533 0-.95.2-1.248.6-.299.4-.448 1.037-.448 1.912 0 .779.128 1.37.384 1.776a1.23 1.23 0 0 0 1.104.608zm9.744-4.512a2.71 2.71 0 0 0-.896-.176c-.373 0-.685.099-.936.296-.25.197-.419.45-.504.76V13h-2.08V5h1.616l.24 1.056h.064c.181-.395.427-.699.736-.912.31-.213.672-.32 1.088-.32.277 0 .592.059.944.176l-.272 1.952zM17.296 5h2.08v8h-2.08V5zm-.304-2.256c0-.31.115-.573.344-.792.23-.219.547-.328.952-.328.405 0 .733.11.984.328.25.219.376.483.376.792a.97.97 0 0 1-.376.776c-.25.208-.579.312-.984.312s-.723-.104-.952-.312a1.005 1.005 0 0 1-.344-.776zm11.216 7.44c0 .448.005.896.016 1.344.01.448.059.944.144 1.488H26.88l-.288-1.04h-.064c-.213.373-.52.675-.92.904-.4.23-.872.344-1.416.344-1.003 0-1.781-.33-2.336-.992-.555-.661-.832-1.696-.832-3.104 0-1.365.31-2.427.928-3.184.619-.757 1.525-1.136 2.72-1.136.33 0 .603.019.816.056.213.037.427.099.64.184V1.8h2.08v8.384zm-3.536 1.28c.405 0 .725-.099.96-.296.235-.197.4-.483.496-.856V6.92a1.587 1.587 0 0 0-.496-.264 2.337 2.337 0 0 0-.704-.088c-.587 0-1.027.197-1.32.592-.293.395-.44 1.072-.44 2.032 0 .683.12 1.232.36 1.648.24.416.621.624 1.144.624zm5.312-3.984H34v1.84h-4.016V7.48zM34.96 5h1.104V3.496l2.08-.592V5h1.952v1.76h-1.952v3.072c0 .555.056.952.168 1.192.112.24.323.36.632.36.213 0 .397-.021.552-.064a3.84 3.84 0 0 0 .52-.192l.368 1.6a5.281 5.281 0 0 1-1.008.352 4.798 4.798 0 0 1-1.168.144c-.736 0-1.277-.19-1.624-.568-.347-.379-.52-1-.52-1.864V6.76H34.96V5zm12.736 7.312c-.32.256-.755.472-1.304.648a5.708 5.708 0 0 1-1.752.264c-1.29 0-2.235-.376-2.832-1.128-.597-.752-.896-1.784-.896-3.096 0-1.408.336-2.464 1.008-3.168.672-.704 1.616-1.056 2.832-1.056.405 0 .8.053 1.184.16.384.107.725.283 1.024.528.299.245.539.576.72.992.181.416.272.933.272 1.552 0 .224-.013.464-.04.72a9.399 9.399 0 0 1-.12.8h-4.8c.032.672.205 1.179.52 1.52.315.341.824.512 1.528.512.437 0 .83-.067 1.176-.2.347-.133.61-.27.792-.408l.688 1.36zM44.72 6.44c-.544 0-.947.163-1.208.488-.261.325-.419.76-.472 1.304h2.976c.043-.576-.045-1.019-.264-1.328-.219-.31-.563-.464-1.032-.464zM53.968 13V8.648c0-.736-.07-1.259-.208-1.568-.139-.31-.427-.464-.864-.464-.363 0-.656.099-.88.296a1.88 1.88 0 0 0-.512.76V13h-2.08V5h1.616l.24 1.056h.064c.245-.341.557-.64.936-.896s.867-.384 1.464-.384c.512 0 .93.104 1.256.312.325.208.579.557.76 1.048a2.9 2.9 0 0 1 .944-.992c.384-.245.848-.368 1.392-.368.448 0 .83.053 1.144.16.315.107.57.29.768.552.197.261.344.61.44 1.048.096.437.144.992.144 1.664V13h-2.08V8.504c0-.63-.067-1.101-.2-1.416-.133-.315-.43-.472-.888-.472-.373 0-.67.101-.888.304-.219.203-.381.48-.488.832V13h-2.08zm8.336-8h1.52l.24.96h.064c.277-.405.605-.704.984-.896.379-.192.84-.288 1.384-.288 1.003 0 1.755.317 2.256.952.501.635.752 1.656.752 3.064a6.6 6.6 0 0 1-.24 1.848 3.899 3.899 0 0 1-.712 1.4 3.111 3.111 0 0 1-1.152.88c-.453.203-.973.304-1.56.304a3.82 3.82 0 0 1-.816-.072 2.81 2.81 0 0 1-.64-.232v3.28h-2.08V5zm3.568 1.536c-.405 0-.723.101-.952.304-.23.203-.408.507-.536.912v3.328c.15.117.312.21.488.28.176.07.408.104.696.104.597 0 1.045-.21 1.344-.632.299-.421.448-1.117.448-2.088 0-.704-.117-1.248-.352-1.632-.235-.384-.613-.576-1.136-.576zm7.216 3.776c0 .373.048.645.144.816.096.17.25.256.464.256.128 0 .253-.01.376-.032.123-.021.275-.07.456-.144l.224 1.632c-.17.085-.432.17-.784.256a4.602 4.602 0 0 1-1.088.128c-.608 0-1.072-.141-1.392-.424-.32-.283-.48-.75-.48-1.4V1.8h2.08v8.512zM75.6 5.464a6.844 6.844 0 0 1 1.52-.456 9.796 9.796 0 0 1 1.84-.168c.555 0 1.019.067 1.392.2s.67.323.888.568c.219.245.373.539.464.88.09.341.136.725.136 1.152 0 .47-.016.941-.048 1.416s-.05.941-.056 1.4c-.005.459.008.904.04 1.336.032.432.112.84.24 1.224H80.32l-.336-1.104h-.08c-.213.33-.51.616-.888.856-.379.24-.867.36-1.464.36-.373 0-.71-.056-1.008-.168a2.182 2.182 0 0 1-.768-.48 2.187 2.187 0 0 1-.496-.736 2.462 2.462 0 0 1-.176-.952c0-.49.11-.904.328-1.24.219-.336.533-.608.944-.816.41-.208.901-.352 1.472-.432a10.43 10.43 0 0 1 1.912-.072c.075-.597.032-1.027-.128-1.288-.16-.261-.517-.392-1.072-.392-.416 0-.856.043-1.32.128-.464.085-.845.197-1.144.336L75.6 5.464zm2.64 5.952c.416 0 .747-.093.992-.28a1.96 1.96 0 0 0 .544-.6v-1.04a5.722 5.722 0 0 0-.952-.016c-.304.021-.573.07-.808.144a1.358 1.358 0 0 0-.56.32.715.715 0 0 0-.208.528c0 .299.088.53.264.696.176.165.419.248.728.248zM82.752 5h1.104V3.496l2.08-.592V5h1.952v1.76h-1.952v3.072c0 .555.056.952.168 1.192.112.24.323.36.632.36.213 0 .397-.021.552-.064a3.84 3.84 0 0 0 .52-.192l.368 1.6a5.281 5.281 0 0 1-1.008.352 4.798 4.798 0 0 1-1.168.144c-.736 0-1.277-.19-1.624-.568-.347-.379-.52-1-.52-1.864V6.76h-1.104V5zm12.736 7.312c-.32.256-.755.472-1.304.648a5.708 5.708 0 0 1-1.752.264c-1.29 0-2.235-.376-2.832-1.128-.597-.752-.896-1.784-.896-3.096 0-1.408.336-2.464 1.008-3.168.672-.704 1.616-1.056 2.832-1.056.405 0 .8.053 1.184.16.384.107.725.283 1.024.528.299.245.539.576.72.992.181.416.272.933.272 1.552 0 .224-.013.464-.04.72a9.399 9.399 0 0 1-.12.8h-4.8c.032.672.205 1.179.52 1.52.315.341.824.512 1.528.512.437 0 .83-.067 1.176-.2.347-.133.61-.27.792-.408l.688 1.36zM92.512 6.44c-.544 0-.947.163-1.208.488-.261.325-.419.76-.472 1.304h2.976c.043-.576-.045-1.019-.264-1.328-.219-.31-.563-.464-1.032-.464zm4.656 1.04h4.016v1.84h-4.016V7.48zm10.224-.528a2.71 2.71 0 0 0-.896-.176c-.373 0-.685.099-.936.296-.25.197-.419.45-.504.76V13h-2.08V5h1.616l.24 1.056h.064c.181-.395.427-.699.736-.912.31-.213.672-.32 1.088-.32.277 0 .592.059.944.176l-.272 1.952zM108.208 9c0-1.355.33-2.397.992-3.128.661-.73 1.59-1.096 2.784-1.096.64 0 1.195.101 1.664.304.47.203.859.488 1.168.856.31.368.541.813.696 1.336.155.523.232 1.099.232 1.728 0 1.355-.328 2.397-.984 3.128-.656.73-1.581 1.096-2.776 1.096-.64 0-1.195-.101-1.664-.304a3.18 3.18 0 0 1-1.176-.856 3.595 3.595 0 0 1-.704-1.336A6.073 6.073 0 0 1 108.208 9zm2.144 0c0 .352.032.677.096.976.064.299.16.56.288.784.128.224.296.397.504.52.208.123.456.184.744.184.544 0 .95-.197 1.216-.592.267-.395.4-1.019.4-1.872 0-.736-.123-1.33-.368-1.784-.245-.453-.661-.68-1.248-.68-.512 0-.912.192-1.2.576-.288.384-.432 1.013-.432 1.888zm12.48-4l1.456 4.096.288 1.328h.064l.224-1.344L125.888 5h1.904l-2.464 8.08h-1.536l-1.616-4.48-.208-1.008h-.08l-.192 1.024-1.536 4.464h-1.584L116 5h2.256l1.168 4.016.192 1.424h.08l.272-1.44 1.328-4h1.536zm6.32 1.152c0-.373.117-.67.352-.888.235-.219.544-.328.928-.328.405 0 .725.11.96.328.235.219.352.515.352.888s-.117.672-.352.896c-.235.224-.555.336-.96.336-.384 0-.693-.112-.928-.336-.235-.224-.352-.523-.352-.896zm0 5.792c0-.373.117-.67.352-.888.235-.219.544-.328.928-.328.405 0 .725.11.96.328.235.219.352.515.352.888s-.117.672-.352.896c-.235.224-.555.336-.96.336-.384 0-.693-.112-.928-.336-.235-.224-.352-.523-.352-.896zm8.48-.704h2.224V4.92l.24-1.088-.768.944-1.424.976-.88-1.2 3.648-2.944h1.168v9.632h2.176V13h-6.384v-1.76zm8.096-3.856c0-1.963.336-3.421 1.008-4.376.672-.955 1.637-1.432 2.896-1.432 1.344 0 2.33.472 2.96 1.416.63.944.944 2.408.944 4.392 0 1.973-.339 3.44-1.016 4.4-.677.96-1.645 1.44-2.904 1.44-1.333 0-2.315-.504-2.944-1.512-.63-1.008-.944-2.45-.944-4.328zm2.08 0c0 1.301.141 2.307.424 3.016.283.71.75 1.064 1.4 1.064.63 0 1.09-.325 1.384-.976.293-.65.44-1.685.44-3.104 0-1.29-.139-2.288-.416-2.992-.277-.704-.752-1.056-1.424-1.056-.64 0-1.101.33-1.384.992-.283.661-.424 1.68-.424 3.056zm6.992 0c0-1.963.336-3.421 1.008-4.376.672-.955 1.637-1.432 2.896-1.432 1.344 0 2.33.472 2.96 1.416.63.944.944 2.408.944 4.392 0 1.973-.339 3.44-1.016 4.4-.677.96-1.645 1.44-2.904 1.44-1.333 0-2.315-.504-2.944-1.512-.63-1.008-.944-2.45-.944-4.328zm2.08 0c0 1.301.141 2.307.424 3.016.283.71.75 1.064 1.4 1.064.63 0 1.09-.325 1.384-.976.293-.65.44-1.685.44-3.104 0-1.29-.139-2.288-.416-2.992-.277-.704-.752-1.056-1.424-1.056-.64 0-1.101.33-1.384.992-.283.661-.424 1.68-.424 3.056zM164.144 5h1.52l.24.96h.064c.277-.405.605-.704.984-.896.379-.192.84-.288 1.384-.288 1.003 0 1.755.317 2.256.952.501.635.752 1.656.752 3.064a6.6 6.6 0 0 1-.24 1.848 3.899 3.899 0 0 1-.712 1.4 3.111 3.111 0 0 1-1.152.88c-.453.203-.973.304-1.56.304a3.82 3.82 0 0 1-.816-.072 2.81 2.81 0 0 1-.64-.232v3.28h-2.08V5zm3.568 1.536c-.405 0-.723.101-.952.304-.23.203-.408.507-.536.912v3.328c.15.117.312.21.488.28.176.07.408.104.696.104.597 0 1.045-.21 1.344-.632.299-.421.448-1.117.448-2.088 0-.704-.117-1.248-.352-1.632-.235-.384-.613-.576-1.136-.576zm6.496 2.368L171.808 5h2.48l1.04 1.712.448 1.12.48-1.12L177.344 5h2.256l-2.416 3.84L179.76 13h-2.416l-1.232-1.92-.48-1.184-.512 1.184-1.232 1.92h-2.272l2.592-4.096zm10.112-3.44a6.844 6.844 0 0 1 1.52-.456 9.796 9.796 0 0 1 1.84-.168c.555 0 1.019.067 1.392.2s.67.323.888.568c.219.245.373.539.464.88.09.341.136.725.136 1.152 0 .47-.016.941-.048 1.416s-.05.941-.056 1.4c-.005.459.008.904.04 1.336.032.432.112.84.24 1.224h-1.696l-.336-1.104h-.08c-.213.33-.51.616-.888.856-.379.24-.867.36-1.464.36-.373 0-.71-.056-1.008-.168a2.182 2.182 0 0 1-.768-.48 2.187 2.187 0 0 1-.496-.736 2.462 2.462 0 0 1-.176-.952c0-.49.11-.904.328-1.24.219-.336.533-.608.944-.816.41-.208.901-.352 1.472-.432a10.43 10.43 0 0 1 1.912-.072c.075-.597.032-1.027-.128-1.288-.16-.261-.517-.392-1.072-.392-.416 0-.856.043-1.32.128-.464.085-.845.197-1.144.336l-.496-1.552zm2.64 5.952c.416 0 .747-.093.992-.28a1.96 1.96 0 0 0 .544-.6v-1.04a5.722 5.722 0 0 0-.952-.016c-.304.021-.573.07-.808.144a1.358 1.358 0 0 0-.56.32.715.715 0 0 0-.208.528c0 .299.088.53.264.696.176.165.419.248.728.248zM194.304 5v4.544c0 .65.077 1.12.232 1.408.155.288.456.432.904.432.395 0 .723-.117.984-.352s.456-.523.584-.864V5h2.08v5.568c0 .437.021.867.064 1.288a8.1 8.1 0 0 0 .192 1.144h-1.568l-.368-1.184h-.064a2.99 2.99 0 0 1-1.024 1.008c-.437.267-.955.4-1.552.4-.405 0-.768-.053-1.088-.16a1.788 1.788 0 0 1-.8-.528c-.213-.245-.376-.576-.488-.992-.112-.416-.168-.939-.168-1.568V5h2.08zm5.776 0h1.104V3.496l2.08-.592V5h1.952v1.76h-1.952v3.072c0 .555.056.952.168 1.192.112.24.323.36.632.36.213 0 .397-.021.552-.064a3.84 3.84 0 0 0 .52-.192l.368 1.6a5.281 5.281 0 0 1-1.008.352 4.798 4.798 0 0 1-1.168.144c-.736 0-1.277-.19-1.624-.568-.347-.379-.52-1-.52-1.864V6.76h-1.104V5zm5.952 4c0-1.355.33-2.397.992-3.128.661-.73 1.59-1.096 2.784-1.096.64 0 1.195.101 1.664.304.47.203.859.488 1.168.856.31.368.541.813.696 1.336.155.523.232 1.099.232 1.728 0 1.355-.328 2.397-.984 3.128-.656.73-1.581 1.096-2.776 1.096-.64 0-1.195-.101-1.664-.304a3.18 3.18 0 0 1-1.176-.856 3.595 3.595 0 0 1-.704-1.336A6.073 6.073 0 0 1 206.032 9zm2.144 0c0 .352.032.677.096.976.064.299.16.56.288.784.128.224.296.397.504.52.208.123.456.184.744.184.544 0 .95-.197 1.216-.592.267-.395.4-1.019.4-1.872 0-.736-.123-1.33-.368-1.784-.245-.453-.661-.68-1.248-.68-.512 0-.912.192-1.2.576-.288.384-.432 1.013-.432 1.888zm7.232 2.976c0-.363.12-.65.36-.864.24-.213.536-.32.888-.32.448 0 .8.15 1.056.448.256.299.384.693.384 1.184 0 .48-.075.893-.224 1.24a2.778 2.778 0 0 1-1.256 1.408c-.25.133-.477.232-.68.296l-.608-.864c.288-.117.539-.31.752-.576.213-.267.33-.55.352-.848-.245.032-.477-.043-.696-.224-.219-.181-.328-.475-.328-.88zm0-5.824c0-.373.117-.67.352-.888.235-.219.544-.328.928-.328.405 0 .725.11.96.328.235.219.352.515.352.888s-.117.672-.352.896c-.235.224-.555.336-.96.336-.384 0-.693-.112-.928-.336-.235-.224-.352-.523-.352-.896z" fill="#555"/>
  </g>
</svg>
