<svg width="420" height="514" xmlns="http://www.w3.org/2000/svg">
  <g fill="none" fill-rule="evenodd">
    <path fill="#919BA5" d="M120 153h295v300H120z"/>
    <path fill="#7D8793" d="M8 153h99v300H8z"/>
    <path fill="#919BA5" d="M8 91h407v54H8z"/>
    <text font-family="PTSans-Regular, PT Sans" font-size="13" fill="#555">
      <tspan x="142" y="24">grid-template-areas: “header header header”</tspan> <tspan x="142" y="40"> “sidebar content content”</tspan> <tspan x="142" y="56"> “sidebar footer footer”;</tspan>
    </text>
    <text font-family="PTSans-Bold, PT Sans" font-size="15" font-weight="bold" fill="#555">
      <tspan x="21" y="44">grid-area: header</tspan>
    </text>
    <text font-family="PTSans-Bold, PT Sans" font-size="15" font-weight="bold" fill="#555">
      <tspan x="10" y="24">item {</tspan>  <tspan x="10" y="58">}</tspan>
    </text>
    <path fill="#E0E7EE" d="M8 464h407v39H8z"/>
    <path d="M205.187 479.5h1.173v-.476c0-1.077.227-1.856.68-2.337.453-.482 1.11-.723 1.972-.723.907 0 1.66.108 2.261.323l-.425 1.768c-.26-.09-.49-.15-.689-.178a4.386 4.386 0 0 0-.62-.043c-.227 0-.405.034-.535.102a.627.627 0 0 0-.29.315 1.645 1.645 0 0 0-.119.526c-.017.21-.025.451-.025.723h1.87v1.87h-1.87V488h-2.21v-6.63h-1.173v-1.87zm5.746 4.25c0-1.44.351-2.547 1.054-3.324.703-.776 1.689-1.164 2.958-1.164.68 0 1.27.108 1.768.323a3.29 3.29 0 0 1 1.241.91c.329.39.575.864.74 1.419.164.555.246 1.167.246 1.836 0 1.44-.348 2.547-1.046 3.324-.697.776-1.68 1.164-2.949 1.164-.68 0-1.27-.108-1.768-.323a3.379 3.379 0 0 1-1.25-.91 3.82 3.82 0 0 1-.748-1.419 6.453 6.453 0 0 1-.246-1.836zm2.278 0c0 .374.034.72.102 1.037.068.317.17.595.306.833.136.238.314.422.536.553.22.13.484.195.79.195.578 0 1.009-.21 1.292-.629.283-.42.425-1.082.425-1.989 0-.782-.13-1.414-.391-1.896-.26-.481-.703-.722-1.326-.722-.544 0-.969.204-1.275.612-.306.408-.459 1.077-.459 2.006zm6.851 0c0-1.44.351-2.547 1.054-3.324.703-.776 1.689-1.164 2.958-1.164.68 0 1.27.108 1.768.323a3.29 3.29 0 0 1 1.241.91c.329.39.575.864.74 1.419.164.555.246 1.167.246 1.836 0 1.44-.348 2.547-1.045 3.324-.698.776-1.68 1.164-2.95 1.164-.68 0-1.27-.108-1.768-.323a3.379 3.379 0 0 1-1.25-.91 3.82 3.82 0 0 1-.748-1.419 6.453 6.453 0 0 1-.246-1.836zm2.278 0c0 .374.034.72.102 1.037.068.317.17.595.306.833.136.238.314.422.536.553.22.13.484.195.79.195.578 0 1.009-.21 1.292-.629.283-.42.425-1.082.425-1.989 0-.782-.13-1.414-.391-1.896-.26-.481-.703-.722-1.326-.722-.544 0-.969.204-1.275.612-.306.408-.459 1.077-.459 2.006zm6.375-4.25h1.173v-1.598l2.21-.629v2.227h2.074v1.87h-2.074v3.264c0 .59.06 1.011.178 1.267.12.255.343.382.672.382.227 0 .422-.023.587-.068a3.93 3.93 0 0 0 .552-.204l.391 1.7a5.611 5.611 0 0 1-1.071.374 5.098 5.098 0 0 1-1.241.153c-.782 0-1.357-.201-1.726-.603-.368-.403-.552-1.063-.552-1.981v-4.284h-1.173v-1.87zm13.532 7.769c-.34.272-.802.501-1.386.688a6.065 6.065 0 0 1-1.861.281c-1.371 0-2.374-.4-3.009-1.199-.635-.799-.952-1.895-.952-3.289 0-1.496.357-2.618 1.071-3.366.714-.748 1.717-1.122 3.009-1.122.43 0 .85.057 1.258.17.408.113.77.3 1.088.561.317.26.572.612.765 1.054.193.442.289.992.289 1.649 0 .238-.014.493-.043.765-.028.272-.07.555-.127.85h-5.1c.034.714.218 1.252.553 1.615.334.363.875.544 1.623.544.465 0 .881-.07 1.25-.213.368-.141.648-.286.841-.433l.731 1.445zm-3.162-6.239c-.578 0-1.006.173-1.284.519-.277.345-.444.807-.501 1.385h3.162c.045-.612-.048-1.082-.28-1.411-.233-.329-.598-.493-1.097-.493zm9.69.544a2.88 2.88 0 0 0-.952-.187c-.397 0-.728.105-.995.315-.266.21-.444.478-.535.807V488h-2.21v-8.5h1.717l.255 1.122h.068c.193-.42.453-.742.782-.969.329-.227.714-.34 1.156-.34.295 0 .629.062 1.003.187l-.289 2.074z" fill="#5D5A5A"/>
    <path d="M194.171 122v-4.828c0-.691-.096-1.19-.289-1.496-.193-.306-.544-.459-1.054-.459-.374 0-.717.127-1.029.383-.311.255-.518.58-.62.977V122h-2.21v-11.9h2.21v4.352h.068a3.072 3.072 0 0 1 1.003-.867c.397-.215.901-.323 1.513-.323.43 0 .81.057 1.139.17.329.113.603.3.825.561.22.26.385.615.493 1.063.107.447.161 1 .161 1.657V122h-2.21zm10.863-.731c-.34.272-.802.501-1.385.688a6.065 6.065 0 0 1-1.862.281c-1.371 0-2.374-.4-3.009-1.198-.635-.8-.952-1.896-.952-3.29 0-1.496.357-2.618 1.071-3.366.714-.748 1.717-1.122 3.009-1.122.43 0 .85.057 1.258.17.408.113.77.3 1.088.561.317.26.572.612.765 1.054.193.442.289.992.289 1.649 0 .238-.014.493-.043.765-.028.272-.07.555-.127.85h-5.1c.034.714.218 1.252.553 1.615.334.363.875.544 1.623.544.465 0 .881-.07 1.25-.213.368-.141.648-.286.841-.433l.731 1.445zm-3.162-6.239c-.578 0-1.006.173-1.284.519-.277.345-.444.807-.501 1.385h3.162c.045-.612-.048-1.082-.28-1.411-.233-.329-.598-.493-1.097-.493zm4.947-1.037a7.272 7.272 0 0 1 1.615-.484 10.408 10.408 0 0 1 1.955-.179c.59 0 1.082.07 1.479.213.397.141.711.342.944.603.232.26.396.572.492.935.097.363.145.77.145 1.224 0 .499-.017 1-.051 1.504-.034.505-.054 1-.06 1.488-.005.487.009.96.043 1.42.034.459.119.892.255 1.3h-1.802l-.357-1.173h-.085a3.025 3.025 0 0 1-.944.91c-.402.255-.92.382-1.555.382-.397 0-.754-.06-1.071-.178a2.318 2.318 0 0 1-.816-.51 2.323 2.323 0 0 1-.527-.782 2.616 2.616 0 0 1-.187-1.012c0-.521.116-.96.349-1.317.232-.358.566-.646 1.002-.868.437-.22.958-.373 1.565-.459.606-.085 1.283-.11 2.031-.076.08-.635.034-1.09-.136-1.368s-.55-.417-1.139-.417c-.442 0-.91.045-1.403.136-.493.09-.898.21-1.215.357l-.527-1.649zm2.805 6.324c.442 0 .793-.1 1.054-.297.26-.199.453-.411.578-.638v-1.105a6.08 6.08 0 0 0-1.012-.017 3.719 3.719 0 0 0-.858.153c-.25.08-.448.193-.595.34a.76.76 0 0 0-.221.561c0 .317.093.564.28.74.188.175.445.263.774.263zm12.903-1.309c0 .476.006.952.017 1.428.011.476.062 1.003.153 1.581h-1.581l-.306-1.105h-.068a2.569 2.569 0 0 1-.977.96c-.426.244-.927.366-1.505.366-1.065 0-1.893-.351-2.482-1.054-.59-.703-.884-1.802-.884-3.298 0-1.45.329-2.578.986-3.383.657-.805 1.62-1.207 2.89-1.207.351 0 .64.02.867.06.227.04.453.104.68.195V110.1h2.21v8.908zm-3.757 1.36c.43 0 .77-.105 1.02-.314.25-.21.425-.513.527-.91v-3.604a1.687 1.687 0 0 0-.527-.28 2.483 2.483 0 0 0-.748-.094c-.623 0-1.09.21-1.403.629-.311.42-.467 1.139-.467 2.159 0 .725.127 1.309.382 1.751.256.442.66.663 1.216.663zm12.495.901c-.34.272-.802.501-1.385.688a6.065 6.065 0 0 1-1.862.281c-1.371 0-2.374-.4-3.009-1.198-.635-.8-.952-1.896-.952-3.29 0-1.496.357-2.618 1.071-3.366.714-.748 1.717-1.122 3.009-1.122.43 0 .85.057 1.258.17.408.113.77.3 1.088.561.317.26.572.612.765 1.054.193.442.289.992.289 1.649 0 .238-.014.493-.043.765-.028.272-.07.555-.127.85h-5.1c.034.714.218 1.252.553 1.615.334.363.875.544 1.623.544.465 0 .881-.07 1.25-.213.368-.141.648-.286.841-.433l.731 1.445zm-3.162-6.239c-.578 0-1.006.173-1.284.519-.277.345-.444.807-.501 1.385h3.162c.045-.612-.048-1.082-.28-1.411-.233-.329-.598-.493-1.097-.493zm9.69.544a2.88 2.88 0 0 0-.952-.187c-.397 0-.728.105-.995.314-.266.21-.444.48-.535.808V122h-2.21v-8.5h1.717l.255 1.122h.068c.193-.42.453-.742.782-.969.329-.227.714-.34 1.156-.34.295 0 .629.062 1.003.187l-.289 2.074zM33.488 289.654a.635.635 0 0 0-.289-.544 3.482 3.482 0 0 0-.714-.374c-.283-.113-.595-.23-.935-.349a3.513 3.513 0 0 1-.935-.493 2.7 2.7 0 0 1-.714-.798c-.193-.324-.289-.74-.289-1.25 0-.839.25-1.479.748-1.921.499-.442 1.218-.663 2.159-.663.646 0 1.23.068 1.751.204.521.136.93.289 1.224.459l-.493 1.598c-.26-.102-.59-.21-.986-.323a4.373 4.373 0 0 0-1.207-.17c-.657 0-.986.255-.986.765 0 .204.096.368.289.493.193.125.43.24.714.349.283.107.595.223.935.348.34.125.652.286.935.484.283.199.521.457.714.774.193.317.289.725.289 1.224 0 .861-.275 1.538-.825 2.031-.55.494-1.374.74-2.473.74a6.04 6.04 0 0 1-1.691-.23c-.528-.153-.955-.331-1.284-.535l.612-1.649c.26.147.606.292 1.037.433.43.142.873.213 1.326.213.329 0 .592-.062.79-.187.199-.125.298-.334.298-.629zm3.859-6.154h2.21v8.5h-2.21v-8.5zm-.323-2.397c0-.329.122-.61.365-.841.244-.233.581-.349 1.012-.349.43 0 .78.116 1.045.349.267.232.4.512.4.841 0 .329-.133.603-.4.825-.266.22-.614.331-1.045.331-.43 0-.768-.11-1.012-.332a1.068 1.068 0 0 1-.365-.824zm11.917 7.905c0 .476.006.952.017 1.428.011.476.062 1.003.153 1.581H47.53l-.306-1.105h-.068a2.569 2.569 0 0 1-.977.96c-.426.244-.927.366-1.505.366-1.065 0-1.893-.351-2.482-1.054-.59-.703-.884-1.802-.884-3.298 0-1.45.329-2.578.986-3.383.657-.805 1.62-1.207 2.89-1.207.351 0 .64.02.867.06.227.04.453.104.68.195V280.1h2.21v8.908zm-3.757 1.36c.43 0 .77-.105 1.02-.315.25-.21.425-.512.527-.909v-3.604a1.687 1.687 0 0 0-.527-.28 2.483 2.483 0 0 0-.748-.094c-.623 0-1.09.21-1.403.629-.311.42-.467 1.139-.467 2.159 0 .725.127 1.309.383 1.751.255.442.66.663 1.215.663zm12.495.901c-.34.272-.802.501-1.386.688a6.065 6.065 0 0 1-1.861.281c-1.371 0-2.374-.4-3.009-1.199-.635-.799-.952-1.895-.952-3.289 0-1.496.357-2.618 1.071-3.366.714-.748 1.717-1.122 3.009-1.122.43 0 .85.057 1.258.17.408.113.77.3 1.088.561.317.26.572.612.765 1.054.193.442.289.992.289 1.649 0 .238-.014.493-.043.765-.028.272-.07.555-.127.85h-5.1c.034.714.218 1.252.553 1.615.334.363.875.544 1.623.544.465 0 .881-.07 1.25-.213.368-.141.648-.286.841-.433l.731 1.445zm-3.162-6.239c-.578 0-1.006.173-1.284.519-.277.345-.444.807-.501 1.385h3.162c.045-.612-.048-1.082-.28-1.411-.233-.329-.598-.493-1.097-.493zm4.998-4.93h2.21v4.08h.068a2.49 2.49 0 0 1 .918-.646 3.146 3.146 0 0 1 1.241-.238c1.02 0 1.8.348 2.338 1.046.538.697.807 1.759.807 3.187 0 1.53-.377 2.692-1.13 3.485-.754.793-1.788 1.19-3.103 1.19-.725 0-1.388-.06-1.989-.178-.6-.12-1.054-.253-1.36-.4V280.1zm3.791 5.066c-.408 0-.74.105-.994.315-.256.21-.451.512-.587.909v3.706c.181.09.377.153.587.187.21.034.433.051.671.051.6 0 1.057-.218 1.369-.654.311-.437.467-1.131.467-2.083 0-1.62-.504-2.431-1.513-2.431zm5.27-1.173a7.272 7.272 0 0 1 1.615-.484 10.408 10.408 0 0 1 1.955-.179c.59 0 1.082.07 1.479.213.397.141.711.342.944.603.232.26.396.572.492.935.097.363.145.77.145 1.224 0 .499-.017 1-.051 1.505-.034.504-.054 1-.06 1.487-.005.487.009.96.043 1.42.034.459.119.892.255 1.3h-1.802l-.357-1.173h-.085a3.025 3.025 0 0 1-.944.91c-.402.255-.92.382-1.555.382a3.03 3.03 0 0 1-1.071-.179 2.318 2.318 0 0 1-.816-.51 2.323 2.323 0 0 1-.527-.781 2.616 2.616 0 0 1-.187-1.012c0-.521.116-.96.348-1.317.233-.358.567-.646 1.003-.868.437-.22.958-.373 1.564-.459.607-.084 1.284-.11 2.032-.076.08-.635.034-1.09-.136-1.369-.17-.277-.55-.416-1.139-.416-.442 0-.91.045-1.403.136-.493.09-.898.21-1.215.357l-.527-1.649zm2.805 6.324c.442 0 .793-.1 1.054-.298.26-.198.453-.41.578-.637v-1.105a6.08 6.08 0 0 0-1.012-.017 3.719 3.719 0 0 0-.858.153c-.25.08-.448.193-.595.34a.76.76 0 0 0-.221.561c0 .317.093.564.28.74.188.175.445.263.774.263zm10.37-4.743a2.88 2.88 0 0 0-.952-.187c-.397 0-.728.105-.995.315-.266.21-.444.478-.535.807V292h-2.21v-8.5h1.717l.255 1.122h.068c.193-.42.453-.742.782-.969.329-.227.714-.34 1.156-.34.295 0 .629.062 1.003.187l-.289 2.074zm171.327 5.933c-.363.26-.824.448-1.386.561a8.692 8.692 0 0 1-1.725.17c-.714 0-1.391-.11-2.032-.332a4.345 4.345 0 0 1-1.691-1.07c-.487-.494-.875-1.134-1.165-1.922-.289-.787-.433-1.742-.433-2.864 0-1.167.161-2.145.485-2.933.323-.787.742-1.422 1.257-1.904a4.642 4.642 0 0 1 1.726-1.037 6.039 6.039 0 0 1 1.904-.314c.68 0 1.255.045 1.726.136.47.09.858.198 1.164.323l-.459 1.972a3.37 3.37 0 0 0-.927-.272 8.46 8.46 0 0 0-1.3-.085c-.94 0-1.697.334-2.27 1.003-.572.669-.858 1.706-.858 3.111 0 .612.068 1.17.204 1.674.136.505.343.935.62 1.293.278.357.624.634 1.037.832.414.199.893.298 1.437.298.51 0 .94-.051 1.292-.153.351-.102.657-.232.918-.391l.476 1.904zm.374-3.757c0-1.44.351-2.547 1.054-3.324.703-.776 1.689-1.164 2.958-1.164.68 0 1.27.108 1.768.323a3.29 3.29 0 0 1 1.241.91c.329.39.575.864.74 1.419.164.555.246 1.167.246 1.836 0 1.44-.348 2.547-1.046 3.324-.697.776-1.68 1.164-2.949 1.164-.68 0-1.27-.108-1.768-.323a3.379 3.379 0 0 1-1.25-.91 3.82 3.82 0 0 1-.748-1.419 6.453 6.453 0 0 1-.246-1.836zm2.278 0c0 .374.034.72.102 1.037.068.317.17.595.306.833.136.238.314.422.536.553.22.13.484.195.79.195.578 0 1.009-.21 1.292-.629.283-.42.425-1.082.425-1.989 0-.782-.13-1.414-.391-1.896-.26-.481-.703-.722-1.326-.722-.544 0-.969.204-1.275.612-.306.408-.459 1.077-.459 2.006zm12.461 4.25v-4.828c0-.691-.1-1.19-.297-1.496-.199-.306-.536-.459-1.012-.459-.42 0-.773.122-1.063.365a2.03 2.03 0 0 0-.62.91V292h-2.21v-8.5h1.751l.255 1.122h.068c.26-.363.606-.68 1.037-.952.43-.272.986-.408 1.666-.408.42 0 .793.057 1.122.17.329.113.606.3.833.561.227.26.397.615.51 1.063.113.447.17 1 .17 1.657V292h-2.21zm3.179-8.5h1.173v-1.598l2.21-.629v2.227h2.074v1.87h-2.074v3.264c0 .59.06 1.011.179 1.267.119.255.342.382.671.382.227 0 .422-.023.587-.068a3.93 3.93 0 0 0 .552-.204l.391 1.7a5.611 5.611 0 0 1-1.071.374 5.098 5.098 0 0 1-1.241.153c-.782 0-1.357-.201-1.726-.603-.368-.403-.552-1.063-.552-1.981v-4.284h-1.173v-1.87zm13.532 7.769c-.34.272-.802.501-1.385.688a6.065 6.065 0 0 1-1.862.281c-1.371 0-2.374-.4-3.009-1.199-.635-.799-.952-1.895-.952-3.289 0-1.496.357-2.618 1.071-3.366.714-.748 1.717-1.122 3.009-1.122.43 0 .85.057 1.258.17.408.113.77.3 1.088.561.317.26.572.612.765 1.054.193.442.289.992.289 1.649 0 .238-.014.493-.042.765a10.15 10.15 0 0 1-.128.85h-5.1c.034.714.218 1.252.553 1.615.334.363.875.544 1.623.544.465 0 .881-.07 1.25-.213.368-.141.648-.286.841-.433l.731 1.445zm-3.162-6.239c-.578 0-1.006.173-1.284.519-.277.345-.444.807-.501 1.385h3.162c.045-.612-.048-1.082-.28-1.411-.233-.329-.598-.493-1.097-.493zm10.2 6.97v-4.828c0-.691-.1-1.19-.298-1.496-.198-.306-.535-.459-1.011-.459-.42 0-.773.122-1.063.365a2.03 2.03 0 0 0-.62.91V292h-2.21v-8.5h1.751l.255 1.122h.068c.26-.363.606-.68 1.037-.952.43-.272.986-.408 1.666-.408.42 0 .793.057 1.122.17.329.113.606.3.833.561.227.26.397.615.51 1.063.113.447.17 1 .17 1.657V292h-2.21zm3.179-8.5h1.173v-1.598l2.21-.629v2.227h2.074v1.87h-2.074v3.264c0 .59.06 1.011.178 1.267.12.255.343.382.672.382.227 0 .422-.023.587-.068a3.93 3.93 0 0 0 .552-.204l.391 1.7a5.611 5.611 0 0 1-1.071.374 5.098 5.098 0 0 1-1.241.153c-.782 0-1.357-.201-1.726-.603-.368-.403-.552-1.063-.552-1.981v-4.284h-1.173v-1.87z" fill="#FFF"/>
  </g>
</svg>
