<svg width="418" height="557" xmlns="http://www.w3.org/2000/svg">
  <g fill="none" fill-rule="evenodd">
    <text font-family="PTSans-Bold, PT Sans" font-size="16" font-weight="bold" fill="#FFF">
      <tspan x="192" y="447">ite</tspan> <tspan x="192" y="465">m </tspan> <tspan x="192" y="483">b</tspan>
    </text>
    <path stroke="#5D5A5A" stroke-width="2" fill="#919BA5" d="M3 195h76v89H3zm0-86h76v79H3z"/>
    <path stroke="#ACACAC" stroke-width="2" d="M170 195h76v89h-76z"/>
    <path stroke="#979797" stroke-width="2" fill="#AFB8C1" d="M169 109h76v79h-76z"/>
    <path stroke="#ACACAC" stroke-width="2" d="M87 194h76v89H87z"/>
    <path stroke="#ACACAC" stroke-width="2" fill="#AFB8C1" d="M87 109h76v79H87z"/>
    <text font-family="PTSans-Regular, PT Sans" font-size="14" fill="#555">
      <tspan x="291" y="33">.item-5 {</tspan> <tspan x="291" y="50"> grid-column: 5 / 6;</tspan> <tspan x="291" y="67"> grid-row: 1 / 3;</tspan> <tspan x="291" y="84">}</tspan>
    </text>
    <text font-family="PTSans-Regular, PT Sans" font-size="14" fill="#555">
      <tspan x="160" y="31">.item-1 {</tspan> <tspan x="160" y="48"> grid-column: 1 / 2;</tspan> <tspan x="160" y="65"> grid-row: 1 / 3;</tspan> <tspan x="160" y="82">}</tspan>
    </text>
    <text font-family="PTSans-Bold, PT Sans" font-size="16" font-weight="bold" fill="#FFF">
      <tspan x="16" y="157">item-1</tspan>
    </text>
    <text font-family="PTSans-Bold, PT Sans" font-size="16" font-weight="bold" fill="#FFF">
      <tspan x="100" y="157">item-2</tspan>
    </text>
    <text font-family="PTSans-Bold, PT Sans" font-size="16" font-weight="bold" fill="#FFF">
      <tspan x="183" y="157">item-3</tspan>
    </text>
    <path stroke="#5D5A5A" stroke-width="2" fill="#919BA5" d="M3 428h76v89H3zm0-86h76v79H3z"/>
    <path stroke="#ACACAC" stroke-width="2" d="M170 428h76v89h-76z"/>
    <path stroke="#979797" stroke-width="2" fill="#AFB8C1" d="M169 342h76v79h-76z"/>
    <path stroke="#ACACAC" stroke-width="2" fill="#AFB8C1" fill-rule="nonzero" d="M87 427h76v89H87z"/>
    <path stroke="#ACACAC" stroke-width="2" fill="#AFB8C1" d="M87 342h76v79H87z"/>
    <text font-family="PTSans-Bold, PT Sans" font-size="16" font-weight="bold" fill="#FFF">
      <tspan x="16" y="388">item-1</tspan>
    </text>
    <text font-family="PTSans-Bold, PT Sans" font-size="16" font-weight="bold" fill="#FFF">
      <tspan x="100" y="387">item-2</tspan>
    </text>
    <text font-family="PTSans-Bold, PT Sans" font-size="16" font-weight="bold" fill="#FFF">
      <tspan x="102" y="477">item-3</tspan>
    </text>
    <text font-family="PTSans-Bold, PT Sans" font-size="16" font-weight="bold" fill="#FFF">
      <tspan x="185" y="388">item-4</tspan>
    </text>
    <text font-family="PTSans-Bold, PT Sans" font-size="16" font-weight="bold" fill="#555">
      <tspan x="5" y="31">grid-auto-flow: row</tspan>
    </text>
    <text font-family="PTSans-Bold, PT Sans" font-size="16" font-weight="bold" fill="#555">
      <tspan x="3" y="319">grid-auto-flow: column</tspan>
    </text>
    <path stroke="#979797" stroke-width="2" d="M253 195h76v89h-76z"/>
    <path stroke="#979797" stroke-width="2" fill="#AFB8C1" d="M252 109h76v79h-76z"/>
    <path stroke="#5D5A5A" stroke-width="2" fill="#919BA5" d="M337 195h76v89h-76zm-1-86h76v79h-76z"/>
    <text font-family="PTSans-Bold, PT Sans" font-size="16" font-weight="bold" fill="#FFF">
      <tspan x="265" y="157">item-4</tspan>
    </text>
    <text font-family="PTSans-Bold, PT Sans" font-size="16" font-weight="bold" fill="#FFF">
      <tspan x="350" y="155">item-5</tspan>
    </text>
    <path stroke="#979797" stroke-width="2" d="M253 428h76v89h-76zm-1-86h76v79h-76z"/>
    <path stroke="#5D5A5A" stroke-width="2" fill="#919BA5" d="M337 428h76v89h-76zm-1-86h76v79h-76z"/>
    <text font-family="PTSans-Bold, PT Sans" font-size="16" font-weight="bold" fill="#FFF">
      <tspan x="352" y="388">item-5</tspan>
    </text>
  </g>
</svg>
