<svg width="418" height="557" xmlns="http://www.w3.org/2000/svg">
  <g fill="none" fill-rule="evenodd">
    <path stroke="#5D5A5A" stroke-width="2" fill="#919BA5" d="M6 363h75v176H6zm0-148h75v136H6z"/>
    <text font-family="PTSans-Bold, PT Sans" font-size="15" font-weight="bold" fill="#555">
      <tspan x="4" y="61">grid-auto-columns: 100px;</tspan>
    </text>
    <text font-family="PTSans-Bold, PT Sans" font-size="15" font-weight="bold" fill="#555">
      <tspan x="4" y="81">grid-auto-rows: 100px;</tspan>
    </text>
    <path stroke="#ACACAC" stroke-width="2" stroke-dasharray="8,4" d="M170 363h75v176h-75z"/>
    <text font-family="PTSans-Regular, PT Sans" font-size="14" fill="#498CF3">
      <tspan x="170" y="202">100px (auto)</tspan>
    </text>
    <text font-family="PTSans-Regular, PT Sans" font-size="14" fill="#498CF3">
      <tspan x="21" y="202">100px</tspan>
    </text>
    <text font-family="PTSans-Regular, PT Sans" font-size="14" fill="#498CF3">
      <tspan x="104" y="202">100px</tspan>
    </text>
    <path stroke="#979797" stroke-width="2" stroke-dasharray="8,4" d="M169 215h75v136h-75z"/>
    <path d="M88.235 362h74.726v178H88.235zM89 215h75v136H89z" stroke-width="2" stroke="#5D5A5A"/>
    <text fill="#FFF" font-family="PTSans-Regular, PT Sans" font-size="16">
      <tspan x="381" y="271">2f</tspan> <tspan x="381" y="290.904">r</tspan>
    </text>
    <text font-family="PTSans-Bold, PT Sans" font-size="16" font-weight="bold" fill="#555">
      <tspan x="0" y="24"> grid-template-columns: 100px 100px;</tspan> <tspan x="0" y="42"> grid-template-rows: 100px 100px</tspan>
    </text>
    <text font-family="PTSans-Bold, PT Sans" font-size="15" font-weight="bold" fill="#555">
      <tspan x="69" y="114">.item-a {</tspan> <tspan x="69" y="131"> grid-column: 1 / 2;</tspan> <tspan x="69" y="148"> grid-row: 1 / 3;</tspan> <tspan x="69" y="165">}</tspan>
    </text>
    <text font-family="PTSans-Bold, PT Sans" font-size="16" font-weight="bold" fill="#FFF">
      <tspan x="22" y="287">item a</tspan>
    </text>
    <path stroke="#979797" stroke-width="2" stroke-dasharray="8" d="M252 363h75v176h-75zm-1-148h75v136h-75z"/>
    <path stroke="#5D5A5A" stroke-width="2" fill="#919BA5" d="M334 363h75v176h-75z"/>
    <path stroke="#979797" stroke-width="2" stroke-dasharray="8" d="M334 215h75v136h-75z"/>
    <text font-family="PTSans-Bold, PT Sans" font-size="16" font-weight="bold" fill="#FFF">
      <tspan x="350" y="447">item b</tspan>
    </text>
    <text font-family="PTSans-Regular, PT Sans" font-size="14" fill="#498CF3">
      <tspan x="255" y="202">100px (auto)</tspan>
    </text>
    <text font-family="PTSans-Regular, PT Sans" font-size="14" fill="#498CF3">
      <tspan x="359" y="202">auto</tspan>
    </text>
    <text font-family="PTSans-Bold, PT Sans" font-size="15" font-weight="bold" fill="#555">
      <tspan x="234" y="109">.item-b {</tspan> <tspan x="234" y="126"> grid-column: 5 / 6;</tspan> <tspan x="234" y="143"> grid-row: 2 / 3;</tspan> <tspan x="234" y="160">}</tspan>
    </text>
  </g>
</svg>
