<svg width="418" height="752" xmlns="http://www.w3.org/2000/svg">
  <g fill="none" fill-rule="evenodd">
    <g fill-rule="nonzero">
      <path fill="#E0E7EE" d="M4 60h199v145H4z"/>
      <path fill="#AFB8C1" d="M4 60h52.105v56H4z"/>
      <path fill="#919BA5" d="M60.727 60h52.038v56H60.727z"/>
      <path fill="#7D8793" d="M116.082 60h52.037v56h-52.038z"/>
      <path fill="#AFB8C1" d="M4 120h52.105v56H4z"/>
      <path fill="#919BA5" d="M60.727 120h52.038v56H60.727z"/>
      <path fill="#7D8793" d="M116.082 120h52.037v56h-52.038z"/>
    </g>
    <path d="M7.832 47.658a.57.57 0 0 0-.273-.493 3.332 3.332 0 0 0-.673-.339 21.828 21.828 0 0 0-.882-.316 3.36 3.36 0 0 1-.882-.446c-.27-.194-.5-.44-.673-.724-.182-.293-.273-.67-.273-1.133 0-.76.235-1.34.706-1.74.47-.401 1.148-.601 2.036-.601.609 0 1.16.061 1.651.184.491.124.876.262 1.154.416l-.465 1.449c-.305-.111-.616-.21-.93-.293a4.28 4.28 0 0 0-1.138-.154c-.62 0-.93.23-.93.693 0 .185.09.334.273.447a3.7 3.7 0 0 0 .673.316c.267.097.561.202.882.315.32.113.614.26.882.44.266.18.49.414.673.7.18.288.273.658.273 1.11 0 .78-.26 1.394-.778 1.84-.519.447-1.296.67-2.332.67a5.913 5.913 0 0 1-1.596-.207c-.497-.139-.901-.3-1.21-.485l.577-1.495c.246.134.571.265.978.393a4.13 4.13 0 0 0 1.25.193c.31 0 .559-.057.746-.17.186-.112.28-.303.28-.57h.001zm2.701-5.577h1.106v-1.448l2.084-.57v2.018h1.956v1.695h-1.956v2.958c0 .534.056.916.169 1.148.112.23.323.346.633.346.214 0 .399-.02.553-.061.178-.05.352-.112.521-.185l.369 1.54c-.325.146-.663.26-1.01.34a4.993 4.993 0 0 1-1.17.138c-.738 0-1.28-.183-1.628-.547-.346-.365-.52-.963-.52-1.795v-3.882h-1.107V42.08v.001zm6.47.447c.488-.202 1-.35 1.523-.44a10.17 10.17 0 0 1 1.844-.16c.556 0 1.02.064 1.394.192.375.128.672.31.89.547.22.236.375.519.465.847.091.328.136.698.136 1.11 0 .452-.016.905-.048 1.363-.032.457-.05.906-.056 1.348-.005.442.008.87.04 1.286.032.416.112.809.24 1.179h-1.699l-.336-1.063h-.08c-.214.317-.51.593-.89.824-.38.23-.868.346-1.467.346-.374 0-.71-.053-1.01-.161a2.19 2.19 0 0 1-.77-.463 2.103 2.103 0 0 1-.497-.708 2.29 2.29 0 0 1-.176-.917c0-.472.11-.87.329-1.194.219-.323.535-.585.945-.786.412-.2.904-.338 1.475-.415.635-.08 1.277-.103 1.916-.07.075-.575.032-.989-.128-1.24s-.518-.377-1.074-.377a7.63 7.63 0 0 0-1.323.123c-.465.082-.847.19-1.146.323l-.497-1.494zm2.645 5.731c.417 0 .749-.09.994-.27.247-.18.428-.372.545-.577V46.41a5.965 5.965 0 0 0-.954-.015 3.63 3.63 0 0 0-.81.139 1.37 1.37 0 0 0-.56.308.674.674 0 0 0-.209.508c0 .288.088.51.265.67.176.16.42.239.73.239h-.001zm9.87-4.298a2.812 2.812 0 0 0-.899-.17c-.374 0-.686.096-.938.285a1.375 1.375 0 0 0-.505.732v4.976h-2.084v-7.703h1.62l.24 1.017h.064c.182-.38.428-.673.737-.878.31-.205.674-.308 1.09-.308.279 0 .594.057.946.17l-.272 1.879h.001zm.937-1.88h1.106v-1.448l2.084-.57v2.018h1.956v1.695h-1.956v2.958c0 .534.056.916.168 1.148.113.23.324.346.634.346.213 0 .397-.02.553-.061.178-.05.352-.112.52-.185l.37 1.54c-.325.146-.663.26-1.01.34a4.993 4.993 0 0 1-1.17.138c-.738 0-1.28-.183-1.628-.547-.348-.365-.521-.963-.521-1.795v-3.882h-1.106V42.08v.001zm194.925 7.04c-.32.247-.757.455-1.307.625a5.934 5.934 0 0 1-1.755.254c-1.294 0-2.24-.362-2.838-1.086-.599-.724-.898-1.718-.898-2.981 0-1.356.337-2.373 1.01-3.05.674-.679 1.62-1.017 2.838-1.017.406 0 .802.05 1.186.154.385.103.727.272 1.026.508.299.236.54.555.722.955.18.4.272.899.272 1.495 0 .215-.014.446-.04.693a8.72 8.72 0 0 1-.12.77h-4.81c.033.647.206 1.135.522 1.464.314.328.825.493 1.53.493.438 0 .831-.065 1.179-.193.347-.128.611-.26.794-.393l.689 1.31v-.001zm-2.982-5.653c-.545 0-.949.157-1.21.47-.263.313-.421.731-.473 1.255h2.982c.042-.554-.047-.981-.265-1.278-.22-.299-.564-.447-1.034-.447zm9.707 6.316V45.41c0-.626-.093-1.079-.28-1.356-.187-.277-.505-.416-.954-.416-.395 0-.73.11-1.002.331-.27.218-.473.503-.585.825v4.991H227.2v-7.703h1.65l.241 1.017h.064c.247-.328.573-.616.978-.863.407-.246.93-.37 1.572-.37.395 0 .748.052 1.058.155.31.103.572.272.785.508.215.236.375.557.481.963.107.405.16.906.16 1.502v4.791h-2.084v-.001zm10.735-2.711c0 .431.006.862.016 1.294.01.431.059.909.144 1.433h-1.491l-.289-1.002h-.064c-.213.36-.52.65-.922.87-.4.222-.873.332-1.418.332-1.004 0-1.785-.318-2.341-.955-.555-.637-.834-1.633-.834-2.99 0-1.313.311-2.336.93-3.065.62-.729 1.53-1.094 2.726-1.094.331 0 .604.019.817.054a3.3 3.3 0 0 1 .642.177V39h2.084v8.073zm-3.543 1.232c.406 0 .727-.095.962-.285.235-.19.4-.465.497-.824V43.93a1.612 1.612 0 0 0-.497-.254 2.431 2.431 0 0 0-.706-.085c-.587 0-1.028.19-1.322.57-.294.38-.441 1.032-.441 1.957 0 .657.12 1.186.36 1.586.24.4.624.601 1.147.601z" fill="#555" fill-rule="nonzero"/>
    <path fill="#E0E7EE" fill-rule="nonzero" d="M215 60h199v145H215z"/>
    <g fill-rule="nonzero">
      <path fill="#AFB8C1" d="M214.825 89h52.105v56h-52.105z"/>
      <path fill="#919BA5" d="M271.552 89h52.038v56h-52.038z"/>
      <path fill="#7D8793" d="M326.907 89h52.037v56h-52.038z"/>
      <path fill="#AFB8C1" d="M214.825 149h52.105v56h-52.105z"/>
      <path fill="#919BA5" d="M271.552 149h52.038v56h-52.038z"/>
      <path fill="#7D8793" d="M326.907 149h52.037v56h-52.038z"/>
    </g>
    <path d="M4 240h199v145H4V240zm210 0h199v145H214V240z" fill="#E0E7EE" fill-rule="nonzero"/>
    <g fill-rule="nonzero">
      <path fill="#AFB8C1" d="M4.166 255h51.889v56H4.166z"/>
      <path fill="#919BA5" d="M60.657 255h51.823v56H60.657z"/>
      <path fill="#7D8793" d="M115.783 255h51.821v56h-51.822z"/>
      <path fill="#AFB8C1" d="M4.166 315h51.889v56H4.166z"/>
      <path fill="#919BA5" d="M60.657 315h51.823v56H60.657z"/>
      <path fill="#7D8793" d="M115.783 315h51.821v56h-51.822z"/>
    </g>
    <g fill-rule="nonzero">
      <path fill="#AFB8C1" d="M214 241h63v69h-63z"/>
      <path fill="#919BA5" d="M283 241h63v69h-63z"/>
      <path fill="#7D8793" d="M350.001 241H413v69h-63z"/>
      <path fill="#AFB8C1" d="M214 315h63v69h-63z"/>
      <path fill="#919BA5" d="M283 315h63v69h-63z"/>
      <path fill="#7D8793" d="M350.001 315H413v69h-63z"/>
    </g>
    <path fill="#E0E7EE" fill-rule="nonzero" d="M4 418h199v145H4z"/>
    <g fill-rule="nonzero">
      <path fill="#AFB8C1" d="M4 418h52.105v56H4z"/>
      <path fill="#919BA5" d="M60.968 418h52.039v56H60.968z"/>
      <path fill="#7D8793" d="M117.907 418h52.037v56h-52.038z"/>
      <path fill="#AFB8C1" d="M4 507h52.105v56H4z"/>
      <path fill="#919BA5" d="M60.968 507h52.039v56H60.968z"/>
      <path fill="#7D8793" d="M117.907 507h52.037v56h-52.038z"/>
    </g>
    <text fill="#555" font-family="PTSans-Bold, PT Sans" font-size="17" font-weight="bold" transform="translate(2 4)">
      <tspan x="3" y="407">space-between</tspan>
    </text>
    <text fill="#555" font-family="PTSans-Bold, PT Sans" font-size="17" font-weight="bold" transform="translate(2 4)">
      <tspan x="215" y="225">stretch</tspan>
    </text>
    <text fill="#555" font-family="PTSans-Bold, PT Sans" font-size="17" font-weight="bold" transform="translate(2 4)">
      <tspan x="2" y="225">center</tspan>
    </text>
    <path d="M214 418h200v145H214z" fill-rule="nonzero" fill="#E0E7EE"/>
    <text fill="#555" font-family="PTSans-Bold, PT Sans" font-size="17" font-weight="bold" transform="translate(2 4)">
      <tspan x="212" y="404">space-around</tspan>
    </text>
    <text font-family="PTSans-Bold, PT Sans" font-size="17" font-weight="bold" fill="#555" transform="translate(2 4)">
      <tspan x="0" y="15">align-content</tspan>
    </text>
    <g fill-rule="nonzero">
      <path fill="#E0E7EE" d="M86 602h241v145H86z"/>
      <path fill="#AFB8C1" d="M86 614h62.84v56H86z"/>
      <path fill="#919BA5" d="M156 614h62.76v56H156z"/>
      <path fill="#7D8793" d="M227.001 614h62.759v56H227z"/>
      <path fill="#AFB8C1" d="M86 680h62.84v56H86z"/>
      <path fill="#919BA5" d="M156 680h62.76v56H156z"/>
      <path fill="#7D8793" d="M227.001 680h62.759v56H227z"/>
    </g>
    <text fill="#555" font-family="PTSans-Bold, PT Sans" font-size="17" font-weight="bold" transform="translate(2 4)">
      <tspan x="84" y="590">space-evenly</tspan>
    </text>
    <path fill="#AFB8C1" fill-rule="nonzero" d="M214 429h52.89v56H214z"/>
    <path fill="#919BA5" fill-rule="nonzero" d="M270.917 429h52.824v56h-52.824z"/>
    <path fill="#7D8793" fill-rule="nonzero" d="M328.677 429H381.5v56h-52.824z"/>
    <path fill="#AFB8C1" fill-rule="nonzero" d="M214 497h52.89v56H214z"/>
    <path fill="#919BA5" fill-rule="nonzero" d="M270.917 497h52.824v56h-52.824z"/>
    <path fill="#7D8793" fill-rule="nonzero" d="M328.677 497H381.5v56h-52.824z"/>
  </g>
</svg>
