<svg width="816" height="257" xmlns="http://www.w3.org/2000/svg">
  <g fill="none" fill-rule="evenodd">
    <path fill="#E0E7EE" fill-rule="nonzero" d="M0 29h240v80H0z"/>
    <path fill="#AFB8C1" fill-rule="nonzero" d="M.44 29h80.102v39H.44z"/>
    <path fill="#AFB8C1" fill-rule="nonzero" d="M0 29h80.102v56H0z"/>
    <path fill="#919BA5" fill-rule="nonzero" d="M80 29h80v26H80z"/>
    <path fill="#919BA5" fill-rule="nonzero" d="M79.56 29h80v39h-80z"/>
    <path d="M6.76 9.464a4.372 4.372 0 0 0-.568-.08 7.865 7.865 0 0 0-.696-.032c-.245 0-.443.037-.592.112a.8.8 0 0 0-.344.32 1.3 1.3 0 0 0-.152.52c-.021.208-.032.44-.032.696h1.2v1.76h-1.2V19h-2.08v-6.24H1.192V11h1.104v-.448c0-1.003.243-1.747.728-2.232.485-.485 1.32-.728 2.504-.728.245 0 .528.01.848.032.32.021.637.045.952.072.315.027.608.056.88.088.272.032.483.064.632.096v8.432c0 .373.048.645.144.816a.48.48 0 0 0 .448.256c.128 0 .253-.01.376-.032.123-.021.275-.07.456-.144l.24 1.632c-.17.085-.435.17-.792.256a4.702 4.702 0 0 1-1.096.128c-.608 0-1.07-.141-1.384-.424-.315-.283-.472-.75-.472-1.4V9.464zm11.129 8.848c-.32.256-.755.472-1.304.648a5.708 5.708 0 0 1-1.752.264c-1.29 0-2.235-.376-2.832-1.128-.597-.752-.896-1.784-.896-3.096 0-1.408.336-2.464 1.008-3.168.672-.704 1.616-1.056 2.832-1.056.405 0 .8.053 1.184.16.384.107.725.283 1.024.528.299.245.539.576.72.992.181.416.272.933.272 1.552 0 .224-.013.464-.04.72a9.399 9.399 0 0 1-.12.8h-4.8c.032.672.205 1.179.52 1.52.315.341.824.512 1.528.512.437 0 .83-.067 1.176-.2.347-.133.61-.27.792-.408l.688 1.36zm-2.976-5.872c-.544 0-.947.163-1.208.488-.261.325-.419.76-.472 1.304h2.976c.043-.576-.045-1.019-.264-1.328-.219-.31-.563-.464-1.032-.464zm6.265 2.464L18.778 11h2.48l1.04 1.712.448 1.12.48-1.12L24.314 11h2.256l-2.416 3.84L26.73 19h-2.416l-1.232-1.92-.48-1.184-.512 1.184L20.858 19h-2.272l2.592-4.096zm6.025-1.424h4.016v1.84h-4.016v-1.84zm9.209 3.312a.597.597 0 0 0-.272-.512 3.277 3.277 0 0 0-.672-.352c-.267-.107-.56-.216-.88-.328a3.306 3.306 0 0 1-.88-.464 2.541 2.541 0 0 1-.672-.752c-.182-.304-.272-.696-.272-1.176 0-.79.234-1.392.704-1.808.469-.416 1.146-.624 2.032-.624.608 0 1.157.064 1.648.192.49.128.874.272 1.152.432l-.464 1.504a10.606 10.606 0 0 0-.928-.304 4.116 4.116 0 0 0-1.136-.16c-.62 0-.928.24-.928.72 0 .192.09.347.272.464.18.117.405.227.672.328.266.101.56.21.88.328.32.117.613.27.88.456.266.187.49.43.672.728.18.299.272.683.272 1.152 0 .81-.26 1.448-.776 1.912-.518.464-1.294.696-2.328.696a5.685 5.685 0 0 1-1.592-.216c-.496-.144-.9-.312-1.208-.504l.576-1.552c.245.139.57.275.976.408.405.133.82.2 1.248.2.309 0 .557-.059.744-.176.186-.117.28-.315.28-.592zM39.108 11h1.104V9.496l2.08-.592V11h1.952v1.76h-1.952v3.072c0 .555.056.952.168 1.192.112.24.323.36.632.36.214 0 .398-.021.552-.064a3.84 3.84 0 0 0 .52-.192l.368 1.6a5.281 5.281 0 0 1-1.008.352 4.798 4.798 0 0 1-1.168.144c-.736 0-1.277-.19-1.624-.568-.346-.379-.52-1-.52-1.864V12.76h-1.104V11zm6.457.464a6.88 6.88 0 0 1 1.52-.456 9.796 9.796 0 0 1 1.84-.168c.555 0 1.019.067 1.392.2.374.133.67.323.888.568.219.245.374.539.464.88.091.341.136.725.136 1.152 0 .47-.016.941-.048 1.416s-.05.941-.056 1.4c-.005.459.008.904.04 1.336.032.432.112.84.24 1.224h-1.696l-.336-1.104h-.08c-.213.33-.509.616-.888.856-.378.24-.866.36-1.464.36-.373 0-.709-.056-1.008-.168a2.182 2.182 0 0 1-.768-.48 2.187 2.187 0 0 1-.496-.736 2.462 2.462 0 0 1-.176-.952c0-.49.11-.904.328-1.24.219-.336.534-.608.944-.816.411-.208.902-.352 1.472-.432a10.43 10.43 0 0 1 1.912-.072c.075-.597.032-1.027-.128-1.288-.16-.261-.517-.392-1.072-.392-.416 0-.856.043-1.32.128-.464.085-.845.197-1.144.336l-.496-1.552zm2.64 5.952c.416 0 .747-.093.992-.28.246-.187.427-.387.544-.6v-1.04a5.722 5.722 0 0 0-.952-.016c-.304.021-.573.07-.808.144-.21.06-.402.17-.56.32a.715.715 0 0 0-.208.528c0 .299.088.53.264.696.176.165.419.248.728.248zm9.85-4.464a2.71 2.71 0 0 0-.897-.176c-.373 0-.685.099-.936.296a1.43 1.43 0 0 0-.504.76V19h-2.08v-8h1.616l.24 1.056h.064c.182-.395.427-.699.736-.912.31-.213.672-.32 1.088-.32.278 0 .592.059.944.176l-.272 1.952h.001zM58.99 11h1.104V9.496l2.08-.592V11h1.952v1.76h-1.952v3.072c0 .555.056.952.168 1.192.112.24.323.36.632.36.213 0 .397-.021.552-.064a3.84 3.84 0 0 0 .52-.192l.368 1.6a5.281 5.281 0 0 1-1.008.352 4.798 4.798 0 0 1-1.168.144c-.736 0-1.277-.19-1.624-.568-.347-.379-.52-1-.52-1.864V12.76H58.99V11z" fill="#2B2B2B" fill-rule="nonzero"/>
    <path fill="#E0E7EE" fill-rule="nonzero" d="M279 29h240v80H279z"/>
    <path fill="#7D8793" fill-rule="nonzero" d="M439 29h80v80h-80z"/>
    <path d="M284.76 9.464a4.372 4.372 0 0 0-.568-.08 7.865 7.865 0 0 0-.696-.032c-.245 0-.443.037-.592.112a.8.8 0 0 0-.344.32 1.3 1.3 0 0 0-.152.52c-.021.208-.032.44-.032.696h1.2v1.76h-1.2V19h-2.08v-6.24h-1.104V11h1.104v-.448c0-1.003.243-1.747.728-2.232.485-.485 1.32-.728 2.504-.728.245 0 .528.01.848.032.32.021.637.045.952.072.315.027.608.056.88.088.272.032.483.064.632.096v8.432c0 .373.048.645.144.816a.48.48 0 0 0 .448.256c.128 0 .253-.01.376-.032.123-.021.275-.07.456-.144l.24 1.632c-.17.085-.435.17-.792.256a4.702 4.702 0 0 1-1.096.128c-.608 0-1.07-.141-1.384-.424-.315-.283-.472-.75-.472-1.4V9.464zm11.129 8.848c-.32.256-.755.472-1.304.648a5.708 5.708 0 0 1-1.752.264c-1.29 0-2.235-.376-2.832-1.128-.597-.752-.896-1.784-.896-3.096 0-1.408.336-2.464 1.008-3.168.672-.704 1.616-1.056 2.832-1.056.405 0 .8.053 1.184.16.384.107.725.283 1.024.528.299.245.539.576.72.992.181.416.272.933.272 1.552 0 .224-.013.464-.04.72a9.399 9.399 0 0 1-.12.8h-4.8c.032.672.205 1.179.52 1.52.315.341.824.512 1.528.512.437 0 .83-.067 1.176-.2.347-.133.61-.27.792-.408l.688 1.36zm-2.976-5.872c-.544 0-.947.163-1.208.488-.261.325-.419.76-.472 1.304h2.976c.043-.576-.045-1.019-.264-1.328-.219-.31-.563-.464-1.032-.464zm6.265 2.464l-2.4-3.904h2.48l1.04 1.712.448 1.12.48-1.12L302.314 11h2.256l-2.416 3.84L304.73 19h-2.416l-1.232-1.92-.48-1.184-.512 1.184-1.232 1.92h-2.272l2.592-4.096zm6.025-1.424h4.016v1.84h-4.016v-1.84zm12.297 4.832c-.32.256-.755.472-1.304.648a5.708 5.708 0 0 1-1.752.264c-1.291 0-2.235-.376-2.832-1.128-.598-.752-.896-1.784-.896-3.096 0-1.408.336-2.464 1.008-3.168.672-.704 1.616-1.056 2.832-1.056.405 0 .8.053 1.184.16.384.107.725.283 1.024.528.298.245.538.576.72.992.18.416.272.933.272 1.552 0 .224-.014.464-.04.72a9.399 9.399 0 0 1-.12.8h-4.8c.032.672.205 1.179.52 1.52.314.341.824.512 1.528.512.437 0 .829-.067 1.176-.2.346-.133.61-.27.792-.408l.688 1.36zm-2.976-5.872c-.544 0-.947.163-1.208.488-.262.325-.42.76-.472 1.304h2.976c.042-.576-.046-1.019-.264-1.328-.22-.31-.563-.464-1.032-.464zm9.688 6.56v-4.544c0-.65-.093-1.12-.28-1.408-.186-.288-.504-.432-.952-.432-.394 0-.728.115-1 .344a1.91 1.91 0 0 0-.584.856V19h-2.08v-8h1.648l.24 1.056h.064c.246-.341.571-.64.976-.896.406-.256.928-.384 1.568-.384.395 0 .747.053 1.056.16.31.107.571.283.784.528.214.245.374.579.48 1 .107.421.16.941.16 1.56V19h-2.08zm10.713-2.816c0 .448.006.896.016 1.344.011.448.059.944.144 1.488h-1.488l-.288-1.04h-.064c-.213.373-.52.675-.92.904-.4.23-.872.344-1.416.344-1.002 0-1.781-.33-2.336-.992-.554-.661-.832-1.696-.832-3.104 0-1.365.31-2.427.928-3.184.619-.757 1.526-1.136 2.72-1.136.331 0 .603.019.816.056.214.037.427.099.64.184V7.8h2.08v8.384zm-3.536 1.28c.406 0 .726-.099.96-.296.235-.197.4-.483.496-.856V12.92a1.587 1.587 0 0 0-.496-.264 2.337 2.337 0 0 0-.704-.088c-.586 0-1.026.197-1.32.592-.293.395-.44 1.072-.44 2.032 0 .683.12 1.232.36 1.648.24.416.622.624 1.144.624zm248.332 1.04a3.47 3.47 0 0 1-1.16.536 5.32 5.32 0 0 1-1.4.184c-.64 0-1.18-.101-1.624-.304a2.768 2.768 0 0 1-1.08-.856 3.53 3.53 0 0 1-.6-1.336 7.566 7.566 0 0 1-.184-1.728c0-1.355.304-2.397.912-3.128.608-.73 1.494-1.096 2.656-1.096.587 0 1.06.048 1.416.144.358.096.68.219.968.368l-.496 1.696a4.193 4.193 0 0 0-.728-.272 3.18 3.18 0 0 0-.824-.096c-.576 0-1.013.19-1.312.568-.298.379-.448.984-.448 1.816 0 .341.038.656.112.944.075.288.187.539.336.752.15.213.344.381.584.504s.52.184.84.184c.352 0 .651-.045.896-.136.246-.09.464-.2.656-.328l.48 1.584zm7.481-.192c-.32.256-.754.472-1.304.648a5.708 5.708 0 0 1-1.752.264c-1.29 0-2.234-.376-2.832-1.128-.597-.752-.896-1.784-.896-3.096 0-1.408.336-2.464 1.008-3.168.672-.704 1.616-1.056 2.832-1.056.406 0 .8.053 1.184.16a2.76 2.76 0 0 1 1.024.528c.299.245.539.576.72.992.182.416.272.933.272 1.552 0 .224-.013.464-.04.72a9.399 9.399 0 0 1-.12.8h-4.8c.032.672.206 1.179.52 1.52.315.341.824.512 1.528.512.438 0 .83-.067 1.176-.2.347-.133.611-.27.792-.408l.688 1.36zm-2.976-5.872c-.544 0-.946.163-1.208.488-.261.325-.418.76-.472 1.304h2.976c.043-.576-.045-1.019-.264-1.328-.218-.31-.562-.464-1.032-.464zm9.69 6.56v-4.544c0-.65-.094-1.12-.28-1.408-.187-.288-.505-.432-.953-.432-.394 0-.728.115-1 .344a1.91 1.91 0 0 0-.584.856V19h-2.08v-8h1.648l.24 1.056h.064c.246-.341.57-.64.976-.896s.928-.384 1.568-.384c.395 0 .747.053 1.056.16.31.107.57.283.784.528.214.245.374.579.48 1 .107.421.16.941.16 1.56V19h-2.08.001zm3.08-8h1.104V9.496l2.08-.592V11h1.952v1.76h-1.952v3.072c0 .555.056.952.168 1.192.112.24.323.36.632.36.213 0 .397-.021.552-.064a3.84 3.84 0 0 0 .52-.192l.368 1.6a5.281 5.281 0 0 1-1.008.352 4.798 4.798 0 0 1-1.168.144c-.736 0-1.277-.19-1.624-.568-.347-.379-.52-1-.52-1.864V12.76h-1.104V11zm12.825 7.312c-.32.256-.755.472-1.304.648a5.708 5.708 0 0 1-1.752.264c-1.29 0-2.235-.376-2.832-1.128-.597-.752-.896-1.784-.896-3.096 0-1.408.336-2.464 1.008-3.168.672-.704 1.616-1.056 2.832-1.056.405 0 .8.053 1.184.16.384.107.725.283 1.024.528.299.245.539.576.72.992.181.416.272.933.272 1.552 0 .224-.013.464-.04.72a9.399 9.399 0 0 1-.12.8h-4.8c.032.672.205 1.179.52 1.52.315.341.824.512 1.528.512.437 0 .83-.067 1.176-.2.347-.133.61-.27.792-.408l.688 1.36zm-2.976-5.872c-.544 0-.947.163-1.208.488-.261.325-.419.76-.472 1.304h2.976c.043-.576-.045-1.019-.264-1.328-.219-.31-.563-.464-1.032-.464zm9.209.512a2.71 2.71 0 0 0-.896-.176c-.373 0-.685.099-.936.296-.25.197-.419.45-.504.76V19h-2.08v-8h1.616l.24 1.056h.064c.181-.395.427-.699.736-.912.31-.213.672-.32 1.088-.32.277 0 .592.059.944.176l-.272 1.952z" fill="#2B2B2B" fill-rule="nonzero"/>
    <path d="M458.912 146.8h2.08v3.84h.064a2.34 2.34 0 0 1 .864-.608c.352-.15.741-.224 1.168-.224.96 0 1.693.328 2.2.984.507.656.76 1.656.76 3 0 1.44-.355 2.533-1.064 3.28-.71.747-1.683 1.12-2.92 1.12a9.654 9.654 0 0 1-1.872-.168c-.565-.112-.992-.237-1.28-.376V146.8zm3.568 4.768c-.384 0-.696.099-.936.296-.24.197-.424.483-.552.856v3.488c.17.085.355.144.552.176.197.032.408.048.632.048.565 0 .995-.205 1.288-.616.293-.41.44-1.064.44-1.96 0-1.525-.475-2.288-1.424-2.288zm5.316-1.104a6.844 6.844 0 0 1 1.52-.456 9.796 9.796 0 0 1 1.84-.168c.554 0 1.018.067 1.392.2.373.133.669.323.888.568.218.245.373.539.464.88.09.341.136.725.136 1.152 0 .47-.016.941-.048 1.416s-.051.941-.056 1.4c-.006.459.008.904.04 1.336.032.432.112.84.24 1.224h-1.696l-.336-1.104h-.08a2.87 2.87 0 0 1-.888.856c-.38.24-.867.36-1.464.36-.374 0-.71-.056-1.008-.168a2.182 2.182 0 0 1-.768-.48 2.187 2.187 0 0 1-.496-.736 2.462 2.462 0 0 1-.176-.952c0-.49.109-.904.328-1.24.218-.336.533-.608.944-.816.41-.208.9-.352 1.472-.432a10.43 10.43 0 0 1 1.912-.072c.074-.597.032-1.027-.128-1.288-.16-.261-.518-.392-1.072-.392-.416 0-.856.043-1.32.128-.464.085-.846.197-1.144.336l-.496-1.552zm2.64 5.952c.416 0 .746-.093.992-.28.245-.187.426-.387.544-.6v-1.04a5.722 5.722 0 0 0-.952-.016c-.304.021-.574.07-.808.144a1.358 1.358 0 0 0-.56.32.715.715 0 0 0-.208.528c0 .299.088.53.264.696.176.165.418.248.728.248zm9.011-.624a.597.597 0 0 0-.272-.512 3.277 3.277 0 0 0-.672-.352c-.267-.107-.56-.216-.88-.328a3.306 3.306 0 0 1-.88-.464 2.541 2.541 0 0 1-.672-.752c-.181-.304-.272-.696-.272-1.176 0-.79.235-1.392.704-1.808.47-.416 1.147-.624 2.032-.624.608 0 1.157.064 1.648.192.49.128.875.272 1.152.432l-.464 1.504a10.606 10.606 0 0 0-.928-.304 4.116 4.116 0 0 0-1.136-.16c-.619 0-.928.24-.928.72 0 .192.09.347.272.464.181.117.405.227.672.328s.56.21.88.328c.32.117.613.27.88.456.267.187.49.43.672.728.181.299.272.683.272 1.152 0 .81-.259 1.448-.776 1.912-.517.464-1.293.696-2.328.696a5.685 5.685 0 0 1-1.592-.216c-.496-.144-.899-.312-1.208-.504l.576-1.552c.245.139.57.275.976.408.405.133.821.2 1.248.2.31 0 .557-.059.744-.176.187-.117.28-.315.28-.592zm10.196 1.52c-.32.256-.755.472-1.304.648a5.708 5.708 0 0 1-1.752.264c-1.291 0-2.235-.376-2.832-1.128-.598-.752-.896-1.784-.896-3.096 0-1.408.336-2.464 1.008-3.168.672-.704 1.616-1.056 2.832-1.056.405 0 .8.053 1.184.16.384.107.725.283 1.024.528.298.245.538.576.72.992.181.416.272.933.272 1.552 0 .224-.014.464-.04.72a9.399 9.399 0 0 1-.12.8h-4.8c.032.672.205 1.179.52 1.52.314.341.824.512 1.528.512.437 0 .829-.067 1.176-.2.346-.133.61-.27.792-.408l.688 1.36zm-2.976-5.872c-.544 0-.947.163-1.208.488-.262.325-.419.76-.472 1.304h2.976c.042-.576-.046-1.019-.264-1.328-.219-.31-.563-.464-1.032-.464zm7.203 3.872c0 .373.048.645.144.816.096.17.25.256.464.256.128 0 .254-.01.376-.032.123-.021.275-.07.456-.144l.224 1.632c-.17.085-.432.17-.784.256a4.602 4.602 0 0 1-1.088.128c-.608 0-1.072-.141-1.392-.424-.32-.283-.48-.75-.48-1.4v-9.6h2.08v8.512zm3.108-5.312h2.08v8h-2.08v-8zm-.304-2.256c0-.31.114-.573.344-.792.23-.219.546-.328.952-.328.405 0 .733.11.984.328.25.219.376.483.376.792a.97.97 0 0 1-.376.776c-.25.208-.579.312-.984.312-.406 0-.723-.104-.952-.312a1.005 1.005 0 0 1-.344-.776zM506.34 158v-4.544c0-.65-.093-1.12-.28-1.408-.186-.288-.504-.432-.952-.432-.394 0-.728.115-1 .344a1.91 1.91 0 0 0-.584.856V158h-2.08v-8h1.648l.24 1.056h.064c.246-.341.571-.64.976-.896.406-.256.928-.384 1.568-.384.395 0 .747.053 1.056.16.31.107.571.283.784.528.214.245.374.579.48 1 .107.421.16.941.16 1.56V158h-2.08zm10.58-.688c-.32.256-.755.472-1.304.648a5.708 5.708 0 0 1-1.752.264c-1.29 0-2.235-.376-2.832-1.128-.597-.752-.896-1.784-.896-3.096 0-1.408.336-2.464 1.008-3.168.672-.704 1.616-1.056 2.832-1.056.405 0 .8.053 1.184.16.384.107.725.283 1.024.528.299.245.539.576.72.992.181.416.272.933.272 1.552 0 .224-.013.464-.04.72a9.399 9.399 0 0 1-.12.8h-4.8c.032.672.205 1.179.52 1.52.315.341.824.512 1.528.512.437 0 .83-.067 1.176-.2.347-.133.61-.27.792-.408l.688 1.36zm-2.976-5.872c-.544 0-.947.163-1.208.488-.261.325-.419.76-.472 1.304h2.976c.043-.576-.045-1.019-.264-1.328-.219-.31-.563-.464-1.032-.464z" fill="#202020"/>
    <path d="M145.224 151.792a.597.597 0 0 0-.272-.512 3.277 3.277 0 0 0-.672-.352c-.267-.107-.56-.216-.88-.328a3.306 3.306 0 0 1-.88-.464 2.541 2.541 0 0 1-.672-.752c-.181-.304-.272-.696-.272-1.176 0-.79.235-1.392.704-1.808.47-.416 1.147-.624 2.032-.624.608 0 1.157.064 1.648.192.49.128.875.272 1.152.432l-.464 1.504a10.606 10.606 0 0 0-.928-.304 4.116 4.116 0 0 0-1.136-.16c-.619 0-.928.24-.928.72 0 .192.09.347.272.464.181.117.405.227.672.328s.56.21.88.328c.32.117.613.27.88.456.267.187.49.43.672.728.181.299.272.683.272 1.152 0 .81-.259 1.448-.776 1.912-.517.464-1.293.696-2.328.696a5.685 5.685 0 0 1-1.592-.216c-.496-.144-.899-.312-1.208-.504l.576-1.552c.245.139.57.275.976.408.405.133.821.2 1.248.2.31 0 .557-.059.744-.176.187-.117.28-.315.28-.592zm2.697-5.792h1.104v-1.504l2.08-.592V146h1.952v1.76h-1.952v3.072c0 .555.056.952.168 1.192.112.24.323.36.632.36.213 0 .397-.021.552-.064a3.84 3.84 0 0 0 .52-.192l.368 1.6a5.281 5.281 0 0 1-1.008.352 4.798 4.798 0 0 1-1.168.144c-.736 0-1.277-.19-1.624-.568-.347-.379-.52-1-.52-1.864v-4.032h-1.104V146zm10.92 1.952a2.71 2.71 0 0 0-.895-.176c-.374 0-.686.099-.936.296-.25.197-.419.45-.504.76V154h-2.08v-8h1.616l.24 1.056h.064c.181-.395.426-.699.736-.912.31-.213.672-.32 1.088-.32.277 0 .592.059.944.176l-.272 1.952h-.001zm7.69 5.36c-.32.256-.755.472-1.304.648a5.708 5.708 0 0 1-1.752.264c-1.291 0-2.235-.376-2.832-1.128-.598-.752-.896-1.784-.896-3.096 0-1.408.336-2.464 1.008-3.168.672-.704 1.616-1.056 2.832-1.056.405 0 .8.053 1.184.16.384.107.725.283 1.024.528.298.245.538.576.72.992.181.416.272.933.272 1.552 0 .224-.014.464-.04.72a9.399 9.399 0 0 1-.12.8h-4.8c.032.672.205 1.179.52 1.52.314.341.824.512 1.528.512.437 0 .829-.067 1.176-.2.346-.133.61-.27.792-.408l.688 1.36zm-2.976-5.872c-.544 0-.947.163-1.208.488-.262.325-.419.76-.472 1.304h2.976c.042-.576-.046-1.019-.264-1.328-.219-.31-.563-.464-1.032-.464zm3.96-1.44h1.105v-1.504l2.08-.592V146h1.952v1.76H170.7v3.072c0 .555.056.952.168 1.192.112.24.322.36.632.36.213 0 .397-.021.552-.064a3.89 3.89 0 0 0 .52-.192l.368 1.6a5.281 5.281 0 0 1-1.008.352 4.798 4.798 0 0 1-1.168.144c-.736 0-1.278-.19-1.624-.568-.347-.379-.52-1-.52-1.864v-4.032h-1.104V146h-.001zm12.09 7.504a3.48 3.48 0 0 1-1.16.536c-.454.123-.92.184-1.4.184-.64 0-1.182-.101-1.625-.304a2.768 2.768 0 0 1-1.08-.856 3.53 3.53 0 0 1-.6-1.336 7.566 7.566 0 0 1-.184-1.728c0-1.355.304-2.397.912-3.128.608-.73 1.494-1.096 2.656-1.096.587 0 1.06.048 1.416.144.358.096.68.219.968.368l-.496 1.696a4.193 4.193 0 0 0-.728-.272 3.18 3.18 0 0 0-.824-.096c-.576 0-1.013.19-1.312.568-.298.379-.448.984-.448 1.816 0 .341.038.656.112.944.075.288.187.539.336.752.15.213.344.381.584.504s.52.184.84.184c.352 0 .651-.045.896-.136.246-.09.464-.2.656-.328l.48 1.584h.001zm6.248.496v-4.544c0-.65-.09-1.12-.272-1.408-.181-.288-.512-.432-.992-.432-.352 0-.674.12-.968.36a1.71 1.71 0 0 0-.584.92V154h-2.08v-11.2h2.08v4.096h.064c.256-.341.571-.613.944-.816.374-.203.848-.304 1.424-.304.406 0 .763.053 1.072.16.31.107.568.283.776.528.208.245.363.579.464 1 .102.421.152.941.152 1.56V154h-2.08z" fill-rule="nonzero" fill="#2B2B2B"/>
    <path fill="#AFB8C1" fill-rule="nonzero" d="M279 53h80.102v56H279z"/>
    <path fill="#919BA5" fill-rule="nonzero" d="M359 70h80v39h-80z"/>
    <path fill="#E0E7EE" fill-rule="nonzero" d="M141 174h240v80H141z"/>
    <path fill="#7D8793" fill-rule="nonzero" d="M301 174h80v80h-80z"/>
    <path fill="#AFB8C1" fill-rule="nonzero" d="M141 174h80.102v80H141z"/>
    <path fill="#919BA5" fill-rule="nonzero" d="M221 174h80v80h-80z"/>
    <path fill="#E0E7EE" fill-rule="nonzero" d="M574 29h240v80H574z"/>
    <path fill="#7D8793" fill-rule="nonzero" d="M734 29h80v79h-80z"/>
    <path fill="#AFB8C1" fill-rule="nonzero" d="M574 40h80.102v56H574z"/>
    <path fill="#919BA5" fill-rule="nonzero" d="M654 52h80v39h-80z"/>
    <path fill="#E0E7EE" fill-rule="nonzero" d="M458 174h240v80H458z"/>
    <path fill="#7D8793" fill-rule="nonzero" d="M618 174h80v79h-80z"/>
    <path fill="#AFB8C1" fill-rule="nonzero" d="M458 175h80.102v56H458z"/>
    <path fill="#919BA5" fill-rule="nonzero" d="M538 177h80v39h-80z"/>
    <path d="M487.912 187.8h2.08v3.84h.064a2.34 2.34 0 0 1 .864-.608c.352-.15.741-.224 1.168-.224.96 0 1.693.328 2.2.984.507.656.76 1.656.76 3 0 1.44-.355 2.533-1.064 3.28-.71.747-1.683 1.12-2.92 1.12a9.654 9.654 0 0 1-1.872-.168c-.565-.112-.992-.237-1.28-.376V187.8zm3.568 4.768c-.384 0-.696.099-.936.296-.24.197-.424.483-.552.856v3.488c.17.085.355.144.552.176.197.032.408.048.632.048.565 0 .995-.205 1.288-.616.293-.41.44-1.064.44-1.96 0-1.525-.475-2.288-1.424-2.288zm5.316-1.104a6.844 6.844 0 0 1 1.52-.456 9.796 9.796 0 0 1 1.84-.168c.554 0 1.018.067 1.392.2.373.133.669.323.888.568.218.245.373.539.464.88.09.341.136.725.136 1.152 0 .47-.016.941-.048 1.416s-.051.941-.056 1.4c-.006.459.008.904.04 1.336.032.432.112.84.24 1.224h-1.696l-.336-1.104h-.08a2.87 2.87 0 0 1-.888.856c-.38.24-.867.36-1.464.36-.374 0-.71-.056-1.008-.168a2.182 2.182 0 0 1-.768-.48 2.187 2.187 0 0 1-.496-.736 2.462 2.462 0 0 1-.176-.952c0-.49.109-.904.328-1.24.218-.336.533-.608.944-.816.41-.208.9-.352 1.472-.432a10.43 10.43 0 0 1 1.912-.072c.074-.597.032-1.027-.128-1.288-.16-.261-.518-.392-1.072-.392-.416 0-.856.043-1.32.128-.464.085-.846.197-1.144.336l-.496-1.552zm2.64 5.952c.416 0 .746-.093.992-.28.245-.187.426-.387.544-.6v-1.04a5.722 5.722 0 0 0-.952-.016c-.304.021-.574.07-.808.144a1.358 1.358 0 0 0-.56.32.715.715 0 0 0-.208.528c0 .299.088.53.264.696.176.165.418.248.728.248zm75.064-.624a.597.597 0 0 0-.272-.512 3.277 3.277 0 0 0-.672-.352c-.266-.107-.56-.216-.88-.328a3.306 3.306 0 0 1-.88-.464 2.541 2.541 0 0 1-.672-.752c-.18-.304-.272-.696-.272-1.176 0-.79.235-1.392.704-1.808.47-.416 1.147-.624 2.032-.624a6.53 6.53 0 0 1 1.648.192c.491.128.875.272 1.152.432l-.464 1.504a10.606 10.606 0 0 0-.928-.304 4.116 4.116 0 0 0-1.136-.16c-.618 0-.928.24-.928.72 0 .192.091.347.272.464.182.117.406.227.672.328.267.101.56.21.88.328.32.117.614.27.88.456.267.187.491.43.672.728.182.299.272.683.272 1.152 0 .81-.258 1.448-.776 1.912-.517.464-1.293.696-2.328.696a5.685 5.685 0 0 1-1.592-.216c-.496-.144-.898-.312-1.208-.504l.576-1.552c.246.139.571.275.976.408.406.133.822.2 1.248.2.31 0 .558-.059.744-.176.187-.117.28-.315.28-.592zm10.196 1.52c-.32.256-.755.472-1.304.648a5.708 5.708 0 0 1-1.752.264c-1.29 0-2.235-.376-2.832-1.128-.597-.752-.896-1.784-.896-3.096 0-1.408.336-2.464 1.008-3.168.672-.704 1.616-1.056 2.832-1.056.405 0 .8.053 1.184.16.384.107.725.283 1.024.528.299.245.539.576.72.992.181.416.272.933.272 1.552 0 .224-.013.464-.04.72a9.399 9.399 0 0 1-.12.8h-4.8c.032.672.205 1.179.52 1.52.315.341.824.512 1.528.512.437 0 .83-.067 1.176-.2.347-.133.61-.27.792-.408l.688 1.36zm-2.976-5.872c-.544 0-.947.163-1.208.488-.261.325-.419.76-.472 1.304h2.976c.043-.576-.045-1.019-.264-1.328-.219-.31-.563-.464-1.032-.464zm64.45 3.872c0 .373.048.645.144.816.096.17.25.256.464.256.128 0 .253-.01.376-.032.122-.021.274-.07.456-.144l.224 1.632c-.17.085-.432.17-.784.256a4.602 4.602 0 0 1-1.088.128c-.608 0-1.072-.141-1.392-.424-.32-.283-.48-.75-.48-1.4v-9.6h2.08v8.512zm3.107-5.312h2.08v8h-2.08v-8zm-.304-2.256c0-.31.115-.573.344-.792.23-.219.547-.328.952-.328.406 0 .734.11.984.328.251.219.376.483.376.792a.97.97 0 0 1-.376.776c-.25.208-.578.312-.984.312-.405 0-.722-.104-.952-.312a1.005 1.005 0 0 1-.344-.776zM658.641 199v-4.544c0-.65-.093-1.12-.28-1.408-.187-.288-.504-.432-.952-.432-.395 0-.728.115-1 .344a1.91 1.91 0 0 0-.584.856V199h-2.08v-8h1.648l.24 1.056h.064c.245-.341.57-.64.976-.896.405-.256.928-.384 1.568-.384.395 0 .747.053 1.056.16.31.107.57.283.784.528.213.245.373.579.48 1 .107.421.16.941.16 1.56V199h-2.08zm10.58-.688c-.32.256-.755.472-1.305.648a5.708 5.708 0 0 1-1.752.264c-1.29 0-2.234-.376-2.832-1.128-.597-.752-.896-1.784-.896-3.096 0-1.408.336-2.464 1.008-3.168.672-.704 1.616-1.056 2.832-1.056.406 0 .8.053 1.184.16a2.76 2.76 0 0 1 1.024.528c.3.245.54.576.72.992.182.416.272.933.272 1.552 0 .224-.013.464-.04.72a9.399 9.399 0 0 1-.12.8h-4.8c.032.672.206 1.179.52 1.52.315.341.824.512 1.528.512.438 0 .83-.067 1.176-.2.347-.133.611-.27.792-.408l.688 1.36zm-2.977-5.872c-.544 0-.946.163-1.208.488-.26.325-.418.76-.472 1.304h2.976c.043-.576-.045-1.019-.264-1.328-.218-.31-.562-.464-1.032-.464z" fill="#DCD4D4"/>
    <path fill="#7D8793" fill-rule="nonzero" d="M159.56 29h80v80h-80z"/>
  </g>
</svg>
