<svg width="845" height="333" xmlns="http://www.w3.org/2000/svg">
  <g fill="none" fill-rule="evenodd">
    <path fill="#E0E7EE" d="M2 29h252v130H2z"/>
    <path fill="#AFB8C1" d="M1.44 29h252v26h-252z"/>
    <path fill="#919BA5" d="M1.44 55h252v26h-252z"/>
    <path fill="#7D8793" d="M1.44 81h252v26h-252z"/>
    <path d="M7.76 9.464a4.372 4.372 0 0 0-.568-.08 7.865 7.865 0 0 0-.696-.032c-.245 0-.443.037-.592.112a.8.8 0 0 0-.344.32 1.3 1.3 0 0 0-.152.52c-.021.208-.032.44-.032.696h1.2v1.76h-1.2V19h-2.08v-6.24H2.192V11h1.104v-.448c0-1.003.243-1.747.728-2.232.485-.485 1.32-.728 2.504-.728.245 0 .528.01.848.032.32.021.637.045.952.072.315.027.608.056.88.088.272.032.483.064.632.096v8.432c0 .373.048.645.144.816a.48.48 0 0 0 .448.256c.128 0 .253-.01.376-.032.123-.021.275-.07.456-.144l.24 1.632c-.17.085-.435.17-.792.256a4.702 4.702 0 0 1-1.096.128c-.608 0-1.07-.141-1.384-.424-.315-.283-.472-.75-.472-1.4V9.464zm11.129 8.848c-.32.256-.755.472-1.304.648a5.708 5.708 0 0 1-1.752.264c-1.29 0-2.235-.376-2.832-1.128-.597-.752-.896-1.784-.896-3.096 0-1.408.336-2.464 1.008-3.168.672-.704 1.616-1.056 2.832-1.056.405 0 .8.053 1.184.16.384.107.725.283 1.024.528.299.245.539.576.72.992.181.416.272.933.272 1.552 0 .224-.013.464-.04.72a9.399 9.399 0 0 1-.12.8h-4.8c.032.672.205 1.179.52 1.52.315.341.824.512 1.528.512.437 0 .83-.067 1.176-.2.347-.133.61-.27.792-.408l.688 1.36zm-2.976-5.872c-.544 0-.947.163-1.208.488-.261.325-.419.76-.472 1.304h2.976c.043-.576-.045-1.019-.264-1.328-.219-.31-.563-.464-1.032-.464zm6.265 2.464L19.778 11h2.48l1.04 1.712.448 1.12.48-1.12L25.314 11h2.256l-2.416 3.84L27.73 19h-2.416l-1.232-1.92-.48-1.184-.512 1.184L21.858 19h-2.272l2.592-4.096zm6.025-1.424h4.016v1.84h-4.016v-1.84zm9.209 3.312a.597.597 0 0 0-.272-.512 3.277 3.277 0 0 0-.672-.352c-.267-.107-.56-.216-.88-.328a3.306 3.306 0 0 1-.88-.464 2.541 2.541 0 0 1-.672-.752c-.182-.304-.272-.696-.272-1.176 0-.79.234-1.392.704-1.808.469-.416 1.146-.624 2.032-.624.608 0 1.157.064 1.648.192.49.128.874.272 1.152.432l-.464 1.504a10.606 10.606 0 0 0-.928-.304 4.116 4.116 0 0 0-1.136-.16c-.62 0-.928.24-.928.72 0 .192.09.347.272.464.18.117.405.227.672.328.266.101.56.21.88.328.32.117.613.27.88.456.266.187.49.43.672.728.18.299.272.683.272 1.152 0 .81-.26 1.448-.776 1.912-.518.464-1.294.696-2.328.696a5.685 5.685 0 0 1-1.592-.216c-.496-.144-.9-.312-1.208-.504l.576-1.552c.245.139.57.275.976.408.405.133.82.2 1.248.2.309 0 .557-.059.744-.176.186-.117.28-.315.28-.592zM40.108 11h1.104V9.496l2.08-.592V11h1.952v1.76h-1.952v3.072c0 .555.056.952.168 1.192.112.24.323.36.632.36.214 0 .398-.021.552-.064a3.84 3.84 0 0 0 .52-.192l.368 1.6a5.281 5.281 0 0 1-1.008.352 4.798 4.798 0 0 1-1.168.144c-.736 0-1.277-.19-1.624-.568-.346-.379-.52-1-.52-1.864V12.76h-1.104V11zm6.457.464a6.844 6.844 0 0 1 1.52-.456 9.796 9.796 0 0 1 1.84-.168c.555 0 1.019.067 1.392.2.374.133.67.323.888.568.219.245.374.539.464.88.091.341.136.725.136 1.152 0 .47-.016.941-.048 1.416s-.05.941-.056 1.4c-.005.459.008.904.04 1.336.032.432.112.84.24 1.224h-1.696l-.336-1.104h-.08c-.213.33-.509.616-.888.856-.378.24-.866.36-1.464.36-.373 0-.709-.056-1.008-.168a2.182 2.182 0 0 1-.768-.48 2.187 2.187 0 0 1-.496-.736 2.462 2.462 0 0 1-.176-.952c0-.49.11-.904.328-1.24.219-.336.534-.608.944-.816.411-.208.902-.352 1.472-.432a10.43 10.43 0 0 1 1.912-.072c.075-.597.032-1.027-.128-1.288-.16-.261-.517-.392-1.072-.392-.416 0-.856.043-1.32.128-.464.085-.845.197-1.144.336l-.496-1.552zm2.64 5.952c.416 0 .747-.093.992-.28.246-.187.427-.387.544-.6v-1.04a5.722 5.722 0 0 0-.952-.016c-.304.021-.573.07-.808.144a1.358 1.358 0 0 0-.56.32.715.715 0 0 0-.208.528c0 .299.088.53.264.696.176.165.419.248.728.248zm9.85-4.464a2.71 2.71 0 0 0-.897-.176c-.373 0-.685.099-.936.296a1.43 1.43 0 0 0-.504.76V19h-2.08v-8h1.616l.24 1.056h.064c.182-.395.427-.699.736-.912.31-.213.672-.32 1.088-.32.278 0 .592.059.944.176l-.272 1.952zM59.99 11h1.104V9.496l2.08-.592V11h1.952v1.76h-1.952v3.072c0 .555.056.952.168 1.192.112.24.323.36.632.36.213 0 .397-.021.552-.064a3.84 3.84 0 0 0 .52-.192l.368 1.6a5.281 5.281 0 0 1-1.008.352 4.798 4.798 0 0 1-1.168.144c-.736 0-1.277-.19-1.624-.568-.347-.379-.52-1-.52-1.864V12.76H59.99V11z" fill="#2B2B2B"/>
    <path fill="#E0E7EE" d="M300 29h252v130H300z"/>
    <path fill="#AFB8C1" d="M300 80h252v26H300z"/>
    <path fill="#919BA5" d="M300 106h252v26H300z"/>
    <path fill="#7D8793" d="M300 132h252v26H300z"/>
    <path d="M305.76 9.464a4.372 4.372 0 0 0-.568-.08 7.865 7.865 0 0 0-.696-.032c-.245 0-.443.037-.592.112a.8.8 0 0 0-.344.32 1.3 1.3 0 0 0-.152.52c-.021.208-.032.44-.032.696h1.2v1.76h-1.2V19h-2.08v-6.24h-1.104V11h1.104v-.448c0-1.003.243-1.747.728-2.232.485-.485 1.32-.728 2.504-.728.245 0 .528.01.848.032.32.021.637.045.952.072.315.027.608.056.88.088.272.032.483.064.632.096v8.432c0 .373.048.645.144.816a.48.48 0 0 0 .448.256c.128 0 .253-.01.376-.032.123-.021.275-.07.456-.144l.24 1.632c-.17.085-.435.17-.792.256a4.702 4.702 0 0 1-1.096.128c-.608 0-1.07-.141-1.384-.424-.315-.283-.472-.75-.472-1.4V9.464zm11.129 8.848c-.32.256-.755.472-1.304.648a5.708 5.708 0 0 1-1.752.264c-1.29 0-2.235-.376-2.832-1.128-.597-.752-.896-1.784-.896-3.096 0-1.408.336-2.464 1.008-3.168.672-.704 1.616-1.056 2.832-1.056.405 0 .8.053 1.184.16.384.107.725.283 1.024.528.299.245.539.576.72.992.181.416.272.933.272 1.552 0 .224-.013.464-.04.72a9.399 9.399 0 0 1-.12.8h-4.8c.032.672.205 1.179.52 1.52.315.341.824.512 1.528.512.437 0 .83-.067 1.176-.2.347-.133.61-.27.792-.408l.688 1.36zm-2.976-5.872c-.544 0-.947.163-1.208.488-.261.325-.419.76-.472 1.304h2.976c.043-.576-.045-1.019-.264-1.328-.219-.31-.563-.464-1.032-.464zm6.265 2.464l-2.4-3.904h2.48l1.04 1.712.448 1.12.48-1.12L323.314 11h2.256l-2.416 3.84L325.73 19h-2.416l-1.232-1.92-.48-1.184-.512 1.184-1.232 1.92h-2.272l2.592-4.096zm6.025-1.424h4.016v1.84h-4.016v-1.84zm12.297 4.832c-.32.256-.755.472-1.304.648a5.708 5.708 0 0 1-1.752.264c-1.291 0-2.235-.376-2.832-1.128-.598-.752-.896-1.784-.896-3.096 0-1.408.336-2.464 1.008-3.168.672-.704 1.616-1.056 2.832-1.056.405 0 .8.053 1.184.16.384.107.725.283 1.024.528.298.245.538.576.72.992.18.416.272.933.272 1.552 0 .224-.014.464-.04.72a9.399 9.399 0 0 1-.12.8h-4.8c.032.672.205 1.179.52 1.52.314.341.824.512 1.528.512.437 0 .829-.067 1.176-.2.346-.133.61-.27.792-.408l.688 1.36zm-2.976-5.872c-.544 0-.947.163-1.208.488-.262.325-.42.76-.472 1.304h2.976c.042-.576-.046-1.019-.264-1.328-.22-.31-.563-.464-1.032-.464zm9.688 6.56v-4.544c0-.65-.093-1.12-.28-1.408-.186-.288-.504-.432-.952-.432-.394 0-.728.115-1 .344a1.91 1.91 0 0 0-.584.856V19h-2.08v-8h1.648l.24 1.056h.064c.246-.341.571-.64.976-.896.406-.256.928-.384 1.568-.384.395 0 .747.053 1.056.16.31.107.571.283.784.528.214.245.374.579.48 1 .107.421.16.941.16 1.56V19h-2.08zm10.713-2.816c0 .448.006.896.016 1.344.011.448.059.944.144 1.488h-1.488l-.288-1.04h-.064c-.213.373-.52.675-.92.904-.4.23-.872.344-1.416.344-1.002 0-1.781-.33-2.336-.992-.554-.661-.832-1.696-.832-3.104 0-1.365.31-2.427.928-3.184.619-.757 1.526-1.136 2.72-1.136.331 0 .603.019.816.056.214.037.427.099.64.184V7.8h2.08v8.384zm-3.536 1.28c.406 0 .726-.099.96-.296.235-.197.4-.483.496-.856V12.92a1.587 1.587 0 0 0-.496-.264 2.337 2.337 0 0 0-.704-.088c-.586 0-1.026.197-1.32.592-.293.395-.44 1.072-.44 2.032 0 .683.12 1.232.36 1.648.24.416.622.624 1.144.624z" fill="#2B2B2B"/>
    <path fill="#E0E7EE" d="M593 29h252v130H593z"/>
    <path fill="#AFB8C1" d="M593 55h252v26H593z"/>
    <path fill="#919BA5" d="M593 81h252v26H593z"/>
    <path fill="#7D8793" d="M593 107h252v26H593z"/>
    <path d="M600.721 18.504a3.47 3.47 0 0 1-1.16.536 5.32 5.32 0 0 1-1.4.184c-.64 0-1.18-.101-1.624-.304a2.768 2.768 0 0 1-1.08-.856 3.53 3.53 0 0 1-.6-1.336 7.566 7.566 0 0 1-.184-1.728c0-1.355.304-2.397.912-3.128.608-.73 1.494-1.096 2.656-1.096.587 0 1.06.048 1.416.144.358.096.68.219.968.368l-.496 1.696a4.193 4.193 0 0 0-.728-.272 3.208 3.208 0 0 0-.824-.096c-.576 0-1.013.19-1.312.568-.298.379-.448.984-.448 1.816 0 .341.038.656.112.944.075.288.187.539.336.752.15.213.344.381.584.504s.52.184.84.184c.352 0 .651-.045.896-.136.246-.09.464-.2.656-.328l.48 1.584zm7.481-.192c-.32.256-.754.472-1.304.648a5.708 5.708 0 0 1-1.752.264c-1.29 0-2.234-.376-2.832-1.128-.597-.752-.896-1.784-.896-3.096 0-1.408.336-2.464 1.008-3.168.672-.704 1.616-1.056 2.832-1.056.406 0 .8.053 1.184.16a2.76 2.76 0 0 1 1.024.528c.299.245.539.576.72.992.182.416.272.933.272 1.552 0 .224-.013.464-.04.72a9.399 9.399 0 0 1-.12.8h-4.8c.032.672.206 1.179.52 1.52.315.341.824.512 1.528.512.438 0 .83-.067 1.176-.2.347-.133.611-.27.792-.408l.688 1.36zm-2.976-5.872c-.544 0-.946.163-1.208.488-.261.325-.418.76-.472 1.304h2.976c.043-.576-.045-1.019-.264-1.328-.218-.31-.562-.464-1.032-.464zm9.69 6.56v-4.544c0-.65-.094-1.12-.28-1.408-.187-.288-.505-.432-.953-.432-.394 0-.728.115-1 .344a1.91 1.91 0 0 0-.584.856V19h-2.08v-8h1.648l.24 1.056h.064c.246-.341.57-.64.976-.896s.928-.384 1.568-.384c.395 0 .747.053 1.056.16.31.107.57.283.784.528.214.245.374.579.48 1 .107.421.16.941.16 1.56V19h-2.08zm3.08-8h1.104V9.496l2.08-.592V11h1.952v1.76h-1.952v3.072c0 .555.056.952.168 1.192.112.24.323.36.632.36.213 0 .397-.021.552-.064a3.84 3.84 0 0 0 .52-.192l.368 1.6a5.281 5.281 0 0 1-1.008.352 4.798 4.798 0 0 1-1.168.144c-.736 0-1.277-.19-1.624-.568-.347-.379-.52-1-.52-1.864V12.76h-1.104V11zm12.825 7.312c-.32.256-.755.472-1.304.648a5.708 5.708 0 0 1-1.752.264c-1.29 0-2.235-.376-2.832-1.128-.597-.752-.896-1.784-.896-3.096 0-1.408.336-2.464 1.008-3.168.672-.704 1.616-1.056 2.832-1.056.405 0 .8.053 1.184.16.384.107.725.283 1.024.528.299.245.539.576.72.992.181.416.272.933.272 1.552 0 .224-.013.464-.04.72a9.399 9.399 0 0 1-.12.8h-4.8c.032.672.205 1.179.52 1.52.315.341.824.512 1.528.512.437 0 .83-.067 1.176-.2.347-.133.61-.27.792-.408l.688 1.36zm-2.976-5.872c-.544 0-.947.163-1.208.488-.261.325-.419.76-.472 1.304h2.976c.043-.576-.045-1.019-.264-1.328-.219-.31-.563-.464-1.032-.464zm9.209.512a2.71 2.71 0 0 0-.896-.176c-.373 0-.685.099-.936.296-.25.197-.419.45-.504.76V19h-2.08v-8h1.616l.24 1.056h.064c.181-.395.427-.699.736-.912.31-.213.672-.32 1.088-.32.277 0 .592.059.944.176l-.272 1.952z" fill="#2B2B2B"/>
    <path fill="#E0E7EE" d="M2 199h252v130H2z"/>
    <path fill="#AFB8C1" d="M2.44 199h252v26h-252z"/>
    <path fill="#919BA5" d="M2.145 251h252v26h-252z"/>
    <path fill="#7D8793" d="M1.44 302h252v26h-252z"/>
    <path d="M6.224 184.792a.597.597 0 0 0-.272-.512 3.277 3.277 0 0 0-.672-.352c-.267-.107-.56-.216-.88-.328a3.306 3.306 0 0 1-.88-.464 2.541 2.541 0 0 1-.672-.752c-.181-.304-.272-.696-.272-1.176 0-.79.235-1.392.704-1.808.47-.416 1.147-.624 2.032-.624.608 0 1.157.064 1.648.192.49.128.875.272 1.152.432l-.464 1.504a10.606 10.606 0 0 0-.928-.304 4.116 4.116 0 0 0-1.136-.16c-.619 0-.928.24-.928.72 0 .192.09.347.272.464.181.117.405.227.672.328s.56.21.88.328c.32.117.613.27.88.456.267.187.49.43.672.728.181.299.272.683.272 1.152 0 .81-.259 1.448-.776 1.912-.517.464-1.293.696-2.328.696a5.685 5.685 0 0 1-1.592-.216c-.496-.144-.899-.312-1.208-.504l.576-1.552c.245.139.57.275.976.408.405.133.821.2 1.248.2.31 0 .557-.059.744-.176.187-.117.28-.315.28-.592zM9.753 179h1.52l.24.96h.064c.277-.405.605-.704.984-.896.379-.192.84-.288 1.384-.288 1.003 0 1.755.317 2.256.952.501.635.752 1.656.752 3.064a6.6 6.6 0 0 1-.24 1.848 3.899 3.899 0 0 1-.712 1.4 3.111 3.111 0 0 1-1.152.88c-.453.203-.973.304-1.56.304a3.82 3.82 0 0 1-.816-.072 2.81 2.81 0 0 1-.64-.232v3.28h-2.08V179zm3.568 1.536c-.405 0-.723.101-.952.304-.23.203-.408.507-.536.912v3.328c.15.117.312.21.488.28.176.07.408.104.696.104.597 0 1.045-.21 1.344-.632.299-.421.448-1.117.448-2.088 0-.704-.117-1.248-.352-1.632-.235-.384-.613-.576-1.136-.576zm5.113-1.072a6.844 6.844 0 0 1 1.52-.456 9.796 9.796 0 0 1 1.84-.168c.554 0 1.018.067 1.392.2.373.133.67.323.888.568.218.245.373.539.464.88.09.341.136.725.136 1.152 0 .47-.016.941-.048 1.416s-.05.941-.056 1.4c-.006.459.008.904.04 1.336.032.432.112.84.24 1.224h-1.696l-.336-1.104h-.08a2.87 2.87 0 0 1-.888.856c-.379.24-.867.36-1.464.36-.374 0-.71-.056-1.008-.168a2.182 2.182 0 0 1-.768-.48 2.187 2.187 0 0 1-.496-.736 2.462 2.462 0 0 1-.176-.952c0-.49.11-.904.328-1.24.218-.336.533-.608.944-.816.41-.208.901-.352 1.472-.432a10.43 10.43 0 0 1 1.912-.072c.074-.597.032-1.027-.128-1.288-.16-.261-.518-.392-1.072-.392-.416 0-.856.043-1.32.128-.464.085-.846.197-1.144.336l-.496-1.552zm2.64 5.952c.416 0 .746-.093.992-.28.245-.187.426-.387.544-.6v-1.04a5.722 5.722 0 0 0-.952-.016c-.304.021-.574.07-.808.144a1.358 1.358 0 0 0-.56.32.715.715 0 0 0-.208.528c0 .299.088.53.264.696.176.165.418.248.728.248zm11.097 1.088a3.48 3.48 0 0 1-1.16.536c-.454.123-.92.184-1.4.184-.64 0-1.182-.101-1.624-.304a2.768 2.768 0 0 1-1.08-.856 3.53 3.53 0 0 1-.6-1.336 7.566 7.566 0 0 1-.184-1.728c0-1.355.304-2.397.912-3.128.608-.73 1.493-1.096 2.656-1.096.586 0 1.058.048 1.416.144.357.096.68.219.968.368l-.496 1.696a4.193 4.193 0 0 0-.728-.272 3.208 3.208 0 0 0-.824-.096c-.576 0-1.014.19-1.312.568-.299.379-.448.984-.448 1.816 0 .341.037.656.112.944.074.288.186.539.336.752.149.213.344.381.584.504s.52.184.84.184c.352 0 .65-.045.896-.136.245-.09.464-.2.656-.328l.48 1.584zm7.48-.192c-.32.256-.754.472-1.303.648a5.708 5.708 0 0 1-1.752.264c-1.291 0-2.235-.376-2.832-1.128-.598-.752-.896-1.784-.896-3.096 0-1.408.336-2.464 1.008-3.168.672-.704 1.616-1.056 2.832-1.056.405 0 .8.053 1.184.16.384.107.725.283 1.024.528.298.245.538.576.72.992.18.416.272.933.272 1.552 0 .224-.014.464-.04.72a9.399 9.399 0 0 1-.12.8h-4.8c.032.672.205 1.179.52 1.52.314.341.824.512 1.528.512.437 0 .829-.067 1.176-.2.346-.133.61-.27.792-.408l.688 1.36zm-2.975-5.872c-.544 0-.947.163-1.208.488-.262.325-.42.76-.472 1.304h2.976c.042-.576-.046-1.019-.264-1.328-.22-.31-.563-.464-1.032-.464zm4.744 1.04h4.016v1.84H41.42v-1.84zm5.897-5.68h2.08v3.84h.064a2.34 2.34 0 0 1 .864-.608c.352-.15.742-.224 1.168-.224.96 0 1.694.328 2.2.984.507.656.76 1.656.76 3 0 1.44-.354 2.533-1.064 3.28-.709.747-1.682 1.12-2.92 1.12a9.654 9.654 0 0 1-1.872-.168c-.565-.112-.992-.237-1.28-.376V175.8zm3.568 4.768c-.384 0-.696.099-.936.296-.24.197-.424.483-.552.856v3.488c.171.085.355.144.552.176.198.032.408.048.632.048.566 0 .995-.205 1.288-.616.294-.41.44-1.064.44-1.96 0-1.525-.474-2.288-1.424-2.288zm11.497 5.744c-.32.256-.754.472-1.304.648a5.708 5.708 0 0 1-1.752.264c-1.29 0-2.234-.376-2.832-1.128-.597-.752-.896-1.784-.896-3.096 0-1.408.336-2.464 1.008-3.168.672-.704 1.616-1.056 2.832-1.056.406 0 .8.053 1.184.16a2.76 2.76 0 0 1 1.024.528c.299.245.539.576.72.992.182.416.272.933.272 1.552 0 .224-.013.464-.04.72a9.399 9.399 0 0 1-.12.8h-4.8c.032.672.206 1.179.52 1.52.315.341.824.512 1.528.512.438 0 .83-.067 1.176-.2.347-.133.61-.27.792-.408l.688 1.36zm-2.976-5.872c-.544 0-.946.163-1.208.488-.261.325-.418.76-.472 1.304h2.976c.043-.576-.045-1.019-.264-1.328-.218-.31-.562-.464-1.032-.464zm3.961-1.44h1.104v-1.504l2.08-.592V179h1.952v1.76h-1.952v3.072c0 .555.056.952.168 1.192.112.24.323.36.632.36.213 0 .397-.021.552-.064a3.84 3.84 0 0 0 .52-.192l.368 1.6a5.281 5.281 0 0 1-1.008.352 4.798 4.798 0 0 1-1.168.144c-.736 0-1.277-.19-1.624-.568-.347-.379-.52-1-.52-1.864v-4.032h-1.104V179zm12.025 0l1.456 4.096.288 1.328h.064l.224-1.344 1.024-4.08h1.904l-2.464 8.08h-1.536l-1.616-4.48-.208-1.008h-.08l-.192 1.024-1.536 4.464h-1.584L68.56 179h2.256l1.168 4.016.192 1.424h.08l.272-1.44 1.328-4h1.536zm12.089 7.312c-.32.256-.755.472-1.304.648a5.708 5.708 0 0 1-1.752.264c-1.29 0-2.235-.376-2.832-1.128-.597-.752-.896-1.784-.896-3.096 0-1.408.336-2.464 1.008-3.168.672-.704 1.616-1.056 2.832-1.056.405 0 .8.053 1.184.16.384.107.725.283 1.024.528.299.245.539.576.72.992.181.416.272.933.272 1.552 0 .224-.013.464-.04.72a9.399 9.399 0 0 1-.12.8h-4.8c.032.672.205 1.179.52 1.52.315.341.824.512 1.528.512.437 0 .83-.067 1.176-.2.347-.133.61-.27.792-.408l.688 1.36zm-2.976-5.872c-.544 0-.947.163-1.208.488-.261.325-.419.76-.472 1.304H85.8c.043-.576-.045-1.019-.264-1.328-.219-.31-.563-.464-1.032-.464zm11.113 5.872c-.32.256-.755.472-1.304.648a5.708 5.708 0 0 1-1.752.264c-1.29 0-2.235-.376-2.832-1.128-.598-.752-.896-1.784-.896-3.096 0-1.408.336-2.464 1.008-3.168.672-.704 1.616-1.056 2.832-1.056.405 0 .8.053 1.184.16.384.107.725.283 1.024.528.298.245.538.576.72.992.181.416.272.933.272 1.552 0 .224-.014.464-.04.72a9.399 9.399 0 0 1-.12.8h-4.8c.032.672.205 1.179.52 1.52.314.341.824.512 1.528.512.437 0 .83-.067 1.176-.2s.61-.27.792-.408l.688 1.36zm-2.976-5.872c-.544 0-.947.163-1.208.488-.262.325-.419.76-.472 1.304h2.976c.042-.576-.046-1.019-.264-1.328-.219-.31-.563-.464-1.032-.464zm9.689 6.56v-4.544c0-.65-.094-1.12-.28-1.408-.187-.288-.504-.432-.952-.432-.395 0-.728.115-1 .344a1.91 1.91 0 0 0-.584.856V187h-2.08v-8h1.648l.24 1.056h.064c.245-.341.57-.64.976-.896.405-.256.928-.384 1.568-.384.394 0 .746.053 1.056.16.309.107.57.283.784.528.213.245.373.579.48 1 .106.421.16.941.16 1.56V187h-2.08z" fill="#2B2B2B"/>
    <path fill="#E0E7EE" d="M300 199h252v130H300z"/>
    <path fill="#AFB8C1" d="M300 213h252v26H300z"/>
    <path fill="#919BA5" d="M300 251h252v26H300z"/>
    <path fill="#7D8793" d="M300 288h252v26H300z"/>
    <path d="M304.224 183.792a.597.597 0 0 0-.272-.512 3.277 3.277 0 0 0-.672-.352c-.267-.107-.56-.216-.88-.328a3.306 3.306 0 0 1-.88-.464 2.541 2.541 0 0 1-.672-.752c-.181-.304-.272-.696-.272-1.176 0-.79.235-1.392.704-1.808.47-.416 1.147-.624 2.032-.624.608 0 1.157.064 1.648.192.49.128.875.272 1.152.432l-.464 1.504a10.606 10.606 0 0 0-.928-.304 4.116 4.116 0 0 0-1.136-.16c-.619 0-.928.24-.928.72 0 .192.09.347.272.464.181.117.405.227.672.328s.56.21.88.328c.32.117.613.27.88.456.267.187.49.43.672.728.181.299.272.683.272 1.152 0 .81-.259 1.448-.776 1.912-.517.464-1.293.696-2.328.696a5.685 5.685 0 0 1-1.592-.216c-.496-.144-.899-.312-1.208-.504l.576-1.552c.245.139.57.275.976.408.405.133.821.2 1.248.2.31 0 .557-.059.744-.176.187-.117.28-.315.28-.592zm3.529-5.792h1.52l.24.96h.064c.277-.405.605-.704.984-.896.379-.192.84-.288 1.384-.288 1.003 0 1.755.317 2.256.952.501.635.752 1.656.752 3.064a6.6 6.6 0 0 1-.24 1.848 3.899 3.899 0 0 1-.712 1.4 3.111 3.111 0 0 1-1.152.88c-.453.203-.973.304-1.56.304a3.82 3.82 0 0 1-.816-.072 2.81 2.81 0 0 1-.64-.232v3.28h-2.08V178zm3.568 1.536c-.405 0-.723.101-.952.304-.23.203-.408.507-.536.912v3.328c.15.117.312.21.488.28.176.07.408.104.696.104.597 0 1.045-.21 1.344-.632.299-.421.448-1.117.448-2.088 0-.704-.117-1.248-.352-1.632-.235-.384-.613-.576-1.136-.576zm5.113-1.072a6.844 6.844 0 0 1 1.52-.456 9.796 9.796 0 0 1 1.84-.168c.554 0 1.018.067 1.392.2.373.133.67.323.888.568.218.245.373.539.464.88.09.341.136.725.136 1.152 0 .47-.016.941-.048 1.416s-.05.941-.056 1.4c-.006.459.008.904.04 1.336.032.432.112.84.24 1.224h-1.696l-.336-1.104h-.08a2.87 2.87 0 0 1-.888.856c-.379.24-.867.36-1.464.36-.374 0-.71-.056-1.008-.168a2.182 2.182 0 0 1-.768-.48 2.187 2.187 0 0 1-.496-.736 2.462 2.462 0 0 1-.176-.952c0-.49.11-.904.328-1.24.218-.336.533-.608.944-.816.41-.208.901-.352 1.472-.432a10.43 10.43 0 0 1 1.912-.072c.074-.597.032-1.027-.128-1.288-.16-.261-.518-.392-1.072-.392-.416 0-.856.043-1.32.128-.464.085-.846.197-1.144.336l-.496-1.552zm2.64 5.952c.416 0 .746-.093.992-.28.245-.187.426-.387.544-.6v-1.04a5.722 5.722 0 0 0-.952-.016c-.304.021-.574.07-.808.144a1.358 1.358 0 0 0-.56.32.715.715 0 0 0-.208.528c0 .299.088.53.264.696.176.165.418.248.728.248zm11.097 1.088a3.48 3.48 0 0 1-1.16.536c-.454.123-.92.184-1.4.184-.64 0-1.182-.101-1.624-.304a2.768 2.768 0 0 1-1.08-.856 3.53 3.53 0 0 1-.6-1.336 7.566 7.566 0 0 1-.184-1.728c0-1.355.304-2.397.912-3.128.608-.73 1.493-1.096 2.656-1.096.586 0 1.058.048 1.416.144.357.096.68.219.968.368l-.496 1.696a4.193 4.193 0 0 0-.728-.272 3.208 3.208 0 0 0-.824-.096c-.576 0-1.014.19-1.312.568-.299.379-.448.984-.448 1.816 0 .341.037.656.112.944.074.288.186.539.336.752.149.213.344.381.584.504s.52.184.84.184c.352 0 .65-.045.896-.136.245-.09.464-.2.656-.328l.48 1.584zm7.48-.192c-.32.256-.754.472-1.303.648a5.708 5.708 0 0 1-1.752.264c-1.291 0-2.235-.376-2.832-1.128-.598-.752-.896-1.784-.896-3.096 0-1.408.336-2.464 1.008-3.168.672-.704 1.616-1.056 2.832-1.056.405 0 .8.053 1.184.16.384.107.725.283 1.024.528.298.245.538.576.72.992.18.416.272.933.272 1.552 0 .224-.014.464-.04.72a9.399 9.399 0 0 1-.12.8h-4.8c.032.672.205 1.179.52 1.52.314.341.824.512 1.528.512.437 0 .829-.067 1.176-.2.346-.133.61-.27.792-.408l.688 1.36zm-2.975-5.872c-.544 0-.947.163-1.208.488-.262.325-.42.76-.472 1.304h2.976c.042-.576-.046-1.019-.264-1.328-.22-.31-.563-.464-1.032-.464zm4.744 1.04h4.016v1.84h-4.016v-1.84zm5.85-2.016a6.844 6.844 0 0 1 1.52-.456 9.796 9.796 0 0 1 1.84-.168c.554 0 1.018.067 1.391.2.374.133.67.323.888.568.219.245.374.539.464.88.091.341.136.725.136 1.152 0 .47-.016.941-.048 1.416s-.05.941-.056 1.4c-.005.459.008.904.04 1.336.032.432.112.84.24 1.224h-1.696l-.336-1.104h-.08c-.213.33-.509.616-.888.856-.378.24-.866.36-1.464.36-.373 0-.709-.056-1.008-.168a2.182 2.182 0 0 1-.768-.48 2.187 2.187 0 0 1-.496-.736 2.462 2.462 0 0 1-.176-.952c0-.49.11-.904.328-1.24.219-.336.534-.608.944-.816.411-.208.902-.352 1.472-.432a10.43 10.43 0 0 1 1.912-.072c.075-.597.032-1.027-.128-1.288-.16-.261-.517-.392-1.072-.392-.416 0-.856.043-1.32.128-.464.085-.845.197-1.144.336l-.496-1.552zm2.64 5.952c.415 0 .746-.093.991-.28.246-.187.427-.387.544-.6v-1.04a5.722 5.722 0 0 0-.952-.016c-.304.021-.573.07-.808.144a1.358 1.358 0 0 0-.56.32.715.715 0 0 0-.208.528c0 .299.088.53.264.696.176.165.419.248.728.248zm9.848-4.464a2.71 2.71 0 0 0-.896-.176c-.373 0-.685.099-.936.296a1.43 1.43 0 0 0-.504.76V186h-2.08v-8h1.616l.24 1.056h.064c.182-.395.427-.699.736-.912.31-.213.672-.32 1.088-.32.278 0 .592.059.944.176l-.272 1.952zm.905 2.048c0-1.355.33-2.397.992-3.128.661-.73 1.59-1.096 2.784-1.096.64 0 1.195.101 1.664.304.47.203.859.488 1.168.856.31.368.541.813.696 1.336.155.523.232 1.099.232 1.728 0 1.355-.328 2.397-.984 3.128-.656.73-1.581 1.096-2.776 1.096-.64 0-1.195-.101-1.664-.304a3.18 3.18 0 0 1-1.176-.856 3.595 3.595 0 0 1-.704-1.336 6.073 6.073 0 0 1-.232-1.728zm2.144 0c0 .352.032.677.096.976.064.299.16.56.288.784.128.224.296.397.504.52.208.123.456.184.744.184.544 0 .95-.197 1.216-.592.267-.395.4-1.019.4-1.872 0-.736-.123-1.33-.368-1.784-.245-.453-.661-.68-1.248-.68-.512 0-.912.192-1.2.576-.288.384-.432 1.013-.432 1.888zm8.921-4v4.544c0 .65.077 1.12.232 1.408.155.288.456.432.904.432.395 0 .723-.117.984-.352s.456-.523.584-.864V178h2.08v5.568c0 .437.021.867.064 1.288a8.1 8.1 0 0 0 .192 1.144H373.2l-.368-1.184h-.064a2.99 2.99 0 0 1-1.024 1.008c-.437.267-.955.4-1.552.4-.405 0-.768-.053-1.088-.16a1.788 1.788 0 0 1-.8-.528c-.213-.245-.376-.576-.488-.992-.112-.416-.168-.939-.168-1.568V178h2.08zm11.593 8v-4.544c0-.65-.093-1.12-.28-1.408-.187-.288-.504-.432-.952-.432-.395 0-.728.115-1 .344a1.91 1.91 0 0 0-.584.856V186h-2.08v-8h1.648l.24 1.056h.064c.245-.341.57-.64.976-.896.405-.256.928-.384 1.568-.384.395 0 .747.053 1.056.16.31.107.57.283.784.528.213.245.373.579.48 1 .107.421.16.941.16 1.56V186h-2.08zm10.713-2.816c0 .448.005.896.016 1.344.01.448.058.944.144 1.488h-1.488l-.288-1.04h-.064c-.214.373-.52.675-.92.904-.4.23-.872.344-1.416.344-1.003 0-1.782-.33-2.336-.992-.555-.661-.832-1.696-.832-3.104 0-1.365.31-2.427.928-3.184.618-.757 1.525-1.136 2.72-1.136.33 0 .602.019.816.056.213.037.426.099.64.184V174.8h2.08v8.384zm-3.536 1.28c.405 0 .725-.099.96-.296.234-.197.4-.483.496-.856v-3.392a1.587 1.587 0 0 0-.496-.264 2.337 2.337 0 0 0-.704-.088c-.587 0-1.027.197-1.32.592-.294.395-.44 1.072-.44 2.032 0 .683.12 1.232.36 1.648.24.416.621.624 1.144.624z" fill="#2B2B2B"/>
    <g>
      <path d="M597.224 184.792a.597.597 0 0 0-.272-.512 3.277 3.277 0 0 0-.672-.352c-.267-.107-.56-.216-.88-.328a3.306 3.306 0 0 1-.88-.464 2.541 2.541 0 0 1-.672-.752c-.181-.304-.272-.696-.272-1.176 0-.79.235-1.392.704-1.808.47-.416 1.147-.624 2.032-.624.608 0 1.157.064 1.648.192.49.128.875.272 1.152.432l-.464 1.504a10.606 10.606 0 0 0-.928-.304 4.116 4.116 0 0 0-1.136-.16c-.619 0-.928.24-.928.72 0 .192.09.347.272.464.181.117.405.227.672.328s.56.21.88.328c.32.117.613.27.88.456.267.187.49.43.672.728.181.299.272.683.272 1.152 0 .81-.259 1.448-.776 1.912-.517.464-1.293.696-2.328.696a5.685 5.685 0 0 1-1.592-.216c-.496-.144-.899-.312-1.208-.504l.576-1.552c.245.139.57.275.976.408.405.133.821.2 1.248.2.31 0 .557-.059.744-.176.187-.117.28-.315.28-.592zm2.697-5.792h1.104v-1.504l2.08-.592V179h1.952v1.76h-1.952v3.072c0 .555.056.952.168 1.192.112.24.323.36.632.36.213 0 .397-.021.552-.064a3.84 3.84 0 0 0 .52-.192l.368 1.6a5.281 5.281 0 0 1-1.008.352 4.798 4.798 0 0 1-1.168.144c-.736 0-1.277-.19-1.624-.568-.347-.379-.52-1-.52-1.864v-4.032h-1.104V179zm10.92 1.952a2.71 2.71 0 0 0-.895-.176c-.374 0-.686.099-.936.296-.25.197-.419.45-.504.76V187h-2.08v-8h1.616l.24 1.056h.064c.181-.395.426-.699.736-.912.31-.213.672-.32 1.088-.32.277 0 .592.059.944.176l-.272 1.952zm7.69 5.36c-.32.256-.755.472-1.304.648a5.708 5.708 0 0 1-1.752.264c-1.291 0-2.235-.376-2.832-1.128-.598-.752-.896-1.784-.896-3.096 0-1.408.336-2.464 1.008-3.168.672-.704 1.616-1.056 2.832-1.056.405 0 .8.053 1.184.16.384.107.725.283 1.024.528.298.245.538.576.72.992.181.416.272.933.272 1.552 0 .224-.014.464-.04.72a9.399 9.399 0 0 1-.12.8h-4.8c.032.672.205 1.179.52 1.52.314.341.824.512 1.528.512.437 0 .829-.067 1.176-.2.346-.133.61-.27.792-.408l.688 1.36zm-2.976-5.872c-.544 0-.947.163-1.208.488-.262.325-.419.76-.472 1.304h2.976c.042-.576-.046-1.019-.264-1.328-.219-.31-.563-.464-1.032-.464zm3.96-1.44h1.105v-1.504l2.08-.592V179h1.952v1.76H622.7v3.072c0 .555.056.952.168 1.192.112.24.322.36.632.36.213 0 .397-.021.552-.064a3.89 3.89 0 0 0 .52-.192l.368 1.6a5.281 5.281 0 0 1-1.008.352 4.798 4.798 0 0 1-1.168.144c-.736 0-1.278-.19-1.624-.568-.347-.379-.52-1-.52-1.864v-4.032h-1.104V179zm12.09 7.504a3.48 3.48 0 0 1-1.16.536c-.454.123-.92.184-1.4.184-.64 0-1.182-.101-1.625-.304a2.768 2.768 0 0 1-1.08-.856 3.53 3.53 0 0 1-.6-1.336 7.566 7.566 0 0 1-.184-1.728c0-1.355.304-2.397.912-3.128.608-.73 1.494-1.096 2.656-1.096.587 0 1.06.048 1.416.144.358.096.68.219.968.368l-.496 1.696a4.193 4.193 0 0 0-.728-.272 3.208 3.208 0 0 0-.824-.096c-.576 0-1.013.19-1.312.568-.298.379-.448.984-.448 1.816 0 .341.038.656.112.944.075.288.187.539.336.752.15.213.344.381.584.504s.52.184.84.184c.352 0 .651-.045.896-.136.246-.09.464-.2.656-.328l.48 1.584zm6.248.496v-4.544c0-.65-.09-1.12-.272-1.408-.181-.288-.512-.432-.992-.432-.352 0-.674.12-.968.36a1.71 1.71 0 0 0-.584.92V187h-2.08v-11.2h2.08v4.096h.064c.256-.341.571-.613.944-.816.374-.203.848-.304 1.424-.304.406 0 .763.053 1.072.16.31.107.568.283.776.528.208.245.363.579.464 1 .102.421.152.941.152 1.56V187h-2.08zm10.77 3.52a8.18 8.18 0 0 1-1.248-1.688 10.502 10.502 0 0 1-.824-1.888 12.034 12.034 0 0 1-.456-1.952 12.997 12.997 0 0 1-.144-1.88c0-.587.048-1.205.144-1.856.096-.65.25-1.304.464-1.96.213-.656.493-1.299.84-1.928.347-.63.77-1.216 1.272-1.76l1.344.864a8.762 8.762 0 0 0-.936 1.568 10.64 10.64 0 0 0-.608 1.672c-.155.57-.267 1.144-.336 1.72a12.723 12.723 0 0 0 .36 5.032c.16.57.368 1.128.624 1.672a7.28 7.28 0 0 0 .928 1.488l-1.424.896zm9.401-6.336c0 .448.005.896.016 1.344.01.448.059.944.144 1.488h-1.488l-.288-1.04h-.064c-.213.373-.52.675-.92.904-.4.23-.872.344-1.416.344-1.003 0-1.781-.33-2.336-.992-.555-.661-.832-1.696-.832-3.104 0-1.365.31-2.427.928-3.184.619-.757 1.525-1.136 2.72-1.136.33 0 .603.019.816.056.213.037.427.099.64.184V175.8h2.08v8.384zm-3.536 1.28c.405 0 .725-.099.96-.296.235-.197.4-.483.496-.856v-3.392a1.587 1.587 0 0 0-.496-.264 2.337 2.337 0 0 0-.704-.088c-.587 0-1.027.197-1.32.592-.293.395-.44 1.072-.44 2.032 0 .683.12 1.232.36 1.648.24.416.621.624 1.144.624zm11.849.848c-.32.256-.755.472-1.304.648a5.708 5.708 0 0 1-1.752.264c-1.29 0-2.235-.376-2.832-1.128-.597-.752-.896-1.784-.896-3.096 0-1.408.336-2.464 1.008-3.168.672-.704 1.616-1.056 2.832-1.056.405 0 .8.053 1.184.16.384.107.725.283 1.024.528.299.245.539.576.72.992.181.416.272.933.272 1.552 0 .224-.013.464-.04.72a9.399 9.399 0 0 1-.12.8h-4.8c.032.672.205 1.179.52 1.52.315.341.824.512 1.528.512.437 0 .83-.067 1.176-.2.347-.133.61-.27.792-.408l.688 1.36zm-2.976-5.872c-.544 0-.947.163-1.208.488-.261.325-.419.76-.472 1.304h2.976c.043-.576-.045-1.019-.264-1.328-.219-.31-.563-.464-1.032-.464zm4.057-1.44h1.104v-.448c0-1.013.213-1.747.64-2.2.426-.453 1.045-.68 1.856-.68.853 0 1.562.101 2.128.304l-.4 1.664a3.536 3.536 0 0 0-.648-.168 4.128 4.128 0 0 0-.584-.04c-.214 0-.382.032-.504.096a.59.59 0 0 0-.272.296 1.548 1.548 0 0 0-.112.496 8.514 8.514 0 0 0-.024.68h1.76v1.76h-1.76V187h-2.08v-6.24h-1.104V179zm5.913.464a6.844 6.844 0 0 1 1.52-.456 9.796 9.796 0 0 1 1.84-.168c.554 0 1.018.067 1.392.2.373.133.669.323.888.568.218.245.373.539.464.88.09.341.136.725.136 1.152 0 .47-.016.941-.048 1.416s-.051.941-.056 1.4c-.006.459.008.904.04 1.336.032.432.112.84.24 1.224h-1.696l-.336-1.104h-.08a2.87 2.87 0 0 1-.888.856c-.379.24-.867.36-1.464.36-.374 0-.71-.056-1.008-.168a2.182 2.182 0 0 1-.768-.48 2.187 2.187 0 0 1-.496-.736 2.462 2.462 0 0 1-.176-.952c0-.49.109-.904.328-1.24.218-.336.533-.608.944-.816.41-.208.901-.352 1.472-.432a10.43 10.43 0 0 1 1.912-.072c.074-.597.032-1.027-.128-1.288-.16-.261-.518-.392-1.072-.392-.416 0-.856.043-1.32.128-.464.085-.846.197-1.144.336l-.496-1.552zm2.64 5.952c.416 0 .746-.093.992-.28.245-.187.426-.387.544-.6v-1.04a5.722 5.722 0 0 0-.952-.016c-.304.021-.574.07-.808.144a1.358 1.358 0 0 0-.56.32.715.715 0 0 0-.208.528c0 .299.088.53.264.696.176.165.418.248.728.248zm7.433-6.416v4.544c0 .65.077 1.12.232 1.408.154.288.456.432.904.432.394 0 .722-.117.984-.352a2.18 2.18 0 0 0 .584-.864V179h2.08v5.568c0 .437.02.867.064 1.288a8.1 8.1 0 0 0 .192 1.144h-1.568l-.368-1.184h-.064a2.99 2.99 0 0 1-1.024 1.008c-.438.267-.955.4-1.552.4a3.42 3.42 0 0 1-1.088-.16 1.788 1.788 0 0 1-.8-.528c-.214-.245-.376-.576-.488-.992-.112-.416-.168-.939-.168-1.568V179h2.08zm8.84 5.312c0 .373.048.645.144.816.096.17.251.256.464.256.128 0 .254-.01.376-.032.123-.021.275-.07.456-.144l.224 1.632c-.17.085-.432.17-.784.256a4.602 4.602 0 0 1-1.088.128c-.608 0-1.072-.141-1.392-.424-.32-.283-.48-.75-.48-1.4v-9.6h2.08v8.512zm1.817-5.312h1.104v-1.504l2.08-.592V179h1.952v1.76h-1.952v3.072c0 .555.056.952.168 1.192.112.24.323.36.632.36.214 0 .398-.021.552-.064a3.84 3.84 0 0 0 .52-.192l.368 1.6a5.281 5.281 0 0 1-1.008.352 4.798 4.798 0 0 1-1.168.144c-.736 0-1.277-.19-1.624-.568-.346-.379-.52-1-.52-1.864v-4.032h-1.104V179zm7.017-3.392a8.18 8.18 0 0 1 1.248 1.688c.342.613.616 1.243.824 1.888.208.645.36 1.296.456 1.952a13 13 0 0 1 .144 1.88c0 .587-.048 1.205-.144 1.856a11.94 11.94 0 0 1-.464 1.96 11.118 11.118 0 0 1-.84 1.928 8.997 8.997 0 0 1-1.272 1.76l-1.344-.88c.395-.533.72-1.075.976-1.624.256-.55.459-1.104.608-1.664.15-.56.254-1.12.312-1.68.059-.56.088-1.112.088-1.656 0-.512-.04-1.053-.12-1.624-.08-.57-.2-1.141-.36-1.712-.16-.57-.365-1.125-.616-1.664a7.974 7.974 0 0 0-.904-1.496l1.408-.912z" fill="#2B2B2B"/>
      <path fill="#AFB8C1" d="M593 198.902h252v43.333H593z"/>
      <path fill="#919BA5" d="M593 242.236h252v43.333H593z"/>
      <path fill="#7D8793" d="M593 285.569h252v43.333H593z"/>
    </g>
  </g>
</svg>
