<svg width="523" height="353" xmlns="http://www.w3.org/2000/svg">
  <g fill="none" fill-rule="evenodd">
    <path fill="#E0E7EE" fill-rule="nonzero" d="M2 26h240v80H2z"/>
    <path fill="#AFB8C1" fill-rule="nonzero" d="M2 26h80v39H2z"/>
    <path fill="#AFB8C1" fill-rule="nonzero" d="M2 26h80v56H2z"/>
    <path fill="#919BA5" fill-rule="nonzero" d="M82 26h80v26H82z"/>
    <path fill="#919BA5" fill-rule="nonzero" d="M82 26h80v39H82z"/>
    <path d="M8.548 6.931a4.217 4.217 0 0 0-.566-.082 7.572 7.572 0 0 0-.693-.033c-.244 0-.442.038-.59.115a.809.809 0 0 0-.343.33 1.377 1.377 0 0 0-.151.537 7.405 7.405 0 0 0-.032.718h1.196v1.815H6.173v6.438H4.1V10.33H3V8.516h1.1v-.462c0-1.035.242-1.803.726-2.303C5.309 5.251 6.14 5 7.32 5c.244 0 .526.01.845.033.319.022.635.046.948.074.314.028.606.058.877.091.271.033.482.066.63.1v8.698c0 .385.048.665.144.842.086.17.26.273.446.264.128 0 .252-.01.375-.033.122-.022.274-.073.454-.149l.24 1.684c-.17.087-.434.175-.79.264a4.534 4.534 0 0 1-1.092.132c-.606 0-1.066-.146-1.38-.438-.313-.291-.47-.773-.47-1.444V6.931zm11.09 9.128c-.319.264-.752.487-1.3.669a5.51 5.51 0 0 1-1.745.272c-1.285 0-2.227-.388-2.822-1.164-.595-.776-.893-1.84-.893-3.194 0-1.452.335-2.542 1.005-3.268.67-.726 1.61-1.09 2.822-1.09.403 0 .797.055 1.18.166.382.11.722.292 1.02.544.298.253.537.595.717 1.024.18.429.271.962.271 1.6 0 .232-.012.48-.04.744a9.99 9.99 0 0 1-.119.825h-4.783c.032.693.204 1.216.518 1.568.314.352.821.528 1.523.528a3.16 3.16 0 0 0 1.172-.206c.345-.137.607-.279.789-.421l.685 1.403zm-2.965-6.058c-.542 0-.944.168-1.204.504-.26.335-.417.784-.47 1.345h2.965c.043-.594-.045-1.051-.263-1.37-.218-.32-.56-.479-1.028-.479zm6.243 2.542l-2.392-4.027h2.472l1.036 1.766.446 1.155.479-1.155 1.084-1.766h2.248l-2.408 3.961 2.567 4.292h-2.407l-1.228-1.98-.478-1.222-.51 1.221-1.228 1.98h-2.264l2.583-4.225zm6.004-1.469h4.002v1.898H28.92v-1.898zm9.176 3.417a.622.622 0 0 0-.27-.528 3.228 3.228 0 0 0-.67-.363c-.266-.11-.558-.223-.877-.339a3.258 3.258 0 0 1-.877-.478 2.593 2.593 0 0 1-.67-.776c-.181-.314-.27-.718-.27-1.213 0-.815.232-1.436.7-1.866.468-.429 1.143-.643 2.026-.643a6.31 6.31 0 0 1 1.642.198c.488.132.87.28 1.148.445l-.463 1.552c-.303-.12-.612-.224-.924-.314a3.971 3.971 0 0 0-1.132-.165c-.618 0-.925.248-.925.743 0 .198.09.358.27.479.18.12.404.234.67.338.266.104.559.217.877.339.32.12.611.278.877.47.265.193.489.444.67.751.18.308.271.705.271 1.188 0 .836-.26 1.494-.773 1.973-.516.479-1.29.718-2.32.718a5.485 5.485 0 0 1-1.586-.223c-.495-.149-.897-.322-1.204-.52l.574-1.601c.244.143.568.284.972.42.404.138.817.207 1.244.207.308 0 .555-.06.741-.181.186-.121.28-.325.28-.611zm2.687-5.975h1.1V6.964l2.073-.61v2.162H45.9v1.815h-1.945v3.17c0 .572.055.982.167 1.23.112.247.322.37.63.37.213 0 .396-.021.55-.065.177-.053.35-.12.518-.198l.367 1.65a5.144 5.144 0 0 1-1.005.363c-.38.1-.771.149-1.164.149-.733 0-1.272-.196-1.618-.586-.345-.391-.518-1.032-.518-1.923v-4.16h-1.1V8.516zm6.434.478a6.648 6.648 0 0 1 1.515-.47 9.439 9.439 0 0 1 1.833-.173c.553 0 1.016.069 1.388.206.372.137.667.333.884.586.219.253.373.556.463.908.09.352.135.748.135 1.188 0 .485-.016.971-.048 1.461-.031.49-.05.97-.055 1.444-.005.474.008.933.04 1.379.031.445.111.866.239 1.262h-1.69l-.335-1.139h-.08c-.212.34-.507.636-.885.883-.376.248-.863.372-1.459.372a2.76 2.76 0 0 1-1.004-.173 2.165 2.165 0 0 1-.765-.496 2.262 2.262 0 0 1-.495-.759 2.62 2.62 0 0 1-.175-.982c0-.506.11-.933.327-1.28.218-.346.532-.626.94-.841.41-.215.9-.363 1.467-.446a10.04 10.04 0 0 1 1.906-.074c.074-.616.031-1.06-.128-1.329-.16-.269-.515-.404-1.068-.404-.415 0-.853.044-1.316.132-.462.088-.842.203-1.14.347l-.494-1.602zm2.63 6.14c.415 0 .745-.095.99-.288.245-.193.425-.4.542-.62v-1.072a5.509 5.509 0 0 0-.95-.017 3.376 3.376 0 0 0-.804.149c-.21.062-.4.175-.558.33a.752.752 0 0 0-.208.545c0 .308.088.547.263.718.176.17.418.256.726.256zm9.816-4.604a2.62 2.62 0 0 0-.894-.182c-.371 0-.682.102-.932.305a1.48 1.48 0 0 0-.502.784v5.332h-2.073V8.516h1.61l.24 1.09h.063c.181-.408.426-.722.734-.942.308-.22.67-.33 1.084-.33.277 0 .59.061.94.182l-.27 2.014zm.932-2.014h1.1V6.964l2.073-.61v2.162h1.945v1.815h-1.945v3.17c0 .572.056.982.167 1.23.112.247.322.37.63.37.212 0 .396-.021.55-.065.177-.053.35-.12.518-.198l.367 1.65a5.144 5.144 0 0 1-1.004.363c-.381.1-.772.149-1.164.149-.734 0-1.273-.196-1.619-.586-.345-.391-.518-1.032-.518-1.923v-4.16h-1.1V8.516z" fill="#2B2B2B" fill-rule="nonzero"/>
    <path fill="#E0E7EE" fill-rule="nonzero" d="M281 26h240v80H281z"/>
    <path fill="#7D8793" fill-rule="nonzero" d="M441 26h80v80h-80z"/>
    <path d="M286.579 6.931a4.262 4.262 0 0 0-.57-.082 7.655 7.655 0 0 0-.697-.033c-.245 0-.444.038-.593.115a.811.811 0 0 0-.345.33 1.37 1.37 0 0 0-.152.537 7.398 7.398 0 0 0-.032.718h1.202v1.815h-1.202v6.438h-2.084V10.33H281V8.516h1.106v-.462c0-1.035.244-1.803.73-2.303.485-.5 1.322-.751 2.508-.751.246 0 .53.01.85.033.32.022.638.046.954.074.315.028.609.058.881.091.273.033.484.066.634.1v8.698c0 .385.048.665.144.842a.48.48 0 0 0 .449.264c.128 0 .253-.01.376-.033.124-.022.276-.073.457-.149l.24 1.684c-.17.087-.435.175-.793.264a4.62 4.62 0 0 1-1.098.132c-.609 0-1.072-.146-1.386-.438-.316-.291-.473-.773-.473-1.444V6.931zm11.15 9.128c-.32.264-.756.487-1.307.669a5.567 5.567 0 0 1-1.755.272c-1.292 0-2.24-.388-2.837-1.164-.598-.776-.898-1.84-.898-3.194 0-1.452.337-2.542 1.01-3.268s1.619-1.09 2.837-1.09c.406 0 .802.055 1.187.166.384.11.726.292 1.026.544.3.253.54.595.72 1.024.182.429.273.962.273 1.6 0 .232-.013.48-.04.744a9.965 9.965 0 0 1-.12.825h-4.809c.032.693.205 1.216.521 1.568.316.352.826.528 1.53.528.439 0 .832-.069 1.18-.206.347-.137.61-.279.793-.421l.689 1.403zm-2.982-6.058c-.545 0-.949.168-1.21.504-.262.335-.42.784-.473 1.345h2.982c.043-.594-.045-1.051-.265-1.37-.22-.32-.564-.479-1.034-.479zm6.277 2.542l-2.404-4.027h2.484l1.042 1.766.45 1.155.48-1.155 1.09-1.766h2.26l-2.42 3.961 2.58 4.292h-2.42l-1.234-1.98-.481-1.222-.513 1.221-1.234 1.98h-2.277l2.597-4.225zm6.037-1.469h4.023v1.898h-4.023v-1.898zm12.32 4.985c-.32.264-.756.487-1.306.669a5.567 5.567 0 0 1-1.756.272c-1.293 0-2.239-.388-2.837-1.164-.6-.776-.898-1.84-.898-3.194 0-1.452.337-2.542 1.01-3.268.674-.726 1.62-1.09 2.838-1.09.405 0 .801.055 1.186.166.385.11.726.292 1.026.544.298.253.539.595.721 1.024.18.429.273.962.273 1.6 0 .232-.014.48-.04.744a9.965 9.965 0 0 1-.12.825h-4.81c.032.693.206 1.216.521 1.568.315.352.826.528 1.531.528a3.2 3.2 0 0 0 1.179-.206c.346-.137.61-.279.793-.421l.69 1.403zm-2.981-6.058c-.545 0-.95.168-1.21.504-.263.335-.421.784-.474 1.345h2.982c.042-.594-.046-1.051-.264-1.37-.22-.32-.564-.479-1.034-.479zm9.706 6.768V12.08c0-.67-.093-1.155-.28-1.452-.187-.298-.505-.446-.954-.446-.395 0-.73.119-1.002.355-.27.233-.473.539-.585.883v5.348H321.2V8.516h1.651l.24 1.09h.065c.246-.353.572-.661.977-.925.407-.264.93-.396 1.571-.396.396 0 .749.054 1.058.165.311.11.573.292.786.544.214.253.375.598.48 1.032.108.434.161.97.161 1.61v5.133h-2.084zm10.734-2.905c0 .462.006.924.016 1.386.01.462.059.974.144 1.535h-1.49l-.29-1.073h-.064a2.455 2.455 0 0 1-.921.933c-.401.237-.874.355-1.419.355-1.004 0-1.784-.34-2.34-1.023-.556-.682-.834-1.75-.834-3.203 0-1.408.31-2.503.93-3.284.62-.781 1.529-1.172 2.725-1.172.332 0 .604.02.817.057.215.039.428.103.642.19v-3.35h2.084v8.649zm-3.543 1.32c.407 0 .727-.102.962-.305s.4-.498.497-.883v-3.5a1.576 1.576 0 0 0-.497-.272 2.278 2.278 0 0 0-.706-.09c-.587 0-1.028.203-1.322.61-.294.408-.441 1.106-.441 2.096 0 .705.12 1.271.36 1.7.241.43.624.644 1.147.644zM8.097 135.302c-.353.241-.75.418-1.169.52-.46.119-.935.179-1.411.178-.646 0-1.19-.098-1.638-.295a2.775 2.775 0 0 1-1.088-.83 3.358 3.358 0 0 1-.605-1.294A7.058 7.058 0 0 1 2 131.907c0-1.313.307-2.323.92-3.031.613-.707 1.506-1.062 2.677-1.062.592 0 1.069.046 1.428.14.36.092.685.212.976.356l-.5 1.643a4.336 4.336 0 0 0-.734-.263 3.359 3.359 0 0 0-.831-.093c-.58 0-1.021.184-1.323.55-.3.367-.451.954-.451 1.76 0 .33.038.636.113.915.075.279.188.522.338.728.152.207.347.37.59.489.241.119.523.178.846.178.355 0 .656-.044.903-.132.248-.087.468-.194.662-.318l.483 1.535zm7.542-.186c-.322.248-.76.458-1.314.628a5.969 5.969 0 0 1-1.767.256c-1.3 0-2.252-.364-2.855-1.093-.601-.729-.903-1.729-.903-3 0-1.364.339-2.388 1.016-3.07.678-.682 1.63-1.023 2.855-1.023.41 0 .807.051 1.194.155.378.099.73.273 1.032.512.302.237.544.558.726.96.184.404.274.905.274 1.505 0 .217-.013.45-.04.697-.029.26-.07.519-.12.776h-4.84c.032.65.208 1.142.524 1.472.318.33.831.497 1.54.497.442 0 .837-.065 1.186-.194.35-.13.616-.262.799-.396l.693 1.318zm-3-5.69c-.548 0-.954.158-1.218.473-.263.315-.421.737-.476 1.264h3c.044-.558-.045-.988-.266-1.287-.22-.3-.566-.45-1.04-.45zm9.769 6.357v-4.403c0-.63-.095-1.085-.282-1.365-.189-.279-.51-.418-.961-.418-.397 0-.734.111-1.008.333a1.85 1.85 0 0 0-.589.83v5.023h-2.097v-7.752h1.661l.242 1.023h.065c.248-.33.575-.62.984-.868.41-.248.935-.372 1.58-.372.399 0 .754.051 1.065.155.313.104.575.274.79.512.216.237.378.56.484.969.108.408.162.911.162 1.511v4.822h-2.097zm3.105-7.752h1.113v-1.457l2.097-.574v2.031h1.968v1.705h-1.968v2.977c0 .538.056.923.17 1.155.112.233.325.349.636.349.215 0 .4-.02.557-.062.179-.05.354-.112.524-.186l.371 1.55a5.47 5.47 0 0 1-1.016.341c-.385.093-.78.14-1.178.14-.742 0-1.287-.184-1.637-.55-.35-.368-.524-.97-.524-1.807v-3.907h-1.113v-1.705zm12.93 7.085c-.323.248-.762.458-1.315.628a5.969 5.969 0 0 1-1.767.256c-1.3 0-2.253-.364-2.855-1.093-.602-.729-.903-1.729-.903-3 0-1.364.339-2.388 1.016-3.07.678-.682 1.63-1.023 2.855-1.023.408 0 .807.051 1.194.155.387.104.73.274 1.032.512.302.237.544.558.726.96.182.404.274.905.274 1.505 0 .217-.013.45-.04.697-.029.26-.07.519-.121.776h-4.84c.033.65.208 1.142.525 1.472.318.33.83.497 1.54.497.441 0 .837-.065 1.186-.194.35-.13.615-.262.799-.396l.693 1.318zm-3.001-5.69c-.548 0-.955.158-1.218.473-.263.315-.422.737-.476 1.264h3c.044-.558-.045-.988-.266-1.287-.22-.3-.567-.45-1.04-.45zm9.284.496a2.829 2.829 0 0 0-.903-.17c-.377 0-.691.096-.944.287a1.37 1.37 0 0 0-.508.736v5.008h-2.097v-7.752h1.629l.242 1.023h.065a2.12 2.12 0 0 1 .741-.883 1.94 1.94 0 0 1 1.097-.31c.28 0 .597.057.952.17l-.274 1.891z" fill="#2B2B2B" fill-rule="nonzero"/>
    <path d="M141 245.182h2.07v3.972h.064c.223-.264.51-.474.86-.628.35-.155.738-.232 1.163-.232.956 0 1.686.34 2.19 1.018.504.678.757 1.713.757 3.103 0 1.49-.353 2.62-1.06 3.393-.706.773-1.675 1.159-2.906 1.159-.68 0-1.301-.058-1.864-.174-.563-.116-.987-.245-1.274-.389v-11.222zm3.552 4.932c-.382 0-.693.103-.932.307-.239.204-.422.499-.55.885v3.608c.17.089.354.15.55.183.196.033.406.05.63.05.562 0 .99-.213 1.281-.638.292-.425.438-1.1.438-2.028 0-1.578-.472-2.367-1.417-2.367zm5.291-1.142c.425-.198.93-.355 1.513-.471a9.395 9.395 0 0 1 1.832-.174c.552 0 1.014.069 1.386.207.371.138.666.334.884.587.217.254.371.558.461.91.09.354.136.751.136 1.192 0 .486-.016.974-.048 1.465-.032.491-.05.974-.056 1.449-.005.474.008.935.04 1.382.032.447.112.869.239 1.266h-1.688l-.335-1.142h-.08a2.887 2.887 0 0 1-.883.885c-.377.249-.863.373-1.458.373a2.74 2.74 0 0 1-1.003-.174 2.162 2.162 0 0 1-.765-.497 2.269 2.269 0 0 1-.493-.761 2.635 2.635 0 0 1-.176-.985c0-.507.11-.935.327-1.283.218-.347.53-.629.94-.844.408-.215.897-.364 1.465-.447a9.995 9.995 0 0 1 1.903-.074c.075-.618.032-1.062-.127-1.333-.16-.27-.515-.405-1.067-.405a7.01 7.01 0 0 0-1.314.132c-.462.089-.842.204-1.14.348l-.493-1.606zm2.628 6.158c.414 0 .743-.097.988-.29.244-.193.424-.4.541-.62v-1.077a5.482 5.482 0 0 0-.947-.016 3.356 3.356 0 0 0-.805.149c-.233.077-.42.187-.557.33a.756.756 0 0 0-.207.547c0 .31.087.55.262.72.176.171.417.257.725.257zm8.97-.646c0-.22-.09-.397-.27-.53a3.221 3.221 0 0 0-.669-.364c-.265-.11-.557-.223-.876-.339a3.25 3.25 0 0 1-.876-.48 2.598 2.598 0 0 1-.669-.778c-.18-.314-.27-.72-.27-1.216 0-.817.233-1.44.7-1.87.467-.431 1.142-.646 2.023-.646a6.27 6.27 0 0 1 1.64.198c.489.133.871.282 1.147.447l-.462 1.556a10.28 10.28 0 0 0-.924-.314 3.953 3.953 0 0 0-1.13-.166c-.616 0-.924.248-.924.745 0 .199.09.359.27.48.181.121.404.234.67.34.265.104.557.217.876.339.318.12.61.278.876.471.265.193.488.444.669.753.18.31.27.707.27 1.192 0 .839-.257 1.498-.772 1.978s-1.288.72-2.318.72a5.46 5.46 0 0 1-1.584-.223c-.494-.15-.895-.323-1.203-.522l.574-1.605c.244.143.568.284.971.422.404.138.818.207 1.242.207.308 0 .555-.061.741-.182.186-.122.279-.326.279-.613zm10.15 1.573c-.319.264-.751.488-1.298.67a5.485 5.485 0 0 1-1.744.273c-1.285 0-2.225-.389-2.82-1.167-.594-.778-.891-1.845-.891-3.203 0-1.456.334-2.549 1.003-3.277.67-.728 1.609-1.092 2.82-1.092.403 0 .796.055 1.178.165.382.11.722.293 1.02.546.297.254.536.596.716 1.027.18.43.27.965.27 1.605 0 .232-.012.48-.039.745s-.066.54-.12.828h-4.778c.032.695.205 1.219.518 1.572.313.353.82.53 1.521.53.435 0 .826-.07 1.17-.207.346-.138.609-.279.79-.422l.684 1.407zm-2.963-6.075c-.541 0-.942.168-1.202.505-.26.336-.417.786-.47 1.349h2.963c.042-.596-.046-1.054-.263-1.374-.218-.32-.56-.48-1.028-.48zm7.171 4.006c0 .386.048.667.144.844.095.176.25.265.462.265a2.1 2.1 0 0 0 .374-.034c.122-.022.273-.071.454-.149l.223 1.689c-.17.088-.43.176-.78.265a4.438 4.438 0 0 1-1.084.132c-.605 0-1.067-.146-1.385-.439-.319-.292-.478-.775-.478-1.448v-9.93h2.07v8.805zm3.094-5.496h2.07v8.276h-2.07v-8.276zm-.303-2.333c0-.32.114-.593.343-.82.228-.226.544-.339.947-.339.404 0 .73.113.98.34.25.226.374.499.374.819 0 .32-.125.587-.374.802-.25.216-.576.323-.98.323-.403 0-.72-.107-.947-.323a1.058 1.058 0 0 1-.343-.802zm9.624 10.61v-4.701c0-.674-.093-1.159-.279-1.457-.186-.298-.502-.447-.948-.447-.393 0-.724.119-.995.356-.27.237-.465.532-.581.886v5.362h-2.071v-8.276h1.64l.24 1.093h.063c.244-.353.568-.662.972-.927.403-.265.923-.397 1.56-.397.393 0 .744.055 1.052.165.308.11.568.293.78.546.213.254.372.599.478 1.035.106.436.16.974.16 1.614v5.147h-2.071zm10.531-.712c-.318.264-.751.488-1.298.67a5.485 5.485 0 0 1-1.744.273c-1.285 0-2.224-.389-2.82-1.167-.594-.778-.891-1.845-.891-3.203 0-1.456.334-2.549 1.003-3.277.67-.728 1.61-1.092 2.82-1.092.403 0 .796.055 1.178.165.382.11.722.293 1.02.546.297.254.536.596.716 1.027.18.43.271.965.271 1.605 0 .232-.013.48-.04.745-.026.265-.066.54-.12.828h-4.777c.031.695.204 1.219.517 1.572.313.353.82.53 1.521.53.436 0 .826-.07 1.17-.207.346-.138.609-.279.79-.422l.684 1.407zm-2.962-6.075c-.542 0-.943.168-1.203.505-.26.336-.417.786-.47 1.349h2.963c.042-.596-.045-1.054-.263-1.374-.218-.32-.56-.48-1.027-.48z" fill="#202020"/>
    <path d="M284.224 123.792a.597.597 0 0 0-.272-.512 3.277 3.277 0 0 0-.672-.352c-.267-.107-.56-.216-.88-.328a3.306 3.306 0 0 1-.88-.464 2.541 2.541 0 0 1-.672-.752c-.181-.304-.272-.696-.272-1.176 0-.79.235-1.392.704-1.808.47-.416 1.147-.624 2.032-.624.608 0 1.157.064 1.648.192.49.128.875.272 1.152.432l-.464 1.504a10.606 10.606 0 0 0-.928-.304 4.116 4.116 0 0 0-1.136-.16c-.619 0-.928.24-.928.72 0 .192.09.347.272.464.181.117.405.227.672.328s.56.21.88.328c.32.117.613.27.88.456.267.187.49.43.672.728.181.299.272.683.272 1.152 0 .81-.259 1.448-.776 1.912-.517.464-1.293.696-2.328.696a5.685 5.685 0 0 1-1.592-.216c-.496-.144-.899-.312-1.208-.504l.576-1.552c.245.139.57.275.976.408.405.133.821.2 1.248.2.31 0 .557-.059.744-.176.187-.117.28-.315.28-.592zm2.697-5.792h1.104v-1.504l2.08-.592V118h1.952v1.76h-1.952v3.072c0 .555.056.952.168 1.192.112.24.323.36.632.36.213 0 .397-.021.552-.064a3.84 3.84 0 0 0 .52-.192l.368 1.6a5.281 5.281 0 0 1-1.008.352 4.798 4.798 0 0 1-1.168.144c-.736 0-1.277-.19-1.624-.568-.347-.379-.52-1-.52-1.864v-4.032h-1.104V118zm10.92 1.952a2.71 2.71 0 0 0-.895-.176c-.374 0-.686.099-.936.296-.25.197-.419.45-.504.76V126h-2.08v-8h1.616l.24 1.056h.064c.181-.395.426-.699.736-.912.31-.213.672-.32 1.088-.32.277 0 .592.059.944.176l-.272 1.952h-.001zm7.69 5.36c-.32.256-.755.472-1.304.648a5.708 5.708 0 0 1-1.752.264c-1.291 0-2.235-.376-2.832-1.128-.598-.752-.896-1.784-.896-3.096 0-1.408.336-2.464 1.008-3.168.672-.704 1.616-1.056 2.832-1.056.405 0 .8.053 1.184.16.384.107.725.283 1.024.528.298.245.538.576.72.992.181.416.272.933.272 1.552 0 .224-.014.464-.04.72a9.399 9.399 0 0 1-.12.8h-4.8c.032.672.205 1.179.52 1.52.314.341.824.512 1.528.512.437 0 .829-.067 1.176-.2.346-.133.61-.27.792-.408l.688 1.36zm-2.976-5.872c-.544 0-.947.163-1.208.488-.262.325-.419.76-.472 1.304h2.976c.042-.576-.046-1.019-.264-1.328-.219-.31-.563-.464-1.032-.464zm3.96-1.44h1.105v-1.504l2.08-.592V118h1.952v1.76H309.7v3.072c0 .555.056.952.168 1.192.112.24.322.36.632.36.213 0 .397-.021.552-.064a3.89 3.89 0 0 0 .52-.192l.368 1.6a5.281 5.281 0 0 1-1.008.352 4.798 4.798 0 0 1-1.168.144c-.736 0-1.278-.19-1.624-.568-.347-.379-.52-1-.52-1.864v-4.032h-1.104V118h-.001zm12.09 7.504a3.48 3.48 0 0 1-1.16.536c-.454.123-.92.184-1.4.184-.64 0-1.182-.101-1.625-.304a2.768 2.768 0 0 1-1.08-.856 3.53 3.53 0 0 1-.6-1.336 7.566 7.566 0 0 1-.184-1.728c0-1.355.304-2.397.912-3.128.608-.73 1.494-1.096 2.656-1.096.587 0 1.06.048 1.416.144.358.096.68.219.968.368l-.496 1.696a4.193 4.193 0 0 0-.728-.272 3.18 3.18 0 0 0-.824-.096c-.576 0-1.013.19-1.312.568-.298.379-.448.984-.448 1.816 0 .341.038.656.112.944.075.288.187.539.336.752.15.213.344.381.584.504s.52.184.84.184c.352 0 .651-.045.896-.136.246-.09.464-.2.656-.328l.48 1.584h.001zm6.248.496v-4.544c0-.65-.09-1.12-.272-1.408-.181-.288-.512-.432-.992-.432-.352 0-.674.12-.968.36a1.71 1.71 0 0 0-.584.92V126h-2.08v-11.2h2.08v4.096h.064c.256-.341.571-.613.944-.816.374-.203.848-.304 1.424-.304.406 0 .763.053 1.072.16.31.107.568.283.776.528.208.245.363.579.464 1 .102.421.152.941.152 1.56V126h-2.08z" fill-rule="nonzero" fill="#2B2B2B"/>
    <path fill="#AFB8C1" fill-rule="nonzero" d="M281 50h80v56h-80z"/>
    <path fill="#919BA5" fill-rule="nonzero" d="M361 67h80v39h-80z"/>
    <path fill="#E0E7EE" fill-rule="nonzero" d="M280 146h240v80H280z"/>
    <path fill="#7D8793" fill-rule="nonzero" d="M440 146h80v80h-80z"/>
    <path fill="#AFB8C1" fill-rule="nonzero" d="M280 146h80v80h-80z"/>
    <path fill="#919BA5" fill-rule="nonzero" d="M360 146h80v80h-80z"/>
    <path fill="#E0E7EE" fill-rule="nonzero" d="M2 146h240v80H2z"/>
    <path fill="#7D8793" fill-rule="nonzero" d="M162 146h80v79h-80z"/>
    <path fill="#AFB8C1" fill-rule="nonzero" d="M2 157h80v56H2z"/>
    <path fill="#919BA5" fill-rule="nonzero" d="M82 169h80v39H82z"/>
    <path fill="#E0E7EE" fill-rule="nonzero" d="M140 272h240v80H140z"/>
    <path fill="#7D8793" fill-rule="nonzero" d="M300 272h80v79h-80z"/>
    <path fill="#AFB8C1" fill-rule="nonzero" d="M140 273h80v56h-80z"/>
    <path fill="#919BA5" fill-rule="nonzero" d="M220 275h80v39h-80z"/>
    <path d="M170 286.182h2.085v3.972h.064c.225-.264.513-.474.866-.628a2.888 2.888 0 0 1 1.171-.232c.962 0 1.697.34 2.205 1.018.508.678.762 1.713.762 3.103 0 1.49-.355 2.62-1.066 3.393-.711.773-1.687 1.159-2.927 1.159-.685 0-1.31-.058-1.877-.174-.567-.116-.994-.245-1.283-.389v-11.222zm3.577 4.932c-.385 0-.698.103-.939.307-.24.204-.425.499-.553.885v3.608c.171.089.356.15.553.183.198.033.41.05.634.05.567 0 .997-.213 1.29-.638.295-.425.442-1.1.442-2.028 0-1.578-.476-2.367-1.427-2.367zm5.328-1.142a6.703 6.703 0 0 1 1.524-.471 9.524 9.524 0 0 1 1.844-.174c.556 0 1.021.069 1.395.207.374.138.671.334.89.587.22.254.375.558.466.91.09.354.136.751.136 1.192 0 .486-.016.974-.048 1.465a26.59 26.59 0 0 0-.056 1.449c-.006.474.008.935.04 1.382.032.447.112.869.24 1.266h-1.7l-.337-1.142h-.08a2.89 2.89 0 0 1-.89.885c-.38.249-.869.373-1.467.373-.375 0-.711-.058-1.01-.174a2.179 2.179 0 0 1-1.268-1.258 2.619 2.619 0 0 1-.176-.985c0-.507.11-.935.328-1.283a2.41 2.41 0 0 1 .947-.844c.411-.215.903-.364 1.475-.447a10.213 10.213 0 0 1 1.917-.074c.075-.618.032-1.062-.128-1.333-.16-.27-.519-.405-1.075-.405-.417 0-.858.044-1.323.132-.465.089-.848.204-1.147.348l-.497-1.606zm2.646 6.158c.417 0 .749-.097.995-.29a2 2 0 0 0 .545-.62v-1.077a5.559 5.559 0 0 0-.954-.016 3.385 3.385 0 0 0-.81.149 1.352 1.352 0 0 0-.562.33.753.753 0 0 0-.208.547c0 .31.088.55.264.72.177.171.42.257.73.257zm75.245-.646c0-.22-.09-.397-.272-.53a3.25 3.25 0 0 0-.674-.364c-.267-.11-.561-.223-.882-.339a3.28 3.28 0 0 1-.882-.48 2.603 2.603 0 0 1-.674-.778c-.182-.314-.273-.72-.273-1.216 0-.817.236-1.44.706-1.87.47-.431 1.15-.646 2.037-.646.61 0 1.16.066 1.652.198.492.133.877.282 1.155.447l-.465 1.556a10.4 10.4 0 0 0-.93-.314 4.006 4.006 0 0 0-1.14-.166c-.62 0-.93.248-.93.745 0 .199.091.359.273.48.182.121.406.234.674.34.267.104.561.217.882.339.32.12.615.278.882.471.267.193.492.444.673.753.182.31.273.707.273 1.192 0 .839-.26 1.498-.778 1.978s-1.296.72-2.333.72a5.534 5.534 0 0 1-1.596-.223c-.497-.15-.9-.323-1.211-.522l.577-1.605a5.5 5.5 0 0 0 .979.422 3.86 3.86 0 0 0 1.25.207c.31 0 .56-.061.746-.182.188-.122.281-.326.281-.613zm10.22 1.573c-.32.264-.756.488-1.307.67a5.559 5.559 0 0 1-1.756.273c-1.294 0-2.24-.389-2.839-1.167-.599-.778-.898-1.845-.898-3.203 0-1.456.337-2.549 1.01-3.277.674-.728 1.62-1.092 2.84-1.092a4.3 4.3 0 0 1 1.186.165c.385.11.727.293 1.026.546.3.254.54.596.722 1.027.182.43.273.965.273 1.605 0 .232-.014.48-.04.745a10.4 10.4 0 0 1-.12.828H262.3c.032.695.206 1.219.521 1.572.316.353.826.53 1.532.53.438 0 .831-.07 1.179-.207.347-.138.612-.279.794-.422l.69 1.407zm-2.983-6.075c-.545 0-.949.168-1.21.505-.263.336-.42.786-.474 1.349h2.983c.043-.596-.045-1.054-.264-1.374-.22-.32-.565-.48-1.035-.48zm64.604 4.006c0 .386.049.667.145.844a.49.49 0 0 0 .465.265c.128 0 .254-.011.377-.034.123-.022.275-.071.457-.149l.224 1.689c-.17.088-.433.176-.785.265a4.476 4.476 0 0 1-1.091.132c-.61 0-1.075-.146-1.395-.439-.321-.292-.482-.775-.482-1.448v-9.93h2.085v8.805zm3.115-5.496h2.085v8.276h-2.085v-8.276zm-.304-2.333c0-.32.115-.593.345-.82.23-.226.548-.339.954-.339.406 0 .735.113.986.34.251.226.377.499.377.819 0 .32-.126.587-.377.802-.251.216-.58.323-.986.323s-.725-.107-.954-.323a1.055 1.055 0 0 1-.345-.802zm9.69 10.61v-4.701c0-.674-.093-1.159-.28-1.457-.187-.298-.505-.447-.955-.447-.395 0-.73.119-1.002.356a1.98 1.98 0 0 0-.585.886v5.362h-2.085v-8.276h1.652l.24 1.093h.064a3.5 3.5 0 0 1 .979-.927c.406-.265.93-.397 1.571-.397.396 0 .749.055 1.059.165.31.11.572.293.786.546.214.254.374.599.481 1.035.107.436.16.974.16 1.614v5.147h-2.085zm10.605-.712c-.32.264-.756.488-1.307.67a5.559 5.559 0 0 1-1.756.273c-1.294 0-2.24-.389-2.839-1.167-.599-.778-.898-1.845-.898-3.203 0-1.456.337-2.549 1.01-3.277.674-.728 1.62-1.092 2.84-1.092.406 0 .801.055 1.186.165.385.11.727.293 1.027.546.299.254.54.596.721 1.027.182.43.273.965.273 1.605 0 .232-.013.48-.04.745a10.4 10.4 0 0 1-.12.828h-4.812c.032.695.206 1.219.521 1.572.316.353.826.53 1.532.53.438 0 .831-.07 1.179-.207.347-.138.612-.279.794-.422l.69 1.407zm-2.983-6.075c-.545 0-.949.168-1.21.505-.263.336-.42.786-.474 1.349h2.983c.043-.596-.045-1.054-.264-1.374-.22-.32-.564-.48-1.035-.48z" fill="#DCD4D4"/>
    <path fill="#7D8793" fill-rule="nonzero" d="M162 26h80v80h-80z"/>
  </g>
</svg>
