<svg width="587" height="130" xmlns="http://www.w3.org/2000/svg">
  <g fill="none" fill-rule="evenodd">
    <g fill-rule="nonzero">
      <path fill="#E0E7EE" d="M8 32h565v81H8z"/>
      <path fill="#AFB8C1" d="M16 43h122v60H16z"/>
      <path fill="#9DA8B3" d="M138 43h122v60H138z"/>
      <path fill="#AFB8C1" d="M440 43h122v60H440z"/>
      <path fill="#919BA5" d="M259 43h60v60h-60z"/>
    </g>
    <path d="M294.12 66.7c0 .68-.123 1.367-.37 2.06a12.74 12.74 0 0 1-.94 2.04c-.38.667-.8 1.31-1.26 1.93-.46.62-.91 1.19-1.35 1.71l-1.06.82v.1l1.44-.28h3.84v2.2H286v-1.34c.32-.333.68-.723 1.08-1.17.4-.447.803-.92 1.21-1.42.407-.5.803-1.017 1.19-1.55.387-.533.733-1.07 1.04-1.61.307-.54.55-1.063.73-1.57.18-.507.27-.987.27-1.44 0-.547-.157-.997-.47-1.35-.313-.353-.81-.53-1.49-.53-.427 0-.863.09-1.31.27-.447.18-.823.41-1.13.69l-1.04-1.84c.52-.427 1.11-.77 1.77-1.03.66-.26 1.437-.39 2.33-.39.573 0 1.1.08 1.58.24.48.16.893.393 1.24.7.347.307.62.69.82 1.15.2.46.3.997.3 1.61zm202.746 8.932h2.46v-6.32l.266-1.088-.85.944-1.575.976-.974-1.2L500.23 66h1.293v9.632h2.407v1.76h-7.063z" fill="#FFF"/>
    <path fill="#7D8793" fill-rule="nonzero" d="M319 43h122v60H319z"/>
    <path fill="#FFF" d="M373.608 75.632h2.224v-6.32l.24-1.088-.768.944-1.424.976-.88-1.2L376.648 66h1.168v9.632h2.176v1.76h-6.384zm-175.992-.392h2.224v-6.32l.24-1.088-.768.944-1.424.976-.88-1.2 3.648-2.944h1.168v9.632H204V77h-6.384zm-131 0h2.224v-6.32l.24-1.088-.768.944-1.424.976-.88-1.2 3.648-2.944h1.168v9.632H73V77h-6.384z"/>
    <text font-family="PTSans-Bold, PT Sans" font-size="18" font-weight="bold" fill="#000">
      <tspan x="8" y="27">Flex-shrink</tspan>
    </text>
  </g>
</svg>
