<svg width="620" height="289" xmlns="http://www.w3.org/2000/svg">
  <g fill="none" fill-rule="evenodd">
    <g fill-rule="nonzero">
      <path fill="#E0E7EE" d="M3 26h276v126H3z"/>
      <path fill="#AFB8C1" d="M3 92h69v60H3zm0-66h69v60H3z"/>
      <path fill="#9DA8B3" d="M72 26h69v60H72z"/>
      <path fill="#7D8793" d="M210 26h69v60h-69z"/>
      <path fill="#919BA5" d="M141 26h69v60h-69z"/>
      <path fill="#9DA8B3" d="M72 92h69v60H72z"/>
      <path fill="#7D8793" d="M210 92h69v60h-69z"/>
      <path fill="#919BA5" d="M141 92h69v60h-69z"/>
    </g>
    <path d="M9.704 11l1.456 4.096.288 1.328h.064l.224-1.344L12.76 11h1.904L12.2 19.08h-1.536L9.048 14.6l-.208-1.008h-.08l-.192 1.024-1.536 4.464H5.448L2.872 11h2.256l1.168 4.016.192 1.424h.08L6.84 15l1.328-4h1.536zm10.16 1.952a2.71 2.71 0 0 0-.896-.176c-.373 0-.685.099-.936.296-.25.197-.419.45-.504.76V19h-2.08v-8h1.616l.24 1.056h.064c.181-.395.427-.699.736-.912.31-.213.672-.32 1.088-.32.277 0 .592.059.944.176l-.272 1.952zm1.152-1.488a6.844 6.844 0 0 1 1.52-.456 9.796 9.796 0 0 1 1.84-.168c.555 0 1.019.067 1.392.2s.67.323.888.568c.219.245.373.539.464.88.09.341.136.725.136 1.152 0 .47-.016.941-.048 1.416s-.05.941-.056 1.4c-.005.459.008.904.04 1.336.032.432.112.84.24 1.224h-1.696l-.336-1.104h-.08c-.213.33-.51.616-.888.856-.379.24-.867.36-1.464.36-.373 0-.71-.056-1.008-.168a2.182 2.182 0 0 1-.768-.48 2.187 2.187 0 0 1-.496-.736 2.462 2.462 0 0 1-.176-.952c0-.49.11-.904.328-1.24.219-.336.533-.608.944-.816.41-.208.901-.352 1.472-.432a10.43 10.43 0 0 1 1.912-.072c.075-.597.032-1.027-.128-1.288-.16-.261-.517-.392-1.072-.392-.416 0-.856.043-1.32.128-.464.085-.845.197-1.144.336l-.496-1.552zm2.64 5.952c.416 0 .747-.093.992-.28a1.96 1.96 0 0 0 .544-.6v-1.04a5.722 5.722 0 0 0-.952-.016c-.304.021-.573.07-.808.144a1.358 1.358 0 0 0-.56.32.715.715 0 0 0-.208.528c0 .299.088.53.264.696.176.165.419.248.728.248zM29 11h1.52l.24.96h.064c.277-.405.605-.704.984-.896.379-.192.84-.288 1.384-.288 1.003 0 1.755.317 2.256.952.501.635.752 1.656.752 3.064a6.6 6.6 0 0 1-.24 1.848 3.899 3.899 0 0 1-.712 1.4 3.111 3.111 0 0 1-1.152.88c-.453.203-.973.304-1.56.304a3.82 3.82 0 0 1-.816-.072 2.81 2.81 0 0 1-.64-.232v3.28H29V11zm3.568 1.536c-.405 0-.723.101-.952.304-.23.203-.408.507-.536.912v3.328c.15.117.312.21.488.28.176.07.408.104.696.104.597 0 1.045-.21 1.344-.632.299-.421.448-1.117.448-2.088 0-.704-.117-1.248-.352-1.632-.235-.384-.613-.576-1.136-.576z" fill="#000"/>
    <g fill-rule="nonzero">
      <path fill="#E0E7EE" d="M334 26h276v126H334z"/>
      <path fill="#7D8793" d="M334 26h69v60h-69z"/>
      <path fill="#919BA5" d="M403 26h69v60h-69z"/>
      <path fill="#AFB8C1" d="M541 26h69v60h-69z"/>
      <path fill="#9DA8B3" d="M472 26h69v60h-69z"/>
      <path fill="#7D8793" d="M334 92h69v60h-69z"/>
      <path fill="#919BA5" d="M403 92h69v60h-69z"/>
      <path fill="#AFB8C1" d="M541 92h69v60h-69z"/>
      <path fill="#9DA8B3" d="M472 92h69v60h-69z"/>
    </g>
    <path d="M340.704 11l1.456 4.096.288 1.328h.064l.224-1.344L343.76 11h1.904l-2.464 8.08h-1.536l-1.616-4.48-.208-1.008h-.08l-.192 1.024-1.536 4.464h-1.584L333.872 11h2.256l1.168 4.016.192 1.424h.08l.272-1.44 1.328-4h1.536zm10.16 1.952a2.71 2.71 0 0 0-.896-.176c-.373 0-.685.099-.936.296-.25.197-.419.45-.504.76V19h-2.08v-8h1.616l.24 1.056h.064c.181-.395.427-.699.736-.912.31-.213.672-.32 1.088-.32.277 0 .592.059.944.176l-.272 1.952zm1.152-1.488a6.844 6.844 0 0 1 1.52-.456 9.796 9.796 0 0 1 1.84-.168c.555 0 1.019.067 1.392.2s.67.323.888.568c.219.245.373.539.464.88.09.341.136.725.136 1.152 0 .47-.016.941-.048 1.416s-.05.941-.056 1.4c-.005.459.008.904.04 1.336.032.432.112.84.24 1.224h-1.696l-.336-1.104h-.08c-.213.33-.51.616-.888.856-.379.24-.867.36-1.464.36-.373 0-.71-.056-1.008-.168a2.182 2.182 0 0 1-.768-.48 2.187 2.187 0 0 1-.496-.736 2.462 2.462 0 0 1-.176-.952c0-.49.11-.904.328-1.24.219-.336.533-.608.944-.816.41-.208.901-.352 1.472-.432a10.43 10.43 0 0 1 1.912-.072c.075-.597.032-1.027-.128-1.288-.16-.261-.517-.392-1.072-.392-.416 0-.856.043-1.32.128-.464.085-.845.197-1.144.336l-.496-1.552zm2.64 5.952c.416 0 .747-.093.992-.28a1.96 1.96 0 0 0 .544-.6v-1.04a5.722 5.722 0 0 0-.952-.016c-.304.021-.573.07-.808.144a1.358 1.358 0 0 0-.56.32.715.715 0 0 0-.208.528c0 .299.088.53.264.696.176.165.419.248.728.248zM360 11h1.52l.24.96h.064c.277-.405.605-.704.984-.896.379-.192.84-.288 1.384-.288 1.003 0 1.755.317 2.256.952.501.635.752 1.656.752 3.064a6.6 6.6 0 0 1-.24 1.848 3.899 3.899 0 0 1-.712 1.4 3.111 3.111 0 0 1-1.152.88c-.453.203-.973.304-1.56.304a3.82 3.82 0 0 1-.816-.072 2.81 2.81 0 0 1-.64-.232v3.28H360V11zm3.568 1.536c-.405 0-.723.101-.952.304-.23.203-.408.507-.536.912v3.328c.15.117.312.21.488.28.176.07.408.104.696.104.597 0 1.045-.21 1.344-.632.299-.421.448-1.117.448-2.088 0-.704-.117-1.248-.352-1.632-.235-.384-.613-.576-1.136-.576zm5.024.944h4.016v1.84h-4.016v-1.84zm10.224-.528a2.71 2.71 0 0 0-.896-.176c-.373 0-.685.099-.936.296-.25.197-.419.45-.504.76V19h-2.08v-8h1.616l.24 1.056h.064c.181-.395.427-.699.736-.912.31-.213.672-.32 1.088-.32.277 0 .592.059.944.176l-.272 1.952zm7.6 5.36c-.32.256-.755.472-1.304.648a5.708 5.708 0 0 1-1.752.264c-1.29 0-2.235-.376-2.832-1.128-.597-.752-.896-1.784-.896-3.096 0-1.408.336-2.464 1.008-3.168.672-.704 1.616-1.056 2.832-1.056.405 0 .8.053 1.184.16.384.107.725.283 1.024.528.299.245.539.576.72.992.181.416.272.933.272 1.552 0 .224-.013.464-.04.72a9.399 9.399 0 0 1-.12.8h-4.8c.032.672.205 1.179.52 1.52.315.341.824.512 1.528.512.437 0 .83-.067 1.176-.2.347-.133.61-.27.792-.408l.688 1.36zm-2.976-5.872c-.544 0-.947.163-1.208.488-.261.325-.419.76-.472 1.304h2.976c.043-.576-.045-1.019-.264-1.328-.219-.31-.563-.464-1.032-.464zm7.248 2.752l.272 1.232h.08l.224-1.264 1.36-4.16h2.24l-3.344 8.08h-1.264L386.784 11h2.416l1.488 4.192zm11.152 3.12c-.32.256-.755.472-1.304.648a5.708 5.708 0 0 1-1.752.264c-1.29 0-2.235-.376-2.832-1.128-.597-.752-.896-1.784-.896-3.096 0-1.408.336-2.464 1.008-3.168.672-.704 1.616-1.056 2.832-1.056.405 0 .8.053 1.184.16.384.107.725.283 1.024.528.299.245.539.576.72.992.181.416.272.933.272 1.552 0 .224-.013.464-.04.72a9.399 9.399 0 0 1-.12.8h-4.8c.032.672.205 1.179.52 1.52.315.341.824.512 1.528.512.437 0 .83-.067 1.176-.2.347-.133.61-.27.792-.408l.688 1.36zm-2.976-5.872c-.544 0-.947.163-1.208.488-.261.325-.419.76-.472 1.304h2.976c.043-.576-.045-1.019-.264-1.328-.219-.31-.563-.464-1.032-.464zm9.12.512a2.71 2.71 0 0 0-.896-.176c-.373 0-.685.099-.936.296-.25.197-.419.45-.504.76V19h-2.08v-8h1.616l.24 1.056h.064c.181-.395.427-.699.736-.912.31-.213.672-.32 1.088-.32.277 0 .592.059.944.176l-.272 1.952zm4.512 3.84a.597.597 0 0 0-.272-.512 3.277 3.277 0 0 0-.672-.352c-.267-.107-.56-.216-.88-.328a3.306 3.306 0 0 1-.88-.464 2.541 2.541 0 0 1-.672-.752c-.181-.304-.272-.696-.272-1.176 0-.79.235-1.392.704-1.808.47-.416 1.147-.624 2.032-.624.608 0 1.157.064 1.648.192.49.128.875.272 1.152.432l-.464 1.504a10.606 10.606 0 0 0-.928-.304 4.116 4.116 0 0 0-1.136-.16c-.619 0-.928.24-.928.72 0 .192.09.347.272.464.181.117.405.227.672.328s.56.21.88.328c.32.117.613.27.88.456.267.187.49.43.672.728.181.299.272.683.272 1.152 0 .81-.259 1.448-.776 1.912-.517.464-1.293.696-2.328.696a5.685 5.685 0 0 1-1.592-.216c-.496-.144-.899-.312-1.208-.504l.576-1.552c.245.139.57.275.976.408.405.133.821.2 1.248.2.31 0 .557-.059.744-.176.187-.117.28-.315.28-.592zm9.84 1.52c-.32.256-.755.472-1.304.648a5.708 5.708 0 0 1-1.752.264c-1.29 0-2.235-.376-2.832-1.128-.597-.752-.896-1.784-.896-3.096 0-1.408.336-2.464 1.008-3.168.672-.704 1.616-1.056 2.832-1.056.405 0 .8.053 1.184.16.384.107.725.283 1.024.528.299.245.539.576.72.992.181.416.272.933.272 1.552 0 .224-.013.464-.04.72a9.399 9.399 0 0 1-.12.8h-4.8c.032.672.205 1.179.52 1.52.315.341.824.512 1.528.512.437 0 .83-.067 1.176-.2.347-.133.61-.27.792-.408l.688 1.36zm-2.976-5.872c-.544 0-.947.163-1.208.488-.261.325-.419.76-.472 1.304h2.976c.043-.576-.045-1.019-.264-1.328-.219-.31-.563-.464-1.032-.464z" fill="#000"/>
    <path fill="#AFB8C1" fill-rule="nonzero" d="M318 192h64v60h-64zm-253 0h64v60H65z"/>
    <path fill="#9DA8B3" fill-rule="nonzero" d="M129 192h64v60h-64z"/>
    <path fill="#7D8793" fill-rule="nonzero" d="M254 192h64v60h-64z"/>
    <path fill="#919BA5" fill-rule="nonzero" d="M193 192h64v60h-64z"/>
    <path fill="#9DA8B3" fill-rule="nonzero" d="M382 192h64v60h-64z"/>
    <path fill="#7D8793" fill-rule="nonzero" d="M508 192h64v60h-64z"/>
    <path fill="#919BA5" fill-rule="nonzero" d="M444 192h64v60h-64z"/>
    <text transform="translate(65 171)" font-size="16" font-family="PTSans-Bold, PT Sans" fill="#000" font-weight="bold">
      <tspan x="0" y="14">nowrap</tspan>
    </text>
  </g>
</svg>
