<svg width="587" height="130" xmlns="http://www.w3.org/2000/svg">
  <g fill="none" fill-rule="evenodd">
    <g fill-rule="nonzero">
      <path fill="#E0E7EE" d="M8 32h565v81H8z"/>
      <path fill="#AFB8C1" d="M16 43h110v60H16z"/>
      <path fill="#9DA8B3" d="M126 43h110v60H126z"/>
      <path fill="#7D8793" d="M455 43h110v60H455z"/>
      <path fill="#919BA5" d="M235 43h220v60H235z"/>
    </g>
    <path d="M352.5 68.42c0 .68-.123 1.367-.37 2.06a12.74 12.74 0 0 1-.94 2.04c-.38.667-.8 1.31-1.26 1.93-.46.62-.91 1.19-1.35 1.71l-1.06.82v.1l1.44-.28h3.84V79h-8.42v-1.34c.32-.333.68-.723 1.08-1.17.4-.447.803-.92 1.21-1.42.407-.5.803-1.017 1.19-1.55.387-.533.733-1.07 1.04-1.61.307-.54.55-1.063.73-1.57.18-.507.27-.987.27-1.44 0-.547-.157-.997-.47-1.35-.313-.353-.81-.53-1.49-.53-.427 0-.863.09-1.31.27-.447.18-.823.41-1.13.69l-1.04-1.84c.52-.427 1.11-.77 1.77-1.03.66-.26 1.437-.39 2.33-.39.573 0 1.1.08 1.58.24.48.16.893.393 1.24.7.347.307.62.69.82 1.15.2.46.3.997.3 1.61zm154.116 6.82h2.224v-6.32l.24-1.088-.768.944-1.424.976-.88-1.2 3.648-2.944h1.168v9.632H513V77h-6.384zm-329 0h2.224v-6.32l.24-1.088-.768.944-1.424.976-.88-1.2 3.648-2.944h1.168v9.632H184V77h-6.384zm-111 0h2.224v-6.32l.24-1.088-.768.944-1.424.976-.88-1.2 3.648-2.944h1.168v9.632H73V77h-6.384z" fill="#FFF"/>
    <path d="M14.76 12.464a4.372 4.372 0 0 0-.568-.08 7.865 7.865 0 0 0-.696-.032c-.245 0-.443.037-.592.112a.8.8 0 0 0-.344.32 1.3 1.3 0 0 0-.152.52c-.021.208-.032.44-.032.696h1.2v1.76h-1.2V22h-2.08v-6.24H9.192V14h1.104v-.448c0-1.003.243-1.747.728-2.232.485-.485 1.32-.728 2.504-.728.245 0 .528.01.848.032.32.021.637.045.952.072.315.027.608.056.88.088.272.032.483.064.632.096v8.432c0 .373.048.645.144.816a.48.48 0 0 0 .448.256c.128 0 .253-.01.376-.032.123-.021.275-.07.456-.144l.24 1.632c-.17.085-.435.17-.792.256a4.702 4.702 0 0 1-1.096.128c-.608 0-1.07-.141-1.384-.424-.315-.283-.472-.75-.472-1.4v-7.936zm11.04 8.848c-.32.256-.755.472-1.304.648a5.708 5.708 0 0 1-1.752.264c-1.29 0-2.235-.376-2.832-1.128-.597-.752-.896-1.784-.896-3.096 0-1.408.336-2.464 1.008-3.168.672-.704 1.616-1.056 2.832-1.056.405 0 .8.053 1.184.16.384.107.725.283 1.024.528.299.245.539.576.72.992.181.416.272.933.272 1.552 0 .224-.013.464-.04.72a9.399 9.399 0 0 1-.12.8h-4.8c.032.672.205 1.179.52 1.52.315.341.824.512 1.528.512.437 0 .83-.067 1.176-.2.347-.133.61-.27.792-.408l.688 1.36zm-2.976-5.872c-.544 0-.947.163-1.208.488-.261.325-.419.76-.472 1.304h2.976c.043-.576-.045-1.019-.264-1.328-.219-.31-.563-.464-1.032-.464zM29 17.904L26.6 14h2.48l1.04 1.712.448 1.12.48-1.12L32.136 14h2.256l-2.416 3.84L34.552 22h-2.416l-1.232-1.92-.48-1.184-.512 1.184L28.68 22h-2.272L29 17.904zm5.936-1.424h4.016v1.84h-4.016v-1.84zM47.512 22c0 1.163-.315 2.019-.944 2.568-.63.55-1.51.824-2.64.824-.768 0-1.373-.053-1.816-.16-.443-.107-.776-.219-1-.336l.432-1.648c.245.096.53.192.856.288.325.096.728.144 1.208.144.725 0 1.219-.157 1.48-.472.261-.315.392-.755.392-1.32v-.512h-.064c-.373.501-1.035.752-1.984.752-1.035 0-1.805-.32-2.312-.96-.507-.64-.76-1.643-.76-3.008 0-1.43.341-2.512 1.024-3.248.683-.736 1.675-1.104 2.976-1.104.683 0 1.293.048 1.832.144a7.68 7.68 0 0 1 1.32.336V22zm-3.52-1.536c.405 0 .717-.09.936-.272.219-.181.387-.453.504-.816v-3.6c-.33-.139-.741-.208-1.232-.208-.533 0-.95.2-1.248.6-.299.4-.448 1.037-.448 1.912 0 .779.128 1.37.384 1.776a1.23 1.23 0 0 0 1.104.608zm9.744-4.512a2.71 2.71 0 0 0-.896-.176c-.373 0-.685.099-.936.296-.25.197-.419.45-.504.76V22h-2.08v-8h1.616l.24 1.056h.064c.181-.395.427-.699.736-.912.31-.213.672-.32 1.088-.32.277 0 .592.059.944.176l-.272 1.952zM54.552 18c0-1.355.33-2.397.992-3.128.661-.73 1.59-1.096 2.784-1.096.64 0 1.195.101 1.664.304.47.203.859.488 1.168.856.31.368.541.813.696 1.336.155.523.232 1.099.232 1.728 0 1.355-.328 2.397-.984 3.128-.656.73-1.581 1.096-2.776 1.096-.64 0-1.195-.101-1.664-.304a3.18 3.18 0 0 1-1.176-.856 3.595 3.595 0 0 1-.704-1.336A6.073 6.073 0 0 1 54.552 18zm2.144 0c0 .352.032.677.096.976.064.299.16.56.288.784.128.224.296.397.504.52.208.123.456.184.744.184.544 0 .95-.197 1.216-.592.267-.395.4-1.019.4-1.872 0-.736-.123-1.33-.368-1.784-.245-.453-.661-.68-1.248-.68-.512 0-.912.192-1.2.576-.288.384-.432 1.013-.432 1.888zm12.48-4l1.456 4.096.288 1.328h.064l.224-1.344L72.232 14h1.904l-2.464 8.08h-1.536L68.52 17.6l-.208-1.008h-.08l-.192 1.024-1.536 4.464H64.92L62.344 14H64.6l1.168 4.016.192 1.424h.08l.272-1.44 1.328-4h1.536z" fill="#000"/>
  </g>
</svg>
