<svg width="377" height="130" xmlns="http://www.w3.org/2000/svg">
  <g fill="none" fill-rule="evenodd">
    <text font-family="PTSans-Bold, PT Sans" font-size="16" font-weight="bold" fill="#FFF">
      <tspan x="135" y="74">2</tspan>
    </text>
    <text font-family="PTSans-Bold, PT Sans" font-size="16" font-weight="bold" fill="#FFF">
      <tspan x="44" y="73">1</tspan>
    </text>
    <text font-family="PTSans-Bold, PT Sans" font-size="20" font-weight="bold" fill="#FFF">
      <tspan x="206" y="78">1</tspan>
    </text>
    <text font-family="PTSans-Bold, PT Sans" font-size="16" font-weight="bold" fill="#FFF">
      <tspan x="308" y="74">1</tspan>
    </text>
    <text font-family="PTSans-Bold, PT Sans" font-size="17" font-weight="bold" fill="#282727">
      <tspan x="15" y="23">Flex-flow: nowrap row</tspan>
    </text>
    <path d="M15 49h91-91zm91 0l-10.8-3v6l10.8-3z" stroke="#498CF3" stroke-width="2" fill="#498CF3" fill-rule="nonzero" stroke-linecap="square"/>
    <text font-family="PTSans-Bold, PT Sans" font-size="14" font-weight="bold" fill="#646060">
      <tspan x="15" y="41">(flex-wrap: wrap; flex-direction: row)</tspan>
    </text>
    <path fill="#9DA8B3" fill-rule="nonzero" d="M56 63h43v60H56z"/>
    <path fill="#7D8793" fill-rule="nonzero" d="M139 63h43v60h-43z"/>
    <path fill="#919BA5" fill-rule="nonzero" d="M98 63h43v60H98z"/>
    <path fill="#9DA8B3" fill-rule="nonzero" d="M224 63h43v60h-43z"/>
    <path fill="#AFB8C1" fill-rule="nonzero" d="M13 63h43v60H13zm169 0h43v60h-43z"/>
    <path fill="#7D8793" fill-rule="nonzero" d="M308 63h43v60h-43z"/>
    <path fill="#919BA5" fill-rule="nonzero" d="M266 63h43v60h-43z"/>
  </g>
</svg>
