<svg width="552" height="104" xmlns="http://www.w3.org/2000/svg">
  <g fill="none" fill-rule="evenodd">
    <path d="M293.715 66.627c0 .667-.117 1.34-.352 2.02-.234.68-.532 1.346-.893 2-.36.654-.76 1.284-1.197 1.892a33.365 33.365 0 0 1-1.283 1.677l-1.007.804v.098l1.369-.275H294V77h-8v-1.314c.304-.327.646-.709 1.026-1.147.38-.438.763-.902 1.15-1.392.386-.49.763-.997 1.13-1.52.368-.522.697-1.049.989-1.578.29-.53.522-1.042.693-1.54a4.34 4.34 0 0 0 .257-1.411c0-.536-.15-.977-.447-1.323-.298-.347-.77-.52-1.416-.52-.405 0-.82.088-1.244.265a3.513 3.513 0 0 0-1.074.676l-.988-1.804a6.188 6.188 0 0 1 1.682-1.01c.627-.255 1.365-.382 2.213-.382a4.59 4.59 0 0 1 1.502.235 3.33 3.33 0 0 1 1.178.687c.33.3.589.676.779 1.127.19.451.285.977.285 1.578zM496.696 75.3h2.544v-6.102l.275-1.05-.879.911-1.63.942L496 68.843 500.174 66h1.336v9.3H504V77h-7.304zm-299.087 0h2.226v-6.102l.24-1.05-.768.911-1.426.942-.881-1.158L200.652 66h1.17v9.3H204V77h-6.391zm-131 0h2.226v-6.102l.24-1.05-.768.911-1.426.942L66 68.843 69.652 66h1.17v9.3H73V77h-6.391z" fill="#FFF"/>
    <text font-family="PTSans-Bold, PT Sans" font-size="17" font-weight="bold" fill="#282727">
      <tspan x="6" y="18">Flex-basis</tspan>
    </text>
    <path fill="#919BA5" fill-rule="nonzero" d="M6 31h166v60H6z"/>
    <path fill="#7D8793" fill-rule="nonzero" d="M181 31h359v60H181z"/>
    <text font-family="PTSans-Bold, PT Sans" font-size="17" font-weight="bold" fill="#FFF">
      <tspan x="63" y="65">30%</tspan>
    </text>
    <text font-family="PTSans-Bold, PT Sans" font-size="17" font-weight="bold" fill="#FFF">
      <tspan x="320" y="65">70%</tspan>
    </text>
  </g>
</svg>
