<svg width="789" height="533" xmlns="http://www.w3.org/2000/svg">
  <g fill="none" fill-rule="evenodd">
    <path stroke="#5D5A5A" stroke-width="2" fill="#919BA5" d="M11 195h141v89H11zm0-86h141v79H11z"/>
    <path stroke="#ACACAC" stroke-width="2" d="M320 195h141v89H320z"/>
    <path stroke="#979797" stroke-width="2" d="M474 195h141v89H474z"/>
    <path stroke="#979797" stroke-width="2" fill="#AFB8C1" d="M473 109h141v79H473z"/>
    <path stroke="#5D5A5A" stroke-width="2" fill="#919BA5" d="M630 195h141v89H630zm-1-86h141v79H629z"/>
    <path stroke="#979797" stroke-width="2" fill="#AFB8C1" d="M319 109h141v79H319z"/>
    <path stroke="#ACACAC" stroke-width="2" d="M166 194h141v89H166z"/>
    <path stroke="#ACACAC" stroke-width="2" fill="#AFB8C1" d="M167 109h141v79H167z"/>
    <text font-family="PTSans-Regular, PT Sans" font-size="16" fill="#555">
      <tspan x="384" y="33">.item-5 {</tspan> <tspan x="384" y="51"> grid-column: 5 / 6;</tspan> <tspan x="384" y="69"> grid-row: 1 / 3;</tspan> <tspan x="384" y="87">}</tspan>
    </text>
    <text font-family="PTSans-Regular, PT Sans" font-size="16" fill="#555">
      <tspan x="182" y="33">.item-1 {</tspan> <tspan x="182" y="51"> grid-column: 1 / 2;</tspan> <tspan x="182" y="69"> grid-row: 1 / 3;</tspan> <tspan x="182" y="87">}</tspan>
    </text>
    <text font-family="PTSans-Bold, PT Sans" font-size="16" font-weight="bold" fill="#FFF">
      <tspan x="59" y="157">item-1</tspan>
    </text>
    <text font-family="PTSans-Bold, PT Sans" font-size="16" font-weight="bold" fill="#FFF">
      <tspan x="215" y="157">item-2</tspan>
    </text>
    <text font-family="PTSans-Bold, PT Sans" font-size="16" font-weight="bold" fill="#FFF">
      <tspan x="369" y="157">item-3</tspan>
    </text>
    <text font-family="PTSans-Bold, PT Sans" font-size="16" font-weight="bold" fill="#FFF">
      <tspan x="521" y="157">item-4</tspan>
    </text>
    <text font-family="PTSans-Bold, PT Sans" font-size="16" font-weight="bold" fill="#FFF">
      <tspan x="677" y="157">item-5</tspan>
    </text>
    <path stroke="#5D5A5A" stroke-width="2" fill="#919BA5" d="M11 428h141v89H11zm0-86h141v79H11z"/>
    <path stroke="#ACACAC" stroke-width="2" d="M320 428h141v89H320z"/>
    <path stroke="#979797" stroke-width="2" d="M474 428h141v89H474zm-1-86h141v79H473z"/>
    <path stroke="#5D5A5A" stroke-width="2" fill="#919BA5" d="M630 428h141v89H630zm-1-86h141v79H629z"/>
    <path stroke="#979797" stroke-width="2" fill="#AFB8C1" d="M319 342h141v79H319z"/>
    <path stroke="#ACACAC" stroke-width="2" fill="#AFB8C1" fill-rule="nonzero" d="M166 427h141v89H166z"/>
    <path stroke="#ACACAC" stroke-width="2" fill="#AFB8C1" d="M167 342h141v79H167z"/>
    <text font-family="PTSans-Bold, PT Sans" font-size="16" font-weight="bold" fill="#FFF">
      <tspan x="59" y="390">item-1</tspan>
    </text>
    <text font-family="PTSans-Bold, PT Sans" font-size="16" font-weight="bold" fill="#FFF">
      <tspan x="215" y="390">item-2</tspan>
    </text>
    <text font-family="PTSans-Bold, PT Sans" font-size="16" font-weight="bold" fill="#FFF">
      <tspan x="214" y="469">item-3</tspan>
    </text>
    <text font-family="PTSans-Bold, PT Sans" font-size="16" font-weight="bold" fill="#FFF">
      <tspan x="369" y="386">item-4</tspan>
    </text>
    <text font-family="PTSans-Bold, PT Sans" font-size="16" font-weight="bold" fill="#FFF">
      <tspan x="677" y="390">item-5</tspan>
    </text>
    <text font-family="PTSans-Bold, PT Sans" font-size="16" font-weight="bold" fill="#555">
      <tspan x="19" y="33">grid-auto-flow: row</tspan>
    </text>
    <text font-family="PTSans-Bold, PT Sans" font-size="16" font-weight="bold" fill="#555">
      <tspan x="11" y="319">grid-auto-flow: column</tspan>
    </text>
  </g>
</svg>
