<svg width="420" height="479" xmlns="http://www.w3.org/2000/svg" xmlns:xlink="http://www.w3.org/1999/xlink">
  <defs>
    <path id="a" d="M241 209h174v244H241z"/>
    <path id="b" d="M241 88h174v100H241z"/>
    <path id="c" d="M130 209h96v244h-96z"/>
    <path id="d" d="M130 88h96v100h-96z"/>
  </defs>
  <g fill="none" fill-rule="evenodd">
    <use fill="#919BA5" xlink:href="#a"/>
    <path stroke="#5D5A5A" stroke-width="2" d="M242 210h172v242H242z"/>
    <use fill="#919BA5" xlink:href="#b"/>
    <path stroke="#5D5A5A" stroke-width="2" d="M242 89h172v98H242z"/>
    <use fill="#919BA5" xlink:href="#c"/>
    <path stroke="#5D5A5A" stroke-width="2" d="M131 210h94v242h-94z"/>
    <use fill="#919BA5" xlink:href="#d"/>
    <path stroke="#5D5A5A" stroke-width="2" d="M131 89h94v98h-94z"/>
    <text font-family="PTSans-Bold, PT Sans" font-size="15" font-weight="bold" fill="#498CF3">
      <tspan x="221" y="73">20px</tspan>
    </text>
    <text font-family="PTSans-Bold, PT Sans" font-size="15" font-weight="bold" fill="#498CF3">
      <tspan x="105" y="70">20px</tspan>
    </text>
    <text font-family="PTSans-Bold, PT Sans" font-size="15" font-weight="bold" fill="#498CF3">
      <tspan x="49" y="202">20px</tspan>
    </text>
    <path stroke="#979797" stroke-width="2" d="M20 210h94v242H20zm0-121h94v98H20z"/>
    <text font-family="PTSans-Bold, PT Sans" font-size="16" font-weight="bold" fill="#1B1B1D">
      <tspan x="23" y="30">grid-gap: 20px</tspan>
    </text>
    <text font-family="PTSans-Regular, PT Sans" font-size="15" fill="#1B1B1D">
      <tspan x="145" y="31">Grid-column: 1 / 4</tspan>
    </text>
    <text font-family="PTSans-Regular, PT Sans" font-size="15" fill="#1B1B1D">
      <tspan x="293" y="31">Grid-row: 2 / 4</tspan>
    </text>
  </g>
</svg>
