<svg width="420" height="752" xmlns="http://www.w3.org/2000/svg">
  <g fill="none" fill-rule="evenodd">
    <g fill-rule="nonzero">
      <path fill="#E0E7EE" d="M6 60h199v145H6z"/>
      <path fill="#AFB8C1" d="M6 60h52.105v56H6z"/>
      <path fill="#919BA5" d="M62.727 60h52.038v56H62.727z"/>
      <path fill="#7D8793" d="M118.082 60h52.037v56h-52.038z"/>
      <path fill="#AFB8C1" d="M6 120h52.105v56H6z"/>
      <path fill="#919BA5" d="M62.727 120h52.038v56H62.727z"/>
      <path fill="#7D8793" d="M118.082 120h52.037v56h-52.038z"/>
    </g>
    <path d="M9.832 47.658a.57.57 0 0 0-.273-.493 3.332 3.332 0 0 0-.673-.339 21.828 21.828 0 0 0-.882-.316 3.36 3.36 0 0 1-.882-.446 2.482 2.482 0 0 1-.673-.724c-.182-.293-.273-.67-.273-1.133 0-.76.235-1.34.706-1.74.47-.401 1.148-.601 2.036-.601.609 0 1.16.061 1.651.184.491.124.876.262 1.154.416l-.465 1.449a10.936 10.936 0 0 0-.93-.293 4.28 4.28 0 0 0-1.138-.154c-.62 0-.93.23-.93.693 0 .185.09.334.273.447a3.7 3.7 0 0 0 .673.316c.267.097.561.202.882.315.32.113.614.26.882.44.266.18.49.414.673.7.18.288.273.658.273 1.11 0 .78-.26 1.394-.778 1.84-.519.447-1.296.67-2.332.67a5.913 5.913 0 0 1-1.596-.207c-.497-.139-.901-.3-1.21-.485l.577-1.495c.246.134.571.265.978.393a4.13 4.13 0 0 0 1.25.193c.31 0 .559-.057.746-.17.186-.112.28-.303.28-.57zm2.701-5.577h1.106v-1.448l2.084-.57v2.018h1.956v1.695h-1.956v2.958c0 .534.056.916.169 1.148.112.23.323.346.633.346.214 0 .399-.02.553-.061.178-.05.352-.112.521-.185l.369 1.54a5.437 5.437 0 0 1-1.01.34 4.993 4.993 0 0 1-1.17.138c-.738 0-1.28-.183-1.628-.547-.346-.365-.52-.963-.52-1.795v-3.882h-1.107V42.08zm6.47.447c.488-.202 1-.35 1.523-.44a10.17 10.17 0 0 1 1.844-.16c.556 0 1.02.064 1.394.192.375.128.672.31.89.547.22.236.375.519.465.847.091.328.136.698.136 1.11 0 .452-.016.905-.048 1.363-.032.457-.05.906-.056 1.348-.005.442.008.87.04 1.286.032.416.112.809.24 1.179h-1.699l-.336-1.063h-.08c-.214.317-.51.593-.89.824-.38.23-.868.346-1.467.346-.374 0-.71-.053-1.01-.161a2.19 2.19 0 0 1-.77-.463 2.103 2.103 0 0 1-.497-.708 2.29 2.29 0 0 1-.176-.917c0-.472.11-.87.329-1.194.219-.323.535-.585.945-.786.412-.2.904-.338 1.475-.415.635-.08 1.277-.103 1.916-.07.075-.575.032-.989-.128-1.24s-.518-.377-1.074-.377a7.63 7.63 0 0 0-1.323.123c-.465.082-.847.19-1.146.323l-.497-1.494zm2.645 5.731c.417 0 .749-.09.994-.27.247-.18.428-.372.545-.577V46.41a5.965 5.965 0 0 0-.954-.015 3.63 3.63 0 0 0-.81.139 1.37 1.37 0 0 0-.56.308.674.674 0 0 0-.209.508c0 .288.088.51.265.67.176.16.42.239.73.239zm9.87-4.298a2.812 2.812 0 0 0-.899-.17c-.374 0-.686.096-.938.285a1.375 1.375 0 0 0-.505.732v4.976h-2.084v-7.703h1.62l.24 1.017h.064c.182-.38.428-.673.737-.878.31-.205.674-.308 1.09-.308.279 0 .594.057.946.17l-.272 1.879zm.937-1.88h1.106v-1.448l2.084-.57v2.018h1.956v1.695h-1.956v2.958c0 .534.056.916.168 1.148.113.23.324.346.634.346.213 0 .397-.02.553-.061.178-.05.352-.112.52-.185l.37 1.54a5.437 5.437 0 0 1-1.01.34 4.993 4.993 0 0 1-1.17.138c-.738 0-1.28-.183-1.628-.547-.348-.365-.521-.963-.521-1.795v-3.882h-1.106V42.08zm194.925 7.04c-.32.247-.757.455-1.307.625a5.934 5.934 0 0 1-1.755.254c-1.294 0-2.24-.362-2.838-1.086-.599-.724-.898-1.718-.898-2.981 0-1.356.337-2.373 1.01-3.05.674-.679 1.62-1.017 2.838-1.017.406 0 .802.05 1.186.154.385.103.727.272 1.026.508.299.236.54.555.722.955.18.4.272.899.272 1.495 0 .215-.014.446-.04.693a8.72 8.72 0 0 1-.12.77h-4.81c.033.647.206 1.135.522 1.464.314.328.825.493 1.53.493.438 0 .831-.065 1.179-.193.347-.128.611-.26.794-.393l.689 1.31zm-2.982-5.653c-.545 0-.949.157-1.21.47-.263.313-.421.731-.473 1.255h2.982c.042-.554-.047-.981-.265-1.278-.22-.299-.564-.447-1.034-.447zm9.707 6.316V45.41c0-.626-.093-1.079-.28-1.356-.187-.277-.505-.416-.954-.416-.395 0-.73.11-1.002.331-.27.218-.473.503-.585.825v4.991H229.2v-7.703h1.65l.241 1.017h.064c.247-.328.573-.616.978-.863.407-.246.93-.37 1.572-.37.395 0 .748.052 1.058.155.31.103.572.272.785.508.215.236.375.557.481.963.107.405.16.906.16 1.502v4.791h-2.084zm10.735-2.711c0 .431.006.862.016 1.294.01.431.059.909.144 1.433h-1.491l-.289-1.002h-.064c-.213.36-.52.65-.922.87-.4.222-.873.332-1.418.332-1.004 0-1.785-.318-2.341-.955-.555-.637-.834-1.633-.834-2.99 0-1.313.311-2.336.93-3.065.62-.729 1.53-1.094 2.726-1.094.331 0 .604.019.817.054a3.3 3.3 0 0 1 .642.177V39h2.084v8.073zm-3.543 1.232c.406 0 .727-.095.962-.285.235-.19.4-.465.497-.824V43.93a1.612 1.612 0 0 0-.497-.254 2.431 2.431 0 0 0-.706-.085c-.587 0-1.028.19-1.322.57-.294.38-.441 1.032-.441 1.957 0 .657.12 1.186.36 1.586.24.4.624.601 1.147.601z" fill="#555" fill-rule="nonzero"/>
    <path fill="#E0E7EE" d="M217 60h199v145H217z"/>
    <g fill-rule="nonzero">
      <path fill="#AFB8C1" d="M251.825 60h52.105v56h-52.105z"/>
      <path fill="#919BA5" d="M308.552 60h52.038v56h-52.038z"/>
      <path fill="#7D8793" d="M363.907 60h52.037v56h-52.038z"/>
      <path fill="#AFB8C1" d="M251.825 120h52.105v56h-52.105z"/>
      <path fill="#919BA5" d="M308.552 120h52.038v56h-52.038z"/>
      <path fill="#7D8793" d="M363.907 120h52.037v56h-52.038z"/>
    </g>
    <path fill="#E0E7EE" fill-rule="nonzero" d="M6 240h199v145H6zm210 0h199v145H216z"/>
    <g fill-rule="nonzero">
      <path fill="#AFB8C1" d="M24.166 240h51.889v56H24.166z"/>
      <path fill="#919BA5" d="M80.657 240h51.823v56H80.657z"/>
      <path fill="#7D8793" d="M135.783 240h51.821v56h-51.822z"/>
      <path fill="#AFB8C1" d="M24.166 300h51.889v56H24.166z"/>
      <path fill="#919BA5" d="M80.657 300h51.823v56H80.657z"/>
      <path fill="#7D8793" d="M135.783 300h51.821v56h-51.822z"/>
    </g>
    <g fill-rule="nonzero">
      <path fill="#AFB8C1" d="M216 241h63v69h-63z"/>
      <path fill="#919BA5" d="M285 241h63v69h-63z"/>
      <path fill="#7D8793" d="M352.001 241H415v69h-63z"/>
      <path fill="#AFB8C1" d="M216 315h63v69h-63z"/>
      <path fill="#919BA5" d="M285 315h63v69h-63z"/>
      <path fill="#7D8793" d="M352.001 315H415v69h-63z"/>
    </g>
    <path fill="#E0E7EE" d="M6 418h199v145H6z"/>
    <g fill-rule="nonzero">
      <path fill="#AFB8C1" d="M6 418h52.105v56H6z"/>
      <path fill="#919BA5" d="M80.968 418h52.039v56H80.968z"/>
      <path fill="#7D8793" d="M152.907 418h52.037v56h-52.038z"/>
      <path fill="#AFB8C1" d="M6 478h52.105v56H6z"/>
      <path fill="#919BA5" d="M80.968 478h52.039v56H80.968z"/>
      <path fill="#7D8793" d="M152.907 478h52.037v56h-52.038z"/>
    </g>
    <text fill="#555" font-family="PTSans-Bold, PT Sans" font-size="17" font-weight="bold">
      <tspan x="7" y="411">space-between</tspan>
    </text>
    <text font-family="PTSans-Bold, PT Sans" font-size="17" font-weight="bold" fill="#555">
      <tspan x="219" y="229">stretch</tspan>
    </text>
    <text font-family="PTSans-Bold, PT Sans" font-size="17" font-weight="bold" fill="#555">
      <tspan x="6" y="229">center</tspan>
    </text>
    <g fill-rule="nonzero">
      <path fill="#E0E7EE" d="M216 418h200v145H216z"/>
      <path fill="#AFB8C1" d="M225 419h52v56h-52z"/>
      <path fill="#919BA5" d="M291 419h52v56h-52z"/>
      <path fill="#7D8793" d="M355 419h52v56h-52z"/>
      <path fill="#AFB8C1" d="M225 479h52v56h-52z"/>
      <path fill="#919BA5" d="M291 479h52v56h-52z"/>
      <path fill="#7D8793" d="M355 479h52v56h-52z"/>
    </g>
    <text fill="#555" font-family="PTSans-Bold, PT Sans" font-size="17" font-weight="bold">
      <tspan x="216" y="408">space-around</tspan>
    </text>
    <text font-family="PTSans-Bold, PT Sans" font-size="17" font-weight="bold" fill="#555">
      <tspan x="4" y="19">Justify-content</tspan>
    </text>
    <g fill-rule="nonzero">
      <path fill="#E0E7EE" d="M88 602h241v145H88z"/>
      <path fill="#AFB8C1" d="M102 603h62.84v56H102z"/>
      <path fill="#919BA5" d="M178 603h62.76v56H178z"/>
      <path fill="#7D8793" d="M253.001 603h62.759v56H253z"/>
      <path fill="#AFB8C1" d="M102 663h62.84v56H102z"/>
      <path fill="#919BA5" d="M178 663h62.76v56H178z"/>
      <path fill="#7D8793" d="M253.001 663h62.759v56H253z"/>
    </g>
    <text fill="#555" font-family="PTSans-Bold, PT Sans" font-size="17" font-weight="bold">
      <tspan x="88" y="594">space-evenly</tspan>
    </text>
  </g>
</svg>
