<svg width="827" height="591" xmlns="http://www.w3.org/2000/svg">
  <g fill="none" fill-rule="evenodd">
    <g fill-rule="nonzero">
      <path fill="#E0E7EE" d="M155 444h241v145H155z"/>
      <path fill="#AFB8C1" d="M166 445h62.84v56H166z"/>
      <path fill="#919BA5" d="M245 445h62.76v56H245z"/>
      <path fill="#7D8793" d="M323.001 445h62.759v56H323z"/>
      <path fill="#AFB8C1" d="M166 505h62.84v56H166z"/>
      <path fill="#919BA5" d="M245 505h62.76v56H245z"/>
      <path fill="#7D8793" d="M323.001 505h62.759v56H323z"/>
    </g>
    <g fill-rule="nonzero">
      <path fill="#E0E7EE" d="M466 442h241v145H466z"/>
      <path fill="#AFB8C1" d="M480 443h62.84v56H480z"/>
      <path fill="#919BA5" d="M556 443h62.76v56H556z"/>
      <path fill="#7D8793" d="M631.001 443h62.759v56H631z"/>
      <path fill="#AFB8C1" d="M480 503h62.84v56H480z"/>
      <path fill="#919BA5" d="M556 503h62.76v56H556z"/>
      <path fill="#7D8793" d="M631.001 503h62.759v56H631z"/>
    </g>
    <path fill="#E0E7EE" fill-rule="nonzero" d="M156 259h240v145H156z"/>
    <g fill-rule="nonzero">
      <path fill="#AFB8C1" d="M156 259h75.784v69.114H156z"/>
      <path fill="#919BA5" d="M238.506 259h75.687v69.114h-75.687z"/>
      <path fill="#7D8793" d="M319.017 259h75.686v69.114h-75.687z"/>
      <path fill="#AFB8C1" d="M156 333.05h75.784v69.114H156z"/>
      <path fill="#919BA5" d="M238.506 333.05h75.687v69.114h-75.687z"/>
      <path fill="#7D8793" d="M319.017 333.05h75.686v69.114h-75.687z"/>
    </g>
    <path fill="#E0E7EE" d="M465 259h240v145H465z"/>
    <g fill-rule="nonzero">
      <path fill="#AFB8C1" d="M465 259h62.84v56H465z"/>
      <path fill="#919BA5" d="M555.414 259h62.76v56h-62.76z"/>
      <path fill="#7D8793" d="M642.174 259h62.759v56h-62.76z"/>
      <path fill="#AFB8C1" d="M465 319h62.84v56H465z"/>
      <path fill="#919BA5" d="M555.414 319h62.76v56h-62.76z"/>
      <path fill="#7D8793" d="M642.174 319h62.759v56h-62.76z"/>
    </g>
    <g fill-rule="nonzero">
      <path fill="#E0E7EE" d="M5 68h240v145H5z"/>
      <path fill="#AFB8C1" d="M5 68h62.84v56H5z"/>
      <path fill="#919BA5" d="M73.414 68h62.76v56h-62.76z"/>
      <path fill="#7D8793" d="M140.174 68h62.759v56h-62.76z"/>
      <path fill="#AFB8C1" d="M5 128h62.84v56H5z"/>
      <path fill="#919BA5" d="M73.414 128h62.76v56h-62.76z"/>
      <path fill="#7D8793" d="M140.174 128h62.759v56h-62.76z"/>
    </g>
    <path d="M8.826 55.658a.57.57 0 0 0-.272-.493 3.325 3.325 0 0 0-.673-.339c-.267-.103-.56-.208-.88-.316a3.353 3.353 0 0 1-.88-.446 2.48 2.48 0 0 1-.673-.724c-.182-.293-.272-.67-.272-1.133 0-.76.234-1.34.704-1.74.47-.401 1.147-.601 2.033-.601a6.78 6.78 0 0 1 1.649.184c.49.124.874.262 1.152.416l-.464 1.449a10.906 10.906 0 0 0-.928-.293 4.268 4.268 0 0 0-1.137-.154c-.62 0-.928.23-.928.693 0 .185.09.334.272.447a3.6 3.6 0 0 0 .672.316c.266.097.56.202.88.315.32.113.614.26.881.44.266.18.49.414.672.7.18.288.273.658.273 1.11 0 .78-.26 1.394-.777 1.84-.518.447-1.294.67-2.329.67a5.895 5.895 0 0 1-1.592-.207c-.497-.139-.9-.3-1.209-.485l.576-1.495c.245.134.57.265.977.393.405.128.82.193 1.248.193.31 0 .557-.057.745-.17.186-.112.28-.303.28-.57zm2.697-5.577h1.104v-1.448l2.081-.57v2.018h1.953v1.695h-1.953v2.958c0 .534.056.916.168 1.148.112.23.323.346.632.346.215 0 .399-.02.553-.061.178-.05.351-.112.52-.185l.368 1.54a5.423 5.423 0 0 1-1.008.34 4.978 4.978 0 0 1-1.169.138c-.736 0-1.277-.183-1.625-.547-.346-.365-.52-.963-.52-1.795v-3.882h-1.104V50.08zm6.46.447a7.12 7.12 0 0 1 1.52-.44 10.136 10.136 0 0 1 1.841-.16c.555 0 1.02.064 1.393.192.374.128.67.31.888.547.219.236.374.519.464.847.091.328.136.698.136 1.11 0 .452-.016.905-.048 1.363-.032.457-.05.906-.056 1.348-.005.442.008.87.04 1.286.032.416.112.809.24 1.179h-1.696l-.337-1.063h-.08a2.809 2.809 0 0 1-.888.824c-.378.23-.866.346-1.465.346-.373 0-.709-.053-1.008-.161a2.197 2.197 0 0 1-.768-.463 2.103 2.103 0 0 1-.497-.708 2.292 2.292 0 0 1-.176-.917c0-.472.11-.87.328-1.194.22-.323.535-.585.945-.786.411-.2.902-.338 1.472-.415.635-.08 1.275-.103 1.913-.07.075-.575.032-.989-.128-1.24s-.517-.377-1.072-.377a7.62 7.62 0 0 0-1.32.123c-.465.082-.846.19-1.145.323l-.496-1.494zm2.64 5.731c.417 0 .748-.09.993-.27a1.9 1.9 0 0 0 .544-.577V54.41a5.947 5.947 0 0 0-.952-.015 3.62 3.62 0 0 0-.808.139c-.21.057-.403.163-.56.308a.675.675 0 0 0-.209.508c0 .288.088.51.264.67.176.16.42.239.729.239zm9.855-4.298a2.804 2.804 0 0 0-.898-.17c-.373 0-.685.096-.936.285a1.375 1.375 0 0 0-.504.732v4.976h-2.081v-7.703h1.617l.24 1.017h.064c.182-.38.427-.673.736-.878.31-.205.672-.308 1.089-.308.278 0 .592.057.944.17l-.272 1.879zm.935-1.88h1.105v-1.448l2.08-.57v2.018h1.953v1.695H34.6v2.958c0 .534.056.916.168 1.148.112.23.323.346.632.346.213 0 .397-.02.552-.061.178-.05.352-.112.52-.185l.369 1.54a5.423 5.423 0 0 1-1.009.34 4.978 4.978 0 0 1-1.168.138c-.737 0-1.278-.183-1.625-.547-.347-.365-.52-.963-.52-1.795v-3.882h-1.105V50.08zm258.62 7.04c-.32.247-.755.455-1.304.625a5.916 5.916 0 0 1-1.753.254c-1.292 0-2.236-.362-2.833-1.086-.599-.724-.897-1.718-.897-2.981 0-1.356.336-2.373 1.009-3.05.672-.679 1.616-1.017 2.833-1.017.405 0 .8.05 1.184.154a2.81 2.81 0 0 1 1.025.508c.298.236.538.555.72.955.18.4.272.899.272 1.495 0 .215-.014.446-.04.693a8.734 8.734 0 0 1-.12.77h-4.802c.032.647.205 1.135.52 1.464.315.328.825.493 1.53.493.436 0 .828-.065 1.176-.193.346-.128.61-.26.792-.393l.688 1.31zm-2.977-5.653c-.544 0-.947.157-1.209.47-.262.313-.42.731-.472 1.255h2.978c.042-.554-.047-.981-.265-1.278-.22-.299-.563-.447-1.032-.447zm9.692 6.316V53.41c0-.626-.093-1.079-.28-1.356-.186-.277-.504-.416-.952-.416-.395 0-.729.11-1 .331-.27.218-.473.503-.585.825v4.991h-2.081v-7.703h1.649l.24 1.017h.064c.246-.328.571-.616.976-.863.406-.246.929-.37 1.569-.37.395 0 .747.052 1.056.155.31.103.572.272.785.508.214.236.374.557.48.963.107.405.16.906.16 1.502v4.791h-2.08zm10.718-2.711c0 .431.006.862.016 1.294.01.431.059.909.144 1.433h-1.489l-.288-1.002h-.064c-.213.36-.52.65-.92.87-.4.222-.873.332-1.417.332-1.002 0-1.782-.318-2.337-.955-.554-.637-.832-1.633-.832-2.99 0-1.313.31-2.336.928-3.065.62-.729 1.527-1.094 2.721-1.094a5.1 5.1 0 0 1 .816.054c.215.036.428.096.64.177V47h2.082v8.073zm-3.538 1.232c.406 0 .726-.095.96-.285.236-.19.4-.465.497-.824V51.93a1.609 1.609 0 0 0-.496-.254 2.424 2.424 0 0 0-.705-.085c-.586 0-1.026.19-1.32.57-.293.38-.44 1.032-.44 1.957 0 .657.12 1.186.36 1.586.24.4.622.601 1.144.601zm280.451 1.002c-.35.24-.743.414-1.16.516a5.518 5.518 0 0 1-1.4.177c-.64 0-1.181-.097-1.625-.293a2.755 2.755 0 0 1-1.08-.824 3.339 3.339 0 0 1-.601-1.286 7.023 7.023 0 0 1-.184-1.664c0-1.305.304-2.308.912-3.012.608-.703 1.495-1.055 2.657-1.055.588 0 1.06.046 1.417.138.358.093.68.211.968.355l-.496 1.633a4.299 4.299 0 0 0-.728-.262 3.3 3.3 0 0 0-.824-.093c-.577 0-1.014.183-1.313.547-.298.365-.448.948-.448 1.749 0 .328.038.631.112.909.075.277.187.519.336.724.15.205.344.367.584.485s.52.177.84.177c.353 0 .652-.043.897-.13.246-.087.464-.193.656-.317l.48 1.526zm7.485-.185c-.32.246-.755.454-1.305.624a5.916 5.916 0 0 1-1.753.254c-1.29 0-2.235-.362-2.833-1.086-.597-.724-.896-1.718-.896-2.981 0-1.356.336-2.373 1.008-3.05.672-.679 1.617-1.017 2.833-1.017.407 0 .8.05 1.185.154.375.098.724.271 1.024.508.3.236.54.555.72.955.183.4.273.899.273 1.495 0 .215-.013.446-.04.693a8.733 8.733 0 0 1-.12.77h-4.802c.032.647.206 1.135.52 1.464.315.328.824.493 1.528.493.439 0 .83-.065 1.177-.193.347-.128.611-.26.792-.393l.689 1.31zm-2.978-5.654c-.544 0-.946.157-1.208.47-.261.313-.418.731-.472 1.255h2.977c.043-.554-.045-.981-.264-1.278-.218-.299-.562-.447-1.033-.447zm9.694 6.316V53.41c0-.626-.094-1.079-.28-1.356-.187-.277-.505-.416-.953-.416-.394 0-.728.11-1 .331-.27.218-.473.503-.585.825v4.991h-2.08v-7.703h1.648l.24 1.017h.064c.246-.328.57-.616.977-.863.406-.246.928-.37 1.568-.37.395 0 .748.052 1.057.155.31.103.57.272.784.508.214.236.374.557.48.963.107.405.16.906.16 1.502v4.791h-2.08zm3.082-7.703h1.104v-1.448l2.081-.57v2.018h1.953v1.695h-1.953v2.958c0 .534.056.916.168 1.148.112.23.323.346.632.346.214 0 .398-.02.553-.061.178-.05.351-.112.52-.185l.368 1.54a5.423 5.423 0 0 1-1.008.34 4.978 4.978 0 0 1-1.169.138c-.736 0-1.277-.183-1.625-.547-.347-.365-.52-.963-.52-1.795v-3.882h-1.104V50.08zm12.83 7.04c-.32.247-.755.455-1.304.625a5.916 5.916 0 0 1-1.753.254c-1.29 0-2.236-.362-2.833-1.086-.598-.724-.897-1.718-.897-2.981 0-1.356.336-2.373 1.009-3.05.672-.679 1.616-1.017 2.833-1.017.405 0 .8.05 1.184.154.385.103.726.272 1.025.508.299.236.54.555.72.955.181.4.272.899.272 1.495 0 .215-.013.446-.04.693a8.734 8.734 0 0 1-.12.77h-4.802c.032.647.205 1.135.52 1.464.316.328.825.493 1.53.493.436 0 .83-.065 1.176-.193.347-.128.61-.26.792-.393l.688 1.31zm-2.977-5.653c-.544 0-.947.157-1.209.47-.26.313-.419.731-.472 1.255h2.978c.043-.554-.046-.981-.265-1.278-.219-.299-.563-.447-1.032-.447zm9.213.493a2.804 2.804 0 0 0-.896-.17c-.374 0-.686.096-.937.285-.25.19-.42.434-.504.732v4.976h-2.081v-7.703h1.617l.24 1.017h.064c.18-.38.427-.673.736-.878.31-.205.672-.308 1.089-.308.277 0 .592.057.944.17l-.272 1.879z" fill="#555" fill-rule="nonzero"/>
    <g fill-rule="nonzero">
      <path fill="#E0E7EE" d="M578 68h241v145H578z"/>
      <path fill="#AFB8C1" d="M600 68h62.84v56H600z"/>
      <path fill="#919BA5" d="M668.414 68h62.76v56h-62.76z"/>
      <path fill="#7D8793" d="M735.174 68h62.759v56h-62.76z"/>
      <path fill="#AFB8C1" d="M600 128h62.84v56H600z"/>
      <path fill="#919BA5" d="M668.414 128h62.76v56h-62.76z"/>
      <path fill="#7D8793" d="M735.174 128h62.759v56h-62.76z"/>
    </g>
    <path fill="#E0E7EE" d="M284 68h240v145H284z"/>
    <g fill-rule="nonzero">
      <path fill="#AFB8C1" d="M326 68h62.84v56H326z"/>
      <path fill="#919BA5" d="M394.414 68h62.76v56h-62.76z"/>
      <path fill="#7D8793" d="M461.174 68h62.759v56h-62.76z"/>
      <path fill="#AFB8C1" d="M326 128h62.84v56H326z"/>
      <path fill="#919BA5" d="M394.414 128h62.76v56h-62.76z"/>
      <path fill="#7D8793" d="M461.174 128h62.759v56h-62.76z"/>
    </g>
    <text fill="#555" font-family="PTSans-Bold, PT Sans" font-size="17" font-weight="bold">
      <tspan x="466" y="252">space-between</tspan>
    </text>
    <text fill="#555" font-family="PTSans-Bold, PT Sans" font-size="17" font-weight="bold">
      <tspan x="155" y="434">space-around</tspan>
    </text>
    <text fill="#555" font-family="PTSans-Bold, PT Sans" font-size="17" font-weight="bold">
      <tspan x="466" y="434">space-evenly</tspan>
    </text>
    <text font-family="PTSans-Bold, PT Sans" font-size="17" font-weight="bold" fill="#555">
      <tspan x="158" y="251">stretch</tspan>
    </text>
    <text font-family="PTSans-Bold, PT Sans" font-size="17" font-weight="bold" fill="#555">
      <tspan x="5" y="22">Justify-content</tspan>
    </text>
  </g>
</svg>
