<svg width="771" height="531" xmlns="http://www.w3.org/2000/svg">
  <g fill="none" fill-rule="evenodd">
    <path d="M8.829 55.658a.57.57 0 0 0-.272-.493 3.33 3.33 0 0 0-.673-.339 22.69 22.69 0 0 0-.881-.316 3.357 3.357 0 0 1-.882-.446 2.482 2.482 0 0 1-.672-.724c-.183-.293-.273-.67-.273-1.133 0-.76.235-1.34.705-1.74.47-.401 1.148-.601 2.035-.601.609 0 1.158.061 1.65.184.49.124.875.262 1.153.416l-.464 1.449a10.923 10.923 0 0 0-.93-.293 4.275 4.275 0 0 0-1.137-.154c-.62 0-.929.23-.929.693 0 .185.09.334.272.447a3.7 3.7 0 0 0 .673.316c.267.097.56.202.881.315.32.113.614.26.882.44.266.18.49.414.672.7.18.288.273.658.273 1.11 0 .78-.26 1.394-.777 1.84-.519.447-1.296.67-2.331.67a5.905 5.905 0 0 1-1.594-.207c-.497-.139-.902-.3-1.21-.485l.577-1.495c.245.134.57.265.977.393.406.128.821.193 1.25.193.31 0 .557-.057.745-.17.186-.112.28-.303.28-.57zm2.7-5.577h1.105v-1.448l2.083-.57v2.018h1.954v1.695h-1.954v2.958c0 .534.056.916.168 1.148.112.23.323.346.633.346.214 0 .398-.02.552-.061.178-.05.352-.112.521-.185l.369 1.54a5.43 5.43 0 0 1-1.01.34 4.986 4.986 0 0 1-1.17.138c-.736 0-1.278-.183-1.625-.547-.347-.365-.521-.963-.521-1.795v-3.882h-1.105V50.08zm6.465.447c.488-.202.999-.35 1.522-.44a10.19 10.19 0 0 1 1.842-.16c.556 0 1.02.064 1.394.192.375.128.671.31.89.547.219.236.374.519.464.847.091.328.136.698.136 1.11 0 .452-.016.905-.048 1.363-.032.457-.05.906-.056 1.348-.005.442.008.87.04 1.286.032.416.112.809.24 1.179H22.72l-.336-1.063h-.08c-.214.317-.51.593-.89.824-.378.23-.867.346-1.465.346-.374 0-.71-.053-1.01-.161a2.2 2.2 0 0 1-.769-.463 2.103 2.103 0 0 1-.496-.708 2.29 2.29 0 0 1-.177-.917c0-.472.11-.87.329-1.194.22-.323.534-.585.945-.786.412-.2.903-.338 1.474-.415.635-.08 1.275-.103 1.914-.07.076-.575.033-.989-.128-1.24-.16-.251-.517-.377-1.073-.377-.417 0-.857.041-1.322.123-.464.082-.846.19-1.145.323l-.497-1.494zm2.643 5.731c.417 0 .748-.09.994-.27a1.9 1.9 0 0 0 .544-.577V54.41a5.957 5.957 0 0 0-.953-.015 3.57 3.57 0 0 0-.809.139 1.37 1.37 0 0 0-.56.308.675.675 0 0 0-.209.508c0 .288.088.51.265.67.176.16.42.239.728.239zm9.863-4.298a2.809 2.809 0 0 0-.898-.17c-.373 0-.686.096-.937.285a1.375 1.375 0 0 0-.505.732v4.976h-2.082v-7.703h1.618l.24 1.017H28c.182-.38.428-.673.737-.878a1.93 1.93 0 0 1 1.09-.308c.278 0 .592.057.945.17l-.273 1.879h.001zm.937-1.88h1.105v-1.448l2.083-.57v2.018h1.954v1.695h-1.954v2.958c0 .534.056.916.168 1.148.112.23.323.346.633.346.213 0 .397-.02.553-.061.178-.05.352-.112.52-.185l.369 1.54a5.43 5.43 0 0 1-1.01.34 4.986 4.986 0 0 1-1.17.138c-.736 0-1.278-.183-1.625-.547-.348-.365-.52-.963-.52-1.795v-3.882h-1.106V50.08zm378.955 7.04c-.32.247-.756.455-1.306.625a5.926 5.926 0 0 1-1.754.254c-1.293 0-2.238-.362-2.836-1.086-.599-.724-.897-1.718-.897-2.981 0-1.356.336-2.373 1.01-3.05.672-.679 1.617-1.017 2.835-1.017.406 0 .801.05 1.186.154a2.81 2.81 0 0 1 1.025.508c.298.236.539.555.72.955.181.4.273.899.273 1.495 0 .215-.014.446-.04.693a8.726 8.726 0 0 1-.12.77h-4.806c.032.647.205 1.135.52 1.464.315.328.826.493 1.53.493.438 0 .83-.065 1.178-.193.346-.128.61-.26.793-.393l.689 1.31zm-2.98-5.653c-.545 0-.948.157-1.21.47-.262.313-.42.731-.472 1.255h2.98c.042-.554-.046-.981-.265-1.278-.22-.299-.563-.447-1.033-.447zm9.7 6.316V53.41c0-.626-.092-1.079-.28-1.356-.186-.277-.504-.416-.953-.416-.394 0-.729.11-1.001.331-.27.218-.473.503-.585.825v4.991h-2.083v-7.703h1.65l.24 1.017h.065a3.44 3.44 0 0 1 .977-.863c.407-.246.93-.37 1.57-.37.396 0 .748.052 1.058.155.31.103.571.272.785.508.214.236.374.557.48.963.107.405.16.906.16 1.502v4.791h-2.082zm10.728-2.711c0 .431.006.862.016 1.294.01.431.059.909.144 1.433h-1.49l-.288-1.002h-.064a2.37 2.37 0 0 1-.922.87c-.4.222-.873.332-1.417.332-1.004 0-1.784-.318-2.34-.955-.554-.637-.833-1.633-.833-2.99 0-1.313.31-2.336.93-3.065.62-.729 1.528-1.094 2.723-1.094.332 0 .604.019.817.054.215.036.428.096.641.177V47h2.083v8.073zm-3.54 1.232c.406 0 .726-.095.96-.285.236-.19.4-.465.497-.824V51.93a1.61 1.61 0 0 0-.497-.254 2.428 2.428 0 0 0-.705-.085c-.586 0-1.027.19-1.321.57-.294.38-.44 1.032-.44 1.957 0 .657.12 1.186.36 1.586.24.4.622.601 1.145.601z" fill="#555" fill-rule="nonzero"/>
    <text font-family="PTSans-Bold, PT Sans" font-size="17" font-weight="bold" fill="#555">
      <tspan x="6" y="304">center</tspan>
    </text>
    <text font-family="PTSans-Bold, PT Sans" font-size="17" font-weight="bold" fill="#555">
      <tspan x="402" y="308">stretch</tspan>
    </text>
    <text font-family="PTSans-Bold, PT Sans" font-size="17" font-weight="bold" fill="#555">
      <tspan x="5" y="22">Justify-items</tspan>
    </text>
    <path fill="#E0E7EE" fill-rule="nonzero" d="M3 68h324v206H3z"/>
    <path fill="#AFB8C1" fill-rule="nonzero" d="M4 68.984h65.423v204H4z"/>
    <path fill="#919BA5" fill-rule="nonzero" d="M98.737 68.984h65.34v204h-65.34z"/>
    <path fill="#7D8793" fill-rule="nonzero" d="M233.161 68.984H298.5v204h-65.34z"/>
    <path stroke="#555" stroke-width="2" d="M3.09 68h95.474v97.608H3.09z"/>
    <path stroke="#555" stroke-width="2" d="M98.564 68h134v98.364h-134zm134.186 0h95.473v97.608h-95.475z"/>
    <path stroke="#555" stroke-width="2" d="M3.09 165.846h95.474v107.601H3.09z"/>
    <path stroke="#555" stroke-width="2" d="M98.564 165.846h134v107.601h-134zm134.186 0h95.473v107.601h-95.475z"/>
    <path fill="#E0E7EE" fill-rule="nonzero" d="M403 314h324v206H403z"/>
    <path fill="#AFB8C1" fill-rule="nonzero" d="M404 314.984h95.475v204H404z"/>
    <path fill="#919BA5" fill-rule="nonzero" d="M498.748 314.984h134v204h-134z"/>
    <path fill="#7D8793" fill-rule="nonzero" d="M633.527 314.984H729v204h-95.475z"/>
    <path stroke="#555" stroke-width="2" d="M403.09 314h95.474v97.608H403.09zm95.474 0h134v98.364h-134zm134.186 0h95.473v97.608h-95.475zm-229.66 97.846h95.474v107.601H403.09z"/>
    <path stroke="#555" stroke-width="2" d="M498.564 411.846h134v107.601h-134zm134.186 0h95.473v107.601h-95.475z"/>
    <path fill="#E0E7EE" fill-rule="nonzero" d="M403 68h324v206H403z"/>
    <path fill="#AFB8C1" fill-rule="nonzero" d="M434 69h65v204h-65z"/>
    <path fill="#919BA5" fill-rule="nonzero" d="M529 69h65v204h-65z"/>
    <path fill="#7D8793" fill-rule="nonzero" d="M663.001 69H728v204h-65z"/>
    <path stroke="#555" stroke-width="2" d="M403 68h95v98h-95zm96 0h134v98H499zm134.002 0H728v98h-95zM403 166h95v108h-95zm96 0h134v108H499zm134.002 0H728v108h-95z"/>
    <path fill="#E0E7EE" fill-rule="nonzero" d="M3 314h324v206H3z"/>
    <path fill="#AFB8C1" fill-rule="nonzero" d="M19 314h65v204H19z"/>
    <path fill="#919BA5" fill-rule="nonzero" d="M132 314h65v204h-65z"/>
    <path fill="#7D8793" fill-rule="nonzero" d="M248.001 314H313v204h-65z"/>
    <path stroke="#555" stroke-width="2" d="M3 314h95v98H3zm96 0h134v98H99zm134.002 0H328v98h-95zM3 412h95v108H3zm96 0h134v108H99zm134.002 0H328v108h-95z"/>
  </g>
</svg>
