<svg width="653" height="289" xmlns="http://www.w3.org/2000/svg">
  <g fill="none" fill-rule="evenodd">
    <path fill="#E0E7EE" fill-rule="nonzero" d="M3 26h303v106H3z"/>
    <path fill="#AFB8C1" fill-rule="nonzero" d="M3 58h76v74H3z"/>
    <path fill="#9DA8B3" fill-rule="nonzero" d="M79 58h76v74H79z"/>
    <path fill="#7D8793" fill-rule="nonzero" d="M230 58h76v74h-76z"/>
    <path fill="#919BA5" fill-rule="nonzero" d="M154 58h76v74h-76z"/>
    <path d="M3.96 3.912a18.62 18.62 0 0 1 1.64-.208 23.364 23.364 0 0 1 1.56-.064c.523 0 1.037.048 1.544.144.507.096.96.261 1.36.496.4.235.72.557.96.968.24.41.36.925.36 1.544 0 .917-.213 1.664-.64 2.24a3.297 3.297 0 0 1-1.712 1.2l.784.496L12.376 15H9.848l-2.544-4.384-1.152-.208V15H3.96V3.912zm3.36 1.68c-.224 0-.445.005-.664.016a2.49 2.49 0 0 0-.504.064V8.92h.928c.608 0 1.093-.139 1.456-.416.363-.277.544-.736.544-1.376 0-.48-.15-.856-.448-1.128-.299-.272-.736-.408-1.312-.408zM12.392 11c0-1.355.33-2.397.992-3.128.661-.73 1.59-1.096 2.784-1.096.64 0 1.195.101 1.664.304.47.203.859.488 1.168.856.31.368.541.813.696 1.336.155.523.232 1.099.232 1.728 0 1.355-.328 2.397-.984 3.128-.656.73-1.581 1.096-2.776 1.096-.64 0-1.195-.101-1.664-.304a3.18 3.18 0 0 1-1.176-.856 3.595 3.595 0 0 1-.704-1.336A6.073 6.073 0 0 1 12.392 11zm2.144 0c0 .352.032.677.096.976.064.299.16.56.288.784.128.224.296.397.504.52.208.123.456.184.744.184.544 0 .95-.197 1.216-.592.267-.395.4-1.019.4-1.872 0-.736-.123-1.33-.368-1.784-.245-.453-.661-.68-1.248-.68-.512 0-.912.192-1.2.576-.288.384-.432 1.013-.432 1.888zm12.48-4l1.456 4.096.288 1.328h.064l.224-1.344L30.072 7h1.904l-2.464 8.08h-1.536L26.36 10.6l-.208-1.008h-.08l-.192 1.024-1.536 4.464H22.76L20.184 7h2.256l1.168 4.016.192 1.424h.08l.272-1.44 1.328-4h1.536z" fill="#000"/>
    <path d="M114 44h91m0 0l-10.8-3v6l10.8-3z" stroke="#498CF3" stroke-width="2" fill="#498CF3" stroke-linecap="square"/>
    <path fill="#E0E7EE" fill-rule="nonzero" d="M325 26h149v250H325z"/>
    <path fill="#AFB8C1" fill-rule="nonzero" d="M325 25h76v63h-76z"/>
    <path fill="#9DA8B3" fill-rule="nonzero" d="M325 88h76v63h-76z"/>
    <path fill="#7D8793" fill-rule="nonzero" d="M325 214h76v63h-76z"/>
    <path fill="#919BA5" fill-rule="nonzero" d="M325 151h76v63h-76z"/>
    <path d="M333.544 14.536c-.341.245-.776.421-1.304.528-.528.107-1.07.16-1.624.16a5.82 5.82 0 0 1-1.912-.312 4.09 4.09 0 0 1-1.592-1.008c-.459-.464-.824-1.067-1.096-1.808-.272-.741-.408-1.64-.408-2.696 0-1.099.152-2.019.456-2.76.304-.741.699-1.339 1.184-1.792a4.37 4.37 0 0 1 1.624-.976 5.683 5.683 0 0 1 1.792-.296c.64 0 1.181.043 1.624.128a5.93 5.93 0 0 1 1.096.304l-.432 1.856a3.172 3.172 0 0 0-.872-.256 7.963 7.963 0 0 0-1.224-.08c-.885 0-1.597.315-2.136.944-.539.63-.808 1.605-.808 2.928 0 .576.064 1.101.192 1.576.128.475.323.88.584 1.216.261.336.587.597.976.784.39.187.84.28 1.352.28.48 0 .885-.048 1.216-.144a3.59 3.59 0 0 0 .864-.368l.448 1.792zm.352-3.536c0-1.355.33-2.397.992-3.128.661-.73 1.59-1.096 2.784-1.096.64 0 1.195.101 1.664.304.47.203.859.488 1.168.856.31.368.541.813.696 1.336.155.523.232 1.099.232 1.728 0 1.355-.328 2.397-.984 3.128-.656.73-1.581 1.096-2.776 1.096-.64 0-1.195-.101-1.664-.304a3.18 3.18 0 0 1-1.176-.856 3.595 3.595 0 0 1-.704-1.336 6.073 6.073 0 0 1-.232-1.728zm2.144 0c0 .352.032.677.096.976.064.299.16.56.288.784.128.224.296.397.504.52.208.123.456.184.744.184.544 0 .95-.197 1.216-.592.267-.395.4-1.019.4-1.872 0-.736-.123-1.33-.368-1.784-.245-.453-.661-.68-1.248-.68-.512 0-.912.192-1.2.576-.288.384-.432 1.013-.432 1.888zm8.976 1.312c0 .373.048.645.144.816.096.17.25.256.464.256.128 0 .253-.01.376-.032.123-.021.275-.07.456-.144l.224 1.632c-.17.085-.432.17-.784.256a4.602 4.602 0 0 1-1.088.128c-.608 0-1.072-.141-1.392-.424-.32-.283-.48-.75-.48-1.4V3.8h2.08v8.512zM349.576 7v4.544c0 .65.077 1.12.232 1.408.155.288.456.432.904.432.395 0 .723-.117.984-.352s.456-.523.584-.864V7h2.08v5.568c0 .437.021.867.064 1.288a8.1 8.1 0 0 0 .192 1.144h-1.568l-.368-1.184h-.064a2.99 2.99 0 0 1-1.024 1.008c-.437.267-.955.4-1.552.4-.405 0-.768-.053-1.088-.16a1.788 1.788 0 0 1-.8-.528c-.213-.245-.376-.576-.488-.992-.112-.416-.168-.939-.168-1.568V7h2.08zm11.152 8v-4.352c0-.736-.07-1.259-.208-1.568-.139-.31-.427-.464-.864-.464-.363 0-.656.099-.88.296a1.88 1.88 0 0 0-.512.76V15h-2.08V7h1.616l.24 1.056h.064c.245-.341.557-.64.936-.896s.867-.384 1.464-.384c.512 0 .93.104 1.256.312.325.208.579.557.76 1.048a2.9 2.9 0 0 1 .944-.992c.384-.245.848-.368 1.392-.368.448 0 .83.053 1.144.16.315.107.57.29.768.552.197.261.344.61.44 1.048.096.437.144.992.144 1.664V15h-2.08v-4.496c0-.63-.067-1.101-.2-1.416-.133-.315-.43-.472-.888-.472-.373 0-.67.101-.888.304-.219.203-.381.48-.488.832V15h-2.08zm13.232 0v-4.544c0-.65-.093-1.12-.28-1.408-.187-.288-.504-.432-.952-.432-.395 0-.728.115-1 .344a1.91 1.91 0 0 0-.584.856V15h-2.08V7h1.648l.24 1.056h.064c.245-.341.57-.64.976-.896.405-.256.928-.384 1.568-.384.395 0 .747.053 1.056.16.31.107.57.283.784.528.213.245.373.579.48 1 .107.421.16.941.16 1.56V15h-2.08z" fill="#000"/>
    <path d="M434 109v91m0 0l3-10.8h-6l3 10.8z" stroke="#498CF3" stroke-width="2" fill="#498CF3" stroke-linecap="square"/>
    <path fill="#E0E7EE" fill-rule="nonzero" d="M494 26h149v250H494z"/>
    <path fill="#7D8793" fill-rule="nonzero" d="M494 25h76v63h-76z"/>
    <path fill="#919BA5" fill-rule="nonzero" d="M494 88h76v63h-76z"/>
    <path fill="#AFB8C1" fill-rule="nonzero" d="M494 214h76v63h-76z"/>
    <path fill="#9DA8B3" fill-rule="nonzero" d="M494 151h76v63h-76z"/>
    <path d="M502.544 14.536c-.341.245-.776.421-1.304.528-.528.107-1.07.16-1.624.16a5.82 5.82 0 0 1-1.912-.312 4.09 4.09 0 0 1-1.592-1.008c-.459-.464-.824-1.067-1.096-1.808-.272-.741-.408-1.64-.408-2.696 0-1.099.152-2.019.456-2.76.304-.741.699-1.339 1.184-1.792a4.37 4.37 0 0 1 1.624-.976 5.683 5.683 0 0 1 1.792-.296c.64 0 1.181.043 1.624.128a5.93 5.93 0 0 1 1.096.304l-.432 1.856a3.172 3.172 0 0 0-.872-.256 7.963 7.963 0 0 0-1.224-.08c-.885 0-1.597.315-2.136.944-.539.63-.808 1.605-.808 2.928 0 .576.064 1.101.192 1.576.128.475.323.88.584 1.216.261.336.587.597.976.784.39.187.84.28 1.352.28.48 0 .885-.048 1.216-.144a3.59 3.59 0 0 0 .864-.368l.448 1.792zm.352-3.536c0-1.355.33-2.397.992-3.128.661-.73 1.59-1.096 2.784-1.096.64 0 1.195.101 1.664.304.47.203.859.488 1.168.856.31.368.541.813.696 1.336.155.523.232 1.099.232 1.728 0 1.355-.328 2.397-.984 3.128-.656.73-1.581 1.096-2.776 1.096-.64 0-1.195-.101-1.664-.304a3.18 3.18 0 0 1-1.176-.856 3.595 3.595 0 0 1-.704-1.336 6.073 6.073 0 0 1-.232-1.728zm2.144 0c0 .352.032.677.096.976.064.299.16.56.288.784.128.224.296.397.504.52.208.123.456.184.744.184.544 0 .95-.197 1.216-.592.267-.395.4-1.019.4-1.872 0-.736-.123-1.33-.368-1.784-.245-.453-.661-.68-1.248-.68-.512 0-.912.192-1.2.576-.288.384-.432 1.013-.432 1.888zm8.976 1.312c0 .373.048.645.144.816.096.17.25.256.464.256.128 0 .253-.01.376-.032.123-.021.275-.07.456-.144l.224 1.632c-.17.085-.432.17-.784.256a4.602 4.602 0 0 1-1.088.128c-.608 0-1.072-.141-1.392-.424-.32-.283-.48-.75-.48-1.4V3.8h2.08v8.512zM518.576 7v4.544c0 .65.077 1.12.232 1.408.155.288.456.432.904.432.395 0 .723-.117.984-.352s.456-.523.584-.864V7h2.08v5.568c0 .437.021.867.064 1.288a8.1 8.1 0 0 0 .192 1.144h-1.568l-.368-1.184h-.064a2.99 2.99 0 0 1-1.024 1.008c-.437.267-.955.4-1.552.4-.405 0-.768-.053-1.088-.16a1.788 1.788 0 0 1-.8-.528c-.213-.245-.376-.576-.488-.992-.112-.416-.168-.939-.168-1.568V7h2.08zm11.152 8v-4.352c0-.736-.07-1.259-.208-1.568-.139-.31-.427-.464-.864-.464-.363 0-.656.099-.88.296a1.88 1.88 0 0 0-.512.76V15h-2.08V7h1.616l.24 1.056h.064c.245-.341.557-.64.936-.896s.867-.384 1.464-.384c.512 0 .93.104 1.256.312.325.208.579.557.76 1.048a2.9 2.9 0 0 1 .944-.992c.384-.245.848-.368 1.392-.368.448 0 .83.053 1.144.16.315.107.57.29.768.552.197.261.344.61.44 1.048.096.437.144.992.144 1.664V15h-2.08v-4.496c0-.63-.067-1.101-.2-1.416-.133-.315-.43-.472-.888-.472-.373 0-.67.101-.888.304-.219.203-.381.48-.488.832V15h-2.08zm13.232 0v-4.544c0-.65-.093-1.12-.28-1.408-.187-.288-.504-.432-.952-.432-.395 0-.728.115-1 .344a1.91 1.91 0 0 0-.584.856V15h-2.08V7h1.648l.24 1.056h.064c.245-.341.57-.64.976-.896.405-.256.928-.384 1.568-.384.395 0 .747.053 1.056.16.31.107.57.283.784.528.213.245.373.579.48 1 .107.421.16.941.16 1.56V15h-2.08zm7.12-5.52h4.016v1.84h-4.016V9.48zm12.992-.528a2.71 2.71 0 0 0-.896-.176c-.373 0-.685.099-.936.296-.25.197-.419.45-.504.76V15h-2.08V7h1.616l.24 1.056h.064c.181-.395.427-.699.736-.912.31-.213.672-.32 1.088-.32.277 0 .592.059.944.176l-.272 1.952zm7.6 5.36c-.32.256-.755.472-1.304.648a5.708 5.708 0 0 1-1.752.264c-1.29 0-2.235-.376-2.832-1.128-.597-.752-.896-1.784-.896-3.096 0-1.408.336-2.464 1.008-3.168.672-.704 1.616-1.056 2.832-1.056.405 0 .8.053 1.184.16.384.107.725.283 1.024.528.299.245.539.576.72.992.181.416.272.933.272 1.552 0 .224-.013.464-.04.72a9.399 9.399 0 0 1-.12.8h-4.8c.032.672.205 1.179.52 1.52.315.341.824.512 1.528.512.437 0 .83-.067 1.176-.2.347-.133.61-.27.792-.408l.688 1.36zm-2.976-5.872c-.544 0-.947.163-1.208.488-.261.325-.419.76-.472 1.304h2.976c.043-.576-.045-1.019-.264-1.328-.219-.31-.563-.464-1.032-.464zm7.248 2.752l.272 1.232h.08l.224-1.264L576.88 7h2.24l-3.344 8.08h-1.264L571.04 7h2.416l1.488 4.192zm11.152 3.12c-.32.256-.755.472-1.304.648a5.708 5.708 0 0 1-1.752.264c-1.29 0-2.235-.376-2.832-1.128-.597-.752-.896-1.784-.896-3.096 0-1.408.336-2.464 1.008-3.168.672-.704 1.616-1.056 2.832-1.056.405 0 .8.053 1.184.16.384.107.725.283 1.024.528.299.245.539.576.72.992.181.416.272.933.272 1.552 0 .224-.013.464-.04.72a9.399 9.399 0 0 1-.12.8h-4.8c.032.672.205 1.179.52 1.52.315.341.824.512 1.528.512.437 0 .83-.067 1.176-.2.347-.133.61-.27.792-.408l.688 1.36zM583.12 8.44c-.544 0-.947.163-1.208.488-.261.325-.419.76-.472 1.304h2.976c.043-.576-.045-1.019-.264-1.328-.219-.31-.563-.464-1.032-.464zm9.12.512a2.71 2.71 0 0 0-.896-.176c-.373 0-.685.099-.936.296-.25.197-.419.45-.504.76V15h-2.08V7h1.616l.24 1.056h.064c.181-.395.427-.699.736-.912.31-.213.672-.32 1.088-.32.277 0 .592.059.944.176l-.272 1.952zm4.512 3.84a.597.597 0 0 0-.272-.512 3.277 3.277 0 0 0-.672-.352c-.267-.107-.56-.216-.88-.328a3.306 3.306 0 0 1-.88-.464 2.541 2.541 0 0 1-.672-.752c-.181-.304-.272-.696-.272-1.176 0-.79.235-1.392.704-1.808.47-.416 1.147-.624 2.032-.624.608 0 1.157.064 1.648.192.49.128.875.272 1.152.432l-.464 1.504a10.606 10.606 0 0 0-.928-.304 4.116 4.116 0 0 0-1.136-.16c-.619 0-.928.24-.928.72 0 .192.09.347.272.464.181.117.405.227.672.328s.56.21.88.328c.32.117.613.27.88.456.267.187.49.43.672.728.181.299.272.683.272 1.152 0 .81-.259 1.448-.776 1.912-.517.464-1.293.696-2.328.696a5.685 5.685 0 0 1-1.592-.216c-.496-.144-.899-.312-1.208-.504l.576-1.552c.245.139.57.275.976.408.405.133.821.2 1.248.2.31 0 .557-.059.744-.176.187-.117.28-.315.28-.592zm9.84 1.52c-.32.256-.755.472-1.304.648a5.708 5.708 0 0 1-1.752.264c-1.29 0-2.235-.376-2.832-1.128-.597-.752-.896-1.784-.896-3.096 0-1.408.336-2.464 1.008-3.168.672-.704 1.616-1.056 2.832-1.056.405 0 .8.053 1.184.16.384.107.725.283 1.024.528.299.245.539.576.72.992.181.416.272.933.272 1.552 0 .224-.013.464-.04.72a9.399 9.399 0 0 1-.12.8h-4.8c.032.672.205 1.179.52 1.52.315.341.824.512 1.528.512.437 0 .83-.067 1.176-.2.347-.133.61-.27.792-.408l.688 1.36zm-2.976-5.872c-.544 0-.947.163-1.208.488-.261.325-.419.76-.472 1.304h2.976c.043-.576-.045-1.019-.264-1.328-.219-.31-.563-.464-1.032-.464z" fill="#000"/>
    <path d="M604 200v-91m0 0l-3 10.8h6l-3-10.8z" stroke="#498CF3" stroke-width="2" fill="#498CF3" stroke-linecap="square"/>
    <path fill="#E0E7EE" fill-rule="nonzero" d="M3 171h303v106H3z"/>
    <path fill="#AFB8C1" fill-rule="nonzero" d="M231 203h76v74h-76z"/>
    <path fill="#7D8793" fill-rule="nonzero" d="M3 203h76v74H3z"/>
    <path fill="#9DA8B3" fill-rule="nonzero" d="M155 203h76v74h-76z"/>
    <path fill="#919BA5" fill-rule="nonzero" d="M79 203h76v74H79z"/>
    <path d="M3.96 148.912a18.62 18.62 0 0 1 1.64-.208 23.364 23.364 0 0 1 1.56-.064c.523 0 1.037.048 1.544.144.507.096.96.261 1.36.496.4.235.72.557.96.968.24.41.36.925.36 1.544 0 .917-.213 1.664-.64 2.24a3.297 3.297 0 0 1-1.712 1.2l.784.496 2.56 4.272H9.848l-2.544-4.384-1.152-.208V160H3.96v-11.088zm3.36 1.68c-.224 0-.445.005-.664.016a2.49 2.49 0 0 0-.504.064v3.248h.928c.608 0 1.093-.139 1.456-.416.363-.277.544-.736.544-1.376 0-.48-.15-.856-.448-1.128-.299-.272-.736-.408-1.312-.408zM12.392 156c0-1.355.33-2.397.992-3.128.661-.73 1.59-1.096 2.784-1.096.64 0 1.195.101 1.664.304.47.203.859.488 1.168.856.31.368.541.813.696 1.336.155.523.232 1.099.232 1.728 0 1.355-.328 2.397-.984 3.128-.656.73-1.581 1.096-2.776 1.096-.64 0-1.195-.101-1.664-.304a3.18 3.18 0 0 1-1.176-.856 3.595 3.595 0 0 1-.704-1.336 6.073 6.073 0 0 1-.232-1.728zm2.144 0c0 .352.032.677.096.976.064.299.16.56.288.784.128.224.296.397.504.52.208.123.456.184.744.184.544 0 .95-.197 1.216-.592.267-.395.4-1.019.4-1.872 0-.736-.123-1.33-.368-1.784-.245-.453-.661-.68-1.248-.68-.512 0-.912.192-1.2.576-.288.384-.432 1.013-.432 1.888zm12.48-4l1.456 4.096.288 1.328h.064l.224-1.344 1.024-4.08h1.904l-2.464 8.08h-1.536l-1.616-4.48-.208-1.008h-.08l-.192 1.024-1.536 4.464H22.76L20.184 152h2.256l1.168 4.016.192 1.424h.08l.272-1.44 1.328-4h1.536zm8.656 2.48h4.016v1.84h-4.016v-1.84zm12.992-.528a2.71 2.71 0 0 0-.896-.176c-.373 0-.685.099-.936.296-.25.197-.419.45-.504.76V160h-2.08v-8h1.616l.24 1.056h.064c.181-.395.427-.699.736-.912.31-.213.672-.32 1.088-.32.277 0 .592.059.944.176l-.272 1.952zm7.6 5.36c-.32.256-.755.472-1.304.648a5.708 5.708 0 0 1-1.752.264c-1.29 0-2.235-.376-2.832-1.128-.597-.752-.896-1.784-.896-3.096 0-1.408.336-2.464 1.008-3.168.672-.704 1.616-1.056 2.832-1.056.405 0 .8.053 1.184.16.384.107.725.283 1.024.528.299.245.539.576.72.992.181.416.272.933.272 1.552 0 .224-.013.464-.04.72a9.399 9.399 0 0 1-.12.8h-4.8c.032.672.205 1.179.52 1.52.315.341.824.512 1.528.512.437 0 .83-.067 1.176-.2.347-.133.61-.27.792-.408l.688 1.36zm-2.976-5.872c-.544 0-.947.163-1.208.488-.261.325-.419.76-.472 1.304h2.976c.043-.576-.045-1.019-.264-1.328-.219-.31-.563-.464-1.032-.464zm7.248 2.752l.272 1.232h.08l.224-1.264 1.36-4.16h2.24l-3.344 8.08h-1.264L56.632 152h2.416l1.488 4.192zm11.152 3.12c-.32.256-.755.472-1.304.648a5.708 5.708 0 0 1-1.752.264c-1.29 0-2.235-.376-2.832-1.128-.597-.752-.896-1.784-.896-3.096 0-1.408.336-2.464 1.008-3.168.672-.704 1.616-1.056 2.832-1.056.405 0 .8.053 1.184.16.384.107.725.283 1.024.528.299.245.539.576.72.992.181.416.272.933.272 1.552 0 .224-.013.464-.04.72a9.399 9.399 0 0 1-.12.8h-4.8c.032.672.205 1.179.52 1.52.315.341.824.512 1.528.512.437 0 .83-.067 1.176-.2.347-.133.61-.27.792-.408l.688 1.36zm-2.976-5.872c-.544 0-.947.163-1.208.488-.261.325-.419.76-.472 1.304h2.976c.043-.576-.045-1.019-.264-1.328-.219-.31-.563-.464-1.032-.464zm9.12.512a2.71 2.71 0 0 0-.896-.176c-.373 0-.685.099-.936.296-.25.197-.419.45-.504.76V160h-2.08v-8h1.616l.24 1.056h.064c.181-.395.427-.699.736-.912.31-.213.672-.32 1.088-.32.277 0 .592.059.944.176l-.272 1.952zm4.512 3.84a.597.597 0 0 0-.272-.512 3.277 3.277 0 0 0-.672-.352c-.267-.107-.56-.216-.88-.328a3.306 3.306 0 0 1-.88-.464 2.541 2.541 0 0 1-.672-.752c-.181-.304-.272-.696-.272-1.176 0-.79.235-1.392.704-1.808.47-.416 1.147-.624 2.032-.624.608 0 1.157.064 1.648.192.49.128.875.272 1.152.432l-.464 1.504a10.606 10.606 0 0 0-.928-.304 4.116 4.116 0 0 0-1.136-.16c-.619 0-.928.24-.928.72 0 .192.09.347.272.464.181.117.405.227.672.328s.56.21.88.328c.32.117.613.27.88.456.267.187.49.43.672.728.181.299.272.683.272 1.152 0 .81-.259 1.448-.776 1.912-.517.464-1.293.696-2.328.696a5.685 5.685 0 0 1-1.592-.216c-.496-.144-.899-.312-1.208-.504l.576-1.552c.245.139.57.275.976.408.405.133.821.2 1.248.2.31 0 .557-.059.744-.176.187-.117.28-.315.28-.592zm9.84 1.52c-.32.256-.755.472-1.304.648a5.708 5.708 0 0 1-1.752.264c-1.29 0-2.235-.376-2.832-1.128-.597-.752-.896-1.784-.896-3.096 0-1.408.336-2.464 1.008-3.168.672-.704 1.616-1.056 2.832-1.056.405 0 .8.053 1.184.16.384.107.725.283 1.024.528.299.245.539.576.72.992.181.416.272.933.272 1.552 0 .224-.013.464-.04.72a9.399 9.399 0 0 1-.12.8h-4.8c.032.672.205 1.179.52 1.52.315.341.824.512 1.528.512.437 0 .83-.067 1.176-.2.347-.133.61-.27.792-.408l.688 1.36zm-2.976-5.872c-.544 0-.947.163-1.208.488-.261.325-.419.76-.472 1.304h2.976c.043-.576-.045-1.019-.264-1.328-.219-.31-.563-.464-1.032-.464z" fill="#000"/>
    <path d="M200 187h-91m91 0l-10.8-3v6l10.8-3z" stroke="#498CF3" stroke-width="2" fill="#498CF3" stroke-linecap="square"/>
  </g>
</svg>
