<svg width="783" height="508" xmlns="http://www.w3.org/2000/svg">
  <g fill="none" fill-rule="evenodd">
    <path stroke="#5D5A5A" stroke-width="2" fill="#919BA5" d="M11 298h141v190H11zm0-159h141v147H11z"/>
    <text font-family="PTSans-Bold, PT Sans" font-size="16" font-weight="bold" fill="#555">
      <tspan x="15" y="63">grid-auto-columns: 100px;</tspan>
    </text>
    <text font-family="PTSans-Bold, PT Sans" font-size="16" font-weight="bold" fill="#555">
      <tspan x="15" y="83">grid-auto-rows: 100px;</tspan>
    </text>
    <path stroke="#ACACAC" stroke-width="2" stroke-dasharray="8,4" d="M320 298h141v190H320z"/>
    <path stroke="#979797" stroke-width="2" stroke-dasharray="8" d="M474 298h141v190H474zm-1-159h141v147H473z"/>
    <path stroke="#5D5A5A" stroke-width="2" fill="#919BA5" d="M630 298h141v190H630z"/>
    <path stroke="#979797" stroke-width="2" stroke-dasharray="8" d="M629 139h141v147H629z"/>
    <text font-family="PTSans-Regular, PT Sans" font-size="16" fill="#498CF3">
      <tspan x="350" y="126">100px (auto)</tspan>
    </text>
    <text font-family="PTSans-Regular, PT Sans" font-size="16" fill="#498CF3">
      <tspan x="63" y="126">100px</tspan>
    </text>
    <text font-family="PTSans-Regular, PT Sans" font-size="16" fill="#498CF3">
      <tspan x="216" y="126">100px</tspan>
    </text>
    <text font-family="PTSans-Regular, PT Sans" font-size="16" fill="#498CF3">
      <tspan x="509" y="126">100px (auto)</tspan>
    </text>
    <text font-family="PTSans-Regular, PT Sans" font-size="16" fill="#498CF3">
      <tspan x="700" y="126">auto</tspan>
    </text>
    <path stroke="#979797" stroke-width="2" stroke-dasharray="8,4" d="M319 139h141v147H319z"/>
    <path d="M166.444 297h141.482v192H166.444zM167 139h141v147H167z" stroke-width="2" stroke="#5D5A5A"/>
    <path d="M178 489h149v100H178z"/>
    <text fill="#FFF" font-family="PTSans-Regular, PT Sans" font-size="16">
      <tspan x="392.243" y="195">2f</tspan> <tspan x="392.243" y="214.904">r</tspan>
    </text>
    <text font-family="PTSans-Bold, PT Sans" font-size="16" font-weight="bold" fill="#555">
      <tspan x="526" y="23">.item-b {</tspan> <tspan x="526" y="41"> grid-column: 5 / 6;</tspan> <tspan x="526" y="59"> grid-row: 2 / 3;</tspan> <tspan x="526" y="77">}</tspan>
    </text>
    <text font-family="PTSans-Bold, PT Sans" font-size="16" font-weight="bold" fill="#555">
      <tspan x="11" y="26"> grid-template-columns: 100px 100px;</tspan> <tspan x="11" y="44"> grid-template-rows: 100px 100px</tspan>
    </text>
    <text font-family="PTSans-Bold, PT Sans" font-size="16" font-weight="bold" fill="#555">
      <tspan x="324" y="23">.item-a {</tspan> <tspan x="324" y="41"> grid-column: 1 / 2;</tspan> <tspan x="324" y="59"> grid-row: 1 / 3;</tspan> <tspan x="324" y="77">}</tspan>
    </text>
    <text font-family="PTSans-Bold, PT Sans" font-size="16" font-weight="bold" fill="#000">
      <tspan x="52" y="389">item a</tspan>
    </text>
    <text font-family="PTSans-Bold, PT Sans" font-size="16" font-weight="bold" fill="#000">
      <tspan x="679" y="389">item b</tspan>
    </text>
  </g>
</svg>
