<svg width="416" height="432" xmlns="http://www.w3.org/2000/svg">
  <g fill="none" fill-rule="evenodd">
    <g fill-rule="nonzero">
      <path fill="#E0E7EE" d="M220 31h186v105H220z"/>
      <path fill="#AFB8C1" d="M261 31h48.8v73.5H261z"/>
      <path fill="#919BA5" d="M309 31h48.737v73.5H309z"/>
      <path fill="#7D8793" d="M357 31h48.737v73.5H357z"/>
      <path d="M226.568 5.872a4.372 4.372 0 0 0-.568-.08 7.865 7.865 0 0 0-.696-.032c-.245 0-.443.037-.592.112a.8.8 0 0 0-.344.32 1.3 1.3 0 0 0-.152.52c-.021.208-.032.44-.032.696h1.2v1.76h-1.2v6.24h-2.08v-6.24H221v-1.76h1.104V6.96c0-1.003.243-1.747.728-2.232.485-.485 1.32-.728 2.504-.728.245 0 .528.01.848.032.32.021.637.045.952.072.315.027.608.056.88.088.272.032.483.064.632.096v8.432c0 .373.048.645.144.816a.48.48 0 0 0 .448.256c.128 0 .253-.01.376-.032.123-.021.275-.07.456-.144l.24 1.632c-.17.085-.435.17-.792.256a4.702 4.702 0 0 1-1.096.128c-.608 0-1.07-.141-1.384-.424-.315-.283-.472-.75-.472-1.4V5.872zm11.129 8.848c-.32.256-.755.472-1.304.648a5.708 5.708 0 0 1-1.752.264c-1.29 0-2.235-.376-2.832-1.128-.597-.752-.896-1.784-.896-3.096 0-1.408.336-2.464 1.008-3.168.672-.704 1.616-1.056 2.832-1.056.405 0 .8.053 1.184.16.384.107.725.283 1.024.528.299.245.539.576.72.992.181.416.272.933.272 1.552 0 .224-.013.464-.04.72a9.399 9.399 0 0 1-.12.8h-4.8c.032.672.205 1.179.52 1.52.315.341.824.512 1.528.512.437 0 .83-.067 1.176-.2.347-.133.61-.27.792-.408l.688 1.36zm-2.976-5.872c-.544 0-.947.163-1.208.488-.261.325-.419.76-.472 1.304h2.976c.043-.576-.045-1.019-.264-1.328-.219-.31-.563-.464-1.032-.464zm6.265 2.464l-2.4-3.904h2.48l1.04 1.712.448 1.12.48-1.12 1.088-1.712h2.256l-2.416 3.84 2.576 4.16h-2.416l-1.232-1.92-.48-1.184-.512 1.184-1.232 1.92h-2.272l2.592-4.096zm6.025-1.424h4.016v1.84h-4.016v-1.84zm12.297 4.832c-.32.256-.755.472-1.304.648a5.708 5.708 0 0 1-1.752.264c-1.291 0-2.235-.376-2.832-1.128-.598-.752-.896-1.784-.896-3.096 0-1.408.336-2.464 1.008-3.168.672-.704 1.616-1.056 2.832-1.056.405 0 .8.053 1.184.16.384.107.725.283 1.024.528.298.245.538.576.72.992.18.416.272.933.272 1.552 0 .224-.014.464-.04.72a9.399 9.399 0 0 1-.12.8h-4.8c.032.672.205 1.179.52 1.52.314.341.824.512 1.528.512.437 0 .829-.067 1.176-.2.346-.133.61-.27.792-.408l.688 1.36zm-2.976-5.872c-.544 0-.947.163-1.208.488-.262.325-.42.76-.472 1.304h2.976c.042-.576-.046-1.019-.264-1.328-.22-.31-.563-.464-1.032-.464zm9.688 6.56v-4.544c0-.65-.093-1.12-.28-1.408-.186-.288-.504-.432-.952-.432-.394 0-.728.115-1 .344a1.91 1.91 0 0 0-.584.856v5.184h-2.08v-8h1.648l.24 1.056h.064c.246-.341.571-.64.976-.896.406-.256.928-.384 1.568-.384.395 0 .747.053 1.056.16.31.107.571.283.784.528.214.245.374.579.48 1 .107.421.16.941.16 1.56v4.976h-2.08zm10.713-2.816c0 .448.006.896.016 1.344.011.448.059.944.144 1.488h-1.488l-.288-1.04h-.064c-.213.373-.52.675-.92.904-.4.23-.872.344-1.416.344-1.002 0-1.781-.33-2.336-.992-.554-.661-.832-1.696-.832-3.104 0-1.365.31-2.427.928-3.184.619-.757 1.526-1.136 2.72-1.136.331 0 .603.019.816.056.214.037.427.099.64.184V4.208h2.08v8.384zm-3.536 1.28c.406 0 .726-.099.96-.296.235-.197.4-.483.496-.856V9.328a1.587 1.587 0 0 0-.496-.264 2.337 2.337 0 0 0-.704-.088c-.586 0-1.026.197-1.32.592-.293.395-.44 1.072-.44 2.032 0 .683.12 1.232.36 1.648.24.416.622.624 1.144.624z" fill="#2B2B2B"/>
    </g>
    <g fill-rule="nonzero">
      <path fill="#E0E7EE" d="M11 29h187v108H11z"/>
      <path fill="#AFB8C1" d="M11 29h49.142v75.27H11z"/>
      <path fill="#919BA5" d="M59 29h49.08v75.27H59z"/>
      <path d="M16.76 6.464a4.372 4.372 0 0 0-.568-.08 7.865 7.865 0 0 0-.696-.032c-.245 0-.443.037-.592.112a.8.8 0 0 0-.344.32 1.3 1.3 0 0 0-.152.52c-.021.208-.032.44-.032.696h1.2v1.76h-1.2V16h-2.08V9.76h-1.104V8h1.104v-.448c0-1.003.243-1.747.728-2.232.485-.485 1.32-.728 2.504-.728.245 0 .528.01.848.032.32.021.637.045.952.072.315.027.608.056.88.088.272.032.483.064.632.096v8.432c0 .373.048.645.144.816a.48.48 0 0 0 .448.256c.128 0 .253-.01.376-.032.123-.021.275-.07.456-.144l.24 1.632c-.17.085-.435.17-.792.256a4.702 4.702 0 0 1-1.096.128c-.608 0-1.07-.141-1.384-.424-.315-.283-.472-.75-.472-1.4V6.464zm11.129 8.848c-.32.256-.755.472-1.304.648a5.708 5.708 0 0 1-1.752.264c-1.29 0-2.235-.376-2.832-1.128-.597-.752-.896-1.784-.896-3.096 0-1.408.336-2.464 1.008-3.168.672-.704 1.616-1.056 2.832-1.056.405 0 .8.053 1.184.16.384.107.725.283 1.024.528.299.245.539.576.72.992.181.416.272.933.272 1.552 0 .224-.013.464-.04.72a9.399 9.399 0 0 1-.12.8h-4.8c.032.672.205 1.179.52 1.52.315.341.824.512 1.528.512.437 0 .83-.067 1.176-.2.347-.133.61-.27.792-.408l.688 1.36zM24.913 9.44c-.544 0-.947.163-1.208.488-.261.325-.419.76-.472 1.304h2.976c.043-.576-.045-1.019-.264-1.328-.219-.31-.563-.464-1.032-.464zm6.265 2.464L28.778 8h2.48l1.04 1.712.448 1.12.48-1.12L34.314 8h2.256l-2.416 3.84L36.73 16h-2.416l-1.232-1.92-.48-1.184-.512 1.184L30.858 16h-2.272l2.592-4.096zm6.025-1.424h4.016v1.84h-4.016v-1.84zm9.209 3.312a.597.597 0 0 0-.272-.512 3.277 3.277 0 0 0-.672-.352c-.267-.107-.56-.216-.88-.328a3.306 3.306 0 0 1-.88-.464 2.541 2.541 0 0 1-.672-.752c-.182-.304-.272-.696-.272-1.176 0-.79.234-1.392.704-1.808.469-.416 1.146-.624 2.032-.624.608 0 1.157.064 1.648.192.49.128.874.272 1.152.432l-.464 1.504a10.606 10.606 0 0 0-.928-.304 4.116 4.116 0 0 0-1.136-.16c-.62 0-.928.24-.928.72 0 .192.09.347.272.464.18.117.405.227.672.328.266.101.56.21.88.328.32.117.613.27.88.456.266.187.49.43.672.728.18.299.272.683.272 1.152 0 .81-.26 1.448-.776 1.912-.518.464-1.294.696-2.328.696a5.685 5.685 0 0 1-1.592-.216c-.496-.144-.9-.312-1.208-.504l.576-1.552c.245.139.57.275.976.408.405.133.82.2 1.248.2.309 0 .557-.059.744-.176.186-.117.28-.315.28-.592zM49.108 8h1.104V6.496l2.08-.592V8h1.952v1.76h-1.952v3.072c0 .555.056.952.168 1.192.112.24.323.36.632.36.214 0 .398-.021.552-.064a3.84 3.84 0 0 0 .52-.192l.368 1.6a5.281 5.281 0 0 1-1.008.352 4.798 4.798 0 0 1-1.168.144c-.736 0-1.277-.19-1.624-.568-.346-.379-.52-1-.52-1.864V9.76h-1.104V8zm6.457.464a6.88 6.88 0 0 1 1.52-.456 9.796 9.796 0 0 1 1.84-.168c.555 0 1.019.067 1.392.2.374.133.67.323.888.568.219.245.374.539.464.88.091.341.136.725.136 1.152 0 .47-.016.941-.048 1.416s-.05.941-.056 1.4c-.005.459.008.904.04 1.336.032.432.112.84.24 1.224h-1.696l-.336-1.104h-.08c-.213.33-.509.616-.888.856-.378.24-.866.36-1.464.36-.373 0-.709-.056-1.008-.168a2.182 2.182 0 0 1-.768-.48 2.187 2.187 0 0 1-.496-.736 2.462 2.462 0 0 1-.176-.952c0-.49.11-.904.328-1.24.219-.336.534-.608.944-.816.411-.208.902-.352 1.472-.432a10.43 10.43 0 0 1 1.912-.072c.075-.597.032-1.027-.128-1.288-.16-.261-.517-.392-1.072-.392-.416 0-.856.043-1.32.128-.464.085-.845.197-1.144.336l-.496-1.552zm2.64 5.952c.416 0 .747-.093.992-.28.246-.187.427-.387.544-.6v-1.04a5.722 5.722 0 0 0-.952-.016c-.304.021-.573.07-.808.144-.21.06-.402.17-.56.32a.715.715 0 0 0-.208.528c0 .299.088.53.264.696.176.165.419.248.728.248zm9.85-4.464a2.71 2.71 0 0 0-.897-.176c-.373 0-.685.099-.936.296a1.43 1.43 0 0 0-.504.76V16h-2.08V8h1.616l.24 1.056h.064c.182-.395.427-.699.736-.912.31-.213.672-.32 1.088-.32.278 0 .592.059.944.176l-.272 1.952h.001zM68.99 8h1.104V6.496l2.08-.592V8h1.952v1.76h-1.952v3.072c0 .555.056.952.168 1.192.112.24.323.36.632.36.213 0 .397-.021.552-.064a3.84 3.84 0 0 0 .52-.192l.368 1.6a5.281 5.281 0 0 1-1.008.352 4.798 4.798 0 0 1-1.168.144c-.736 0-1.277-.19-1.624-.568-.347-.379-.52-1-.52-1.864V9.76H68.99V8z" fill="#2B2B2B"/>
      <path fill="#7D8793" d="M107 29h49.08v75.27H107z"/>
    </g>
    <g fill-rule="nonzero">
      <path fill="#E0E7EE" d="M220 169h186v109H220z"/>
      <path fill="#AFB8C1" d="M220 169h49v76h-49z"/>
      <path fill="#919BA5" d="M289 169h49v76h-49z"/>
      <path fill="#7D8793" d="M357 169h49v76h-49z"/>
    </g>
    <g fill-rule="nonzero">
      <path fill="#E0E7EE" d="M113 316h186v109H113z"/>
      <path fill="#AFB8C1" d="M123 316h49v76h-49z"/>
      <path fill="#919BA5" d="M182 316h49v76h-49z"/>
      <path fill="#7D8793" d="M240 316h49v76h-49z"/>
    </g>
    <g fill-rule="nonzero">
      <path fill="#E0E7EE" d="M11 169h186v109H11z"/>
      <path fill="#AFB8C1" d="M33 169h49v76H33z"/>
      <path fill="#919BA5" d="M81 169h48v76H81z"/>
      <path fill="#7D8793" d="M129 169h48v76h-48z"/>
    </g>
    <text font-family="PTSans-Bold, PT Sans" font-size="17" font-weight="bold" fill="#282727">
      <tspan x="222" y="164">space-between</tspan>
    </text>
    <text font-family="PTSans-Bold, PT Sans" font-size="17" font-weight="bold" fill="#282727">
      <tspan x="157" y="304">space-around</tspan>
    </text>
    <text font-family="PTSans-Bold, PT Sans" font-size="17" font-weight="bold" fill="#282727">
      <tspan x="10" y="164">center</tspan>
    </text>
  </g>
</svg>
